<?xml version="1.0" encoding="UTF-8"?>
<svg id="Capa_2" data-name="Capa 2" xmlns="http://www.w3.org/2000/svg" viewBox="0 0 99.9 78.64">
  <defs>
    <style>
      .cls-1 {
        fill: #fff;
        stroke-width: 0px;
      }
    </style>
  </defs>
  <g id="Capa_1-2" data-name="Capa 1">
    <g>
      <polygon class="cls-1" points="99.9 41.31 79.48 62.19 90.54 41.31 99.9 41.31"/>
      <polygon class="cls-1" points="95.28 18.22 85.43 36.8 78.03 50.76 78.03 50.78 73.09 60.07 74.15 53.7 75.77 44.14 80.1 18.22 95.28 18.22"/>
      <path class="cls-1" d="M46.29,0L0,78.64h63.25l.82-4.93-2.57-2.57s-24.35-24.35-30.67-30.7c-1.84-1.84-.46-4.98,2.12-4.98h8.47c3.43,0,6.7,1.42,9.11,3.85,2.39,2.43,11.19,11.21,13.84,13.87.86.86,1.77,1.68,2.72,2.45l.95-5.64,3.74-22.27v-.02l2.1-12.54,2.54-15.17h-30.14ZM50.53,66.28l9.2,9.22c-10.02-1.75-18.38-4.36-18.38-4.36l-3.74-3.74s8.43.33,12.92-1.13Z"/>
    </g>
  </g>
</svg>