<?xml version="1.0" encoding="UTF-8"?>
<svg id="Capa_2" data-name="Capa 2" xmlns="http://www.w3.org/2000/svg" viewBox="0 0 111.78 88">
  <defs>
    <style>
      .cls-1 {
        fill: #f2f1f0;
        stroke-width: 0px;
      }
    </style>
  </defs>
  <g id="Capa_1-2" data-name="Capa 1">
    <g>
      <polygon class="cls-1" points="111.78 46.23 88.94 69.59 101.31 46.23 111.78 46.23"/>
      <polygon class="cls-1" points="106.61 20.39 95.59 41.18 87.3 56.79 87.3 56.82 81.79 67.21 82.97 60.08 84.78 49.39 89.63 20.39 106.61 20.39"/>
      <path class="cls-1" d="M51.79,0L0,88h70.77l.92-5.52-2.87-2.87s-27.25-27.25-34.32-34.35c-2.05-2.05-.52-5.57,2.38-5.57h9.48c3.84,0,7.5,1.58,10.2,4.31,2.67,2.72,12.52,12.55,15.49,15.52.97.97,1.98,1.88,3.04,2.75l1.06-6.31,4.18-24.92v-.02l2.35-14.03,2.85-16.98h-33.73ZM56.55,74.16l10.29,10.32c-11.21-1.96-20.56-4.88-20.56-4.88l-4.18-4.18s9.43.37,14.45-1.26Z"/>
    </g>
  </g>
</svg>