<?xml version="1.0" encoding="UTF-8"?>
<svg id="Capa_2" data-name="Capa 2" xmlns="http://www.w3.org/2000/svg" xmlns:xlink="http://www.w3.org/1999/xlink" viewBox="0 0 311.33 78.64">
  <defs>
    <style>
      .cls-1 {
        fill: url(#Degradado_sin_nombre_72);
      }

      .cls-1, .cls-2, .cls-3, .cls-4 {
        stroke-width: 0px;
      }

      .cls-2 {
        fill: url(#Degradado_sin_nombre_72-3);
      }

      .cls-3 {
        fill: #fff;
      }

      .cls-4 {
        fill: url(#Degradado_sin_nombre_72-2);
      }
    </style>
    <linearGradient id="Degradado_sin_nombre_72" data-name="Degradado sin nombre 72" x1="15.77" y1="127.88" x2="105.11" y2="30.54" gradientUnits="userSpaceOnUse">
      <stop offset="0" stop-color="#284fe3"/>
      <stop offset="1" stop-color="#19cd84"/>
    </linearGradient>
    <linearGradient id="Degradado_sin_nombre_72-2" data-name="Degradado sin nombre 72" x1="4.58" y1="117.61" x2="93.92" y2="20.27" xlink:href="#Degradado_sin_nombre_72"/>
    <linearGradient id="Degradado_sin_nombre_72-3" data-name="Degradado sin nombre 72" x1="-7.17" y1="106.81" x2="82.16" y2="9.48" xlink:href="#Degradado_sin_nombre_72"/>
  </defs>
  <g id="Capa_1-2" data-name="Capa 1">
    <g>
      <g>
        <path class="cls-3" d="M135.48,26.48c-.6,1.11-1.54,2.01-2.83,2.69-1.28.68-2.9,1.02-4.85,1.02h-3.99v9.13h-4.77V15.54h8.76c1.84,0,3.41.32,4.7.95s2.27,1.51,2.91,2.62c.65,1.11.97,2.37.97,3.78,0,1.27-.3,2.47-.9,3.58ZM130.52,25.44c.64-.6.95-1.45.95-2.54,0-2.32-1.29-3.48-3.88-3.48h-3.78v6.92h3.78c1.32,0,2.29-.3,2.93-.9Z"/>
        <path class="cls-3" d="M157.58,20.45v18.87h-4.8v-2.39c-.61.82-1.41,1.46-2.4,1.93-.99.47-2.06.7-3.22.7-1.48,0-2.78-.31-3.92-.94-1.14-.62-2.03-1.54-2.67-2.76-.65-1.22-.97-2.66-.97-4.34v-11.07h4.77v10.39c0,1.5.38,2.65,1.12,3.46.75.81,1.77,1.21,3.07,1.21s2.35-.4,3.1-1.21c.75-.81,1.12-1.96,1.12-3.46v-10.39h4.8Z"/>
        <path class="cls-3" d="M178.19,22.3c1.39,1.42,2.08,3.4,2.08,5.94v11.07h-4.77v-10.43c0-1.5-.38-2.65-1.12-3.46-.75-.81-1.77-1.21-3.07-1.21s-2.36.4-3.12,1.21c-.76.81-1.14,1.96-1.14,3.46v10.43h-4.77v-18.87h4.77v2.35c.64-.82,1.45-1.46,2.44-1.93.99-.47,2.07-.7,3.25-.7,2.25,0,4.07.71,5.45,2.13Z"/>
        <path class="cls-3" d="M190.35,24.36v9.13c0,.64.15,1.1.46,1.38.31.28.82.43,1.55.43h2.21v4.02h-3c-4.02,0-6.03-1.95-6.03-5.86v-9.1h-2.25v-3.92h2.25v-4.67h4.8v4.67h4.23v3.92h-4.23Z"/>
        <path class="cls-3" d="M197.93,24.74c.76-1.48,1.79-2.61,3.1-3.41,1.31-.8,2.76-1.19,4.38-1.19,1.41,0,2.64.28,3.7.85s1.9,1.28,2.54,2.15v-2.69h4.8v18.87h-4.8v-2.76c-.61.89-1.46,1.62-2.54,2.2-1.08.58-2.32.87-3.73.87-1.59,0-3.04-.41-4.34-1.23-1.31-.82-2.34-1.97-3.1-3.46-.76-1.49-1.14-3.2-1.14-5.13s.38-3.6,1.14-5.08ZM210.96,26.9c-.45-.83-1.07-1.47-1.84-1.91-.77-.44-1.6-.66-2.49-.66s-1.7.22-2.45.65-1.36,1.06-1.82,1.89-.7,1.81-.7,2.95.23,2.13.7,2.98,1.08,1.51,1.84,1.96c.76.45,1.57.68,2.44.68s1.71-.22,2.49-.66c.77-.44,1.38-1.08,1.84-1.91.45-.83.68-1.82.68-2.98s-.23-2.15-.68-2.98Z"/>
        <path class="cls-3" d="M221.54,21.11c1.06-1.85,2.5-3.29,4.33-4.33,1.83-1.03,3.88-1.55,6.15-1.55,2.66,0,4.99.68,6.99,2.04,2,1.36,3.4,3.25,4.19,5.66h-5.49c-.55-1.14-1.31-1.99-2.3-2.55s-2.13-.85-3.42-.85c-1.39,0-2.62.32-3.7.97-1.08.65-1.92,1.56-2.52,2.74-.6,1.18-.9,2.57-.9,4.16s.3,2.95.9,4.14c.6,1.19,1.44,2.11,2.52,2.76,1.08.65,2.31.97,3.7.97,1.29,0,2.44-.29,3.42-.87s1.75-1.44,2.3-2.57h5.49c-.8,2.43-2.19,4.32-4.17,5.67-1.99,1.35-4.32,2.03-7,2.03-2.27,0-4.32-.52-6.15-1.55-1.83-1.03-3.27-2.47-4.33-4.31-1.06-1.84-1.58-3.93-1.58-6.27s.53-4.43,1.58-6.29Z"/>
        <path class="cls-3" d="M247.2,24.74c.76-1.48,1.8-2.61,3.1-3.41s2.76-1.19,4.38-1.19c1.41,0,2.64.28,3.7.85,1.06.57,1.9,1.28,2.54,2.15v-2.69h4.8v18.87h-4.8v-2.76c-.61.89-1.46,1.62-2.54,2.2-1.08.58-2.32.87-3.73.87-1.59,0-3.04-.41-4.34-1.23s-2.34-1.97-3.1-3.46c-.76-1.49-1.14-3.2-1.14-5.13s.38-3.6,1.14-5.08ZM260.23,26.9c-.45-.83-1.07-1.47-1.84-1.91s-1.6-.66-2.49-.66-1.7.22-2.45.65-1.36,1.06-1.82,1.89c-.47.83-.7,1.81-.7,2.95s.23,2.13.7,2.98c.46.85,1.08,1.51,1.84,1.96.76.45,1.57.68,2.44.68s1.72-.22,2.49-.66c.77-.44,1.38-1.08,1.84-1.91.45-.83.68-1.82.68-2.98s-.23-2.15-.68-2.98Z"/>
        <path class="cls-3" d="M286.29,22.3c1.38,1.42,2.08,3.4,2.08,5.94v11.07h-4.77v-10.43c0-1.5-.37-2.65-1.12-3.46-.75-.81-1.77-1.21-3.07-1.21s-2.36.4-3.12,1.21c-.76.81-1.14,1.96-1.14,3.46v10.43h-4.77v-18.87h4.77v2.35c.64-.82,1.45-1.46,2.44-1.93.99-.47,2.07-.7,3.25-.7,2.25,0,4.07.71,5.45,2.13Z"/>
        <path class="cls-3" d="M292.82,24.74c.76-1.48,1.79-2.61,3.1-3.41,1.31-.8,2.76-1.19,4.38-1.19,1.41,0,2.64.28,3.7.85,1.06.57,1.9,1.28,2.54,2.15v-2.69h4.8v18.87h-4.8v-2.76c-.61.89-1.46,1.62-2.54,2.2-1.08.58-2.32.87-3.73.87-1.59,0-3.04-.41-4.34-1.23-1.31-.82-2.34-1.97-3.1-3.46-.76-1.49-1.14-3.2-1.14-5.13s.38-3.6,1.14-5.08ZM305.85,26.9c-.45-.83-1.07-1.47-1.84-1.91s-1.6-.66-2.49-.66-1.7.22-2.45.65-1.36,1.06-1.82,1.89c-.47.83-.7,1.81-.7,2.95s.23,2.13.7,2.98c.46.85,1.08,1.51,1.84,1.96.76.45,1.57.68,2.44.68s1.72-.22,2.49-.66c.77-.44,1.38-1.08,1.84-1.91.45-.83.68-1.82.68-2.98s-.23-2.15-.68-2.98Z"/>
        <path class="cls-3" d="M126.21,59.67h-5.92l-1.09,3.02h-1.87l4.91-13.49h2.05l4.89,13.49h-1.87l-1.09-3.02ZM125.71,58.23l-2.45-6.85-2.45,6.85h4.91Z"/>
        <path class="cls-3" d="M131.37,49.93c-.23-.23-.35-.52-.35-.86s.12-.62.35-.86c.23-.23.52-.35.86-.35s.6.12.83.35.34.52.34.86-.11.62-.34.86-.5.35-.83.35-.62-.12-.86-.35ZM133.08,52.02v10.67h-1.77v-10.67h1.77Z"/>
        <path class="cls-3" d="M139.21,52.33c.58-.34,1.28-.51,2.11-.51v1.83h-.47c-1.99,0-2.98,1.08-2.98,3.23v5.8h-1.77v-10.67h1.77v1.73c.31-.61.76-1.08,1.33-1.42Z"/>
        <path class="cls-3" d="M146.7,52.45c.69-.41,1.5-.61,2.42-.61s1.81.23,2.58.68c.77.45,1.38,1.09,1.82,1.92.44.82.66,1.78.66,2.87s-.22,2.04-.66,2.88c-.44.84-1.05,1.5-1.82,1.97-.77.47-1.63.7-2.58.7s-1.71-.2-2.41-.61-1.22-.92-1.59-1.53v7.03h-1.77v-15.73h1.77v1.97c.35-.61.87-1.12,1.57-1.53ZM151.89,55.21c-.32-.6-.76-1.05-1.32-1.36-.55-.31-1.16-.47-1.82-.47s-1.25.16-1.8.48c-.55.32-.99.78-1.32,1.38s-.5,1.3-.5,2.09.16,1.51.5,2.11.77,1.06,1.32,1.38c.55.32,1.15.48,1.8.48s1.27-.16,1.82-.48c.55-.32.99-.78,1.32-1.38.32-.6.49-1.32.49-2.13s-.16-1.51-.49-2.1Z"/>
        <path class="cls-3" d="M158.46,62.18c-.81-.45-1.45-1.1-1.91-1.94-.46-.84-.69-1.81-.69-2.91s.24-2.05.71-2.89c.47-.84,1.12-1.48,1.94-1.93s1.73-.67,2.75-.67,1.93.22,2.75.67c.82.45,1.46,1.09,1.94,1.92s.71,1.8.71,2.9-.24,2.07-.73,2.91c-.49.84-1.15,1.48-1.98,1.94-.83.45-1.75.68-2.76.68s-1.91-.23-2.72-.68ZM162.97,60.86c.56-.3,1.01-.75,1.35-1.34s.52-1.32.52-2.18-.17-1.58-.51-2.18c-.34-.6-.78-1.04-1.32-1.33-.55-.29-1.14-.44-1.77-.44s-1.24.15-1.78.44c-.54.29-.97.74-1.29,1.33-.32.6-.49,1.32-.49,2.18s.16,1.6.48,2.2.74,1.04,1.28,1.33,1.12.44,1.75.44,1.23-.15,1.79-.45Z"/>
        <path class="cls-3" d="M172.09,52.33c.58-.34,1.28-.51,2.11-.51v1.83h-.47c-1.99,0-2.98,1.08-2.98,3.23v5.8h-1.77v-10.67h1.77v1.73c.31-.61.76-1.08,1.33-1.42Z"/>
        <path class="cls-3" d="M178.41,53.48v6.29c0,.52.11.89.33,1.1s.6.32,1.15.32h1.31v1.5h-1.6c-.99,0-1.73-.23-2.22-.68s-.74-1.2-.74-2.24v-6.29h-1.38v-1.46h1.38v-2.69h1.77v2.69h2.79v1.46h-2.79Z"/>
        <path class="cls-3" d="M183.04,62.45c-.23-.23-.35-.52-.35-.86s.12-.62.35-.86.52-.35.86-.35.6.12.83.35c.23.23.34.52.34.86s-.11.62-.34.86c-.23.23-.5.35-.83.35s-.62-.12-.86-.35Z"/>
        <path class="cls-3" d="M187.42,54.44c.44-.82,1.05-1.46,1.84-1.92.79-.45,1.68-.68,2.7-.68,1.31,0,2.39.32,3.24.95.85.64,1.41,1.52,1.68,2.65h-1.91c-.18-.65-.54-1.16-1.06-1.54-.53-.38-1.18-.56-1.96-.56-1.01,0-1.83.35-2.45,1.04-.62.69-.93,1.68-.93,2.95s.31,2.28.93,2.98c.62.7,1.44,1.05,2.45,1.05.78,0,1.43-.18,1.95-.55.52-.36.88-.88,1.07-1.56h1.91c-.29,1.09-.86,1.96-1.71,2.62-.86.66-1.93.98-3.21.98-1.01,0-1.91-.23-2.7-.68-.79-.45-1.4-1.1-1.84-1.93-.44-.83-.66-1.8-.66-2.92s.22-2.07.66-2.89Z"/>
        <path class="cls-3" d="M201.17,62.18c-.81-.45-1.45-1.1-1.91-1.94-.46-.84-.69-1.81-.69-2.91s.24-2.05.71-2.89c.47-.84,1.12-1.48,1.94-1.93s1.73-.67,2.74-.67,1.93.22,2.75.67,1.46,1.09,1.94,1.92.71,1.8.71,2.9-.24,2.07-.73,2.91c-.49.84-1.15,1.48-1.98,1.94-.83.45-1.75.68-2.76.68s-1.9-.23-2.72-.68ZM205.68,60.86c.56-.3,1.01-.75,1.35-1.34s.51-1.32.51-2.18-.17-1.58-.51-2.18c-.34-.6-.78-1.04-1.32-1.33-.55-.29-1.14-.44-1.77-.44s-1.24.15-1.78.44c-.54.29-.97.74-1.29,1.33-.32.6-.49,1.32-.49,2.18s.16,1.6.48,2.2c.32.6.74,1.04,1.28,1.33s1.12.44,1.75.44,1.23-.15,1.79-.45Z"/>
        <path class="cls-3" d="M226.75,52.34c.65.34,1.16.86,1.54,1.55.38.69.57,1.52.57,2.51v6.29h-1.75v-6.04c0-1.06-.26-1.88-.79-2.44-.53-.56-1.24-.85-2.13-.85s-1.66.3-2.2.89c-.55.59-.82,1.44-.82,2.56v5.88h-1.75v-6.04c0-1.06-.26-1.88-.79-2.44-.52-.56-1.24-.85-2.13-.85s-1.66.3-2.2.89c-.55.59-.82,1.44-.82,2.56v5.88h-1.77v-10.67h1.77v1.54c.35-.56.82-.99,1.41-1.28s1.24-.45,1.96-.45c.9,0,1.69.2,2.37.6.69.4,1.2.99,1.54,1.77.3-.75.79-1.34,1.48-1.75.69-.42,1.45-.62,2.3-.62s1.57.17,2.22.52Z"/>
      </g>
      <g>
        <polygon class="cls-1" points="99.9 41.31 79.48 62.19 90.54 41.31 99.9 41.31"/>
        <polygon class="cls-4" points="95.28 18.22 85.43 36.8 78.03 50.76 78.03 50.78 73.09 60.07 74.15 53.7 75.77 44.14 80.1 18.22 95.28 18.22"/>
        <path class="cls-2" d="M46.29,0L0,78.64h63.25l.82-4.93-2.57-2.57s-24.35-24.35-30.67-30.7c-1.84-1.84-.46-4.98,2.12-4.98h8.47c3.43,0,6.7,1.42,9.11,3.85,2.39,2.43,11.19,11.21,13.84,13.87.86.86,1.77,1.68,2.72,2.45l.95-5.64,3.74-22.27v-.02l2.1-12.54,2.54-15.17h-30.14ZM50.53,66.28l9.2,9.22c-10.02-1.75-18.38-4.36-18.38-4.36l-3.74-3.74s8.43.33,12.92-1.13Z"/>
      </g>
    </g>
  </g>
</svg>