<?xml version="1.0" encoding="UTF-8"?>
<svg id="Capa_2" data-name="Capa 2" xmlns="http://www.w3.org/2000/svg" viewBox="0 0 351.74 88">
  <defs>
    <style>
      .cls-1 {
        fill: #f2f1f0;
        stroke-width: 0px;
      }
    </style>
  </defs>
  <g id="Capa_1-2" data-name="Capa 1">
    <g>
      <g>
        <polygon class="cls-1" points="111.78 46.23 88.94 69.59 101.31 46.23 111.78 46.23"/>
        <polygon class="cls-1" points="106.61 20.39 95.59 41.18 87.3 56.79 87.3 56.82 81.79 67.21 82.97 60.08 84.78 49.39 89.63 20.39 106.61 20.39"/>
        <path class="cls-1" d="M51.79,0L0,88h70.77l.92-5.52-2.87-2.87s-27.25-27.25-34.32-34.35c-2.05-2.05-.52-5.57,2.38-5.57h9.48c3.84,0,7.5,1.58,10.2,4.31,2.67,2.72,12.52,12.55,15.49,15.52.97.97,1.98,1.88,3.04,2.75l1.06-6.31,4.18-24.92v-.02l2.35-14.03,2.85-16.98h-33.73ZM56.55,74.16l10.29,10.32c-11.21-1.96-20.56-4.88-20.56-4.88l-4.18-4.18s9.43.37,14.45-1.26Z"/>
      </g>
      <g>
        <g>
          <path class="cls-1" d="M139.48,21.2c1.69-2.96,3.99-5.26,6.91-6.91,2.92-1.65,6.19-2.48,9.82-2.48,4.24,0,7.96,1.09,11.16,3.27,3.19,2.18,5.42,5.19,6.69,9.03h-8.76c-.87-1.81-2.1-3.17-3.67-4.08-1.58-.91-3.4-1.36-5.47-1.36-2.21,0-4.18.52-5.9,1.55-1.72,1.03-3.07,2.49-4.03,4.38-.96,1.89-1.44,4.1-1.44,6.64s.48,4.71,1.44,6.61c.96,1.9,2.3,3.37,4.03,4.41,1.72,1.03,3.69,1.55,5.9,1.55,2.07,0,3.89-.46,5.47-1.39,1.58-.93,2.8-2.29,3.67-4.11h8.76c-1.27,3.88-3.49,6.9-6.67,9.06-3.18,2.16-6.9,3.24-11.18,3.24-3.63,0-6.9-.83-9.82-2.48-2.92-1.65-5.22-3.95-6.91-6.88-1.69-2.94-2.53-6.28-2.53-10.01s.84-7.08,2.53-10.04Z"/>
          <path class="cls-1" d="M180.46,26.99c1.22-2.36,2.87-4.17,4.95-5.44,2.09-1.27,4.42-1.9,6.99-1.9,2.25,0,4.22.45,5.9,1.36,1.69.91,3.04,2.05,4.05,3.43v-4.3h7.67v30.15h-7.67v-4.41c-.98,1.42-2.33,2.58-4.05,3.51-1.72.93-3.71,1.39-5.96,1.39-2.54,0-4.85-.65-6.94-1.96-2.09-1.31-3.74-3.15-4.95-5.52-1.22-2.38-1.82-5.11-1.82-8.19s.61-5.75,1.82-8.11ZM201.28,30.45c-.73-1.32-1.71-2.34-2.94-3.05-1.23-.71-2.56-1.06-3.97-1.06s-2.72.35-3.92,1.03c-1.2.69-2.17,1.7-2.91,3.02-.74,1.32-1.12,2.89-1.12,4.71s.37,3.4,1.12,4.76c.74,1.36,1.72,2.4,2.94,3.13,1.22.73,2.51,1.09,3.89,1.09s2.74-.35,3.97-1.06c1.23-.71,2.21-1.72,2.94-3.05.73-1.32,1.09-2.91,1.09-4.76s-.36-3.44-1.09-4.76Z"/>
          <path class="cls-1" d="M242.91,23.1c2.21,2.27,3.32,5.43,3.32,9.5v17.69h-7.62v-16.65c0-2.39-.6-4.24-1.8-5.52-1.2-1.29-2.83-1.93-4.9-1.93s-3.76.64-4.98,1.93c-1.22,1.29-1.82,3.13-1.82,5.52v16.65h-7.62v-30.15h7.62v3.76c1.02-1.31,2.31-2.33,3.89-3.07,1.58-.74,3.31-1.12,5.2-1.12,3.59,0,6.49,1.13,8.71,3.4Z"/>
          <path class="cls-1" d="M253.42,27.02c1.27-2.34,3.03-4.15,5.28-5.44,2.25-1.29,4.83-1.93,7.73-1.93,3.74,0,6.83.93,9.28,2.8,2.45,1.87,4.09,4.49,4.93,7.86h-8.22c-.44-1.31-1.17-2.33-2.2-3.07-1.03-.74-2.31-1.12-3.84-1.12-2.18,0-3.9.79-5.17,2.37-1.27,1.58-1.9,3.82-1.9,6.72s.63,5.09,1.9,6.67c1.27,1.58,2.99,2.37,5.17,2.37,3.08,0,5.1-1.38,6.04-4.14h8.22c-.84,3.27-2.49,5.86-4.95,7.78-2.47,1.92-5.55,2.88-9.25,2.88-2.9,0-5.48-.64-7.73-1.93-2.25-1.29-4.01-3.1-5.28-5.44-1.27-2.34-1.9-5.07-1.9-8.19s.63-5.85,1.9-8.19Z"/>
          <path class="cls-1" d="M314.7,20.13v30.15h-7.67v-3.81c-.98,1.31-2.26,2.33-3.84,3.07s-3.29,1.12-5.14,1.12c-2.36,0-4.44-.5-6.26-1.5-1.81-1-3.24-2.47-4.27-4.41-1.03-1.94-1.55-4.25-1.55-6.94v-17.69h7.62v16.6c0,2.39.6,4.24,1.8,5.52,1.2,1.29,2.83,1.93,4.9,1.93s3.76-.64,4.95-1.93c1.2-1.29,1.8-3.13,1.8-5.52v-16.6h7.67Z"/>
          <path class="cls-1" d="M347.62,23.1c2.21,2.27,3.32,5.43,3.32,9.5v17.69h-7.62v-16.65c0-2.39-.6-4.24-1.8-5.52-1.2-1.29-2.83-1.93-4.9-1.93s-3.76.64-4.98,1.93c-1.22,1.29-1.82,3.13-1.82,5.52v16.65h-7.62v-30.15h7.62v3.76c1.02-1.31,2.31-2.33,3.89-3.07,1.58-.74,3.31-1.12,5.2-1.12,3.59,0,6.49,1.13,8.71,3.4Z"/>
        </g>
        <g>
          <path class="cls-1" d="M138.57,62.78v12.65h-1.65v-12.65h1.65Z"/>
          <path class="cls-1" d="M151.33,75.43h-1.65l-6.64-10.07v10.07h-1.65v-12.67h1.65l6.64,10.06v-10.06h1.65v12.67Z"/>
          <path class="cls-1" d="M161.93,62.78v1.34h-3.45v11.31h-1.65v-11.31h-3.47v-1.34h8.57Z"/>
          <path class="cls-1" d="M165.62,64.13v4.23h4.61v1.36h-4.61v4.36h5.16v1.36h-6.81v-12.67h6.81v1.36h-5.16Z"/>
          <path class="cls-1" d="M179.94,75.43l-3.01-5.17h-2v5.17h-1.65v-12.65h4.08c.96,0,1.76.16,2.42.49.66.33,1.15.77,1.48,1.33.33.56.49,1.19.49,1.91,0,.87-.25,1.64-.75,2.31-.5.67-1.26,1.11-2.26,1.33l3.18,5.3h-1.98ZM174.93,68.94h2.43c.9,0,1.57-.22,2.01-.66.45-.44.67-1.03.67-1.77s-.22-1.33-.66-1.74c-.44-.41-1.12-.62-2.02-.62h-2.43v4.79Z"/>
          <path class="cls-1" d="M194.26,75.43h-1.65l-6.64-10.07v10.07h-1.65v-12.67h1.65l6.64,10.06v-10.06h1.65v12.67Z"/>
          <path class="cls-1" d="M204.56,72.62h-5.52l-1.02,2.81h-1.74l4.57-12.58h1.91l4.56,12.58h-1.74l-1.02-2.81ZM204.08,71.28l-2.29-6.39-2.29,6.39h4.57Z"/>
          <path class="cls-1" d="M217.1,62.78v1.34h-3.45v11.31h-1.65v-11.31h-3.47v-1.34h8.57Z"/>
          <path class="cls-1" d="M220.78,62.78v12.65h-1.65v-12.65h1.65Z"/>
          <path class="cls-1" d="M226.12,74.74c-.97-.55-1.73-1.32-2.3-2.31-.56-.99-.84-2.1-.84-3.33s.28-2.34.84-3.33c.56-.99,1.33-1.75,2.3-2.31.97-.55,2.04-.83,3.21-.83s2.26.28,3.23.83c.97.55,1.73,1.32,2.29,2.3.56.98.84,2.09.84,3.34s-.28,2.36-.84,3.34c-.56.98-1.32,1.75-2.29,2.3-.97.55-2.05.83-3.23.83s-2.25-.28-3.21-.83ZM231.72,73.51c.71-.41,1.26-1,1.67-1.76.41-.76.61-1.65.61-2.65s-.2-1.9-.61-2.66c-.41-.76-.96-1.34-1.66-1.75-.7-.41-1.5-.62-2.4-.62s-1.69.21-2.4.62c-.7.41-1.26,1-1.66,1.75-.41.76-.61,1.64-.61,2.66s.2,1.89.61,2.65c.41.76.96,1.35,1.67,1.76.71.41,1.5.62,2.39.62s1.68-.21,2.39-.62Z"/>
          <path class="cls-1" d="M247.81,75.43h-1.65l-6.64-10.07v10.07h-1.65v-12.67h1.65l6.64,10.06v-10.06h1.65v12.67Z"/>
          <path class="cls-1" d="M258.11,72.62h-5.52l-1.02,2.81h-1.74l4.57-12.58h1.91l4.56,12.58h-1.74l-1.02-2.81ZM257.63,71.28l-2.29-6.39-2.29,6.39h4.57Z"/>
          <path class="cls-1" d="M264.51,74.09h4.43v1.34h-6.08v-12.65h1.65v11.31Z"/>
          <path class="cls-1" d="M287.88,72.62h-5.52l-1.02,2.81h-1.74l4.57-12.58h1.91l4.56,12.58h-1.74l-1.02-2.81ZM287.4,71.28l-2.29-6.39-2.29,6.39h4.57Z"/>
          <path class="cls-1" d="M294.28,62.78v12.65h-1.65v-12.65h1.65Z"/>
          <path class="cls-1" d="M303.76,75.43l-3.01-5.17h-2v5.17h-1.65v-12.65h4.08c.96,0,1.76.16,2.42.49.66.33,1.15.77,1.48,1.33.33.56.49,1.19.49,1.91,0,.87-.25,1.64-.75,2.31-.5.67-1.26,1.11-2.26,1.33l3.18,5.3h-1.98ZM298.75,68.94h2.43c.9,0,1.57-.22,2.01-.66.45-.44.67-1.03.67-1.77s-.22-1.33-.66-1.74c-.44-.41-1.12-.62-2.02-.62h-2.43v4.79Z"/>
          <path class="cls-1" d="M315.51,69.11c-.72.7-1.82,1.04-3.29,1.04h-2.43v5.28h-1.65v-12.65h4.08c1.43,0,2.51.34,3.26,1.03.74.69,1.12,1.58,1.12,2.67s-.36,1.93-1.08,2.62ZM314.25,68.19c.44-.4.65-.97.65-1.71,0-1.56-.9-2.34-2.69-2.34h-2.43v4.65h2.43c.92,0,1.6-.2,2.03-.6Z"/>
          <path class="cls-1" d="M321.17,74.74c-.97-.55-1.73-1.32-2.3-2.31-.56-.99-.84-2.1-.84-3.33s.28-2.34.84-3.33c.56-.99,1.33-1.75,2.3-2.31.97-.55,2.04-.83,3.21-.83s2.26.28,3.23.83c.97.55,1.73,1.32,2.29,2.3.56.98.84,2.09.84,3.34s-.28,2.36-.84,3.34c-.56.98-1.32,1.75-2.29,2.3-.97.55-2.05.83-3.23.83s-2.25-.28-3.21-.83ZM326.77,73.51c.71-.41,1.26-1,1.67-1.76.41-.76.61-1.65.61-2.65s-.2-1.9-.61-2.66c-.41-.76-.96-1.34-1.66-1.75-.7-.41-1.5-.62-2.4-.62s-1.69.21-2.4.62c-.7.41-1.26,1-1.66,1.75-.41.76-.61,1.64-.61,2.66s.2,1.89.61,2.65c.41.76.96,1.35,1.67,1.76.71.41,1.5.62,2.39.62s1.68-.21,2.39-.62Z"/>
          <path class="cls-1" d="M339.57,75.43l-3.01-5.17h-2v5.17h-1.65v-12.65h4.08c.96,0,1.76.16,2.42.49.66.33,1.15.77,1.48,1.33.33.56.49,1.19.49,1.91,0,.87-.25,1.64-.75,2.31-.5.67-1.26,1.11-2.26,1.33l3.18,5.3h-1.98ZM334.56,68.94h2.43c.9,0,1.57-.22,2.01-.66.45-.44.67-1.03.67-1.77s-.22-1.33-.66-1.74c-.44-.41-1.12-.62-2.02-.62h-2.43v4.79Z"/>
          <path class="cls-1" d="M351.74,62.78v1.34h-3.45v11.31h-1.65v-11.31h-3.47v-1.34h8.57Z"/>
        </g>
      </g>
    </g>
  </g>
</svg>