<svg width="191" height="184" viewBox="0 0 191 184" fill="none" xmlns="http://www.w3.org/2000/svg">
<g clip-path="url(#clip0_452_13821)">
<g opacity="0.59">
<path d="M56.0311 32.8403C51.5507 32.3615 47.504 35.6273 47.025 40.1083L34.1738 160.344C33.6948 164.825 36.96 168.873 41.4403 169.352L114.022 177.109L115.731 161.121C116.486 154.059 122.83 148.972 129.855 149.723L147.562 151.615L158.21 51.9921C158.689 47.511 155.423 43.4637 150.943 42.9848L56.0311 32.8403ZM129.934 116.084L61.1158 108.728L61.7136 103.136L130.532 110.491L129.934 116.084ZM132.03 96.4745L63.2117 89.119L63.8094 83.5266L132.628 90.8821L132.03 96.4745ZM134.122 76.9012L65.3038 69.5457L65.9053 63.9174L134.724 71.273L134.122 76.9012Z" fill="#4256BB"/>
<path d="M120.391 161.618L119.012 174.524L143.591 155.867L129.397 154.35C124.881 153.867 120.87 157.137 120.391 161.618Z" fill="#3749A7"/>
</g>
</g>
<path d="M35.5685 109.678L21.1482 108.137C21.5797 104.481 22.2167 101.376 23.0593 98.8214C23.9421 96.2713 25.1791 94.0235 26.7703 92.0781C28.3657 90.0924 30.4482 88.118 33.0176 86.1551C35.0528 84.6232 36.8761 83.1704 38.4876 81.7967C40.1435 80.387 41.4841 78.8826 42.5094 77.2835C43.539 75.6442 44.1698 73.7384 44.402 71.5663C44.6643 69.1127 44.4813 67.0183 43.8531 65.2831C43.2651 63.5522 42.252 62.1828 40.8138 61.1747C39.4201 60.1307 37.5969 59.4883 35.3444 59.2475C33.4941 59.0498 31.7035 59.2449 29.9726 59.8329C28.2418 60.4208 26.7875 61.4656 25.61 62.9671C24.4367 64.4283 23.6744 66.4217 23.3231 68.9472L7.33408 67.2382C8.01796 61.9818 9.73352 57.7307 12.4808 54.4848C15.2323 51.1988 18.7117 48.9059 22.919 47.6062C27.1306 46.2663 31.7302 45.8629 36.718 46.396C42.2287 46.985 46.836 48.4131 50.54 50.6805C54.2885 52.9119 57.0014 55.887 58.6788 59.6057C60.3964 63.3288 60.9908 67.6641 60.462 72.6116C60.0836 76.1513 59.0602 79.2559 57.3916 81.9254C55.7274 84.5547 53.64 86.9557 51.1295 89.1284C48.619 91.301 45.9253 93.4745 43.0485 95.6487C40.5365 97.4551 38.7535 99.4817 37.6997 101.729C36.6459 103.976 35.9355 106.626 35.5685 109.678ZM17.6342 126.74C17.8922 124.327 18.9116 122.402 20.6925 120.965C22.5137 119.532 24.812 118.964 27.5874 119.261C30.3629 119.557 32.4691 120.596 33.9061 122.377C35.3833 124.162 35.9929 126.262 35.735 128.675C35.4856 131.008 34.4504 132.891 32.6292 134.324C30.8483 135.76 28.5701 136.331 25.7946 136.034C23.0192 135.737 20.8929 134.696 19.4156 132.911C17.9787 131.13 17.3848 129.073 17.6342 126.74Z" fill="white"/>
<defs>
<clipPath id="clip0_452_13821">
<rect x="47.8931" y="31.9766" width="143.611" height="137.289" rx="16.3327" transform="rotate(6.1008 47.8931 31.9766)" fill="white"/>
</clipPath>
</defs>
</svg>
