<!DOCTYPE svg PUBLIC "-//W3C//DTD SVG 1.1//EN" "http://www.w3.org/Graphics/SVG/1.1/DTD/svg11.dtd">

<svg fill="#297da9" height="800px" width="800px" version="1.1" id="Layer_1" xmlns="http://www.w3.org/2000/svg" xmlns:xlink="http://www.w3.org/1999/xlink" viewBox="0 0 512 512" xml:space="preserve" stroke="#297da9">

<g id="SVGRepo_bgCarrier" stroke-width="0"/>

<g id="SVGRepo_tracerCarrier" stroke-linecap="round" stroke-linejoin="round"/>

<g id="SVGRepo_iconCarrier"> <g> <g> <path d="M256,0C145.889,0,56.299,89.088,56.299,198.604v227.84c0,31.493,25.736,57.114,57.365,57.114h78.618 C198.614,500.172,214.716,512,233.524,512h44.952c24.325,0,44.116-19.79,44.116-44.116c0-24.325-19.79-44.126-44.116-44.126 h-44.951c-18.808,0-34.91,11.839-41.242,28.453h-78.618c-14.346,0-26.018-11.557-26.018-25.767v-18.651 c11.141,4.369,14.97,3.385,62.777,3.385c8.662,0,15.673-7.022,15.673-15.673V253.868c0-8.662-7.011-15.673-15.673-15.673 c-47.734,0-51.614-0.992-62.777,3.385v-42.977c0-92.223,75.525-167.257,168.354-167.257s168.354,75.034,168.354,167.257v42.987 c-11.148-4.393-15.087-3.396-62.788-3.396c-8.652,0-15.673,7.011-15.673,15.673v141.636c0,8.652,7.022,15.673,15.673,15.673 h44.816c27.188,0,49.309-22.12,49.309-49.309c0-4.111,0.01-49.003,0.01-163.265C455.701,89.088,366.111,0,256,0z"/> </g> </g> </g>

</svg>