<svg width="32" height="32" viewBox="0 0 32 32" fill="none" xmlns="http://www.w3.org/2000/svg">
<g clip-path="url(#clip0_1151_11179)">
<rect width="32" height="32" rx="6" fill="#1434CB"/>
<g clip-path="url(#clip1_1151_11179)">
<path d="M-1 -0.665039H32.3279V17.327L30.6773 19.903L32.3279 22.1984V32.6628H-1V15.7032L0.0324119 14.5171L-1 13.3845V-0.665039Z" fill="#016FD0"/>
<path d="M5.4668 22.5584V17.3262H11.0097L11.6045 18.1013L12.2192 17.3262H32.3262V22.1976C32.3262 22.1976 31.8017 22.5517 31.1936 22.5584H20.0576L19.386 21.7331V22.5584H17.1909V21.1518C17.1909 21.1518 16.8902 21.3489 16.242 21.3489H15.4936V22.5617H12.1691L11.5744 21.7699L10.973 22.5617H5.4668V22.5584Z" fill="white"/>
<path d="M-1 13.3852L0.249586 10.4717H2.4113L3.11962 12.1022V10.4717H5.8059L6.22688 11.6511L6.6345 10.4717H18.6927V11.0631C18.6927 11.0631 19.3275 10.4717 20.3666 10.4717L24.2791 10.485L24.9774 12.0955V10.4717H27.2259L27.844 11.3972V10.4717H30.1127V15.7039H27.844L27.2527 14.7751V15.7039H23.9516L23.6208 14.8786H22.7321L22.4047 15.7039H20.1661C19.2707 15.7039 18.696 15.1225 18.696 15.1225V15.7039H15.3148L14.6432 14.8786V15.7039H2.09055L1.75978 14.8786H0.874379L0.543606 15.7039H-1V13.3852Z" fill="white"/>
<path d="M0.689793 11.1162L-0.994141 15.0354H0.101753L0.412479 14.2502H2.22003L2.53076 15.0354H3.65338L1.96945 11.1162H0.689793ZM1.31459 12.0283L1.86587 13.3982H0.763298L1.31459 12.0283Z" fill="#016FD0"/>
<path d="M3.76953 15.0354V11.1162L5.32984 11.1229L6.23529 13.6488L7.12069 11.1162H8.66764V15.0354H7.68869V12.1486L6.64959 15.0354H5.79092L4.74849 12.1486V15.0354H3.76953Z" fill="#016FD0"/>
<path d="M9.33594 15.0354V11.1162H12.5334V11.9916H10.3283V12.6632H12.4799V13.4884H10.3249V14.1834H12.5301V15.0354H9.33594Z" fill="#016FD0"/>
<path d="M13.0977 11.1162V15.0354H14.0766V13.6421H14.4876L15.6637 15.0354H16.8598L15.5701 13.592C16.098 13.5486 16.6459 13.0942 16.6459 12.3892C16.6459 11.5639 15.9978 11.1196 15.2761 11.1196L13.0977 11.1162ZM14.0766 11.9949H15.1959C15.4632 11.9949 15.6603 12.2054 15.6603 12.4059C15.6603 12.6665 15.4064 12.8169 15.2093 12.8169H14.0766V11.9949Z" fill="#016FD0"/>
<path d="M18.0478 15.0354H17.0488V11.1162H18.0478V15.0354Z" fill="#016FD0"/>
<path d="M20.4198 15.0369H20.2026C19.1569 15.0369 18.5254 14.215 18.5254 13.0957C18.5254 11.9497 19.1535 11.1211 20.4699 11.1211H21.5525V12.0499H20.4332C19.8986 12.0499 19.5177 12.4676 19.5177 13.1057C19.5177 13.8642 19.9521 14.1816 20.5735 14.1816H20.8308L20.4198 15.0369Z" fill="#016FD0"/>
<path d="M22.5531 11.1162L20.8691 15.0354H21.965L22.2758 14.2502H24.0833L24.394 15.0354H25.5133L23.8294 11.1162H22.5531ZM23.1745 12.0283L23.7258 13.3982H22.6232L23.1745 12.0283Z" fill="#016FD0"/>
<path d="M25.627 15.0354V11.1162H26.8732L28.4636 13.5786V11.1162H29.4425V15.0354H28.2364L26.6059 12.5095V15.0354H25.627Z" fill="#016FD0"/>
<path d="M6.14258 21.8908V17.9717H9.34005V18.8471H7.1349V19.5186H9.28993V20.3439H7.1349V21.0388H9.34005V21.8908H6.14258Z" fill="#016FD0"/>
<path d="M21.7988 21.8908V17.9717H24.9963V18.8471H22.7911V19.5186H24.9362V20.3439H22.7911V21.0388H24.9963V21.8908H21.7988Z" fill="#016FD0"/>
<path d="M9.45863 21.8908L11.0156 19.9563L9.42188 17.9717H10.6548L11.6036 19.1979L12.5559 17.9717H13.742L12.1683 19.9296L13.7286 21.8875H12.4957L11.5736 20.6813L10.6748 21.8875L9.45863 21.8908Z" fill="#016FD0"/>
<path d="M13.8516 17.9717V21.8908H14.8572V20.6546H15.8897C16.7617 20.6546 17.4232 20.1902 17.4232 19.2914C17.4232 18.5464 16.9054 17.975 16.0166 17.975H13.8516V17.9717ZM14.8572 18.8604H15.9431C16.2238 18.8604 16.4276 19.0342 16.4276 19.3115C16.4276 19.5721 16.2271 19.7625 15.9398 19.7625H14.8572V18.8604Z" fill="#016FD0"/>
<path d="M17.8398 17.9717V21.8908H18.8188V20.4976H19.2298L20.4058 21.8908H21.602L20.3123 20.4475C20.8402 20.404 21.3881 19.9496 21.3881 19.2447C21.3881 18.4194 20.74 17.975 20.0183 17.975L17.8398 17.9717ZM18.8221 18.8504H19.9414C20.2087 18.8504 20.4058 19.0609 20.4058 19.2614C20.4058 19.522 20.1519 19.6723 19.9548 19.6723H18.8221V18.8504Z" fill="#016FD0"/>
<path d="M25.4498 21.8904V21.0384H27.411C27.7017 21.0384 27.8253 20.8814 27.8253 20.711C27.8253 20.5473 27.7017 20.3802 27.411 20.3802H26.5256C25.7572 20.3802 25.3262 19.9125 25.3262 19.2075C25.3262 18.5794 25.7204 17.9746 26.8631 17.9746H28.7709L28.3599 18.8567H26.7094C26.3953 18.8567 26.2984 19.0237 26.2984 19.1808C26.2984 19.3445 26.4187 19.5216 26.6593 19.5216H27.5881C28.4468 19.5216 28.8177 20.0094 28.8177 20.6475C28.8177 21.3325 28.4034 21.8938 27.5413 21.8938H25.4498V21.8904Z" fill="#016FD0"/>
<path d="M29.0435 21.8904V21.0384H31.0048C31.2955 21.0384 31.4191 20.8814 31.4191 20.711C31.4191 20.5473 31.2955 20.3802 31.0048 20.3802H30.1194C29.3509 20.3802 28.9199 19.9125 28.9199 19.2075C28.9199 18.5794 29.3142 17.9746 30.4568 17.9746H32.3646L31.9537 18.8567H30.3032C29.9891 18.8567 29.8922 19.0237 29.8922 19.1808C29.8922 19.3445 30.0125 19.5216 30.253 19.5216H31.1819C32.0405 19.5216 32.4114 20.0094 32.4114 20.6475C32.4114 21.3325 31.9971 21.8938 31.1351 21.8938H29.0435V21.8904Z" fill="#016FD0"/>
</g>
</g>
<defs>
<clipPath id="clip0_1151_11179">
<rect width="32" height="32" rx="6" fill="white"/>
</clipPath>
<clipPath id="clip1_1151_11179">
<rect width="33.4114" height="33.3279" fill="white" transform="translate(-1 -0.664062)"/>
</clipPath>
</defs>
</svg>
