<svg width="32" height="32" viewBox="0 0 32 32" fill="none" xmlns="http://www.w3.org/2000/svg">
<g clip-path="url(#clip0_1151_11172)">
<rect width="32" height="32" rx="6" fill="white"/>
<g clip-path="url(#clip1_1151_11172)">
<path d="M0.153992 28.464C-0.485899 28.464 -1 27.9499 -1 27.31V6.54364C-1 5.90375 -0.485899 5.38965 0.153992 5.38965H31.361C32.0009 5.38965 32.515 5.90375 32.515 6.54364V27.31C32.515 27.9499 32.0009 28.464 31.361 28.464" fill="white"/>
<path d="M1.99219 25.4161V21.4346H3.21728C4.10875 21.4346 4.68301 21.7682 4.68301 22.4628C4.68301 22.8566 4.50253 23.13 4.24548 23.2886C4.61738 23.4582 4.83068 23.7863 4.83068 24.2402C4.83068 25.0442 4.24548 25.4161 3.3376 25.4161H1.99219ZM2.77975 23.0917H3.36495C3.72044 23.0917 3.87905 22.9167 3.87905 22.594C3.87905 22.2495 3.60012 22.1346 3.22275 22.1346H2.77975V23.0917ZM2.77975 24.7215H3.27197C3.74779 24.7215 4.02671 24.6012 4.02671 24.2293C4.02671 23.8574 3.78607 23.7043 3.3376 23.7043H2.77975V24.7215ZM6.36751 25.4872C5.59089 25.4872 5.19711 25.1044 5.19711 24.5957C5.19711 24.0324 5.65652 23.7043 6.34017 23.6988C6.50971 23.7043 6.67925 23.7152 6.8488 23.7426V23.6058C6.8488 23.2613 6.65191 23.0917 6.26907 23.0917C6.01202 23.0863 5.76043 23.1355 5.51979 23.2285L5.37759 22.6159C5.62371 22.512 6.01202 22.4464 6.36204 22.4464C7.19882 22.4464 7.61448 22.8894 7.61448 23.655V25.2356C7.37384 25.356 6.9363 25.4872 6.36751 25.4872ZM6.84333 24.8419V24.2348C6.71207 24.2074 6.57534 24.191 6.43861 24.191C6.17609 24.191 5.97373 24.2949 5.97373 24.5629C5.97373 24.8036 6.14328 24.9294 6.44408 24.9294C6.58081 24.9239 6.71754 24.8965 6.84333 24.8419ZM8.15592 25.4161V22.6925C8.56611 22.5284 8.99817 22.4409 9.44118 22.4409C10.2725 22.4409 10.7483 22.8511 10.7483 23.6058V25.4161H9.96621V23.666C9.96621 23.2722 9.78573 23.0917 9.43571 23.0917C9.26616 23.0917 9.09115 23.1245 8.93801 23.1956V25.4161H8.15592ZM13.4883 22.6159L13.3407 23.2339C13.1383 23.1464 12.9196 23.0972 12.7008 23.0917C12.2414 23.0917 11.9898 23.4144 11.9898 23.9504C11.9898 24.5356 12.2523 24.8364 12.7391 24.8364C12.9578 24.8309 13.1711 24.7817 13.368 24.6887L13.4938 25.3177C13.2368 25.4325 12.9578 25.4872 12.6734 25.4817C11.7273 25.4817 11.1858 24.8965 11.1858 23.9723C11.1858 23.0534 11.7273 22.4409 12.6297 22.4409C12.925 22.4409 13.2204 22.5011 13.4883 22.6159ZM15.1838 25.4872C14.3087 25.4872 13.7618 24.8801 13.7618 23.9613C13.7618 23.0534 14.3087 22.4409 15.1838 22.4409C16.0643 22.4409 16.6003 23.048 16.6003 23.9613C16.6003 24.8747 16.0643 25.4872 15.1838 25.4872ZM15.1838 24.8364C15.5885 24.8364 15.7963 24.5028 15.7963 23.9613C15.7963 23.4253 15.5885 23.0917 15.1838 23.0917C14.7845 23.0917 14.5658 23.4253 14.5658 23.9613C14.5658 24.5028 14.79 24.8364 15.1838 24.8364ZM17.0542 25.4161V22.6925C17.4644 22.5284 17.8965 22.4409 18.3395 22.4409C19.1708 22.4409 19.6466 22.8511 19.6466 23.6058V25.4161H18.8645V23.666C18.8645 23.2722 18.684 23.0917 18.334 23.0917C18.1645 23.0917 17.9895 23.1245 17.8363 23.1956V25.4161H17.0542ZM21.4186 25.4872C20.7404 25.4872 20.3959 25.1153 20.3959 24.366V23.1355H20.0076V22.512H20.3959V21.883L21.178 21.8448V22.512H21.8069V23.1355H21.178V24.3496C21.178 24.6778 21.3147 24.8309 21.5718 24.8309C21.6757 24.8309 21.7741 24.82 21.8726 24.7981L21.9108 25.4271C21.7468 25.4708 21.5827 25.4872 21.4186 25.4872ZM23.3985 25.4872C22.6218 25.4872 22.2281 25.1044 22.2281 24.5957C22.2281 24.0324 22.6875 23.7043 23.3711 23.6988C23.5407 23.7043 23.7102 23.7152 23.8797 23.7426V23.6058C23.8797 23.2613 23.6829 23.0917 23.3 23.0917C23.043 23.0863 22.7914 23.1355 22.5507 23.2285L22.4085 22.6159C22.6547 22.512 23.043 22.4464 23.393 22.4464C24.2298 22.4464 24.6454 22.8894 24.6454 23.655V25.2356C24.4048 25.356 23.9672 25.4872 23.3985 25.4872ZM23.8743 24.8419V24.2348C23.743 24.2074 23.6063 24.191 23.4696 24.191C23.207 24.191 23.0047 24.2949 23.0047 24.5629C23.0047 24.8036 23.1742 24.9294 23.475 24.9294C23.6118 24.9239 23.7485 24.8965 23.8743 24.8419ZM27.3198 22.6159L27.1722 23.2339C26.9698 23.1464 26.751 23.0972 26.5323 23.0917C26.0729 23.0917 25.8213 23.4144 25.8213 23.9504C25.8213 24.5356 26.0838 24.8364 26.5706 24.8364C26.7893 24.8309 27.0026 24.7817 27.1995 24.6887L27.3253 25.3177C27.0683 25.4325 26.7893 25.4872 26.5049 25.4817C25.5588 25.4817 25.0173 24.8965 25.0173 23.9723C25.0173 23.0534 25.5588 22.4409 26.4612 22.4409C26.7565 22.4409 27.0464 22.5011 27.3198 22.6159ZM29.0426 25.4872C28.3644 25.4872 28.0199 25.1153 28.0199 24.366V23.1355H27.6316V22.512H28.0199V21.883L28.802 21.8448V22.512H29.4309V23.1355H28.802V24.3496C28.802 24.6778 28.9387 24.8309 29.1958 24.8309C29.2997 24.8309 29.3981 24.82 29.4966 24.7981L29.5348 25.4271C29.3762 25.4708 29.2122 25.4872 29.0426 25.4872Z" fill="#1E3764"/>
<path d="M7.46134 19.4498C11.6124 19.4498 13.6907 16.6824 15.7635 13.915H1.99219V19.4498H7.46134Z" fill="url(#paint0_linear_1151_11172)"/>
<path d="M24.0619 8.37891C19.9109 8.37891 17.8326 11.1463 15.7598 13.9137H29.5366V8.37891H24.0619Z" fill="url(#paint1_linear_1151_11172)"/>
</g>
</g>
<rect x="0.264592" y="0.264592" width="31.4708" height="31.4708" rx="5.73541" stroke="#E7E7E7" stroke-width="0.529184"/>
<defs>
<linearGradient id="paint0_linear_1151_11172" x1="4.77661" y1="16.9363" x2="14.853" y2="13.1936" gradientUnits="userSpaceOnUse">
<stop stop-color="#005AB9"/>
<stop offset="1" stop-color="#1E3764"/>
</linearGradient>
<linearGradient id="paint1_linear_1151_11172" x1="16.5949" y1="14.3921" x2="27.2939" y2="10.7418" gradientUnits="userSpaceOnUse">
<stop stop-color="#FBA900"/>
<stop offset="1" stop-color="#FFD800"/>
</linearGradient>
<clipPath id="clip0_1151_11172">
<rect width="32" height="32" rx="6" fill="white"/>
</clipPath>
<clipPath id="clip1_1151_11172">
<rect x="-1" y="5.38965" width="33.515" height="23.0744" rx="2.23433" fill="white"/>
</clipPath>
</defs>
</svg>
