<svg width="32" height="32" viewBox="0 0 32 32" fill="none" xmlns="http://www.w3.org/2000/svg">
<g clip-path="url(#clip0_1151_11151)">
<rect width="32" height="32" rx="6" fill="white"/>
<path d="M37.0739 18.1611C37.0739 18.1611 23.1715 27.9643 -2.28711 32.3602H37.0739V18.1611Z" fill="#F48120"/>
<path d="M17.1083 17.5242C18.3385 17.5242 19.3357 16.527 19.3357 15.2968C19.3357 14.0666 18.3385 13.0693 17.1083 13.0693C15.8781 13.0693 14.8809 14.0666 14.8809 15.2968C14.8809 16.527 15.8781 17.5242 17.1083 17.5242Z" fill="url(#paint0_linear_1151_11151)"/>
<path d="M4.49823 13.1904H3.30469V17.3716H4.49823C5.12921 17.3716 5.58534 17.2196 5.98826 16.8927C6.4672 16.4974 6.74848 15.9044 6.74848 15.2886C6.74087 14.0495 5.82101 13.1904 4.49823 13.1904ZM5.4561 16.3377C5.19763 16.5658 4.87074 16.6722 4.33858 16.6722H4.11812V13.905H4.33858C4.86313 13.905 5.18243 13.9963 5.4561 14.2395C5.73739 14.4904 5.90463 14.8781 5.90463 15.281C5.90463 15.6839 5.73739 16.0869 5.4561 16.3377Z" fill="#231F20"/>
<path d="M7.93257 13.1904H7.11914V17.3716H7.93257V13.1904Z" fill="#231F20"/>
<path d="M9.92185 14.7938C9.43531 14.6113 9.29087 14.4897 9.29087 14.2692C9.29087 14.0032 9.54934 13.8055 9.89904 13.8055C10.1423 13.8055 10.3476 13.9043 10.5528 14.1476L10.9786 13.5926C10.6289 13.2886 10.2107 13.1289 9.747 13.1289C9.00959 13.1289 8.43942 13.6459 8.43942 14.3301C8.43942 14.9078 8.7055 15.2043 9.46572 15.478C9.78501 15.592 9.94466 15.668 10.0283 15.7136C10.1879 15.8201 10.2715 15.9721 10.2715 16.147C10.2715 16.4891 10.0055 16.7399 9.64057 16.7399C9.25286 16.7399 8.94117 16.5423 8.75111 16.185L8.22656 16.6943C8.59907 17.2493 9.0552 17.4926 9.67098 17.4926C10.5148 17.4926 11.1154 16.93 11.1154 16.1166C11.1306 15.44 10.8493 15.1359 9.92185 14.7938Z" fill="#231F20"/>
<path d="M11.3887 15.291C11.3887 16.5225 12.3541 17.4728 13.5933 17.4728C13.943 17.4728 14.2471 17.4044 14.612 17.2295V16.2717C14.2851 16.5986 13.9962 16.7278 13.6313 16.7278C12.8103 16.7278 12.2249 16.1348 12.2249 15.2834C12.2249 14.4776 12.8255 13.8466 13.5933 13.8466C13.981 13.8466 14.2775 13.9834 14.612 14.3179V13.36C14.2547 13.1776 13.9582 13.1016 13.6085 13.1016C12.3846 13.1016 11.3887 14.0746 11.3887 15.291Z" fill="#231F20"/>
<path d="M21.089 16.0032L19.9715 13.1904H19.082L20.8533 17.4781H21.2943L23.096 13.1904H22.2141L21.089 16.0032Z" fill="#231F20"/>
<path d="M23.4648 17.3716H25.7759V16.6646H24.2783V15.5395H25.7227V14.8325H24.2783V13.905H25.7759V13.1904H23.4648V17.3716Z" fill="#231F20"/>
<path d="M29.0056 14.4298C29.0056 13.6468 28.4659 13.1982 27.5232 13.1982H26.3145V17.3794H27.1279V15.6994H27.2343L28.3594 17.3794H29.3629L28.0477 15.6157C28.6635 15.4865 29.0056 15.0684 29.0056 14.4298ZM27.3636 15.1216H27.1279V13.852H27.3788C27.8881 13.852 28.1618 14.0649 28.1618 14.4754C28.1618 14.8935 27.8881 15.1216 27.3636 15.1216Z" fill="#231F20"/>
<path opacity="0.65" d="M17.1103 17.5242C18.3404 17.5242 19.3377 16.527 19.3377 15.2968C19.3377 14.0666 18.3404 13.0693 17.1103 13.0693C15.8801 13.0693 14.8828 14.0666 14.8828 15.2968C14.8828 16.527 15.8801 17.5242 17.1103 17.5242Z" fill="url(#paint1_linear_1151_11151)"/>
<path d="M29.5221 13.3504C29.5221 13.2743 29.4689 13.2363 29.3853 13.2363H29.2637V13.6012H29.3549V13.4568L29.4613 13.6012H29.5678L29.4461 13.4492C29.4917 13.4416 29.5221 13.4036 29.5221 13.3504ZM29.3701 13.4036H29.3549V13.3047H29.3701C29.4157 13.3047 29.4385 13.32 29.4385 13.3504C29.4385 13.3884 29.4157 13.4036 29.3701 13.4036Z" fill="#231F20"/>
<path d="M29.3994 13.0986C29.2245 13.0986 29.0801 13.2431 29.0801 13.4179C29.0801 13.5928 29.2245 13.7372 29.3994 13.7372C29.5742 13.7372 29.7187 13.5928 29.7187 13.4179C29.7187 13.2431 29.5742 13.0986 29.3994 13.0986ZM29.3994 13.684C29.2625 13.684 29.1409 13.57 29.1409 13.4179C29.1409 13.2735 29.2549 13.1518 29.3994 13.1518C29.5362 13.1518 29.6502 13.2735 29.6502 13.4179C29.6502 13.5624 29.5362 13.684 29.3994 13.684Z" fill="#231F20"/>
</g>
<rect x="0.265" y="0.265" width="31.47" height="31.47" rx="5.735" stroke="#E7E7E7" stroke-width="0.53"/>
<defs>
<linearGradient id="paint0_linear_1151_11151" x1="18.2467" y1="17.0793" x2="16.707" y2="14.6685" gradientUnits="userSpaceOnUse">
<stop stop-color="#F89F20"/>
<stop offset="0.2502" stop-color="#F79A20"/>
<stop offset="0.5331" stop-color="#F68D20"/>
<stop offset="0.6196" stop-color="#F58720"/>
<stop offset="0.7232" stop-color="#F48120"/>
<stop offset="1" stop-color="#F37521"/>
</linearGradient>
<linearGradient id="paint1_linear_1151_11151" x1="18.0056" y1="17.0468" x2="15.7552" y2="12.6483" gradientUnits="userSpaceOnUse">
<stop stop-color="#F58720"/>
<stop offset="0.3587" stop-color="#E16F27"/>
<stop offset="0.703" stop-color="#D4602C"/>
<stop offset="0.9816" stop-color="#D05B2E"/>
</linearGradient>
<clipPath id="clip0_1151_11151">
<rect width="32" height="32" rx="6" fill="white"/>
</clipPath>
</defs>
</svg>
