<svg width="32" height="32" viewBox="0 0 32 32" fill="none" xmlns="http://www.w3.org/2000/svg">
<rect width="32" height="32" rx="6" fill="#141413"/>
<path d="M18.7525 11.0625H13.2461V20.9577H18.7525V11.0625Z" fill="#FF5F00"/>
<path d="M13.5948 16.0108C13.5939 15.0578 13.8099 14.1171 14.2263 13.26C14.6427 12.4028 15.2487 11.6516 15.9984 11.0632C15.07 10.3335 13.9551 9.87973 12.781 9.75371C11.607 9.6277 10.4211 9.83455 9.35906 10.3506C8.297 10.8667 7.40156 11.6712 6.77509 12.6721C6.14863 13.673 5.81641 14.83 5.81641 16.0108C5.81641 17.1916 6.14863 18.3486 6.77509 19.3495C7.40156 20.3504 8.297 21.1549 9.35906 21.671C10.4211 22.1871 11.607 22.3939 12.781 22.2679C13.9551 22.1419 15.07 21.6881 15.9984 20.9584C15.2487 20.37 14.6427 19.6188 14.2263 18.7616C13.8099 17.9045 13.5939 16.9638 13.5948 16.0108Z" fill="#EB001B"/>
<path d="M26.1797 16.0108C26.1797 17.1916 25.8475 18.3486 25.2211 19.3495C24.5947 20.3504 23.6993 21.1549 22.6372 21.671C21.5752 22.187 20.3894 22.3939 19.2153 22.2679C18.0413 22.1419 16.9264 21.6881 15.998 20.9584C16.747 20.3694 17.3526 19.6181 17.7689 18.7611C18.1853 17.904 18.4016 16.9636 18.4016 16.0108C18.4016 15.058 18.1853 14.1176 17.7689 13.2606C17.3526 12.4035 16.747 11.6522 15.998 11.0632C16.9264 10.3335 18.0413 9.87972 19.2153 9.75371C20.3894 9.6277 21.5752 9.83456 22.6372 10.3506C23.6993 10.8667 24.5947 11.6712 25.2211 12.6721C25.8475 13.673 26.1797 14.83 26.1797 16.0108Z" fill="#F79E1B"/>
<path d="M25.5795 19.9103V19.7077H25.6612V19.6664H25.4531V19.7077H25.5348V19.9103H25.5795ZM25.9834 19.9103V19.666H25.9196L25.8462 19.834L25.7729 19.666H25.7091V19.9103H25.7541V19.726L25.8229 19.8849H25.8696L25.9384 19.7256V19.9103H25.9834Z" fill="#F79E1B"/>
</svg>
