<svg width="46" height="14" viewBox="0 0 46 14" fill="none" xmlns="http://www.w3.org/2000/svg">
<g clip-path="url(#clip0_1151_11200)">
<path fill-rule="evenodd" clip-rule="evenodd" d="M46.0013 6.88019C46.0013 4.60382 44.8987 2.80762 42.7913 2.80762C40.675 2.80762 39.3945 4.60382 39.3945 6.86241C39.3945 9.53893 40.9062 10.8905 43.0759 10.8905C44.134 10.8905 44.9343 10.6504 45.539 10.3125V8.53412C44.9343 8.83645 44.2407 9.02318 43.3604 9.02318C42.4979 9.02318 41.7331 8.72085 41.6353 7.67159H45.9836C45.9836 7.55599 46.0013 7.0936 46.0013 6.88019ZM41.6087 6.03544C41.6087 5.03064 42.2222 4.61271 42.7824 4.61271C43.3248 4.61271 43.9028 5.03064 43.9028 6.03544H41.6087Z" fill="#635BFF"/>
<path fill-rule="evenodd" clip-rule="evenodd" d="M35.9651 2.80762C35.0937 2.80762 34.5335 3.21665 34.2222 3.5012L34.1066 2.94989H32.1504V13.3181L34.3734 12.8468L34.3823 10.3303C34.7024 10.5615 35.1737 10.8905 35.9562 10.8905C37.5479 10.8905 38.9973 9.61006 38.9973 6.79127C38.9884 4.21257 37.5212 2.80762 35.9651 2.80762ZM35.4316 8.93426C34.9069 8.93426 34.5957 8.74753 34.3823 8.51634L34.3734 5.21737C34.6046 4.9595 34.9247 4.78166 35.4316 4.78166C36.2408 4.78166 36.801 5.68865 36.801 6.85352C36.801 8.04505 36.2496 8.93426 35.4316 8.93426Z" fill="#635BFF"/>
<path fill-rule="evenodd" clip-rule="evenodd" d="M29.0898 2.28331L31.3218 1.80314V-0.00195312L29.0898 0.469327V2.28331Z" fill="#635BFF"/>
<path d="M31.3218 2.95996H29.0898V10.7405H31.3218V2.95996Z" fill="#635BFF"/>
<path fill-rule="evenodd" clip-rule="evenodd" d="M26.6997 3.61712L26.5574 2.9591H24.6367V10.7397H26.8597V5.46667C27.3844 4.78198 28.2736 4.90647 28.5492 5.00428V2.9591C28.2647 2.8524 27.2243 2.65677 26.6997 3.61712Z" fill="#635BFF"/>
<path fill-rule="evenodd" clip-rule="evenodd" d="M22.2528 1.0293L20.0831 1.49169L20.0742 8.61424C20.0742 9.93027 21.0612 10.8995 22.3773 10.8995C23.1064 10.8995 23.6399 10.7661 23.9334 10.6061V8.80098C23.6488 8.91658 22.2439 9.32561 22.2439 8.00958V4.85289H23.9334V2.95888H22.2439L22.2528 1.0293Z" fill="#635BFF"/>
<path fill-rule="evenodd" clip-rule="evenodd" d="M16.2419 5.21737C16.2419 4.87058 16.5264 4.7372 16.9977 4.7372C17.6735 4.7372 18.5272 4.94172 19.2029 5.30629V3.21665C18.4649 2.92321 17.7358 2.80762 16.9977 2.80762C15.1926 2.80762 13.9922 3.75018 13.9922 5.32408C13.9922 7.77829 17.3712 7.38704 17.3712 8.4452C17.3712 8.85423 17.0155 8.98762 16.5175 8.98762C15.7795 8.98762 14.8369 8.68528 14.09 8.27625V10.3926C14.917 10.7482 15.7528 10.8994 16.5175 10.8994C18.3671 10.8994 19.6387 9.98353 19.6387 8.39185C19.6298 5.742 16.2419 6.21328 16.2419 5.21737Z" fill="#635BFF"/>
</g>
<path d="M0.500321 3.03324H2.22081V9.51699L2.04213 10.875H0.500321V3.03324ZM5.61074 8.05176V8.15897C5.61074 8.57761 5.56819 8.95881 5.48311 9.30256C5.39802 9.64632 5.26698 9.94413 5.09 10.196C4.91301 10.4445 4.69008 10.6368 4.4212 10.7729C4.15232 10.909 3.83409 10.9771 3.46651 10.9771C3.13296 10.9771 2.84706 10.9056 2.60881 10.7627C2.37057 10.6163 2.17146 10.4155 2.01149 10.1603C1.85153 9.90159 1.72219 9.60378 1.62349 9.26683C1.52479 8.92647 1.44651 8.56229 1.38865 8.17429V8.04666C1.44651 7.66206 1.52479 7.30128 1.62349 6.96433C1.72219 6.62398 1.85153 6.32617 2.01149 6.0709C2.17146 5.81223 2.36887 5.61142 2.60371 5.46847C2.84196 5.32212 3.12615 5.24895 3.4563 5.24895C3.82728 5.24895 4.14722 5.31872 4.4161 5.45826C4.68838 5.59781 4.91301 5.79351 5.09 6.04537C5.26698 6.29724 5.39802 6.59334 5.48311 6.9337C5.56819 7.27405 5.61074 7.64674 5.61074 8.05176ZM3.89025 8.15897V8.05176C3.89025 7.85095 3.87834 7.66206 3.85451 7.48507C3.83069 7.30809 3.78814 7.15153 3.72688 7.01538C3.66561 6.87924 3.57882 6.77203 3.46651 6.69375C3.35419 6.61547 3.20784 6.57633 3.02745 6.57633C2.84366 6.57633 2.6888 6.60696 2.56287 6.66822C2.44034 6.72949 2.34164 6.81798 2.26676 6.9337C2.19528 7.04602 2.14423 7.18556 2.1136 7.35233C2.08297 7.5157 2.06935 7.7012 2.07276 7.90881V8.31213C2.06595 8.59463 2.09148 8.83628 2.14934 9.03709C2.2072 9.2379 2.3076 9.39106 2.45055 9.49657C2.5935 9.60208 2.7892 9.65483 3.03766 9.65483C3.22145 9.65483 3.36951 9.61909 3.48182 9.54762C3.59754 9.47614 3.68433 9.37404 3.74219 9.2413C3.80005 9.10856 3.8392 8.9503 3.85962 8.76651C3.88004 8.58271 3.89025 8.3802 3.89025 8.15897ZM8.01024 10.2266L9.43972 5.35105H11.2878L9.06704 11.697C9.01939 11.8365 8.95642 11.9863 8.87814 12.1462C8.79986 12.3096 8.69265 12.4645 8.5565 12.6108C8.42036 12.7572 8.24508 12.8763 8.03066 12.9682C7.81964 13.0601 7.55756 13.106 7.24444 13.106C7.07767 13.106 6.95514 13.0975 6.87686 13.0805C6.80198 13.0669 6.68626 13.0414 6.5297 13.0039V11.7735C6.57394 11.7735 6.61138 11.7735 6.64201 11.7735C6.67605 11.7735 6.71349 11.7735 6.75433 11.7735C6.93812 11.7735 7.08447 11.7548 7.19339 11.7174C7.3057 11.6799 7.39079 11.6255 7.44865 11.554C7.50992 11.4825 7.55756 11.3957 7.5916 11.2936L8.01024 10.2266ZM7.64776 5.35105L8.73519 9.21577L8.92409 11.0384H7.77029L5.80474 5.35105H7.64776Z" fill="black"/>
<defs>
<clipPath id="clip0_1151_11200">
<rect width="32.0115" height="13.3203" fill="white" transform="translate(13.9883)"/>
</clipPath>
</defs>
</svg>
