<svg width="32" height="32" viewBox="0 0 32 32" fill="none" xmlns="http://www.w3.org/2000/svg">
<rect width="32" height="32" rx="6" fill="#1434CB"/>
<path d="M15.8884 12.3613L14.3336 19.6303H12.4529L14.0079 12.3613H15.8884ZM23.8001 17.055L24.7899 14.3253L25.3595 17.055H23.8001ZM25.899 19.6303H27.638L26.1188 12.3613H24.5148C24.1533 12.3613 23.8485 12.5709 23.7136 12.8941L20.8919 19.6303H22.8669L23.259 18.5447H25.6713L25.899 19.6303ZM20.9898 17.2572C20.998 15.3388 18.3378 15.2325 18.3556 14.3753C18.3614 14.1149 18.6099 13.8374 19.153 13.7665C19.4223 13.7318 20.1654 13.7037 21.0077 14.0918L21.3371 12.5498C20.8847 12.3861 20.3025 12.2285 19.5781 12.2285C17.719 12.2285 16.4112 13.216 16.4008 14.6312C16.3888 15.6777 17.335 16.2612 18.0463 16.6098C18.7797 16.9661 19.0255 17.1944 19.0219 17.5128C19.0168 18.0005 18.4371 18.2164 17.8972 18.2246C16.9512 18.2393 16.4029 17.9689 15.9659 17.7652L15.6245 19.3588C16.0646 19.5602 16.8755 19.7355 17.7152 19.7444C19.6917 19.7444 20.984 18.7686 20.9898 17.2572ZM13.2012 12.3613L10.1542 19.6303H8.16661L6.66705 13.8291C6.57615 13.4724 6.49686 13.3412 6.22039 13.1905C5.76817 12.9449 5.02166 12.7152 4.36523 12.5723L4.4097 12.3613H7.60959C8.01718 12.3613 8.38389 12.6325 8.47724 13.1021L9.26937 17.3087L11.2256 12.3613H13.2012Z" fill="white"/>
</svg>
