<svg width="32" height="32" viewBox="0 0 32 32" fill="none" xmlns="http://www.w3.org/2000/svg">
<rect width="32" height="32" rx="16" fill="white"/>
<path d="M20.7407 19.3203V13.5781H19.5225V15.9471H18.3579V13.5781H17.1396V17.1189H19.5225V19.3203H20.7407Z" fill="#3E7BFA"/>
<path d="M16.234 17.1192V13.6243H12.6603V14.7961H15.0157V15.9473H12.6328V19.4422H16.2145V18.2703H13.8511V17.1192H16.234Z" fill="#3E7BFA"/>
<path d="M9.67 16C9.67 12.4325 12.6873 9.5302 16.3959 9.5302C17.7 9.5302 18.9811 9.9007 20.0688 10.5837L18.7508 11.8515L25.5646 13.3362L24.0212 6.78172L22.7032 8.04961C20.9012 6.7243 18.6829 6 16.3959 6C13.6191 6 11.0084 7.0402 9.04491 8.92891C7.08138 10.8177 6 13.3289 6 16C6 18.6711 7.08138 21.1823 9.04491 23.0711C11.0084 24.9598 13.6191 26 16.3959 26H17.0051V22.4698H16.3959C12.6873 22.4698 9.67 19.5675 9.67 16Z" fill="#3E7BFA"/>
<path d="M17.9092 23.9115L18.1313 25.0637C18.5135 24.9956 18.8952 24.9041 19.2657 24.7917L18.8994 23.674C18.576 23.7721 18.2428 23.852 17.9092 23.9115Z" fill="#3E7BFA"/>
<path d="M24.7766 15.3872L25.9921 15.3095C25.9663 14.9358 25.9166 14.5606 25.8444 14.1943L24.6475 14.4126C24.7105 14.7326 24.7539 15.0605 24.7766 15.3872Z" fill="#3E7BFA"/>
<path d="M23.0264 20.9055L23.9884 21.6244C24.2268 21.3292 24.4489 21.0169 24.6483 20.6964L23.6031 20.0945C23.4287 20.3747 23.2347 20.6475 23.0264 20.9055Z" fill="#3E7BFA"/>
<path d="M24.7833 16.3711C24.7653 16.6978 24.7265 17.0262 24.668 17.3472L25.8679 17.5497C25.9349 17.1824 25.9793 16.8067 25.9999 16.4331L24.7833 16.3711Z" fill="#3E7BFA"/>
<path d="M24.0732 19.2233L25.1867 19.6988C25.3446 19.3568 25.482 19.0021 25.5953 18.6444L24.43 18.3029C24.3311 18.6151 24.2111 18.9248 24.0732 19.2233Z" fill="#3E7BFA"/>
<path d="M21.5908 22.2996L22.3469 23.2185C22.6512 22.9868 22.9442 22.7347 23.2175 22.4693L22.3522 21.6445C22.1131 21.8766 21.857 22.097 21.5908 22.2996Z" fill="#3E7BFA"/>
<path d="M19.8525 23.321L20.3573 24.3876C20.7102 24.233 21.0574 24.0557 21.3892 23.8606L20.7537 22.8608C20.4639 23.0312 20.1607 23.1861 19.8525 23.321Z" fill="#3E7BFA"/>
</svg>
