<svg width="32" height="32" viewBox="0 0 32 32" fill="none" xmlns="http://www.w3.org/2000/svg">
<rect width="32" height="32" rx="16" fill="white"/>
<path d="M22 9.25C22 8.83579 21.6642 8.50001 21.25 8.50001H19V7H17.5V8.50001H15.25V7H13.75V8.50001H11.5V7H9.99999V8.50001H7.74999C7.33578 8.50001 7 8.83579 7 9.25V10.75H22V9.25Z" fill="#3E7BFA"/>
<path d="M18.9866 15.4711C19.4776 15.3238 19.9875 15.2493 20.5 15.25C21.0081 15.2504 21.5134 15.325 22 15.4712V11.5H7V21.25C7 21.6642 7.33578 22 7.74999 22H15.4713C14.6391 19.2264 16.213 16.3033 18.9866 15.4711ZM17.5 13H19V14.5H17.5V13ZM13.75 13H15.25V14.5H13.75V13ZM11.5 20.5H9.99999V19H11.5V20.5ZM11.5 17.5H9.99999V16H11.5V17.5ZM11.5 14.5H9.99999V13H11.5V14.5ZM13.75 16H15.25V17.5H13.75V16Z" fill="#3E7BFA"/>
<path d="M20.5 16C18.0147 16 16 18.0147 16 20.5C16 22.9853 18.0147 25 20.5 25C22.9853 25 25 22.9853 25 20.5C24.9971 18.0159 22.9841 16.0029 20.5 16ZM21.0303 21.0303C20.8289 21.2301 20.5326 21.3002 20.263 21.2118L18.013 20.4618L18.4878 19.0368L20.2975 19.6368L22.2197 17.7146L23.2802 18.7751L21.0303 21.0303Z" fill="#3E7BFA"/>
</svg>
