<svg width="32" height="32" viewBox="0 0 32 32" fill="none" xmlns="http://www.w3.org/2000/svg">
<rect width="32" height="32" rx="16" fill="white"/>
<path d="M19.8087 6.5H12.1913C10.7073 6.5 9.5 7.6983 9.5 9.17121V24.7924C9.5 25.0285 9.62937 25.2462 9.83762 25.3605C10.0459 25.4748 10.3004 25.4678 10.5021 25.3421L13.0284 23.7672L15.6523 25.4013C15.758 25.4671 15.879 25.5 16 25.5C16.1212 25.5 16.2423 25.467 16.3479 25.4012L18.969 23.7671L21.4982 25.3424C21.6997 25.4679 21.9543 25.4748 22.1625 25.3606C22.3707 25.2463 22.5 25.0286 22.5 24.7924V9.17121C22.5 7.6983 21.2927 6.5 19.8087 6.5ZM13.8534 14.6089C13.9596 14.4525 14.0823 14.3744 14.2213 14.3744C14.311 14.3744 14.4235 14.4146 14.5585 14.495C14.6933 14.5755 14.8711 14.6576 15.0919 14.7416C15.3127 14.8256 15.5742 14.8675 15.8768 14.8675C16.4737 14.8675 16.7721 14.6999 16.7721 14.3644C16.7721 14.1772 16.6731 14.0291 16.4752 13.9197C16.2771 13.8105 16.0389 13.7208 15.7602 13.6505C15.4815 13.5804 15.2007 13.4966 14.9179 13.3991C14.635 13.3016 14.3947 13.1377 14.1969 12.9076C13.9988 12.6776 13.8999 12.3831 13.8999 12.0241C13.8999 11.5264 14.0736 11.0981 14.4211 10.7391C14.6701 10.4817 15.0236 10.317 15.4804 10.2441V9.22573C15.4804 8.91909 15.7309 8.67049 16.0399 8.67049C16.3488 8.67049 16.5993 8.91909 16.5993 9.22573V10.2316C16.8907 10.267 17.1605 10.3327 17.4084 10.429C17.8002 10.5815 17.9961 10.7658 17.9961 10.9823C17.9961 11.1188 17.9416 11.277 17.8325 11.4575C17.7234 11.6379 17.588 11.7281 17.4265 11.7281C17.3617 11.7281 17.186 11.6781 16.8993 11.5778C16.6125 11.4776 16.3438 11.4274 16.0934 11.4274C15.8186 11.4274 15.6087 11.4821 15.4632 11.5913C15.3178 11.7005 15.2451 11.8213 15.2451 11.954C15.2451 12.0867 15.3178 12.1959 15.4632 12.2816C15.6086 12.3674 15.7883 12.4338 16.0025 12.4806C16.2165 12.5274 16.4463 12.5916 16.6918 12.6736C16.9372 12.7555 17.165 12.851 17.3748 12.9602C17.5846 13.0696 17.7609 13.2393 17.9035 13.4693C18.0458 13.6994 18.1173 13.9783 18.1173 14.3059C18.1173 14.8612 17.9213 15.2983 17.5295 15.6166C17.2816 15.8181 16.9714 15.9556 16.5992 16.0297V17.0828C16.5992 17.3894 16.3487 17.638 16.0398 17.638C15.7308 17.638 15.4804 17.3894 15.4804 17.0828V16.0773C15.0466 16.0401 14.665 15.9417 14.3362 15.7816C13.9078 15.5732 13.6938 15.3326 13.6938 15.0599C13.6939 14.9156 13.7469 14.7653 13.8534 14.6089ZM15.2045 21.6158H14.393C14.084 21.6158 13.8335 21.3672 13.8335 21.0606C13.8335 20.7539 14.084 20.5053 14.393 20.5053H15.2045C15.5135 20.5053 15.7639 20.7539 15.7639 21.0606C15.7639 21.3672 15.5135 21.6158 15.2045 21.6158ZM12.9051 19.819C12.5961 19.819 12.3457 19.5704 12.3457 19.2638C12.3457 18.9572 12.5961 18.7086 12.9051 18.7086H18.9379C19.2468 18.7086 19.4973 18.9572 19.4973 19.2638C19.4973 19.5704 19.2468 19.819 18.9379 19.819H12.9051ZM18.9379 21.6158H16.6345C16.3256 21.6158 16.0751 21.3672 16.0751 21.0606C16.0751 20.7539 16.3256 20.5053 16.6345 20.5053H18.9379C19.2468 20.5053 19.4973 20.7539 19.4973 21.0606C19.4973 21.3672 19.2469 21.6158 18.9379 21.6158Z" fill="#3E7BFA"/>
</svg>
