<?xml version="1.0" encoding="UTF-8"?>
<svg xmlns="http://www.w3.org/2000/svg" style="display: none;">    
    <symbol id="taxi" viewBox="0 0 512 512">
        <path d="M192 0c-17.7 0-32 14.3-32 32l0 32 0 .2c-38.6 2.2-72.3 27.3-85.2 64.1L39.6 228.8C16.4 238.4 0 261.3 0 288L0 432l0 48c0 17.7 14.3 32 32 32l32 0c17.7 0 32-14.3 32-32l0-48 320 0 0 48c0 17.7 14.3 32 32 32l32 0c17.7 0 32-14.3 32-32l0-48 0-144c0-26.7-16.4-49.6-39.6-59.2L437.2 128.3c-12.9-36.8-46.6-62-85.2-64.1l0-.2 0-32c0-17.7-14.3-32-32-32L192 0zM165.4 128l181.2 0c13.6 0 25.7 8.6 30.2 21.4L402.9 224l-293.8 0 26.1-74.6c4.5-12.8 16.6-21.4 30.2-21.4zM96 288a32 32 0 1 1 0 64 32 32 0 1 1 0-64zm288 32a32 32 0 1 1 64 0 32 32 0 1 1 -64 0z"/>
    </symbol>
    <symbol id="money" viewBox="0 0 576 512">
        <path d="M312 24l0 10.5c6.4 1.2 12.6 2.7 18.2 4.2c12.8 3.4 20.4 16.6 17 29.4s-16.6 20.4-29.4 17c-10.9-2.9-21.1-4.9-30.2-5c-7.3-.1-14.7 1.7-19.4 4.4c-2.1 1.3-3.1 2.4-3.5 3c-.3 .5-.7 1.2-.7 2.8c0 .3 0 .5 0 .6c.2 .2 .9 1.2 3.3 2.6c5.8 3.5 14.4 6.2 27.4 10.1l.9 .3s0 0 0 0c11.1 3.3 25.9 7.8 37.9 15.3c13.7 8.6 26.1 22.9 26.4 44.9c.3 22.5-11.4 38.9-26.7 48.5c-6.7 4.1-13.9 7-21.3 8.8l0 10.6c0 13.3-10.7 24-24 24s-24-10.7-24-24l0-11.4c-9.5-2.3-18.2-5.3-25.6-7.8c-2.1-.7-4.1-1.4-6-2c-12.6-4.2-19.4-17.8-15.2-30.4s17.8-19.4 30.4-15.2c2.6 .9 5 1.7 7.3 2.5c13.6 4.6 23.4 7.9 33.9 8.3c8 .3 15.1-1.6 19.2-4.1c1.9-1.2 2.8-2.2 3.2-2.9c.4-.6 .9-1.8 .8-4.1l0-.2c0-1 0-2.1-4-4.6c-5.7-3.6-14.3-6.4-27.1-10.3l-1.9-.6c-10.8-3.2-25-7.5-36.4-14.4c-13.5-8.1-26.5-22-26.6-44.1c-.1-22.9 12.9-38.6 27.7-47.4c6.4-3.8 13.3-6.4 20.2-8.2L264 24c0-13.3 10.7-24 24-24s24 10.7 24 24zM568.2 336.3c13.1 17.8 9.3 42.8-8.5 55.9L433.1 485.5c-23.4 17.2-51.6 26.5-80.7 26.5L192 512 32 512c-17.7 0-32-14.3-32-32l0-64c0-17.7 14.3-32 32-32l36.8 0 44.9-36c22.7-18.2 50.9-28 80-28l78.3 0 16 0 64 0c17.7 0 32 14.3 32 32s-14.3 32-32 32l-64 0-16 0c-8.8 0-16 7.2-16 16s7.2 16 16 16l120.6 0 119.7-88.2c17.8-13.1 42.8-9.3 55.9 8.5zM193.6 384c0 0 0 0 0 0l-.9 0c.3 0 .6 0 .9 0z"/>
    </symbol>
    <symbol id="money-search" viewBox="0 0 512 512">
        <path d="M416 208c0 45.9-14.9 88.3-40 122.7L502.6 457.4c12.5 12.5 12.5 32.8 0 45.3s-32.8 12.5-45.3 0L330.7 376c-34.4 25.2-76.8 40-122.7 40C93.1 416 0 322.9 0 208S93.1 0 208 0S416 93.1 416 208zM288 176c0-44.2-35.8-80-80-80s-80 35.8-80 80c0 48.8 46.5 111.6 68.6 138.6c6 7.3 16.8 7.3 22.7 0c22.1-27 68.6-89.8 68.6-138.6zm-112 0a32 32 0 1 1 64 0 32 32 0 1 1 -64 0z"/>
    </symbol>
    <symbol id="bus" viewBox="0 0 576 512">
        <path d="M288 0C422.4 0 512 35.2 512 80l0 16 0 32c17.7 0 32 14.3 32 32l0 64c0 17.7-14.3 32-32 32l0 160c0 17.7-14.3 32-32 32l0 32c0 17.7-14.3 32-32 32l-32 0c-17.7 0-32-14.3-32-32l0-32-192 0 0 32c0 17.7-14.3 32-32 32l-32 0c-17.7 0-32-14.3-32-32l0-32c-17.7 0-32-14.3-32-32l0-160c-17.7 0-32-14.3-32-32l0-64c0-17.7 14.3-32 32-32c0 0 0 0 0 0l0-32s0 0 0 0l0-16C64 35.2 153.6 0 288 0zM128 160l0 96c0 17.7 14.3 32 32 32l112 0 0-160-112 0c-17.7 0-32 14.3-32 32zM304 288l112 0c17.7 0 32-14.3 32-32l0-96c0-17.7-14.3-32-32-32l-112 0 0 160zM144 400a32 32 0 1 0 0-64 32 32 0 1 0 0 64zm288 0a32 32 0 1 0 0-64 32 32 0 1 0 0 64zM384 80c0-8.8-7.2-16-16-16L208 64c-8.8 0-16 7.2-16 16s7.2 16 16 16l160 0c8.8 0 16-7.2 16-16z"/>
    </symbol>
    <symbol id="suitcase" viewBox="0 0 512 512">
        <path d="M184 48l144 0c4.4 0 8 3.6 8 8l0 40L176 96l0-40c0-4.4 3.6-8 8-8zm-56 8l0 40L64 96C28.7 96 0 124.7 0 160l0 96 192 0 128 0 192 0 0-96c0-35.3-28.7-64-64-64l-64 0 0-40c0-30.9-25.1-56-56-56L184 0c-30.9 0-56 25.1-56 56zM512 288l-192 0 0 32c0 17.7-14.3 32-32 32l-64 0c-17.7 0-32-14.3-32-32l0-32L0 288 0 416c0 35.3 28.7 64 64 64l384 0c35.3 0 64-28.7 64-64l0-128z"/>
    </symbol>
    <symbol id="car" viewBox="0 0 512 512">
        <path d="M135.2 117.4L109.1 192l293.8 0-26.1-74.6C372.3 104.6 360.2 96 346.6 96L165.4 96c-13.6 0-25.7 8.6-30.2 21.4zM39.6 196.8L74.8 96.3C88.3 57.8 124.6 32 165.4 32l181.2 0c40.8 0 77.1 25.8 90.6 64.3l35.2 100.5c23.2 9.6 39.6 32.5 39.6 59.2l0 144 0 48c0 17.7-14.3 32-32 32l-32 0c-17.7 0-32-14.3-32-32l0-48L96 400l0 48c0 17.7-14.3 32-32 32l-32 0c-17.7 0-32-14.3-32-32l0-48L0 256c0-26.7 16.4-49.6 39.6-59.2zM128 288a32 32 0 1 0 -64 0 32 32 0 1 0 64 0zm288 32a32 32 0 1 0 0-64 32 32 0 1 0 0 64z"/>
    </symbol>
</svg>