<svg xmlns="http://www.w3.org/2000/svg" viewBox="0 0 1537.32 1027.13"><defs><style>.cls-39{fill:#36a9e1}.cls-3{fill:#fab62e}.cls-4{fill:#4597d1}.cls-5{fill:#e5e5e5}.cls-6{fill:#d9d9d9}.cls-7{fill:#1f1f1f}.cls-14,.cls-15,.cls-21,.cls-25,.cls-29,.cls-31{stroke:#000}.cls-12,.cls-13,.cls-14,.cls-15,.cls-16,.cls-18,.cls-19,.cls-21,.cls-22,.cls-23,.cls-25,.cls-26,.cls-28,.cls-29,.cls-30,.cls-31,.cls-32{stroke-linecap:round;stroke-linejoin:round}.cls-12,.cls-18,.cls-22,.cls-28{fill:#d3e9f4}.cls-12,.cls-13,.cls-16,.cls-18,.cls-19,.cls-22,.cls-23,.cls-26,.cls-28,.cls-30,.cls-32{stroke:#3f8be1}.cls-12,.cls-13,.cls-14,.cls-15{stroke-width:.99px}.cls-13,.cls-15,.cls-16,.cls-21,.cls-23,.cls-25,.cls-29,.cls-32,.cls-37{fill:#fff}.cls-14,.cls-17{fill:#f9b233}.cls-16,.cls-18,.cls-19,.cls-21{stroke-width:.89px}.cls-19,.cls-26,.cls-30,.cls-31{fill:none}.cls-22,.cls-23,.cls-25,.cls-26{stroke-width:1.58px}.cls-28,.cls-29,.cls-30,.cls-31,.cls-32{stroke-width:1.11px}.cls-33{fill:#106198}.cls-35{fill:#87ced8}.cls-36{fill:#fb7e23}.cls-40{fill:#1860a4}</style></defs><g id="Capa_2" data-name="Capa 2"><path style="stroke-width:1.51px;stroke:#1d1d1b;stroke-miterlimit:10;fill:#36a9e1" d="m867.41 155.31-38.45 99.89 321.65 125 56.11-119.37-31.89-177.11-307.42 71.59z"/><path style="opacity:.5;stroke-width:2.14px;stroke:#1d1d1b;stroke-miterlimit:10;fill:#36a9e1" d="m1303.82 709.43 28.58 10.95 33.01-86.6-786.26-302.77-10.05 21.97-165.53-74.09-39.24 82.53 166.76 70.63 10.07-26.16 762.66 303.54z"/><path class="cls-3" d="M307.64 684.15a.64.64 0 0 1 .74.51l.22 1.22a.62.62 0 0 1-.52.72.64.64 0 0 1-.74-.5l-.22-1.23a.62.62 0 0 1 .52-.72Zm10.07-1.71a.62.62 0 0 0-.52.72l.22 1.22a.64.64 0 0 0 .74.51.63.63 0 0 0 .52-.72l-.22-1.23a.63.63 0 0 0-.74-.5Zm-12.89 4.09a.63.63 0 0 1 .74.5l.22 1.22a.62.62 0 0 1-.51.72.63.63 0 0 1-.74-.5l-.22-1.23a.61.61 0 0 1 .51-.71Zm16.37-2.79a.62.62 0 0 0-.52.72l.22 1.22a.64.64 0 0 0 .74.51.62.62 0 0 0 .52-.72l-.22-1.23a.64.64 0 0 0-.74-.5Z"/><path class="cls-4" d="M314.55 682.91a.32.32 0 0 1 .44-.34l9.77 3.83a.31.31 0 0 1 .19.24l.4 2.22a.31.31 0 0 1-.38.36l-9.45-2.05a.34.34 0 0 1-.25-.25Zm-3.77.65a.33.33 0 0 0-.53-.18l-7.85 6.83a.31.31 0 0 0-.1.29l.4 2.22a.32.32 0 0 0 .48.21l8.17-5a.32.32 0 0 0 .15-.32Zm2.9 8.93a.32.32 0 0 0-.51-.18l-3.41 2.7a.3.3 0 0 0-.11.29l.33 1.86a.32.32 0 0 0 .49.21l3.5-2.19a.31.31 0 0 0 .14-.32Zm1.26-.21a.32.32 0 0 1 .42-.35l4.15 1.42a.29.29 0 0 1 .21.23l.33 1.86a.31.31 0 0 1-.38.36l-4.06-.9a.32.32 0 0 1-.24-.25Z"/><path class="cls-5" d="M309.84 681.3a3.86 3.86 0 0 1 1.53-4 .53.53 0 0 1 .44-.08 4 4 0 0 1 2.84 3.24l1.38 10.3a12.13 12.13 0 0 1 .05 2.76l-.43 4.54a.32.32 0 0 1-.61.1l-2-4.12a12.36 12.36 0 0 1-.92-2.62Z"/><path class="cls-6" d="m315.39 698.35-3.81-21.12a.59.59 0 0 1 .23 0 4 4 0 0 1 2.84 3.24l1.38 10.3a12.13 12.13 0 0 1 .05 2.76l-.43 4.54a.31.31 0 0 1-.26.28Z"/><path class="cls-4" d="m313.9 693.34.24-.48a.32.32 0 0 1 .5-.09l.39.37a.33.33 0 0 1 .1.17l.87 4.85a.31.31 0 0 1 0 .19l-.24.48a.31.31 0 0 1-.5.08l-.4-.36a.4.4 0 0 1-.09-.17l-.87-4.85a.3.3 0 0 1 0-.19Z"/><path class="cls-7" d="M310.21 679.77a2.65 2.65 0 0 1 1.58-1.37 2.68 2.68 0 0 1 2 .77.64.64 0 0 1 .18.32l.15.85a.07.07 0 0 1-.11.06 2.92 2.92 0 0 0-2-.78 2.85 2.85 0 0 0-1.57 1.38.07.07 0 0 1-.13 0l-.15-.85a.56.56 0 0 1 .05-.38Z"/><path class="cls-3" d="M557.56 787a1.8 1.8 0 0 1 2.48.2l2.26 2.61a1.67 1.67 0 0 1-.21 2.4 1.78 1.78 0 0 1-2.47-.2l-2.26-2.61a1.66 1.66 0 0 1 .2-2.4ZM579 769.35a1.67 1.67 0 0 0-.21 2.4l2.27 2.61a1.78 1.78 0 0 0 2.47.2 1.67 1.67 0 0 0 .21-2.4l-2.27-2.61a1.78 1.78 0 0 0-2.47-.2Zm-24.75 27.01a1.8 1.8 0 0 1 2.48.2l2.26 2.61a1.69 1.69 0 0 1-.21 2.41 1.79 1.79 0 0 1-2.47-.21l-2.31-2.61a1.67 1.67 0 0 1 .25-2.4Zm34.86-28.6a1.68 1.68 0 0 0-.21 2.41l2.26 2.6a1.79 1.79 0 0 0 2.47.21 1.68 1.68 0 0 0 .21-2.41l-2.26-2.6a1.78 1.78 0 0 0-2.47-.21Z"/><path class="cls-4" d="M572.2 774.72a.85.85 0 0 1 .54-1.4l28.62-4a.9.9 0 0 1 .8.3l4.11 4.74a.85.85 0 0 1-.4 1.37l-25.34 7.82a.86.86 0 0 1-.93-.26Zm-8.05 6.6a.88.88 0 0 0-1.5.29l-8.92 26.75a.85.85 0 0 0 .17.82l4.11 4.74a.89.89 0 0 0 1.45-.16l12.2-23a.82.82 0 0 0-.11-.94Zm19.59 17.3a.89.89 0 0 0-1.49.25l-4.24 11a.8.8 0 0 0 .15.85l3.43 4a.89.89 0 0 0 1.45-.16l5.19-9.89a.84.84 0 0 0-.11-.94Zm2.69-2.2a.84.84 0 0 1 .5-1.39l11.84-2.22a.88.88 0 0 1 .83.28l3.44 4a.84.84 0 0 1-.41 1.36l-10.9 3.31a.89.89 0 0 1-.93-.27Z"/><path class="cls-5" d="M558.73 777.24a10.51 10.51 0 0 1-2-11.51 1.37 1.37 0 0 1 .94-.78 11.21 11.21 0 0 1 11.33 3.88l17.9 22.56a33.45 33.45 0 0 1 4 6.48l5.42 11.35a.87.87 0 0 1-1.3 1.06l-10.58-7.1a34.67 34.67 0 0 1-5.89-5Z"/><path class="cls-6" d="m596.11 810.23-39-45a1.41 1.41 0 0 1 .56-.28 11.21 11.21 0 0 1 11.33 3.88l17.9 22.56a33.45 33.45 0 0 1 4 6.48l5.42 11.35a.84.84 0 0 1-.21 1.01Z"/><path class="cls-4" d="m585.44 800.32-.1-1.44a.86.86 0 0 1 1.08-.89l1.45.34a1 1 0 0 1 .46.28l9 10.34a.87.87 0 0 1 .21.49l.1 1.44a.86.86 0 0 1-1.08.89l-1.45-.34a1 1 0 0 1-.46-.28l-9-10.34a.87.87 0 0 1-.21-.49Z"/><path class="cls-7" d="M557.45 773.11c0-1.16.06-4 1.79-5.39s4.6-1.05 5.77-.81a1.47 1.47 0 0 1 .86.51l1.58 1.82a.18.18 0 0 1-.18.29c-1.58-.26-4.33-.38-5.77.79s-1.77 3.84-1.77 5.4a.18.18 0 0 1-.32.12l-1.58-1.84a1.45 1.45 0 0 1-.38-.89Z"/><path class="cls-3" d="M720.87 842.86a1.69 1.69 0 0 1 .79 2.29l-1.56 3.05a1.77 1.77 0 0 1-2.35.77 1.69 1.69 0 0 1-.79-2.29l1.56-3a1.78 1.78 0 0 1 2.35-.82ZM746 855a1.78 1.78 0 0 0-2.35.77l-1.56 3.05a1.69 1.69 0 0 0 .79 2.29 1.77 1.77 0 0 0 2.35-.77l1.56-3.05A1.69 1.69 0 0 0 746 855Zm-35.32-11.36a1.7 1.7 0 0 1 .79 2.29L709.9 849a1.77 1.77 0 0 1-2.35.77 1.69 1.69 0 0 1-.79-2.29l1.57-3.05a1.78 1.78 0 0 1 2.35-.79Zm40.82 19.77a1.77 1.77 0 0 0-2.35.76l-1.56 3.06a1.67 1.67 0 0 0 .78 2.28 1.79 1.79 0 0 0 2.36-.76l1.56-3.06a1.67 1.67 0 0 0-.79-2.28Z"/><path class="cls-4" d="M738.22 851.07a.89.89 0 0 1 1.53-.07l15.18 24a.85.85 0 0 1 0 .83l-2.85 5.55a.89.89 0 0 1-1.45.18L733.23 862a.84.84 0 0 1-.12-.94Zm-9.42-4.56a.86.86 0 0 0-.87-1.23l-28.79 2.66a.9.9 0 0 0-.7.47L695.6 854a.85.85 0 0 0 .72 1.23l26.52 1.77a.87.87 0 0 0 .85-.47Zm-8.54 24.36a.86.86 0 0 0-.83-1.24l-12 .57a.91.91 0 0 0-.75.47l-2.37 4.64a.85.85 0 0 0 .73 1.23l11.39.71a.9.9 0 0 0 .84-.47Zm3.14 1.52a.89.89 0 0 1 1.51-.1l6.79 9.71a.81.81 0 0 1 .06.86l-2.37 4.64a.89.89 0 0 1-1.45.18l-7.45-8.42a.82.82 0 0 1-.12-.93Z"/><path class="cls-5" d="M730.5 840a11.05 11.05 0 0 1 10.06-6.37 1.39 1.39 0 0 1 1.1.54 10.47 10.47 0 0 1 .84 11.64l-14.18 24.94a33.69 33.69 0 0 1-4.51 6.19l-8.55 9.34a.88.88 0 0 1-1.52-.74l2.5-12.27a33.79 33.79 0 0 1 2.36-7.23Z"/><path class="cls-6" d="m714.21 886.51 27-52.7a1.35 1.35 0 0 1 .49.4 10.47 10.47 0 0 1 .84 11.64l-14.18 24.94a33.69 33.69 0 0 1-4.51 6.19l-8.55 9.34a.88.88 0 0 1-1.09.19Z"/><path class="cls-4" d="m719.32 873.06 1.32-.67a.89.89 0 0 1 1.27.62l.25 1.43a.85.85 0 0 1-.08.52l-6.19 12.1a.87.87 0 0 1-.38.38l-1.32.67a.88.88 0 0 1-1.27-.62l-.25-1.43a.79.79 0 0 1 .08-.52l6.19-12.1a.93.93 0 0 1 .38-.38Z"/><path class="cls-7" d="M733.89 837.26c1.07-.49 3.76-1.52 5.79-.54s2.81 3.69 3.06 4.83a1.43 1.43 0 0 1-.15 1l-1.09 2.14a.19.19 0 0 1-.34 0c-.38-1.52-1.36-4-3-4.83s-4.32-.07-5.8.56a.19.19 0 0 1-.24-.25l1.09-2.13a1.58 1.58 0 0 1 .68-.78Z"/><path class="cls-3" d="M847.29 891.58a1.68 1.68 0 0 1 .78 2.29l-1.56 3a1.78 1.78 0 0 1-2.35.77 1.69 1.69 0 0 1-.79-2.29l1.56-3a1.78 1.78 0 0 1 2.36-.77Zm25.12 12.16a1.77 1.77 0 0 0-2.35.77l-1.57 3a1.69 1.69 0 0 0 .79 2.29 1.77 1.77 0 0 0 2.35-.77l1.57-3.03a1.69 1.69 0 0 0-.79-2.26Zm-35.32-11.38a1.69 1.69 0 0 1 .79 2.29l-1.56 3.05a1.77 1.77 0 0 1-2.35.77 1.69 1.69 0 0 1-.79-2.29l1.56-3a1.77 1.77 0 0 1 2.35-.82Zm40.82 19.76a1.78 1.78 0 0 0-2.35.77l-1.56 3.05a1.69 1.69 0 0 0 .79 2.29 1.77 1.77 0 0 0 2.35-.77l1.56-3.05a1.69 1.69 0 0 0-.79-2.29Z"/><path class="cls-4" d="M864.63 899.79a.9.9 0 0 1 1.54-.07l15.17 23.94a.85.85 0 0 1 0 .83l-2.85 5.56a.88.88 0 0 1-1.44.18l-17.45-19.51a.84.84 0 0 1-.12-.94Zm-9.42-4.56a.85.85 0 0 0-.86-1.23l-28.79 2.66a.86.86 0 0 0-.7.47l-2.86 5.56a.85.85 0 0 0 .73 1.23l26.52 1.77a.88.88 0 0 0 .84-.47Zm-8.54 24.35a.86.86 0 0 0-.83-1.23l-12 .57a.85.85 0 0 0-.74.47l-2.42 4.61a.86.86 0 0 0 .73 1.23l11.39.71a.9.9 0 0 0 .85-.48Zm3.14 1.52a.89.89 0 0 1 1.51-.1l6.8 9.69a.83.83 0 0 1 .06.86l-2.38 4.64a.89.89 0 0 1-1.45.18l-7.44-8.37a.84.84 0 0 1-.12-.94Z"/><path class="cls-5" d="M856.91 888.76a11.05 11.05 0 0 1 10.09-6.37 1.44 1.44 0 0 1 1.11.53 10.52 10.52 0 0 1 .84 11.65l-14.19 24.94a34 34 0 0 1-4.51 6.19l-8.58 9.3a.88.88 0 0 1-1.52-.73l2.5-12.27a33.6 33.6 0 0 1 2.35-7.2Z"/><path class="cls-6" d="m840.62 935.23 27-52.7a1.41 1.41 0 0 1 .49.39 10.52 10.52 0 0 1 .84 11.65l-14.19 24.94a34 34 0 0 1-4.51 6.19l-8.58 9.3a.87.87 0 0 1-1.05.23Z"/><path class="cls-4" d="m845.73 921.78 1.33-.67a.88.88 0 0 1 1.27.61l.24 1.43a.82.82 0 0 1-.08.53l-6.19 12.1a.87.87 0 0 1-.38.38l-1.32.67a.89.89 0 0 1-1.27-.62l-.25-1.43a.85.85 0 0 1 .08-.52l6.19-12.1a.87.87 0 0 1 .38-.38Z"/><path class="cls-7" d="M860.3 886c1.08-.5 3.76-1.52 5.8-.54s2.81 3.69 3 4.82a1.5 1.5 0 0 1-.14 1l-1.09 2.13a.19.19 0 0 1-.35 0c-.38-1.52-1.35-4-3-4.83s-4.32-.07-5.79.55a.18.18 0 0 1-.24-.24l1.09-2.13a1.51 1.51 0 0 1 .72-.76Z"/><path class="cls-3" d="M979.64 946.8a1.69 1.69 0 0 1 .79 2.28l-1.57 3.06a1.78 1.78 0 0 1-2.35.77 1.69 1.69 0 0 1-.79-2.29l1.57-3.06a1.77 1.77 0 0 1 2.35-.76Zm25.12 12.2a1.77 1.77 0 0 0-2.35.77l-1.57 3a1.7 1.7 0 0 0 .79 2.29 1.78 1.78 0 0 0 2.35-.77l1.57-3a1.69 1.69 0 0 0-.79-2.29Zm-35.32-11.42a1.69 1.69 0 0 1 .79 2.29l-1.56 3a1.78 1.78 0 0 1-2.35.77 1.69 1.69 0 0 1-.79-2.29l1.56-3a1.77 1.77 0 0 1 2.35-.77Zm40.82 19.76a1.77 1.77 0 0 0-2.35.77l-1.56 3a1.69 1.69 0 0 0 .79 2.29 1.77 1.77 0 0 0 2.35-.77l1.56-3a1.69 1.69 0 0 0-.79-2.29Z"/><path class="cls-4" d="M997 955a.89.89 0 0 1 1.53-.07l15.17 23.94a.82.82 0 0 1 0 .83l-2.84 5.56a.89.89 0 0 1-1.45.18L992 965.94a.82.82 0 0 1-.13-.94Zm-9.43-4.56a.86.86 0 0 0-.87-1.22l-28.79 2.66a.86.86 0 0 0-.7.47l-2.85 5.56a.85.85 0 0 0 .73 1.23l26.52 1.77a.88.88 0 0 0 .84-.47ZM979 974.8a.86.86 0 0 0-.83-1.23l-12 .57a.85.85 0 0 0-.74.47l-2.43 4.64a.86.86 0 0 0 .73 1.23l11.4.7a.87.87 0 0 0 .84-.47Zm3.16 1.52a.89.89 0 0 1 1.51-.1l6.8 9.69a.83.83 0 0 1 .06.86l-2.37 4.64a.9.9 0 0 1-1.45.18l-7.45-8.42a.84.84 0 0 1-.12-.94Z"/><path class="cls-5" d="M989.26 944a11 11 0 0 1 10.06-6.37 1.38 1.38 0 0 1 1.11.53 10.52 10.52 0 0 1 .84 11.65l-14.18 24.94a35 35 0 0 1-4.51 6.19l-8.58 9.31a.87.87 0 0 1-1.51-.73l2.51-12.27a33.6 33.6 0 0 1 2.36-7.23Z"/><path class="cls-6" d="m973 990.45 27-52.7a1.33 1.33 0 0 1 .49.39 10.52 10.52 0 0 1 .84 11.65l-14.18 24.94a35 35 0 0 1-4.51 6.19l-8.64 9.33a.86.86 0 0 1-1 .2Z"/><path class="cls-4" d="m978.08 977 1.33-.67a.88.88 0 0 1 1.27.61l.24 1.43a.81.81 0 0 1-.07.53l-6.2 12.1a.8.8 0 0 1-.38.37L973 992a.88.88 0 0 1-1.27-.61l-.25-1.43a.85.85 0 0 1 .08-.52l6.19-12.11a.9.9 0 0 1 .33-.33Z"/><path class="cls-7" d="M992.65 941.2c1.08-.5 3.77-1.52 5.8-.54s2.81 3.69 3 4.82a1.5 1.5 0 0 1-.14 1l-1.09 2.13a.19.19 0 0 1-.35 0c-.37-1.52-1.35-4-3-4.84s-4.33-.06-5.8.56a.18.18 0 0 1-.24-.24l1.09-2.13a1.51 1.51 0 0 1 .73-.76Z"/><path class="cls-3" d="M416.65 968.64a1.3 1.3 0 0 1 1.73.58l1.13 2.26a1.25 1.25 0 0 1-.59 1.69 1.33 1.33 0 0 1-1.74-.58l-1.13-2.27a1.23 1.23 0 0 1 .6-1.68Zm18.63-8.84a1.23 1.23 0 0 0-.59 1.68l1.13 2.27a1.32 1.32 0 0 0 1.73.58 1.25 1.25 0 0 0 .6-1.69l-1.15-2.26a1.31 1.31 0 0 0-1.72-.58Zm-22.76 15a1.31 1.31 0 0 1 1.74.58l1.13 2.26a1.25 1.25 0 0 1-.59 1.69 1.31 1.31 0 0 1-1.74-.58l-1.13-2.27a1.23 1.23 0 0 1 .59-1.68Zm30.29-14.37a1.26 1.26 0 0 0-.6 1.69l1.14 2.26a1.3 1.3 0 0 0 1.73.58 1.24 1.24 0 0 0 .6-1.68l-1.14-2.28a1.32 1.32 0 0 0-1.73-.57Z"/><path class="cls-4" d="M429.4 962.44a.63.63 0 0 1 .65-.9l21.26 2.14a.63.63 0 0 1 .51.35l2.07 4.12a.63.63 0 0 1-.54.91l-19.61 1.15a.63.63 0 0 1-.62-.35Zm-6.99 3.32a.66.66 0 0 0-1.13-.06l-11.36 17.61a.6.6 0 0 0 0 .61L412 988a.65.65 0 0 0 1.06.14l13-14.31a.62.62 0 0 0 .1-.7Zm10.83 15.84a.66.66 0 0 0-1.12-.09l-5.12 7.12a.62.62 0 0 0-.05.64l1.72 3.44a.66.66 0 0 0 1.07.14l5.56-6.18a.61.61 0 0 0 .09-.69Zm2.33-1.11a.62.62 0 0 1 .61-.9l8.9.49a.65.65 0 0 1 .55.35l1.72 3.44a.64.64 0 0 1-.55.91l-8.42.45a.66.66 0 0 1-.62-.35Z"/><path class="cls-5" d="M419.28 961.88a7.76 7.76 0 0 1 .69-8.6 1 1 0 0 1 .82-.39 8.17 8.17 0 0 1 7.4 4.77l8.63 19.34a24.67 24.67 0 0 1 1.7 5.35l1.77 9.08a.65.65 0 0 1-1.12.54l-6.27-7a25.21 25.21 0 0 1-3.29-4.6Z"/><path class="cls-6" d="M439.94 992.09 420.34 953a1 1 0 0 1 .45-.1 8.17 8.17 0 0 1 7.4 4.77l8.63 19.33a24.67 24.67 0 0 1 1.7 5.35l1.77 9.08a.62.62 0 0 1-.35.66Z"/><path class="cls-4" d="m434.14 983.12.19-1.06a.65.65 0 0 1 .94-.44l1 .5a.63.63 0 0 1 .28.28l4.5 9a.66.66 0 0 1 .06.39l-.19 1.05a.65.65 0 0 1-.94.45l-1-.5a.69.69 0 0 1-.28-.28l-4.5-9a.59.59 0 0 1-.06-.39Z"/><path class="cls-7" d="M419.13 958.7c.19-.84.78-2.83 2.29-3.55s3.49.06 4.28.43a1.14 1.14 0 0 1 .52.52l.8 1.59a.13.13 0 0 1-.18.17c-1.09-.47-3-1-4.28-.44s-2 2.43-2.28 3.55a.13.13 0 0 1-.25 0l-.8-1.58a1.12 1.12 0 0 1-.1-.69Z"/><path class="cls-3" d="M215.77 948.15a1.57 1.57 0 0 1 .82 2.09l-1.33 2.88a1.63 1.63 0 0 1-2.14.8 1.55 1.55 0 0 1-.82-2.08l1.32-2.89a1.65 1.65 0 0 1 2.15-.8Zm23.73 10.31a1.64 1.64 0 0 0-2.15.8l-1.35 2.88a1.56 1.56 0 0 0 .82 2.09 1.63 1.63 0 0 0 2.14-.8l1.33-2.88a1.58 1.58 0 0 0-.79-2.09Zm-33.13-9.2a1.57 1.57 0 0 1 .82 2.09l-1.33 2.88a1.63 1.63 0 0 1-2.14.8 1.56 1.56 0 0 1-.82-2.09l1.32-2.88a1.64 1.64 0 0 1 2.15-.8ZM244.92 966a1.63 1.63 0 0 0-2.14.8l-1.33 2.88a1.58 1.58 0 0 0 .82 2.09 1.65 1.65 0 0 0 2.15-.8l1.32-2.88a1.56 1.56 0 0 0-.82-2.09Z"/><path class="cls-4" d="M232.15 955.09a.82.82 0 0 1 1.41-.12l15 21.59a.74.74 0 0 1 .07.76l-2.41 5.25a.82.82 0 0 1-1.33.22L228 965.4a.79.79 0 0 1-.15-.87Zm-8.9-3.86a.79.79 0 0 0-.85-1.1l-26.53 3.54a.8.8 0 0 0-.63.46l-2.41 5.25a.8.8 0 0 0 .72 1.12l24.6.64a.83.83 0 0 0 .77-.47Zm-6.94 22.86a.79.79 0 0 0-.81-1.11l-11.12 1a.79.79 0 0 0-.67.46l-2 4.38a.79.79 0 0 0 .72 1.11l10.57.23a.81.81 0 0 0 .76-.47Zm2.97 1.29a.81.81 0 0 1 1.39-.15l6.68 8.7a.8.8 0 0 1 .09.8l-2 4.38a.82.82 0 0 1-1.33.22l-7.23-7.51a.76.76 0 0 1-.14-.86Z"/><path class="cls-5" d="M224.56 945.18a10.21 10.21 0 0 1 9.06-6.27 1.29 1.29 0 0 1 1 .45 9.72 9.72 0 0 1 1.24 10.75l-12.13 23.6a31.39 31.39 0 0 1-3.93 5.9l-7.54 9a.81.81 0 0 1-1.43-.62l1.82-11.45a30.94 30.94 0 0 1 1.9-6.78Z"/><path class="cls-6" d="M211.34 988.79 234.19 939a1.21 1.21 0 0 1 .47.34 9.72 9.72 0 0 1 1.24 10.75l-12.13 23.6a31.39 31.39 0 0 1-3.93 5.9l-7.54 9a.82.82 0 0 1-.96.2Z"/><path class="cls-4" d="m215.53 976.15 1.2-.66a.81.81 0 0 1 1.2.52l.29 1.31a.84.84 0 0 1-.06.49l-5.25 11.43a.77.77 0 0 1-.33.36l-1.2.67a.82.82 0 0 1-1.2-.52l-.28-1.32a.72.72 0 0 1 0-.48l5.25-11.43a.79.79 0 0 1 .38-.37Z"/><path class="cls-7" d="M227.59 942.48c1-.5 3.42-1.55 5.34-.71s2.75 3.3 3 4.34a1.36 1.36 0 0 1-.1.91l-.92 2a.17.17 0 0 1-.32 0c-.41-1.39-1.42-3.67-3-4.36s-4 .1-5.35.74a.17.17 0 0 1-.23-.22l.92-2a1.46 1.46 0 0 1 .66-.7Z"/><path class="cls-3" d="M133.22 871.45a1.48 1.48 0 0 1-.46 2.08l-2.6 1.62a1.56 1.56 0 0 1-2.13-.46 1.48 1.48 0 0 1 .46-2.07l2.6-1.62a1.56 1.56 0 0 1 2.13.45Zm13.34 20.22a1.57 1.57 0 0 0-2.14-.45l-2.59 1.62a1.47 1.47 0 0 0-.47 2.07 1.56 1.56 0 0 0 2.13.45l2.6-1.62a1.47 1.47 0 0 0 .47-2.07Zm-21.4-24.1a1.48 1.48 0 0 1-.46 2.07l-2.6 1.62a1.56 1.56 0 0 1-2.13-.45 1.48 1.48 0 0 1 .46-2.08l2.6-1.62a1.57 1.57 0 0 1 2.13.46Zm21.67 32.85a1.59 1.59 0 0 0-2.14-.46l-2.59 1.63a1.47 1.47 0 0 0-.47 2.07 1.56 1.56 0 0 0 2.13.45l2.6-1.62a1.47 1.47 0 0 0 .47-2.07Z"/><path class="cls-4" d="M142.52 885.27a.77.77 0 0 1 1.19.62l.35 24.75a.74.74 0 0 1-.36.64l-4.72 3a.78.78 0 0 1-1.18-.5l-4.12-22.39a.75.75 0 0 1 .34-.77Zm-5-7.58a.74.74 0 0 0-.08-1.31l-23-10.63a.78.78 0 0 0-.74 0l-4.73 3a.74.74 0 0 0 0 1.25l19.21 13a.79.79 0 0 0 .86 0Zm-17.76 14.65a.74.74 0 0 0-.05-1.3l-9.36-4.86a.8.8 0 0 0-.78 0l-3.94 2.46a.73.73 0 0 0 0 1.25l8.27 5.54a.79.79 0 0 0 .86 0Zm1.67 2.52a.78.78 0 0 1 1.19.59l.64 10.3a.76.76 0 0 1-.36.68l-3.9 2.46a.78.78 0 0 1-1.18-.5l-1.72-9.63a.74.74 0 0 1 .34-.76Z"/><path class="cls-5" d="M141.8 873.55a9.94 9.94 0 0 1 10.56-.4 1.17 1.17 0 0 1 .58.89 9.36 9.36 0 0 1-4.77 9.17l-22.28 12.61a30.87 30.87 0 0 1-6.28 2.69l-10.79 3.3a.76.76 0 0 1-.81-1.22l7.58-8.17a30.65 30.65 0 0 1 5.14-4.43Z"/><path class="cls-6" d="m107.94 901.5 44.82-28a1.16 1.16 0 0 1 .18.51 9.36 9.36 0 0 1-4.77 9.17l-22.28 12.61a30.87 30.87 0 0 1-6.28 2.69l-10.79 3.3a.76.76 0 0 1-.88-.28Z"/><path class="cls-4" d="m118 893.58 1.31.08a.75.75 0 0 1 .67 1l-.47 1.19a.77.77 0 0 1-.31.36l-10.2 6.44a.76.76 0 0 1-.46.12l-1.31-.08a.75.75 0 0 1-.68-1l.48-1.19a.87.87 0 0 1 .3-.36l10.3-6.42a.81.81 0 0 1 .37-.14Z"/><path class="cls-7" d="M145.65 872.94c1 .1 3.55.5 4.63 2.14s.41 4 .07 5a1.31 1.31 0 0 1-.56.67l-1.79 1.12a.16.16 0 0 1-.24-.19c.42-1.31.84-3.63-.06-5s-3.23-2-4.63-2.13a.16.16 0 0 1-.07-.29l1.81-1.13a1.38 1.38 0 0 1 .84-.19Z"/><path class="cls-3" d="M113.29 718.77a1.47 1.47 0 0 1-1.89.79l-2.7-1.06a1.39 1.39 0 0 1-.8-1.83 1.45 1.45 0 0 1 1.88-.79l2.7 1.06a1.4 1.4 0 0 1 .81 1.83Zm-8.68 20.98a1.4 1.4 0 0 0-.8-1.84l-2.7-1.06a1.47 1.47 0 0 0-1.89.79 1.41 1.41 0 0 0 .81 1.84l2.7 1a1.46 1.46 0 0 0 1.88-.73Zm7.39-29.11a1.47 1.47 0 0 1-1.89.78l-2.69-1a1.4 1.4 0 0 1-.81-1.84 1.46 1.46 0 0 1 1.89-.78l2.7 1a1.4 1.4 0 0 1 .8 1.84Zm-14.14 34.08a1.4 1.4 0 0 0-.8-1.84l-2.7-1a1.47 1.47 0 0 0-1.89.78 1.4 1.4 0 0 0 .81 1.84l2.69 1a1.47 1.47 0 0 0 1.89-.78Z"/><path class="cls-4" d="M107.46 733.25a.69.69 0 0 1 .16 1.22l-19.33 13.76a.76.76 0 0 1-.7.09l-4.9-1.92a.7.7 0 0 1-.25-1.15L97.85 730a.73.73 0 0 1 .79-.16Zm3.25-7.87a.72.72 0 0 0 1-.78l-4.15-22.94a.73.73 0 0 0-.45-.53l-4.9-1.92a.72.72 0 0 0-1 .66l.24 21.41a.7.7 0 0 0 .45.65Zm-21.23-5.26a.72.72 0 0 0 1-.75l-1.27-9.63a.75.75 0 0 0-.45-.57l-4.1-1.6a.72.72 0 0 0-1 .67l.15 9.2a.7.7 0 0 0 .45.64Zm-1.09 2.62a.7.7 0 0 1 .19 1.21L80.8 730a.75.75 0 0 1-.72.11l-4.1-1.6a.7.7 0 0 1-.24-1.16l6.65-6.53a.75.75 0 0 1 .79-.16Z"/><path class="cls-5" d="M116.31 726.32a8.91 8.91 0 0 1 6.07 7.66 1.08 1.08 0 0 1-.38.92 9.34 9.34 0 0 1-9.83 1.44l-22.1-9.75a29.7 29.7 0 0 1-5.55-3.21L76 717.12a.71.71 0 0 1 .53-1.27l10.57 1.2a30.1 30.1 0 0 1 6.3 1.42Z"/><path class="cls-6" d="m75.8 716.29 46.5 18.19a1.12 1.12 0 0 1-.3.42 9.34 9.34 0 0 1-9.83 1.44l-22.1-9.75a29.7 29.7 0 0 1-5.55-3.21L76 717.12a.69.69 0 0 1-.2-.83Z"/><path class="cls-4" d="m87.55 719.51.66 1a.7.7 0 0 1-.44 1.06l-1.2.29a.69.69 0 0 1-.45 0l-10.68-4.17a.74.74 0 0 1-.34-.29l-.66-1a.7.7 0 0 1 .44-1.06l1.2-.3a.86.86 0 0 1 .45 0l10.68 4.18a.78.78 0 0 1 .34.29Z"/><path class="cls-7" d="M118.89 728.86c.49.83 1.54 2.92.84 4.62s-3 2.5-3.89 2.77a1.34 1.34 0 0 1-.84 0l-1.88-.74a.15.15 0 0 1 0-.28c1.27-.4 3.32-1.35 3.91-2.76s-.23-3.47-.86-4.62a.15.15 0 0 1 .19-.21l1.88.74a1.2 1.2 0 0 1 .65.48Z"/><path class="cls-3" d="M176.77 586.2a1.33 1.33 0 0 1-1.84 0l-1.87-1.75a1.23 1.23 0 0 1 0-1.78 1.33 1.33 0 0 1 1.84 0l1.87 1.75a1.24 1.24 0 0 1 0 1.78Zm-14.39 14.58a1.25 1.25 0 0 0 0-1.79l-1.87-1.75a1.34 1.34 0 0 0-1.84 0 1.24 1.24 0 0 0 0 1.79l1.87 1.75a1.34 1.34 0 0 0 1.84 0ZM178.46 579a1.33 1.33 0 0 1-1.84 0l-1.87-1.75a1.23 1.23 0 0 1 0-1.78 1.31 1.31 0 0 1 1.83 0l1.88 1.75a1.25 1.25 0 0 1 0 1.78Zm-23.39 23.71a1.23 1.23 0 0 0 0-1.78l-1.87-1.75a1.33 1.33 0 0 0-1.84 0 1.24 1.24 0 0 0 0 1.79l1.87 1.75a1.33 1.33 0 0 0 1.84-.01Z"/><path class="cls-4" d="M167 596.31a.63.63 0 0 1-.29 1.07l-20.76 5.14a.69.69 0 0 1-.61-.16l-3.41-3.19a.62.62 0 0 1 .19-1l18-7.68a.68.68 0 0 1 .71.12Zm5.37-5.47a.65.65 0 0 0 1.08-.32l4.43-20.38a.61.61 0 0 0-.18-.59l-3.41-3.19a.66.66 0 0 0-1.06.23l-7.15 17.84a.62.62 0 0 0 .15.69Zm-15.81-11.26a.65.65 0 0 0 1.07-.29l2.26-8.41a.61.61 0 0 0-.18-.61l-2.85-2.66a.65.65 0 0 0-1.05.23l-3 7.67a.64.64 0 0 0 .16.69Zm-1.8 1.82a.63.63 0 0 1-.26 1.07L146 585a.66.66 0 0 1-.63-.15l-2.85-2.66a.63.63 0 0 1 .19-1l7.76-3.26a.66.66 0 0 1 .71.13Z"/><path class="cls-5" d="M176.69 593.44a7.79 7.79 0 0 1 2.4 8.32 1 1 0 0 1-.63.65 8.35 8.35 0 0 1-8.65-2l-15-15.27a24.73 24.73 0 0 1-3.5-4.47l-4.89-7.94a.64.64 0 0 1 .86-.88l8.37 4.43a26.31 26.31 0 0 1 4.73 3.22Z"/><path class="cls-6" d="m146.52 572 32.34 30.19a1.18 1.18 0 0 1-.4.25 8.35 8.35 0 0 1-8.65-2l-15-15.27a24.73 24.73 0 0 1-3.5-4.47l-4.89-7.94a.61.61 0 0 1 .1-.76Z"/><path class="cls-4" d="m155.17 578.45.19 1.06a.65.65 0 0 1-.73.74l-1.09-.15a.67.67 0 0 1-.36-.17l-7.43-6.93a.71.71 0 0 1-.19-.35l-.19-1a.64.64 0 0 1 .73-.74l1.09.14a.67.67 0 0 1 .36.17l7.43 6.94a.64.64 0 0 1 .19.29Z"/><path class="cls-7" d="M178 596.38c.12.85.27 2.93-.89 4.11s-3.3 1.12-4.18 1a1.16 1.16 0 0 1-.68-.31L170.9 600a.14.14 0 0 1 .11-.23c1.19.07 3.22 0 4.19-1s1-3 .87-4.11a.14.14 0 0 1 .23-.11l1.31 1.22a1.16 1.16 0 0 1 .39.61Z"/><path class="cls-3" d="M321 532.19a1.54 1.54 0 0 1-2-.81l-1.16-2.73a1.48 1.48 0 0 1 .83-1.94 1.54 1.54 0 0 1 2 .81l1.15 2.74a1.47 1.47 0 0 1-.82 1.93Zm-22.51 9.01a1.48 1.48 0 0 0 .83-1.94l-1.16-2.73a1.53 1.53 0 0 0-2-.81 1.46 1.46 0 0 0-.83 1.93l1.16 2.74a1.53 1.53 0 0 0 2 .81Zm27.8-15.93a1.53 1.53 0 0 1-2-.81l-1.16-2.73a1.48 1.48 0 0 1 .83-1.94 1.53 1.53 0 0 1 2 .81l1.16 2.74a1.46 1.46 0 0 1-.83 1.93Zm-36.57 14.64a1.46 1.46 0 0 0 .83-1.93l-1.16-2.74a1.53 1.53 0 0 0-2-.81 1.48 1.48 0 0 0-.83 1.94l1.16 2.73a1.53 1.53 0 0 0 2 .81Z"/><path class="cls-4" d="M305.58 538.52a.75.75 0 0 1-.83 1l-24.73-4a.76.76 0 0 1-.58-.44l-2.1-5a.75.75 0 0 1 .7-1l23 .07a.78.78 0 0 1 .71.45Zm8.42-3.38a.77.77 0 0 0 1.32.15l14.68-19.8a.74.74 0 0 0 .09-.72l-2.11-5a.78.78 0 0 0-1.24-.24l-16.34 15.85a.74.74 0 0 0-.17.81Zm-11.45-19.33a.77.77 0 0 0 1.3.18l6.5-8a.73.73 0 0 0 .11-.74l-1.76-4.15a.77.77 0 0 0-1.25-.24l-7 6.83a.73.73 0 0 0-.17.8Zm-2.81 1.12a.75.75 0 0 1-.79 1l-10.39-1.21a.79.79 0 0 1-.61-.46l-1.76-4.15a.74.74 0 0 1 .71-1l9.9.07a.75.75 0 0 1 .7.46Z"/><path class="cls-5" d="M317.39 539.91a9.09 9.09 0 0 1-1.46 10 1.21 1.21 0 0 1-1 .4 9.52 9.52 0 0 1-8.3-6.12L298 521a28.81 28.81 0 0 1-1.58-6.4L295 503.81a.76.76 0 0 1 1.36-.54l6.8 8.59a29.53 29.53 0 0 1 3.51 5.62Z"/><path class="cls-6" d="m295.5 503 20 47.21a1.39 1.39 0 0 1-.54.08 9.52 9.52 0 0 1-8.3-6.12L298 521a28.81 28.81 0 0 1-1.58-6.4L295 503.81a.71.71 0 0 1 .5-.81Z"/><path class="cls-4" d="m301.61 514-.3 1.22a.77.77 0 0 1-1.14.46l-1.1-.66a.73.73 0 0 1-.3-.35l-4.59-10.84a.73.73 0 0 1 0-.46l.31-1.22a.76.76 0 0 1 1.13-.46l1.11.66a.79.79 0 0 1 .3.35l4.59 10.84a.73.73 0 0 1-.01.46Z"/><path class="cls-7" d="M317.32 543.65c-.28 1-1.12 3.26-2.94 4s-4.08-.32-5-.82a1.31 1.31 0 0 1-.58-.65l-.81-1.91a.16.16 0 0 1 .23-.19c1.24.63 3.47 1.43 5 .83s2.51-2.71 2.93-4a.16.16 0 0 1 .3 0l.81 1.91a1.22 1.22 0 0 1 .06.83Z"/><path style="fill:#dadada;stroke-width:2.14px;stroke:#1d1d1b;stroke-miterlimit:10" d="m191.13 639.59-9.55 2.85 12.09 32.19-18.66 57.01-22.67-7.15-14.6 30.62 19.21 8.96 4 15.22 11.05 5.46 25.75 59.22-9.7 8.99 16.11 26.62 9.34-4.04 11.22 27.45 41.31 19.87 38.98-13.98 31.27 13.02 7.62-13.53 23.89 6.94 10.8 25.07 41.42-14.4-1.7-9.49 11.77-4.46-9.43-31.42 7.68-6.2 33.31-10.57-12.57-41.89 29.79-65.02 17.36 5.61 15.61-32.02-18.42-11.54 23.91-13.86 594.36 250.59 7.19-15.91 20.66 9.94 82.01-195.79 14.7 4.83 32.02-66.62-727.62-285.8-27.36 68.58-10.51 25.25-29.22-10.48 39.77-92.45 24.55-56.29-75.45-33.66-9.39 20.75 42.83 19.16-93.29 199.2-29.77-11.35-15.34 38.81-39.47-12.58-16.18 34.12-74.06 29.51-10.59-17.5-32.85 10.42 6.82 21.74z"/><path style="stroke-linecap:round;stroke-linejoin:round;stroke:#000;fill:#9d9d9c;stroke-width:4.15px;opacity:.7" d="m333.94 594.77-80.3 146.39 25.1 70.52L340 835.02l66.96-13.82 78.74-141.29-59.55-76.38 112.47-263.6-22.23-9.67-119.45 256.19-63 8.32z"/><path style="stroke-width:2.99px;fill:#dadada;stroke:#1d1d1b;stroke-miterlimit:10" d="M1304.75 706.4 899.84 546.78l-20.6 51.56 24.78 10.37-72.79 164.71 352.23 147.28 72.8-164.72 22.89 9.58 25.6-59.16z"/><path style="stroke-width:3.08px;fill:#dadada;stroke:#1d1d1b;stroke-miterlimit:10" d="M1155.52 983.95 767.56 821.73l31.65-71.61 387.95 162.21-31.64 71.62z"/><path class="cls-12" d="m280.44 655.35-30.77 57.35-3.23-1.63 30.78-57.36 3.22 1.64z"/><path class="cls-13" d="m264.5 715.1-1.18 2.18-12.66-6.43 1.17-2.18 12.67 6.43zm27.61-51.47-1.17 2.18-12.66-6.43 1.17-2.18 12.66 6.43z"/><path class="cls-14" d="m255.44 696.43-6.81 12.67a1.45 1.45 0 0 1-2.15.45l-2.19-1.7 7.61-14.18 2.68.78a1.39 1.39 0 0 1 .86 1.98Z"/><path class="cls-14" d="m251.9 693.67-7.61 14.18-12.46-6.33a2.73 2.73 0 0 1-1.21-3.74l5-9.26a2.88 2.88 0 0 1 3.84-1.17Z"/><path class="cls-15" d="m240 706.09.34-.63a1.71 1.71 0 0 1 2.26-.69l3.8 1.93-1.89 3.52-3.8-1.93a1.61 1.61 0 0 1-.71-2.2Zm7.65-14.18.33-.63a1.72 1.72 0 0 1 2.27-.69l3.8 1.93-1.89 3.48-3.8-1.93a1.61 1.61 0 0 1-.71-2.16Z"/><path class="cls-14" d="m266.14 676.48-6.8 12.67a1.45 1.45 0 0 1-2.15.45l-2.19-1.7 7.6-14.18 2.68.78a1.39 1.39 0 0 1 .86 1.98Z"/><path class="cls-14" d="M262.6 673.72 255 687.9l-12.47-6.32a2.74 2.74 0 0 1-1.21-3.75l5-9.26a2.89 2.89 0 0 1 3.85-1.17Z"/><path class="cls-15" d="m250.74 686.14.34-.62a1.71 1.71 0 0 1 2.26-.7l3.8 1.93-1.89 3.52-3.8-1.93a1.61 1.61 0 0 1-.71-2.2Zm7.61-14.14.34-.63a1.71 1.71 0 0 1 2.26-.7l3.8 1.93-1.89 3.52-3.8-1.92a1.61 1.61 0 0 1-.71-2.2Z"/><path class="cls-14" d="M276.84 656.53 270 669.2a1.44 1.44 0 0 1-2.15.45L265.7 668l7.61-14.17 2.68.77a1.38 1.38 0 0 1 .85 1.93Zm-3.53-2.75L265.7 668l-12.46-6.32a2.74 2.74 0 0 1-1.21-3.75l5-9.26a2.89 2.89 0 0 1 3.85-1.17Z"/><path class="cls-15" d="m261.45 666.2.33-.63a1.72 1.72 0 0 1 2.27-.7l3.8 1.93-1.85 3.52-3.8-1.92a1.61 1.61 0 0 1-.75-2.2Zm7.6-14.2.34-.63a1.71 1.71 0 0 1 2.26-.7l3.8 1.93-1.88 3.53-3.81-1.93a1.62 1.62 0 0 1-.71-2.2Z"/><path class="cls-12" d="m434.4 801.64 30.78-57.36 3.22 1.64-30.78 57.36-3.22-1.64z"/><path class="cls-13" d="m450.35 741.89 1.17-2.18 12.66 6.43-1.17 2.18-12.66-6.43zm-27.61 51.47 1.17-2.19 12.66 6.43-1.17 2.18-12.66-6.42z"/><path class="cls-14" d="m459.41 760.56 6.8-12.67a1.44 1.44 0 0 1 2.15-.45l2.19 1.69-7.55 14.18-2.68-.78a1.38 1.38 0 0 1-.91-1.97Zm3.59 2.75 7.6-14.18 12.4 6.33a2.74 2.74 0 0 1 1.21 3.75l-5 9.26a2.9 2.9 0 0 1-3.85 1.17Z"/><path class="cls-15" d="m474.81 750.89-.34.63a1.69 1.69 0 0 1-2.26.69l-3.8-1.93 1.89-3.52 3.8 1.93a1.61 1.61 0 0 1 .71 2.2Zm-7.61 14.18-.34.63a1.69 1.69 0 0 1-2.26.69l-3.8-1.93 1.89-3.52 3.8 1.93a1.61 1.61 0 0 1 .71 2.2Z"/><path class="cls-14" d="m448.71 780.51 6.8-12.67a1.44 1.44 0 0 1 2.15-.45l2.19 1.69-7.61 14.18-2.68-.78a1.37 1.37 0 0 1-.85-1.97Zm3.53 2.75 7.61-14.18 12.47 6.33a2.75 2.75 0 0 1 1.2 3.75l-5 9.26a2.9 2.9 0 0 1-3.85 1.17Z"/><path class="cls-15" d="m464.1 770.84-.33.63a1.7 1.7 0 0 1-2.27.69l-3.8-1.93 1.89-3.52 3.8 1.93a1.61 1.61 0 0 1 .71 2.2ZM456.5 785l-.34.63a1.69 1.69 0 0 1-2.26.69l-3.8-1.93 1.89-3.52 3.8 1.93a1.62 1.62 0 0 1 .71 2.2Z"/><path class="cls-14" d="m438 800.46 6.8-12.68a1.46 1.46 0 0 1 2.16-.44l2.19 1.69-7.61 14.18-2.68-.78a1.38 1.38 0 0 1-.86-1.97Z"/><path class="cls-14" d="m441.54 803.21 7.61-14.21 12.46 6.33a2.74 2.74 0 0 1 1.21 3.75l-5 9.26a2.9 2.9 0 0 1-3.85 1.17Z"/><path class="cls-15" d="m453.4 790.79-.34.63a1.69 1.69 0 0 1-2.26.69l-3.8-1.93 1.89-3.52 3.8 1.93a1.61 1.61 0 0 1 .71 2.2ZM445.79 805l-.34.63a1.69 1.69 0 0 1-2.26.69l-3.8-1.93 1.89-3.52 3.8 1.93a1.61 1.61 0 0 1 .71 2.2Z"/><path class="cls-12" d="m273.36 826.28 61.95 23.54-1.32 3.3-61.95-23.55 1.32-3.29z"/><path class="cls-13" d="m336.15 835.22 2.36.9-5.2 12.94-2.36-.9 5.2-12.94zm-55.59-21.12 2.36.89-5.2 12.94-2.36-.89 5.2-12.94z"/><path class="cls-14" d="m318.05 846 13.69 5.2a1.37 1.37 0 0 1 .69 2l-1.49 2.31-15.32-5.83.51-2.67a1.43 1.43 0 0 1 1.92-1.01Zm-2.43 3.72 15.32 5.83-5.12 12.74a2.88 2.88 0 0 1-3.7 1.57l-10-3.8a2.77 2.77 0 0 1-1.62-3.6Z"/><path class="cls-15" d="m329.6 859.85-.68-.26a1.61 1.61 0 0 1-.95-2.11l1.56-3.88 3.8 1.44-1.56 3.88a1.69 1.69 0 0 1-2.17.93ZM314.28 854l-.68-.26a1.62 1.62 0 0 1-1-2.11l1.56-3.89 3.81 1.45-1.56 3.88a1.7 1.7 0 0 1-2.13.93Z"/><path class="cls-14" d="m296.5 837.82 13.69 5.2a1.37 1.37 0 0 1 .69 2l-1.49 2.31-15.32-5.83.51-2.67a1.43 1.43 0 0 1 1.92-1.01Zm-2.43 3.71 15.32 5.83-5.12 12.74a2.88 2.88 0 0 1-3.69 1.57l-10-3.8a2.75 2.75 0 0 1-1.62-3.6Z"/><path class="cls-15" d="m308.05 851.66-.68-.26a1.61 1.61 0 0 1-.95-2.11l1.56-3.88 3.8 1.44-1.56 3.88a1.69 1.69 0 0 1-2.17.93Zm-15.31-5.82-.68-.26a1.61 1.61 0 0 1-.95-2.11l1.56-3.89 3.8 1.45-1.56 3.88a1.69 1.69 0 0 1-2.17.93Z"/><path class="cls-14" d="m275 829.63 13.7 5.2a1.37 1.37 0 0 1 .68 2l-1.49 2.31-15.31-5.83.5-2.67a1.43 1.43 0 0 1 1.92-1.01Zm-2.47 3.71 15.31 5.83-5.12 12.74a2.87 2.87 0 0 1-3.69 1.57l-10-3.8a2.75 2.75 0 0 1-1.62-3.6Z"/><path class="cls-15" d="m286.5 843.47-.68-.26a1.62 1.62 0 0 1-.95-2.11l1.56-3.88 3.81 1.44-1.56 3.88a1.7 1.7 0 0 1-2.18.93Zm-15.31-5.82-.68-.26a1.61 1.61 0 0 1-.95-2.11l1.56-3.89 3.8 1.45-1.56 3.88a1.69 1.69 0 0 1-2.17.93Z"/><path class="cls-12" d="m240.53 752.01 21.3 61.29-3.44 1.13-21.3-61.29 3.44-1.13z"/><path class="cls-13" d="m273.86 804.54.82 2.33-13.54 4.45-.81-2.33 13.53-4.45zm-19.11-55 .81 2.34-13.53 4.45-.81-2.34 13.53-4.45z"/><path class="cls-14" d="m253.73 798 4.71 13.55a1.39 1.39 0 0 1-1.16 1.82l-2.77.36-5.26-15.15 2.43-1.34a1.44 1.44 0 0 1 2.05.76Z"/><path class="cls-14" d="m249.25 798.57 5.26 15.15-13.32 4.38a2.85 2.85 0 0 1-3.61-1.74l-3.44-9.89a2.75 2.75 0 0 1 1.79-3.52Z"/><path class="cls-15" d="m250.26 815.5-.23-.68a1.61 1.61 0 0 1 1.05-2.06l4.06-1.34 1.31 3.76-4.06 1.34a1.69 1.69 0 0 1-2.13-1.02ZM245 800.34l-.24-.67a1.63 1.63 0 0 1 1.06-2.07l4.06-1.33 1.3 3.76-4.06 1.34a1.68 1.68 0 0 1-2.12-1.03Z"/><path class="cls-14" d="m246.33 776.67 4.7 13.55a1.39 1.39 0 0 1-1.15 1.82l-2.78.37-5.26-15.16 2.43-1.34a1.45 1.45 0 0 1 2.06.76Z"/><path class="cls-14" d="m241.84 777.25 5.26 15.16-13.32 4.38a2.87 2.87 0 0 1-3.61-1.74l-3.44-9.9a2.76 2.76 0 0 1 1.79-3.52Z"/><path class="cls-15" d="m242.86 794.18-.24-.67a1.63 1.63 0 0 1 1-2.07l4.06-1.34 1.31 3.77-3.99 1.33a1.68 1.68 0 0 1-2.14-1.02ZM237.59 779l-.23-.68a1.61 1.61 0 0 1 1-2.06l4.06-1.34 1.31 3.76-4.07 1.34a1.69 1.69 0 0 1-2.07-1.02Z"/><path class="cls-14" d="m238.92 755.35 4.7 13.55a1.39 1.39 0 0 1-1.15 1.82l-2.77.37-5.27-15.15 2.43-1.35a1.45 1.45 0 0 1 2.06.76Z"/><path class="cls-14" d="m234.43 755.94 5.27 15.15-13.33 4.38a2.87 2.87 0 0 1-3.61-1.74l-3.44-9.9a2.75 2.75 0 0 1 1.79-3.51Z"/><path class="cls-15" d="m235.45 772.86-.24-.67a1.63 1.63 0 0 1 1-2.07l4.06-1.34 1.31 3.77-4.06 1.33a1.68 1.68 0 0 1-2.07-1.02Zm-5.27-15.15L230 757a1.62 1.62 0 0 1 1-2l4.06-1.34 1.31 3.76-4.06 1.34a1.69 1.69 0 0 1-2.13-1.05Z"/><path class="cls-16" d="M362.54 608.83a.79.79 0 0 1-.39-1.06.79.79 0 0 0-.39-1.07l-4.45-2.06a.84.84 0 0 0-1.1.38.84.84 0 0 1-1.1.38.8.8 0 0 1-.39-1.07 2.5 2.5 0 0 1 3.29-1.14l4.46 2.06a2.38 2.38 0 0 1 1.17 3.2.84.84 0 0 1-1.1.38Z"/><path class="cls-17" d="m353.07 638.08-15.3-7.08a2.44 2.44 0 0 1-1.2-3.3l11.26-23a2.57 2.57 0 0 1 3.39-1.17l15.29 7.08a2.45 2.45 0 0 1 1.21 3.3l-11.26 23a2.57 2.57 0 0 1-3.39 1.17Z"/><ellipse class="cls-16" cx="339.21" cy="633.68" rx="1.87" ry="1.82"/><ellipse class="cls-16" cx="350.02" cy="638.68" rx="1.87" ry="1.82"/><path class="cls-16" d="M341.16 628.77h0a1.62 1.62 0 0 1-.79-2.17l9-18.36a1.69 1.69 0 0 1 2.23-.77h0a1.62 1.62 0 0 1 .79 2.17l-9 18.36a1.7 1.7 0 0 1-2.23.77Zm5.75 2.66h0a1.62 1.62 0 0 1-.79-2.17l9-18.36a1.69 1.69 0 0 1 2.23-.77h0a1.61 1.61 0 0 1 .79 2.17l-9 18.36a1.7 1.7 0 0 1-2.23.77Zm5.75 2.66h0a1.62 1.62 0 0 1-.79-2.17l9-18.36a1.7 1.7 0 0 1 2.23-.77h0a1.61 1.61 0 0 1 .79 2.17l-9 18.36a1.69 1.69 0 0 1-2.23.77Z"/><path class="cls-17" d="m378.44 653.84-20.34-9.41a1.76 1.76 0 0 1-.87-2.38l5.95-12.16a1.86 1.86 0 0 1 2.45-.85l20.37 9.41a1.76 1.76 0 0 1 .87 2.38L380.89 653a1.87 1.87 0 0 1-2.45.84Z"/><path class="cls-16" d="m381.38 632.06-7.77-3.59a.91.91 0 0 0-1.22.42l-1.31 2.67 1.54.71 1-2 6.35 2.93-1 2 1.54.71 1.31-2.67a.88.88 0 0 0-.44-1.18Z"/><path class="cls-18" d="m361.79 646.13-2.41-1.11 7.53-15.39 2.4 1.11-7.52 15.39z"/><path class="cls-16" d="m366.08 636.12-1.42-.66a1 1 0 0 0-1.3.45l-1.51 3.09a.94.94 0 0 0 .46 1.27l1.42.65a1 1 0 0 0 1.3-.44l1.51-3.1a.93.93 0 0 0-.46-1.26Z"/><path class="cls-19" d="m364.66 637.24 1.39-2.85"/><path class="cls-18" d="m377.16 653.25-2.41-1.12 7.53-15.39 2.4 1.12-7.52 15.39z"/><path class="cls-16" d="m381.45 643.23-1.42-.66a1 1 0 0 0-1.3.45l-1.51 3.09a1 1 0 0 0 .46 1.27l1.42.66a1 1 0 0 0 1.3-.45l1.52-3.1a.93.93 0 0 0-.47-1.26Z"/><path class="cls-19" d="m380.03 644.35 1.4-2.85"/><path d="M376.13 662.56 330 641.21a4.38 4.38 0 0 1-2.16-5.89h0a4.61 4.61 0 0 1 6.06-2.1l46.1 21.36a4.36 4.36 0 0 1 2.15 5.89h0a4.59 4.59 0 0 1-6.02 2.09Z" style="fill:#1d71b8;stroke-width:.89px;stroke-linecap:round;stroke-linejoin:round;stroke:#000"/><ellipse class="cls-21" cx="331.92" cy="637.21" rx="2.16" ry="2.1"/><ellipse class="cls-21" cx="378.12" cy="658.59" rx="2.16" ry="2.1"/><ellipse class="cls-21" cx="370.42" cy="655.02" rx="2.16" ry="2.1"/><ellipse class="cls-21" cx="362.72" cy="651.46" rx="2.16" ry="2.1"/><ellipse class="cls-21" cx="355.02" cy="647.9" rx="2.16" ry="2.1"/><ellipse class="cls-21" cx="347.32" cy="644.34" rx="2.16" ry="2.1"/><ellipse class="cls-21" cx="339.62" cy="640.77" rx="2.16" ry="2.1"/><path class="cls-22" d="m1160.28 899.94-90.86-39.47a3.72 3.72 0 0 0-4.85 1.81h0a3.54 3.54 0 0 0 1.86 4.73l90.86 39.46a3.7 3.7 0 0 0 4.85-1.81h0a3.53 3.53 0 0 0-1.86-4.72Z"/><ellipse class="cls-23" cx="1137.31" cy="893.88" rx="3.68" ry="3.58"/><path class="cls-23" d="m1154.92 905.45-86.13-37.42-11.61 25.28 86.14 37.42 11.6-25.28zm-18.55-60.12-9.18-3.99-1.47 3.2 9.18 3.99 1.47-3.2z"/><ellipse class="cls-23" cx="1089.4" cy="873.07" rx="3.68" ry="3.58"/><path class="cls-22" d="M1135.86 834.44h0a5.07 5.07 0 0 0-6.63 2.47l-2 4.43 9.18 4 2-4.44a4.82 4.82 0 0 0-2.55-6.46Z"/><path style="stroke-width:1.58px;fill:#f9b233;stroke-linecap:round;stroke-linejoin:round;stroke:#000" d="m1121.84 921.39-43.17-18.75 30.06-65.48 43.17 18.75-30.06 65.48z"/><path class="cls-25" d="m1127.07 896.79-33.06-14.36 10.43-22.73 33.06 14.36-10.43 22.73z"/><path class="cls-23" d="m1120.54 889.61-16.67-7.24a1.45 1.45 0 0 1-.76-1.92l4.58-10a1.5 1.5 0 0 1 2-.73l16.67 7.24a1.44 1.44 0 0 1 .75 1.92l-4.58 10a1.5 1.5 0 0 1-1.99.73Z"/><path class="cls-22" d="m1107.37 883.89-2.46-1.07 5.8-12.61 2.46 1.06-5.8 12.62zm12.12 5.26-2.46-1.07 5.79-12.61 2.46 1.07-5.79 12.61z"/><path class="cls-26" d="m1122.76 871.99-6.89-2.99-1.32 2.88 6.89 2.99 1.32-2.88z"/><path class="cls-25" d="m1151.9 855.91-43.17-18.75-3.73 8.12 43.17 18.75 3.73-8.12z"/><ellipse cx="1113" cy="843.88" rx="1.78" ry="1.73" style="fill:#3f8be1;stroke-width:1.58px;stroke-linecap:round;stroke-linejoin:round;stroke:#000"/><ellipse class="cls-25" cx="1119.83" cy="846.85" rx="1.78" ry="1.73"/><path class="cls-23" d="m1085.7 867.55-12.84-5.55a1.76 1.76 0 0 1-.93-2.35l5.13-11.17a9 9 0 0 1 11.71-4.36h0a8.54 8.54 0 0 1 4.48 11.39l-5.13 11.17a1.86 1.86 0 0 1-2.42.87Z"/><path class="cls-26" d="M1086.68 843.15q4.42-4.17 4.2 1.83"/><path class="cls-23" d="m1087.65 863.44-13-5.63a1.87 1.87 0 0 1-1-2.5l1.38-3a.67.67 0 0 1 .88-.32l15.29 6.64a.64.64 0 0 1 .33.85l-1.38 3a2 2 0 0 1-2.5.96ZM1085 852.3l-1.14-2.9 2.98-1.11 1.14 2.9-2.98 1.11z"/><path class="cls-26" d="m1076.93 857.07-1.36 2.97m11.16 1.29-1.36 2.97"/><ellipse class="cls-23" cx="1158.78" cy="903.2" rx="3.68" ry="3.58"/><ellipse class="cls-23" cx="1148.05" cy="898.54" rx="3.68" ry="3.58"/><ellipse class="cls-23" cx="1067.93" cy="863.74" rx="3.68" ry="3.58"/><ellipse class="cls-23" cx="1078.67" cy="868.41" rx="3.68" ry="3.58"/><path class="cls-28" d="m817.68 542.49 5.64 2.32-22.54 51.92-5.64-2.31 22.54-51.93zm-41.49-17.04 5.64 2.31-22.54 51.93-5.64-2.31 22.54-51.93z"/><path class="cls-29" d="m754.96 544.47 68.64 28.19-8.08 18.6-68.63-28.19 8.07-18.6z"/><path class="cls-28" d="m806.26 569.09 12.94 5.31-5.46 12.58-12.94-5.31 5.46-12.58z"/><path class="cls-30" d="m813.58 579.5-7.16-2.94m1.75 4.23-1.76-4.22 4.34-1.73"/><path class="cls-31" d="m799.34 573.65-17.61-7.23m16.15 10.6-17.61-7.24m20.53.51-13.81-5.67"/><path class="cls-32" d="M753.1 559.1h0a4 4 0 0 0 3.61 1.83l4.25-.26 7.88 6 3-.07-5.11-6.24 5.43-.33 1.66 3h1.65l-.09-3.19-.06-2.35-21.09-.22a1.24 1.24 0 0 0-1.13 1.83Z"/><path class="cls-29" d="m765.18 520.92 68.64 28.2-8.08 18.59-68.63-28.19 8.07-18.6z"/><path class="cls-28" d="m816.49 545.54 12.93 5.31-5.46 12.58-12.94-5.31 5.47-12.58z"/><path class="cls-30" d="m816.64 553.02 7.16 2.94m-4.33 1.72 4.33-1.71-1.75-4.23"/><path class="cls-31" d="m809.56 550.11-17.61-7.23m16.15 10.59-17.61-7.23m20.53.51-13.81-5.68"/><path class="cls-32" d="M769.3 527h0a3.78 3.78 0 0 0 1.22 3.77l3.2 2.74 1.24 9.63 2.17 2 .91-7.92 4.09 3.49-1 3.3 1.19 1.1 2.26-2.32 1.67-1.71-14.76-14.66a1.3 1.3 0 0 0-2.19.58Z"/><path class="cls-28" d="m1027.8 619.65 5.64 2.32-22.54 51.93-5.65-2.32 22.55-51.93zm-41.5-17.04 5.64 2.32-22.54 51.93-5.64-2.32 22.54-51.93z"/><path class="cls-29" d="m965.07 621.63 68.64 28.19-8.07 18.6L957 640.23l8.07-18.6z"/><path class="cls-28" d="m1016.38 646.25 12.93 5.31-5.46 12.58-12.93-5.31 5.46-12.58z"/><path class="cls-30" d="m1023.7 656.67-7.17-2.95m1.76 4.23-1.76-4.22 4.34-1.73"/><path class="cls-31" d="m1009.45 650.82-17.61-7.24m16.15 10.6-17.61-7.23m20.53.5-13.81-5.67"/><path class="cls-32" d="M963.21 636.26h0a4 4 0 0 0 3.61 1.83l4.25-.26 7.88 5.95 3-.07-5.12-6.23 5.43-.34 1.67 3h1.64l-.08-3.2-.06-2.35-21.1-.21a1.24 1.24 0 0 0-1.12 1.88Z"/><path class="cls-29" d="m975.29 598.09 68.64 28.19-8.07 18.6-68.64-28.2 8.07-18.59z"/><path class="cls-28" d="m1026.6 622.71 12.93 5.31-5.46 12.58-12.93-5.31 5.46-12.58z"/><path class="cls-30" d="m1026.75 630.18 7.17 2.94m-4.34 1.73 4.33-1.72-1.75-4.23"/><path class="cls-31" d="m1019.67 627.27-17.61-7.23m16.15 10.6-17.61-7.24m20.53.51-13.8-5.67"/><path class="cls-32" d="M979.42 604.2h0a3.76 3.76 0 0 0 1.22 3.78l3.19 2.74 1.25 9.62 2.16 2 .92-7.93 4.08 3.5-1 3.29 1.19 1.1 2.27-2.32 1.66-1.7-14.76-14.66a1.28 1.28 0 0 0-2.18.58Z"/><path class="cls-28" d="m672.21 482.84 5.64 2.32-22.55 51.92-5.64-2.31 22.55-51.93zm-41.5-17.04 5.64 2.31-22.54 51.93-5.64-2.32 22.54-51.92z"/><path class="cls-29" d="m609.48 484.82 68.64 28.19-8.07 18.6-68.64-28.2 8.07-18.59z"/><path class="cls-28" d="m660.79 509.44 12.93 5.31-5.46 12.58-12.93-5.31 5.46-12.58z"/><path class="cls-30" d="m668.11 519.85-7.17-2.94m1.76 4.22-1.76-4.21 4.34-1.73"/><path class="cls-31" d="m653.86 514-17.61-7.23m16.15 10.6-17.61-7.24m20.53.51-13.81-5.67"/><path class="cls-32" d="M607.62 499.45h0a4 4 0 0 0 3.61 1.83l4.25-.26 7.88 6 3-.07-5.12-6.24 5.43-.33 1.67 3h1.64l-.08-3.19-.06-2.36-21.1-.21a1.25 1.25 0 0 0-1.12 1.83Z"/><path class="cls-29" d="m619.7 461.27 68.64 28.2-8.07 18.59-68.64-28.19 8.07-18.6z"/><path class="cls-28" d="m671.01 485.89 12.93 5.31-5.46 12.59-12.93-5.32 5.46-12.58z"/><path class="cls-30" d="m671.16 493.37 7.17 2.94m-4.34 1.72 4.33-1.71-1.75-4.24"/><path class="cls-31" d="m664.08 490.46-17.61-7.23m16.15 10.59-17.61-7.23m20.53.51-13.81-5.68"/><path class="cls-32" d="M623.83 467.39h0a3.74 3.74 0 0 0 1.22 3.77l3.19 2.74 1.25 9.63 2.16 2 .92-7.93 4.08 3.5-1 3.3 1.19 1.1 2.27-2.32 1.66-1.71L626 466.81a1.29 1.29 0 0 0-2.17.58Z"/><path class="cls-4" d="m1215.15 123.21 34.28-5.84 32.45 114.77-57.14 9.74Z"/><path class="cls-7" d="m1199.86 120.09 62.86-10.71a2.89 2.89 0 0 1 3.35 2.29 2.83 2.83 0 0 1-2.35 3.27l-62.86 10.7a2.89 2.89 0 0 1-3.36-2.29 2.83 2.83 0 0 1 2.36-3.26Z"/><path class="cls-6" d="M1187 89.11a5.62 5.62 0 0 1 4.37-7.67l65.86-11.23A5.75 5.75 0 0 1 1264 76l-1.29 33.39-62.86 10.71Z"/><path class="cls-3" d="m1211.85 72.21 22.86-3.89 6.71 4.58-34.28 5.85Z"/><path class="cls-5" d="m1215.57 60.12 11.42-1.94 2.01 11.11-11.43 1.95-2-11.12z"/><path class="cls-6" d="m1221.28 59.15 5.71-.97 2 11.11-5.71.98-2-11.12z"/><ellipse class="cls-3" cx="1220.28" cy="53.59" rx="11.6" ry="11.29"/><path class="cls-33" d="M1192.51 90.53a2.81 2.81 0 0 1 2.15-3.93l10.62-1.81a2.9 2.9 0 0 1 3.36 2.29l1 5.56a2.83 2.83 0 0 1-2.35 3.27l-9.2 1.56a2.91 2.91 0 0 1-3.15-1.63Zm7.71 15.17a2.82 2.82 0 0 1 2.35-3.26l5.72-1a2.9 2.9 0 0 1 3.35 2.3l1 5.56a2.82 2.82 0 0 1-2.35 3.26l-5.72 1a2.88 2.88 0 0 1-3.35-2.29Zm16.49-22.86 17.14-2.92a2.9 2.9 0 0 1 3.36 2.3l1 5.55a2.83 2.83 0 0 1-2.35 3.27L1218.71 94a2.89 2.89 0 0 1-3.35-2.29l-1-5.56a2.84 2.84 0 0 1 2.35-3.31Z"/><path d="m1281.88 232.14-28.57 4.86-21-116.72 17.14-2.92 32.45 114.77Z" style="fill-rule:evenodd;fill:#106198"/><path class="cls-33" d="m1219.71 99.52 17.15-2.92a2.88 2.88 0 0 1 3.35 2.29l1 5.56a2.82 2.82 0 0 1-2.35 3.26l-17.14 2.92a2.89 2.89 0 0 1-3.36-2.29l-1-5.56a2.83 2.83 0 0 1 2.35-3.26Zm23.22-18.28a2.81 2.81 0 0 1 2.35-3.26l10.63-1.81a2.86 2.86 0 0 1 3.39 3l-.43 5.8a2.84 2.84 0 0 1-2.39 2.57l-9.2 1.57a2.89 2.89 0 0 1-3.35-2.29Zm5.35 13.41 5.72-1a2.89 2.89 0 0 1 3.36 2.29l1 5.56a2.83 2.83 0 0 1-2.36 3.26l-5.71 1a2.9 2.9 0 0 1-3.36-2.3l-1-5.55a2.83 2.83 0 0 1 2.35-3.26Z"/><path class="cls-35" d="m1230.43 126.33 5.72-1a2.89 2.89 0 0 1 3.35 2.29l1 5.56a2.84 2.84 0 0 1-2.36 3.27l-5.72 1a2.89 2.89 0 0 1-3.35-2.29l-1-5.56a2.83 2.83 0 0 1 2.36-3.27Zm3.01 16.67 5.71-1a2.89 2.89 0 0 1 3.36 2.29l1 5.56a2.83 2.83 0 0 1-2.36 3.26l-5.71 1a2.91 2.91 0 0 1-3.36-2.3l-1-5.55a2.83 2.83 0 0 1 2.36-3.26Zm3 16.68 5.71-1a2.9 2.9 0 0 1 3.36 2.29l1 5.56a2.83 2.83 0 0 1-2.36 3.27l-5.71 1a2.9 2.9 0 0 1-3.36-2.29l-1-5.56a2.84 2.84 0 0 1 2.36-3.27Zm3 16.68 5.71-1a2.89 2.89 0 0 1 3.36 2.29l1 5.56a2.83 2.83 0 0 1-2.35 3.26l-5.72 1a2.89 2.89 0 0 1-3.35-2.3l-1-5.56a2.83 2.83 0 0 1 2.35-3.25Zm3 16.64 5.72-1a2.88 2.88 0 0 1 3.35 2.29l1 5.56a2.84 2.84 0 0 1-2.36 3.27l-5.71 1a2.89 2.89 0 0 1-3.36-2.29l-1-5.56a2.83 2.83 0 0 1 2.36-3.27Zm3.01 16.71 5.71-1a2.91 2.91 0 0 1 3.36 2.3l1 5.56a2.83 2.83 0 0 1-2.36 3.26l-5.71 1a2.89 2.89 0 0 1-3.36-2.29l-1-5.56a2.83 2.83 0 0 1 2.36-3.27Zm3 16.67 5.71-1a2.9 2.9 0 0 1 3.36 2.29l1 5.56a2.83 2.83 0 0 1-2.36 3.27l-5.71 1a2.9 2.9 0 0 1-3.36-2.29l-1-5.56a2.84 2.84 0 0 1 2.36-3.27Z"/><path class="cls-4" d="m1215.35 91.63 4.17-9.27 6.86-1.16-5.59 12.41-2.08.35a2.89 2.89 0 0 1-3.35-2.29Zm19.16-.36-6.86 1.17 5.59-12.44.61-.11a2.89 2.89 0 0 1 3.36 2.29l.4 2.19Zm-16.16 17.03 4.17-9.26 6.87-1.17-5.6 12.41-2.07.35a2.89 2.89 0 0 1-3.36-2.29Zm19.16-.36-6.86 1.17 5.6-12.41.61-.1a2.88 2.88 0 0 1 3.35 2.29l.4 2.19ZM1193.63 93l3-6.73 6.86-1.17-5.59 12.41a2.93 2.93 0 0 1-3-1.66Zm15.1-5.41.91 5a2.83 2.83 0 0 1-2.35 3.27l-2.5.42Zm48.73-.42a3 3 0 0 1-1 .35l-6 1 5.59-12.4a2.86 2.86 0 0 1 3.2 3l-.35 4.7Zm-8.22-9.87-4.81 10.7a2.79 2.79 0 0 1-.5-1.17l-1-5.56a2.81 2.81 0 0 1 2.35-3.26Zm-2.82 23.33 2.76-6.13 4.82-.82a2.94 2.94 0 0 1 1.77.24l-5.32 11.82h-.16a2.9 2.9 0 0 1-3.36-2.3Zm11.98 1.52a2.81 2.81 0 0 1-.83 1.84Zm-57.7 6.27 2.77-6.13 4.82-.83a3 3 0 0 1 1.77.25l-5.33 11.82h-.16a2.88 2.88 0 0 1-3.35-2.29Zm11.99 1.52a2.81 2.81 0 0 1-.83 1.84Z"/><path class="cls-7" d="m381.35 513.74 3.81-.65a1.28 1.28 0 0 1 1.49 1l.67 3.7a1.27 1.27 0 0 1-1.05 1.46l-3.81.65a1.29 1.29 0 0 1-1.49-1l-.67-3.71a1.26 1.26 0 0 1 1.05-1.45Zm19.06-3.25 3.81-.65a1.29 1.29 0 0 1 1.49 1l.67 3.71a1.26 1.26 0 0 1-1.05 1.45l-3.81.65a1.29 1.29 0 0 1-1.49-1l-.67-3.71a1.26 1.26 0 0 1 1.05-1.45Z"/><path class="cls-36" d="m375.4 488 25.42-4.33a2.56 2.56 0 0 1 3 2l4.18 23.52a2.51 2.51 0 0 1-2.09 2.9l-25.42 4.33a2.56 2.56 0 0 1-3-2l-4.23-23.48a2.5 2.5 0 0 1 2.14-2.94Z"/><path class="cls-36" d="m393.23 514.26-5.12-28.43 12.71-2.16a2.56 2.56 0 0 1 3 2l4.18 23.52a2.51 2.51 0 0 1-2.09 2.9Z"/><path class="cls-37" d="m376.2 506.97 30.5-5.2.89 4.95-30.5 5.19-.89-4.94z"/><path class="cls-6" d="m378.96 507.77 25.42-4.33.44 2.47-25.41 4.33-.45-2.47z"/><path d="M378.83 492.51a2.51 2.51 0 0 0-2.09 2.9l1.33 7.42a1.3 1.3 0 0 0 1.5 1l22.87-3.9a1.26 1.26 0 0 0 1.05-1.45l-1.34-7.42a2.57 2.57 0 0 0-3-2l-1.28.22c-.7.12-.66 1-1.23 1.42a3.7 3.7 0 0 1-1.08.25l-12.71 2.16a3.45 3.45 0 0 1-1.1.13c-.69-.2-1-1.05-1.67-.93Z" style="fill:#297bb5"/><ellipse class="cls-7" cx="391.89" cy="506.84" rx="1.29" ry="1.25"/><path class="cls-35" d="m376.2 507 3.11.45a1.26 1.26 0 0 1 1.08 1l.29 1.58a1.26 1.26 0 0 1-1.05 1.45l-2.54.43Zm30.5-5.23-2.78 1.46a1.25 1.25 0 0 0-.65 1.32l.28 1.58a1.29 1.29 0 0 0 1.5 1l2.54-.43Z"/><path class="cls-7" d="M385.38 514.32a2.52 2.52 0 0 1 2.1-2.9l10.16-1.74a2.59 2.59 0 0 1 3 2l-15.25 2.6Zm-3.81-24.83 14-2.38a.65.65 0 0 1 .75.51.63.63 0 0 1-.52.73l-14 2.38a.65.65 0 0 1-.75-.51.63.63 0 0 1 .52-.73Z"/><path class="cls-37" d="m385.16 487.61 6.35-1.09a2 2 0 0 1 2.24 1.53 1.89 1.89 0 0 1-1.57 2.18l-6.36 1.09a2 2 0 0 1-2.24-1.53 1.89 1.89 0 0 1 1.58-2.18Z"/><path class="cls-6" d="M404.14 487.56a.63.63 0 0 1 .52-.73.65.65 0 0 1 .75.51l.67 3.71a.64.64 0 0 1-.53.73.65.65 0 0 1-.75-.51Z"/><path class="cls-6" d="M402.87 487.77a.62.62 0 0 1 .52-.72l1.27-.22a.65.65 0 0 1 .75.51.64.64 0 0 1-.53.73l-1.27.21a.63.63 0 0 1-.74-.51Zm-29.23 4.98a.65.65 0 0 0-.75-.51.63.63 0 0 0-.52.73l.67 3.71a.64.64 0 0 0 1.27-.22Z"/><path class="cls-6" d="M374.91 492.54a.64.64 0 0 0-.75-.51l-1.27.21a.63.63 0 0 0-.52.73.65.65 0 0 0 .75.51l1.27-.22a.62.62 0 0 0 .52-.72Z"/><path class="cls-7" d="m404.69 490.65 1.27-.22a1.3 1.3 0 0 1 1.5 1l.89 4.95a1.26 1.26 0 0 1-1.05 1.45l-1.27.21a1.28 1.28 0 0 1-1.49-1l-.9-4.95a1.26 1.26 0 0 1 1.05-1.44Zm-30.49 5.19-1.27.22a1.25 1.25 0 0 0-1.05 1.45l.89 4.95a1.29 1.29 0 0 0 1.49 1l1.27-.22a1.26 1.26 0 0 0 1.05-1.45l-.89-4.95a1.29 1.29 0 0 0-1.49-1Z"/><ellipse class="cls-37" cx="714.04" cy="705.73" rx="40.86" ry="39.75"/><path class="cls-39" d="m738.57 709-40.9-16.65a1.28 1.28 0 0 0-1.67.65l-.31.73a1.21 1.21 0 0 0 .68 1.61l.75.31a1.21 1.21 0 0 1 .68 1.61L691 713a1.21 1.21 0 0 0 .68 1.61l34.72 14.15a1.29 1.29 0 0 0 1.66-.66l6.78-15.76a1.28 1.28 0 0 1 1.66-.66l.75.31a1.28 1.28 0 0 0 1.66-.66l.31-.73a1.23 1.23 0 0 0-.65-1.6Zm-15.57-.56a4.87 4.87 0 0 1-2 1.56l-2.49 1a1.31 1.31 0 0 0-.83 1.11l-.6 7.84a.48.48 0 0 1-.3.4.49.49 0 0 1-.64-.3l-2.19-7.16a.06.06 0 0 0-.09 0 6.5 6.5 0 0 1-2 .72l-2.26.09a.51.51 0 0 0-.48.39l-.6 2.45a.49.49 0 0 1-1 0l-.56-2.63-1.49-2.25a.46.46 0 0 1 .22-.7.49.49 0 0 1 .44 0l2.19 1.34a.53.53 0 0 0 .63-.06l.26-.22a12 12 0 0 1 3.36-2.1v-.1l-3.57-6.63a.47.47 0 0 1 .24-.65.53.53 0 0 1 .5.08l6.09 5.18a1.37 1.37 0 0 0 1.39.22l2.49-1a4.87 4.87 0 0 1 2.59-.29 1.08 1.08 0 0 1 .85.65 1 1 0 0 1-.15 1.06ZM712.34 693l-.28.66a.91.91 0 0 0 .5 1.2l13.71 5.58a.94.94 0 0 0 1.23-.49l.28-.66a8 8 0 0 0-2-9.1.36.36 0 0 1 .15-.61 4.1 4.1 0 0 0 2.2-1.7.65.65 0 0 0-.31-.94l-6.42-2.61a.66.66 0 0 0-.91.44 4 4 0 0 0 .29 2.72.36.36 0 0 1-.33.53 8.39 8.39 0 0 0-8.11 4.98Zm17-7.18a.43.43 0 0 0 .59-.34l.41-3.66a1 1 0 0 0-.75-1.08l-6.57-1.8a1 1 0 0 0-1.24.58l-1 2.36a.42.42 0 0 0 .23.55Z"/><ellipse class="cls-37" cx="904.66" cy="749.93" rx="40.86" ry="39.75"/><path class="cls-39" d="m929.19 753.21-40.91-16.66a1.28 1.28 0 0 0-1.65.66l-.32.74a1.22 1.22 0 0 0 .68 1.61l.75.31a1.21 1.21 0 0 1 .68 1.61l-6.78 15.75a1.21 1.21 0 0 0 .68 1.61L917.05 773a1.26 1.26 0 0 0 1.65-.66l6.78-15.75a1.28 1.28 0 0 1 1.66-.66l.75.31a1.29 1.29 0 0 0 1.66-.66l.32-.74a1.24 1.24 0 0 0-.68-1.63Zm-15.59-.57a4.66 4.66 0 0 1-2.05 1.56l-2.49 1a1.32 1.32 0 0 0-.83 1.12l-.6 7.84a.47.47 0 0 1-.3.39.48.48 0 0 1-.64-.29l-2.19-7.16a.06.06 0 0 0-.09 0 6.5 6.5 0 0 1-2 .72l-2.26.09a.51.51 0 0 0-.48.39l-.6 2.45a.49.49 0 0 1-1 0l-.56-2.63-1.49-2.25a.46.46 0 0 1 .22-.7.49.49 0 0 1 .44 0l2.2 1.33a.51.51 0 0 0 .62-.05l.26-.22a12.36 12.36 0 0 1 3.36-2.11v-.09l-3.6-6.59a.45.45 0 0 1 .24-.65.48.48 0 0 1 .49.08l6.09 5.17a1.35 1.35 0 0 0 1.39.23l2.49-1a4.87 4.87 0 0 1 2.59-.29 1.08 1.08 0 0 1 .85.65 1 1 0 0 1-.06 1.01ZM903 737.23l-.28.66a.91.91 0 0 0 .5 1.2l13.71 5.58a.94.94 0 0 0 1.23-.49l.28-.66a8 8 0 0 0-2-9.1.36.36 0 0 1 .15-.61 4.07 4.07 0 0 0 2.2-1.7.64.64 0 0 0-.31-.94l-6.48-2.61a.66.66 0 0 0-.91.44 3.93 3.93 0 0 0 .3 2.72.36.36 0 0 1-.34.53 8.4 8.4 0 0 0-8.05 4.98Zm17-7.23a.43.43 0 0 0 .59-.34L921 726a1 1 0 0 0-.75-1.08l-6.57-1.8a1.05 1.05 0 0 0-1.24.58l-1 2.36a.4.4 0 0 0 .23.54Zm330-169.16-.06.13a5.15 5.15 0 0 0 2.89 6.73 5.49 5.49 0 0 0 6.19-1.4 5.36 5.36 0 0 0 .8-1.22l.06-.13a5.17 5.17 0 0 0-2.83-6.86 5.42 5.42 0 0 0-7.05 2.75Zm3.25 1.35a1.85 1.85 0 0 1 2.41-.94 1.77 1.77 0 0 1 1 2.35l-.06.13a1.89 1.89 0 0 1-2.35.81 1.78 1.78 0 0 1-.72-.53 1.75 1.75 0 0 1-.31-1.68ZM1204 541.74v.13a5 5 0 0 0-.35 1.4 5.21 5.21 0 0 0 3.23 5.33 5.48 5.48 0 0 0 6.2-1.41 5 5 0 0 0 .8-1.22l.06-.12a5.19 5.19 0 0 0-2.83-6.86 5.45 5.45 0 0 0-7.11 2.75Zm3.25 1.35a1.86 1.86 0 0 1 2.42-.94 1.78 1.78 0 0 1 1 2.35l-.06.12a1.85 1.85 0 0 1-2.36.82 1.77 1.77 0 0 1-.73-.55 1.73 1.73 0 0 1-.28-1.67Z"/><path class="cls-39" d="m1193.5 521.78-3.57 8.13-1.09 2.48a4.32 4.32 0 0 0 2.4 5.71l11 4.56a6 6 0 0 1 .16-.71c.07-.23.15-.45.24-.68l.05-.12a6.93 6.93 0 0 1 9-3.51 6.61 6.61 0 0 1 3.61 8.74l-.06.13a6.25 6.25 0 0 1-.33.63c-.13.21-.27.41-.42.61l33.73 14a6 6 0 0 1 .16-.71c.07-.23.15-.45.24-.68l.06-.13a6.92 6.92 0 0 1 9-3.51 6.59 6.59 0 0 1 3.6 8.74l-.06.13a4.89 4.89 0 0 1-.34.64 6.34 6.34 0 0 1-.41.6l7.65 3.19a4.55 4.55 0 0 0 5.91-2.27 15.3 15.3 0 0 0 .93-2.74 1.55 1.55 0 0 0 0-.21 10.14 10.14 0 0 0-.78-6.76 29.29 29.29 0 0 0-4.51-6.15c-.6-.69-1.21-1.39-1.81-2.12-.22-.69-.45-1.49-.73-2.41a119.55 119.55 0 0 0-5.62-15.94l.91-2.07a2.33 2.33 0 0 0-1.28-3.08l-3.46-1.44a11.89 11.89 0 0 0-4.66-3.94l-47.63-19.79a2.6 2.6 0 0 0-3.37 1.32Zm51.16 19.94a.73.73 0 0 1-1 .37.7.7 0 0 1-.39-.93l3.85-8.76a.75.75 0 0 1 1-.38.72.72 0 0 1 .39.94Zm13.11 4.82a1.61 1.61 0 0 1-1.34.07l-7-2.92a1.6 1.6 0 0 1-.8-2.14l2.68-6.09a1.65 1.65 0 0 1 2.13-.92l2.69 1.12c3.37 1.4 2.73 8 2.51 9.63a1.64 1.64 0 0 1-.87 1.25Zm8.52 3.22c-1.91-.8-2.62-1.78-3.44-5-.44-1.71-1-5.8-1-5.8a1.15 1.15 0 0 1 .69-1.15c1.34 3.7 2.41 7.3 3.18 9.91.2.79.4 1.45.57 2.04Zm5.52 8.91c.21-.14.63-.06 1.12.2a8.57 8.57 0 0 1 .72 4.84 5 5 0 0 1-2.19-3.55c-.09-.82.11-1.34.35-1.49Zm-76.14-28.21a6.75 6.75 0 0 0 .35-.66l1-2.41.08-.2 73.52 30.55a3.13 3.13 0 0 0-.67 2.58 6.24 6.24 0 0 0 .25 1.13Zm9.43-2.33a.69.69 0 0 1-.39-.93l7.26-16.54a.74.74 0 0 1 1-.38.71.71 0 0 1 .39.94l-7.26 16.54a.73.73 0 0 1-1 .37Zm-.29-22.2a.7.7 0 0 1-.39-.93.74.74 0 0 1 1-.38l46.31 19.24a.71.71 0 0 1 .39.94.75.75 0 0 1-1 .38ZM1194.56 523l.56.23c1.13.48 1.37 1.85.6 3.58l-1 2.41c-.7 1.59-1.51 1.26-1.89 1.1l-1.21-.5Zm-203.07-58.09-.06.14a5 5 0 0 0-.35 1.41 5.2 5.2 0 0 0 3.24 5.31 5.48 5.48 0 0 0 6.19-1.39 5.36 5.36 0 0 0 .8-1.22l.06-.14a5.17 5.17 0 0 0-2.83-6.86 5.43 5.43 0 0 0-7.05 2.75Zm3.25 1.35a1.85 1.85 0 0 1 2.41-.94 1.77 1.77 0 0 1 1 2.35l-.06.13a1.86 1.86 0 0 1-2.35.81 1.7 1.7 0 0 1-.72-.53 1.75 1.75 0 0 1-.31-1.68Zm-49.22-20.44v.12a5 5 0 0 0-.35 1.41 5.21 5.21 0 0 0 3.23 5.33 5.48 5.48 0 0 0 6.2-1.41 5 5 0 0 0 .8-1.22l.06-.12a5.2 5.2 0 0 0-2.83-6.87 5.45 5.45 0 0 0-7.11 2.76Zm3.25 1.35a1.86 1.86 0 0 1 2.42-.94 1.76 1.76 0 0 1 1 2.34l-.06.12a1.83 1.83 0 0 1-1.44 1 2 2 0 0 1-.92-.13 1.79 1.79 0 0 1-.77-.56 1.73 1.73 0 0 1-.28-1.67Z"/><path class="cls-39" d="m935 425.86-3.55 8.14-1.09 2.48a4.33 4.33 0 0 0 2.4 5.72l11 4.55a5.88 5.88 0 0 1 .16-.7c.07-.23.15-.46.24-.68v-.12a6.92 6.92 0 0 1 9-3.51 6.6 6.6 0 0 1 3.61 8.74l-.06.12c-.1.22-.21.43-.33.64a6.42 6.42 0 0 1-.42.6l33.73 14a6.53 6.53 0 0 1 .16-.71c.07-.22.15-.45.24-.67l.06-.14a6.92 6.92 0 0 1 9-3.5 6.58 6.58 0 0 1 3.6 8.73l-.06.14a4.77 4.77 0 0 1-.34.63 6.49 6.49 0 0 1-.41.61l7.65 3.18a4.55 4.55 0 0 0 5.91-2.26 15.12 15.12 0 0 0 .93-2.75.78.78 0 0 0 0-.21 10.14 10.14 0 0 0-.78-6.76 29.55 29.55 0 0 0-4.51-6.15c-.59-.68-1.2-1.38-1.81-2.11-.22-.69-.45-1.5-.73-2.42a119.55 119.55 0 0 0-5.62-15.94l.91-2.06a2.34 2.34 0 0 0-1.28-3.09l-3.46-1.44a12.06 12.06 0 0 0-4.66-3.94l-47.63-19.79a2.6 2.6 0 0 0-3.37 1.32Zm51.16 19.93a.75.75 0 0 1-1 .38.72.72 0 0 1-.39-.94l3.85-8.76a.73.73 0 0 1 1-.37.7.7 0 0 1 .39.94Zm13.11 4.82a1.61 1.61 0 0 1-1.34.07l-7-2.92a1.58 1.58 0 0 1-.8-2.13l2.68-6.1a1.67 1.67 0 0 1 2.13-.92l2.69 1.12c3.37 1.4 2.73 7.95 2.51 9.64a1.63 1.63 0 0 1-.85 1.24Zm8.53 3.23c-1.92-.81-2.63-1.79-3.45-4.95-.44-1.71-1-5.8-1-5.8a1.16 1.16 0 0 1 .69-1.16c1.34 3.7 2.41 7.31 3.18 9.92.22.74.42 1.4.6 1.99Zm5.51 8.9c.22-.13.63-.05 1.12.21a8.54 8.54 0 0 1 .72 4.83 5 5 0 0 1-2.19-3.54c-.07-.83.13-1.35.37-1.5Zm-76.14-28.21a6.75 6.75 0 0 0 .35-.66l1.05-2.41c0-.07 0-.13.08-.19l73.52 30.54a3.13 3.13 0 0 0-.67 2.58 6.24 6.24 0 0 0 .25 1.13Zm9.43-2.32a.71.71 0 0 1-.39-.94l7.26-16.54a.74.74 0 0 1 1-.37.7.7 0 0 1 .38.93l-7.26 16.54a.75.75 0 0 1-.97.38Zm-.29-22.2a.72.72 0 0 1-.39-.94.76.76 0 0 1 1-.38l46.31 19.25a.7.7 0 0 1 .39.94.73.73 0 0 1-1 .37Zm-10.25 17.08.56.23c1.13.47 1.37 1.84.6 3.58l-1 2.41c-.7 1.59-1.5 1.25-1.89 1.09l-1.21-.5ZM736.8 366.2l-.06.13a5.4 5.4 0 0 0-.35 1.41 5.22 5.22 0 0 0 3.24 5.32 5.5 5.5 0 0 0 6.19-1.4 5 5 0 0 0 .8-1.22l.06-.14a5.17 5.17 0 0 0-2.83-6.86 5.43 5.43 0 0 0-7.05 2.76Zm3.25 1.35a1.86 1.86 0 0 1 2.41-.95 1.77 1.77 0 0 1 1 2.35l-.06.13a1.86 1.86 0 0 1-2.35.81 1.76 1.76 0 0 1-.72-.53 1.72 1.72 0 0 1-.3-1.68.69.69 0 0 1 .02-.13Zm-49.22-20.45v.12a5.14 5.14 0 0 0-.36 1.41 5.22 5.22 0 0 0 3.24 5.33 5.47 5.47 0 0 0 6.19-1.41 5 5 0 0 0 .8-1.22l.06-.12a5.2 5.2 0 0 0-2.83-6.87 5.45 5.45 0 0 0-7.1 2.76Zm3.26 1.35a1.85 1.85 0 0 1 2.41-.94 1.77 1.77 0 0 1 1 2.35l-.06.12a1.84 1.84 0 0 1-1.44.95 2 2 0 0 1-.92-.13 2 2 0 0 1-.73-.55 1.74 1.74 0 0 1-.28-1.68.61.61 0 0 1 .02-.12Z"/><path class="cls-39" d="m680.34 327.14-3.57 8.13-1.09 2.48a4.33 4.33 0 0 0 2.4 5.72l11 4.56a5.62 5.62 0 0 1 .16-.71c.07-.23.15-.46.24-.68a.61.61 0 0 0 .05-.12 6.94 6.94 0 0 1 9-3.51 6.6 6.6 0 0 1 3.6 8.74l-.05.12c-.11.22-.22.43-.34.64a6.42 6.42 0 0 1-.42.6l33.73 14a6.53 6.53 0 0 1 .16-.71c.07-.22.15-.45.24-.67l.06-.14a6.92 6.92 0 0 1 9-3.5 6.6 6.6 0 0 1 3.61 8.73l-.12.18a6.25 6.25 0 0 1-.33.63 5.47 5.47 0 0 1-.42.61l7.65 3.18a4.54 4.54 0 0 0 5.91-2.26 16 16 0 0 0 .94-2.75.52.52 0 0 0 0-.21 10.05 10.05 0 0 0-.78-6.75 29.19 29.19 0 0 0-4.51-6.15c-.59-.68-1.2-1.38-1.81-2.11-.21-.69-.45-1.5-.72-2.42a120.56 120.56 0 0 0-5.63-15.93l.91-2.07a2.34 2.34 0 0 0-1.27-3.09l-3.47-1.44a12.11 12.11 0 0 0-4.65-3.94l-47.63-19.79a2.61 2.61 0 0 0-3.38 1.32Zm51.16 19.93a.75.75 0 0 1-1 .38.72.72 0 0 1-.39-.94l3.85-8.75a.73.73 0 0 1 1-.38.7.7 0 0 1 .39.94Zm13.11 4.82a1.6 1.6 0 0 1-1.35.07l-7-2.92a1.58 1.58 0 0 1-.8-2.13l2.68-6.1a1.68 1.68 0 0 1 2.14-.92l2.68 1.12c3.37 1.4 2.74 7.95 2.51 9.64a1.64 1.64 0 0 1-.86 1.24Zm8.52 3.23c-1.92-.81-2.63-1.79-3.45-4.95-.44-1.71-1-5.8-1-5.8a1.13 1.13 0 0 1 .69-1.15c1.34 3.69 2.41 7.3 3.18 9.91.2.74.45 1.4.58 1.99Zm5.51 8.9c.22-.13.63 0 1.12.21a8.47 8.47 0 0 1 .72 4.84 5 5 0 0 1-2.18-3.55c-.1-.83.1-1.35.34-1.52Zm-76.14-28.21a5.11 5.11 0 0 0 .35-.66l1.06-2.41a1.46 1.46 0 0 0 .07-.19l73.53 30.55a3 3 0 0 0-.67 2.57 6 6 0 0 0 .24 1.13Zm9.43-2.32a.71.71 0 0 1-.39-.94L698.8 316a.74.74 0 0 1 1-.37.7.7 0 0 1 .38.93l-7.26 16.54a.74.74 0 0 1-.99.39Zm-.29-22.2a.72.72 0 0 1-.39-.94.76.76 0 0 1 1-.38l46.32 19.25a.7.7 0 0 1 .38.94.73.73 0 0 1-1 .37Zm-10.24 17.08.55.23c1.14.47 1.37 1.84.61 3.58l-1.06 2.41c-.7 1.59-1.5 1.25-1.89 1.09l-1.21-.5Z"/><ellipse class="cls-37" cx="345.85" cy="737.01" rx="14.67" ry="14.27"/><path id="_2" data-name="2" class="cls-4" d="m368.17 726.81-32-11.13a2.33 2.33 0 0 0-3 1.37l-14.56 39.64a2.24 2.24 0 0 0 1.4 2.88l32 11.13a2.33 2.33 0 0 0 3-1.37l14.55-39.64a2.23 2.23 0 0 0-1.39-2.88Zm-26.15 22a11.93 11.93 0 0 1-7.48-15.37 12.46 12.46 0 0 1 15.8-7.28 12 12 0 0 1 7.49 15.37 12.46 12.46 0 0 1-15.83 7.32Zm-1.86-8.81 4.2 1.46 1.36-3.68-4.53-1.57a25.07 25.07 0 0 0-1.03 3.79Zm-4.66-.79a10.47 10.47 0 0 0 3.71 6.37 15.5 15.5 0 0 1 0-5.07Zm5.95-3.74L346 737l1.35-3.68-4.22-1.46a27.37 27.37 0 0 0-1.68 3.61Zm-1 .47-4.58-1.59a10.18 10.18 0 0 0-.44 4l4 1.38a26.66 26.66 0 0 1 1-3.79ZM346 727a11 11 0 0 0-7 2.64l3.76 1.3A16.37 16.37 0 0 1 346 727Zm-2.49 4.21 4.09 1.42 1.88-5.14A11.62 11.62 0 0 0 347 727a15.92 15.92 0 0 0-3.48 4.21Zm-1.16.43-4-1.4a10.4 10.4 0 0 0-2.22 3.38l4.57 1.59a26.81 26.81 0 0 1 1.66-3.57ZM340 746.19a10.65 10.65 0 0 0 2.17 1.14l1.88-5.14-4.05-1.41a14.92 14.92 0 0 0 0 5.41Zm12-7.05 4.48 1.56a10.16 10.16 0 0 0 .46-4l-3.9-1.35a26.35 26.35 0 0 1-1.04 3.79Zm-5.57 8.92a11 11 0 0 0 6.88-2.65l-3.65-1.27a16 16 0 0 1-3.2 3.92Zm3.63-4.61 3.94 1.35a10.35 10.35 0 0 0 2.26-3.37l-4.47-1.55a27.37 27.37 0 0 1-1.7 3.57Zm3.18-13.89a15.92 15.92 0 0 1-.06 5l3.65 1.26a10.48 10.48 0 0 0-3.56-6.26Zm-8.42 12.9-1.82 5.12a11.56 11.56 0 0 0 2.43.46 15.51 15.51 0 0 0 3.53-4.17Zm7.6-13.53a10.51 10.51 0 0 0-2.2-1.17l-1.89 5.13 4.1 1.42a15.34 15.34 0 0 0 .02-5.38Zm-.14 6.16-4.22-1.46-1.35 3.68 4.53 1.57a26.45 26.45 0 0 0 1.07-3.79Zm-1.28 4.53-4.53-1.62-1.35 3.68 4.21 1.46a26.6 26.6 0 0 0 1.67-3.52Z"/><path id="_1" data-name="1" class="cls-37" d="M333.43 751.48a2.32 2.32 0 0 0-1.31-1l-2.7-.94-2.24 6.12 1.3.45.81-2.2 1.31.46a2.66 2.66 0 0 0 1.74.1 2 2 0 0 0 1.11-1.34 1.91 1.91 0 0 0-.02-1.65Zm-1.79 1.82a1.11 1.11 0 0 1-.78 0l-1.19-.41.66-1.8 1.19.41a1 1 0 0 1 .62.45.84.84 0 0 1 0 .76.91.91 0 0 1-.5.59Zm4.73-1.33-4.49 5.33 1.37.48.89-1.11 2.32.81v1.4l1.42.49v-6.89Zm-1.48 3.77 1.69-2.12-.08 2.68Zm8.28 1.56-1-.64a4.06 4.06 0 0 1-.75-.54.56.56 0 0 1-.12-.6.68.68 0 0 1 .51-.44 1.62 1.62 0 0 1 .9.09 1.76 1.76 0 0 1 .73.42.92.92 0 0 1 .22 1l1.26.44a1.88 1.88 0 0 0-.2-1.75 2.92 2.92 0 0 0-1.52-1.1 3 3 0 0 0-2-.1 1.9 1.9 0 0 0-1.12 1.15 1.56 1.56 0 0 0 .15 1.55 4.75 4.75 0 0 0 1.2 1l.63.38a2.85 2.85 0 0 1 .77.59.53.53 0 0 1 .1.56.76.76 0 0 1-.82.51 2.55 2.55 0 0 1-.81-.16 1.49 1.49 0 0 1-1-.77 1.29 1.29 0 0 1 0-.71l-1.25-.44a1.89 1.89 0 0 0 .16 1.75 3.25 3.25 0 0 0 1.75 1.23 3.12 3.12 0 0 0 2.09.1 1.89 1.89 0 0 0 1.17-1.17 1.54 1.54 0 0 0-.1-1.44 2.93 2.93 0 0 0-.95-.91Zm6.74 2.84a3.05 3.05 0 0 0-.92-.82l-1-.63a3.88 3.88 0 0 1-.74-.55.53.53 0 0 1-.13-.59.68.68 0 0 1 .52-.45 1.63 1.63 0 0 1 .9.09 2 2 0 0 1 .73.42.94.94 0 0 1 .22 1l1.26.44a1.89 1.89 0 0 0-.2-1.74 3 3 0 0 0-1.53-1.11 2.86 2.86 0 0 0-2-.09 1.89 1.89 0 0 0-1.13 1.15 1.54 1.54 0 0 0 .15 1.54 4.46 4.46 0 0 0 1.21 1l.63.38a3.17 3.17 0 0 1 .76.59.53.53 0 0 1 .11.56.79.79 0 0 1-.83.52 2.5 2.5 0 0 1-.8-.17 1.44 1.44 0 0 1-1-.77 1.28 1.28 0 0 1 0-.71l-1.26-.43a1.89 1.89 0 0 0 .16 1.75 3.37 3.37 0 0 0 1.76 1.22 3.09 3.09 0 0 0 2.08.1 1.91 1.91 0 0 0 1.18-1.16 1.56 1.56 0 0 0-.13-1.54Z"/><ellipse class="cls-37" cx="208.73" cy="804.33" rx="13.3" ry="12.93"/><path class="cls-39" d="M206 790a14.62 14.62 0 0 0-12.17 16.86 15 15 0 0 0 17.34 11.83 14.6 14.6 0 0 0 12.16-16.86A14.93 14.93 0 0 0 206 790Zm4 15.33-9.82 1.67a1.25 1.25 0 0 1-1.44-1 1.2 1.2 0 0 1 1-1.39l7.38-1.26-1.72-9.57a1.21 1.21 0 0 1 1-1.4 1.22 1.22 0 0 1 1.43 1Z"/><path class="cls-40" d="m372.71 472.36-4.67.79L368 479l-3.11.53.72-23.36 3.51-.59 8.84 21.72-3.12.53Zm-.84-2.19-3.69-9.58-.11 10.23Zm16.89-11.71 1.89 10.46c.7 3.93-1.08 6.41-5.12 7.1l-6.21 1.05-4.06-22.54 3.23-.55 3-.5c4.02-.69 6.57 1.05 7.27 4.98Zm-3.34-.11a2.88 2.88 0 0 0-3.54-2.62l-3 .51 3.25 18 3-.51c1.95-.33 2.76-1.74 2.42-3.64Zm17.87-2.61 2 10.93c.71 3.93-1.08 6.41-5.11 7.09s-6.59-1.05-7.3-5l-2-10.94c-.7-3.92 1.09-6.4 5.12-7.09s6.58 1.08 7.29 5.01Zm-3.35-.1c-.34-1.9-1.55-2.72-3.5-2.39s-2.79 1.51-2.45 3.4l2.2 12.24c.34 1.89 1.55 2.72 3.5 2.38s2.79-1.5 2.45-3.4Z"/><ellipse class="cls-37" cx="1067.08" cy="257.41" rx="33.39" ry="32.48"/><path class="cls-40" d="M1079.37 245.75c1.36 7.55-1.8 11.49-8.86 12.69l-5.25.9 3.2 17.74-5.65 1-7.1-39.43 10.9-1.86c7.06-1.24 11.39 1.42 12.76 8.96Zm-5.58.95c-.77-4.28-2.52-6.68-6.47-6l-5.25.89 2.48 13.8 5.25-.89c3.96-.68 4.76-3.5 3.99-7.8Z"/><path style="fill:#2fac66" d="m1416.75 497.33-214.72-93.77 64.55-139.84 214.71 93.77-64.54 139.84z"/><ellipse class="cls-37" cx="1341.66" cy="380.53" rx="54.99" ry="53.49"/><path class="cls-40" d="m1335.26 359.49 5.16 2.2a1.42 1.42 0 0 0 1.86-.7l2.26-5a1.36 1.36 0 0 0-.72-1.81l-5.17-2.2a1.42 1.42 0 0 0-1.85.71l-2.26 5a1.34 1.34 0 0 0 .72 1.8Zm3.55-4.47 2.58 1.1-1.13 2.51-2.58-1.1Zm8.07 9.42 5.16 2.2a1.41 1.41 0 0 0 1.85-.7l2.26-5a1.36 1.36 0 0 0-.72-1.81l-5.16-2.2a1.43 1.43 0 0 0-1.86.71l-2.26 5a1.35 1.35 0 0 0 .73 1.8Zm3.55-4.47 2.58 1.1-1.13 2.51-2.58-1.1Zm8.06 9.42 5.16 2.21a1.44 1.44 0 0 0 1.86-.71l2.26-5a1.36 1.36 0 0 0-.73-1.81l-5.16-2.2a1.42 1.42 0 0 0-1.85.71l-2.27 5a1.36 1.36 0 0 0 .73 1.8Zm3.55-4.47 2.58 1.1-1.13 2.51-2.58-1.1Zm-31.87 5.87 5.16 2.2a1.42 1.42 0 0 0 1.86-.7l2.26-5a1.36 1.36 0 0 0-.72-1.81l-5.17-2.2a1.42 1.42 0 0 0-1.85.7l-2.26 5a1.34 1.34 0 0 0 .72 1.81Zm3.55-4.47 2.59 1.1-1.14 2.51-2.58-1.1Zm8.07 9.42 5.16 2.2a1.41 1.41 0 0 0 1.85-.7l2.27-5a1.36 1.36 0 0 0-.73-1.81l-5.16-2.2a1.43 1.43 0 0 0-1.86.71l-2.26 5a1.35 1.35 0 0 0 .73 1.8Zm3.55-4.47 2.58 1.1-1.13 2.51-2.58-1.1Zm8.06 9.42 5.16 2.2a1.42 1.42 0 0 0 1.86-.7l2.26-5a1.36 1.36 0 0 0-.73-1.81l-5.16-2.2a1.42 1.42 0 0 0-1.85.71l-2.26 5a1.34 1.34 0 0 0 .72 1.8Zm3.55-4.47 2.58 1.1-1.13 2.51-2.58-1.1Zm-24.85 7.36 2.26-5a1.35 1.35 0 0 0-.72-1.8l-5.16-2.2a1.42 1.42 0 0 0-1.86.7l-2.26 5a1.36 1.36 0 0 0 .72 1.81l5.16 2.2a1.43 1.43 0 0 0 1.86-.71Zm-2-2.35-2.59-1.1 1.14-2.51 2.58 1.1Zm6.6 5.77 5.16 2.2a1.42 1.42 0 0 0 1.85-.71l2.27-5a1.36 1.36 0 0 0-.73-1.8l-5.16-2.2a1.43 1.43 0 0 0-1.86.7l-2.26 5a1.36 1.36 0 0 0 .73 1.81Zm3.55-4.47 2.58 1.1-1.13 2.51-2.58-1.1Zm8.06 9.47 5.16 2.2a1.43 1.43 0 0 0 1.86-.71l2.26-5a1.35 1.35 0 0 0-.72-1.8l-5.17-2.2a1.41 1.41 0 0 0-1.85.7l-2.26 5a1.35 1.35 0 0 0 .72 1.81Zm3.55-4.47 2.58 1.1-1.13 2.51-2.58-1.1Z"/><path class="cls-40" d="M1370 408.72a1.43 1.43 0 0 0 1.86-.71l11.31-25.1a1.36 1.36 0 0 0-.73-1.81l-11.61-5 6.22-13.81a1.35 1.35 0 0 0-.73-1.8l-2.58-1.1 2.83-6.28a1.35 1.35 0 0 0-.73-1.8L1342.29 337a1.43 1.43 0 0 0-1.85.71l-2.83 6.28-2.58-1.1a1.43 1.43 0 0 0-1.86.7l-6.17 13.86-11.61-4.95a1.43 1.43 0 0 0-1.86.7l-11.31 25.11a1.36 1.36 0 0 0 .73 1.8l1.29.55-6.79 15.07-1.29-.55a1.38 1.38 0 1 0-1.13 2.51l67.11 28.6a1.38 1.38 0 1 0 1.13-2.51l-1.29-.55 6.78-15.06Zm10-25.66-10.18 22.6-10.32-4.4 1.13-2.52 6.45 2.76a1.43 1.43 0 0 0 1.86-.71l2.26-5a1.36 1.36 0 0 0-.73-1.81l-6.45-2.75 1.13-2.51 6.46 2.75a1.41 1.41 0 0 0 1.85-.7l2.26-5a1.36 1.36 0 0 0-.72-1.81l-6.45-2.75 1.13-2.51Zm-12.58.62 5.16 2.2-1.13 2.51-5.17-2.2Zm-4.53 10 5.16 2.2-1.13 2.51-5.16-2.2Zm-20.46-53.6 31 13.2-2.26 5-31-13.2Zm-24.54 37.41-5.17-2.2 1.13-2.51L1319 375Zm4.52-10-5.16-2.2 1.13-2.51 5.16 2.2Zm-6.93-11.93 10.32 4.4-1.13 2.51-6.45-2.75a1.44 1.44 0 0 0-1.86.7l-2.26 5a1.35 1.35 0 0 0 .73 1.8l6.45 2.75-1.13 2.51-6.45-2.75a1.43 1.43 0 0 0-1.86.71l-2.26 5a1.34 1.34 0 0 0 .72 1.8l6.45 2.75-1.13 2.51-10.32-4.4Zm-8.73 26.2 7.74 3.3-6.78 15.07-7.75-3.3Zm28.44-35.76 38.71 16.5-24.9 55.23-7.74-3.3 4.52-10a1.43 1.43 0 0 0 1.86-.71l2.26-5a1.35 1.35 0 0 0-.72-1.8L1326 387a1.43 1.43 0 0 0-1.86.71l-2.26 5a1.37 1.37 0 0 0 .72 1.81l-4.52 10-7.74-3.3ZM1325 392.53l1.13-2.52 20.64 8.81-1.13 2.51Zm.16 3.06 7.74 3.3-4.53 10-7.74-3.3ZM1331 410l4.52-10 7.74 3.3-4.52 10Zm28.38 12.1-7.74-3.3 6.79-15.06 7.74 3.3Z"/><ellipse class="cls-37" cx="941.51" cy="844.77" rx="42.11" ry="40.96"/><path class="cls-39" d="M923.87 823a12.52 12.52 0 0 0-10.75 14.18 12.77 12.77 0 0 0 14.58 10.42 12.94 12.94 0 0 0 5.19-1.93l-7.37-6.48c-.4 1.56-1.06 3.06-2.11 2.56-1.83-.87 1.18-4.89 1.77-5.63l19.49 17.1a1.21 1.21 0 0 0 0 .19l1.75 11.3c-4.25 1.44-12.14 4.56-11.64 7.8a1.06 1.06 0 0 0 1.21.87l25.13-3.7a1 1 0 0 0 .89-1.17 1.36 1.36 0 0 0-.11-.28c-1-3-9.06-3.68-13.42-3.82l-1.76-11.31a.64.64 0 0 0-.06-.18l13.52-22a1 1 0 0 0 0-1.1 1.06 1.06 0 0 0-1-.43l-20.91 3.07a12.74 12.74 0 0 0-14.4-9.46Zm.28 6.34c1.78-.45 1.94 3.21 1.93 4.89l-.39.06a1 1 0 0 0-.68.33s0 0-.06.07c-.82-1.44-2.62-4.92-.8-5.39Zm6.27 2.4a1.08 1.08 0 0 1 1.1.43.93.93 0 0 1-.17 1.29l-4.32.63c.91-.97 2.28-2.22 3.39-2.39Zm-10.22 2.58a11.43 11.43 0 0 1 4.58.76 1 1 0 0 0 .28 1c-1 .24-6.15 1.33-5.94-.76a1.15 1.15 0 0 1 1.08-1.04Zm8 1.69 29.06-4.27-2.11 3.44-23.89 3.51Z"/></g></svg>