<svg xmlns="http://www.w3.org/2000/svg" viewBox="0 0 1369.51 1027.13"><defs><style>.cls-10{fill:#36a9e1}.cls-3{stroke:#1d1d1b;stroke-miterlimit:10;fill:#dadada;stroke-width:4.82px}.cls-4{fill:#fab62e}.cls-5{fill:#4597d1}.cls-6{fill:#e5e5e5}.cls-7{fill:#d9d9d9}.cls-8{fill:#1f1f1f}.cls-12,.cls-15,.cls-17,.cls-19,.cls-9{fill:#fff}.cls-11,.cls-16{fill:#d3e9f4}.cls-11,.cls-13,.cls-15,.cls-16,.cls-17{stroke:#3f8be1}.cls-11,.cls-12,.cls-13,.cls-14,.cls-15,.cls-16,.cls-17,.cls-18,.cls-19{stroke-linecap:round;stroke-linejoin:round}.cls-11,.cls-12,.cls-13,.cls-14,.cls-15{stroke-width:.98px}.cls-12,.cls-14,.cls-18,.cls-19{stroke:#000}.cls-13,.cls-14{fill:none}.cls-16,.cls-17,.cls-18,.cls-19{stroke-width:.6px}.cls-18{fill:#f9b233}</style></defs><g id="Capa_2" data-name="Capa 2"><path transform="rotate(-27.22 978.954 487.688)" style="stroke-width:1.25px;opacity:.5;stroke:#1d1d1b;stroke-miterlimit:10;fill:#36a9e1" d="M632.55 445h692.83v85.39H632.55z"/><path transform="rotate(-27.22 1177.413 894.694)" style="stroke-width:2.57px;stroke:#1d1d1b;stroke-miterlimit:10;fill:#36a9e1" d="M831.02 714.92h692.83v359.57H831.02z"/><path class="cls-3" transform="rotate(-27.22 699.193 389.217)" d="M168.13 369.72H1230.3v38.99H168.13z"/><path class="cls-3" transform="rotate(-27.22 738.57 440.223)" d="M268.28 391.98h940.61v96.5H268.28z"/><path class="cls-3" transform="rotate(-27.22 874.91 431.89)" d="M528.52 374.05h692.83v115.68H528.52z"/><path class="cls-3" transform="rotate(-27.22 793.275 661.706)" d="M730.99 525.78h124.6v271.88h-124.6z"/><path class="cls-3" d="m541.66 377.96.01.03-47.86 24.62 6.1 11.86 47.86-24.62 24.59 47.79 11.86-6.1-30.7-59.68-11.86 6.1zm190.6-98.03.01.02-47.86 24.62 6.1 11.87 47.86-24.62 24.58 47.79 11.87-6.11-30.7-59.68-11.86 6.11zm190.6-98.04.01.03L875 206.54l6.11 11.86 47.86-24.62 24.58 47.79 11.87-6.1-30.7-59.68-11.86 6.1zm190.59-98.04.02.03-47.87 24.62 6.1 11.87 47.87-24.62 24.58 47.78 11.87-6.1-30.7-59.68-11.87 6.1z"/><circle class="cls-3" cx="241" cy="594.83" r="10.82"/><circle class="cls-3" cx="323.98" cy="552.15" r="10.82"/><circle class="cls-3" cx="406.96" cy="509.47" r="10.82"/><path class="cls-3" d="m226.03 617.03-106.91 7.02h-.03L24.14 672.9l3.72 7.22 93.48-48.08 105.22-6.91-.53-8.1z"/><path class="cls-4" d="M557.86 303.85a2.81 2.81 0 0 1-3.73-1.38l-2.36-5.11a2.81 2.81 0 0 1 1.37-3.73 2.82 2.82 0 0 1 3.74 1.38l2.36 5.11a2.81 2.81 0 0 1-1.38 3.73ZM517 322.71a2.8 2.8 0 0 0 1.38-3.73l-2.38-5.11a2.81 2.81 0 0 0-3.73-1.38 2.83 2.83 0 0 0-1.38 3.74l2.36 5.11a2.81 2.81 0 0 0 3.75 1.37Z"/><rect class="cls-4" x="561.93" y="279.55" width="5.63" height="11.25" rx="2.81" transform="rotate(-24.77 564.806 285.204)"/><path class="cls-4" d="M500.67 320.94a2.81 2.81 0 0 0 1.38-3.73l-2.36-5.11a2.8 2.8 0 0 0-3.73-1.37 2.81 2.81 0 0 0-1.38 3.73l2.36 5.11a2.8 2.8 0 0 0 3.73 1.37Z"/><path class="cls-5" d="M529.88 317.07a1.41 1.41 0 0 1-1.46 2l-46-5.75a1.4 1.4 0 0 1-1.11-.81L477 303.2a1.4 1.4 0 0 1 1.22-2l42.62-1.67a1.4 1.4 0 0 1 1.33.82Zm15.33-7.07a1.4 1.4 0 0 0 2.45.18l25.49-38.76a1.4 1.4 0 0 0 .11-1.36l-4.3-9.3a1.4 1.4 0 0 0-2.31-.36l-28.92 31.34a1.41 1.41 0 0 0-.24 1.54Zm-22.74-35.84a1.4 1.4 0 0 0 2.41.23l11.37-15.65a1.4 1.4 0 0 0 .14-1.41l-3.58-7.76a1.41 1.41 0 0 0-2.32-.36l-12.35 13.52a1.43 1.43 0 0 0-.24 1.54Zm-5.11 2.35a1.41 1.41 0 0 1-1.39 2L496.68 277a1.4 1.4 0 0 1-1.17-.81l-3.58-7.76a1.41 1.41 0 0 1 1.23-2l18.31-.63a1.39 1.39 0 0 1 1.32.82Z"/><path class="cls-6" d="M551.82 318.8a17.71 17.71 0 0 1-1.92 19.2 2.22 2.22 0 0 1-1.79.83 17.71 17.71 0 0 1-15.83-11l-17.82-43.5a56 56 0 0 1-3.43-12l-3.41-20.35a1.41 1.41 0 0 1 2.47-1.13l13.26 15.79a56.74 56.74 0 0 1 6.94 10.36Z"/><path class="cls-7" d="m508.42 250.43 40.68 88.16a2.23 2.23 0 0 1-1 .21 17.71 17.71 0 0 1-15.83-11l-17.82-43.5a56 56 0 0 1-3.43-12l-3.41-20.35a1.39 1.39 0 0 1 .81-1.52Z"/><path class="cls-5" d="m520.58 270.72-.47 2.34a1.4 1.4 0 0 1-2.06 1l-2.05-1.21a1.41 1.41 0 0 1-.59-.64L506 252a1.42 1.42 0 0 1-.11-.86l.47-2.35a1.41 1.41 0 0 1 2.07-.95l2.08 1.17a1.43 1.43 0 0 1 .6.64l9.34 20.24a1.44 1.44 0 0 1 .13.83Z"/><path class="cls-8" d="M552 325.91c-.45 1.86-1.83 6.28-5.14 7.81s-7.56-.29-9.27-1.16a2.56 2.56 0 0 1-1.11-1.19l-1.64-3.57a.29.29 0 0 1 .4-.38c2.33 1.09 6.53 2.45 9.27 1.19s4.42-5.34 5.1-7.83a.3.3 0 0 1 .56 0l1.64 3.57a2.42 2.42 0 0 1 .19 1.56Z"/><path class="cls-4" d="M723.81 231a2.82 2.82 0 0 1-3.74-1.37l-2.36-5.11a2.82 2.82 0 0 1 1.38-3.74 2.81 2.81 0 0 1 3.73 1.38l2.36 5.11a2.81 2.81 0 0 1-1.37 3.73Zm-40.88 18.88a2.81 2.81 0 0 0 1.37-3.74L682 241a2.81 2.81 0 0 0-3.74-1.37 2.81 2.81 0 0 0-1.37 3.73l2.35 5.11a2.83 2.83 0 0 0 3.69 1.41Z"/><rect class="cls-4" x="727.87" y="206.71" width="5.63" height="11.25" rx="2.81" transform="rotate(-24.77 730.79 212.339)"/><path class="cls-4" d="M666.62 248.11a2.82 2.82 0 0 0 1.37-3.74l-2.36-5.11a2.81 2.81 0 0 0-3.73-1.37 2.8 2.8 0 0 0-1.37 3.73l2.35 5.11a2.82 2.82 0 0 0 3.74 1.38Z"/><path class="cls-5" d="M695.82 244.24a1.4 1.4 0 0 1-1.45 2l-46-5.75a1.39 1.39 0 0 1-1.1-.8l-4.29-9.3a1.41 1.41 0 0 1 1.22-2l42.61-1.67a1.39 1.39 0 0 1 1.33.82Zm15.33-7.08a1.41 1.41 0 0 0 2.45.19l25.5-38.77a1.4 1.4 0 0 0 .1-1.36l-4.29-9.3a1.4 1.4 0 0 0-2.31-.36l-28.92 31.34a1.41 1.41 0 0 0-.25 1.54Zm-22.74-35.84a1.41 1.41 0 0 0 2.42.24l11.37-15.66a1.4 1.4 0 0 0 .14-1.41l-3.59-7.76a1.4 1.4 0 0 0-2.31-.36l-12.36 13.52a1.4 1.4 0 0 0-.23 1.54Zm-5.11 2.36a1.41 1.41 0 0 1-1.39 2l-19.28-1.5a1.42 1.42 0 0 1-1.17-.82l-3.58-7.76a1.4 1.4 0 0 1 1.23-2l18.3-.63a1.4 1.4 0 0 1 1.33.82Z"/><path class="cls-6" d="M717.76 246a17.71 17.71 0 0 1-1.91 19.17 2.24 2.24 0 0 1-1.8.83 17.69 17.69 0 0 1-15.82-11l-17.83-43.5a56.41 56.41 0 0 1-3.42-12l-3.41-20.34A1.4 1.4 0 0 1 676 178l13.27 15.79a56.69 56.69 0 0 1 6.93 10.42Z"/><path class="cls-7" d="m674.36 177.6 40.69 88.15a2.14 2.14 0 0 1-1 .21 17.69 17.69 0 0 1-15.82-11l-17.83-43.5a56.41 56.41 0 0 1-3.42-12l-3.41-20.34a1.37 1.37 0 0 1 .79-1.52Z"/><path class="cls-5" d="m686.53 197.88-.47 2.34a1.41 1.41 0 0 1-2.07 1l-2.08-1.22a1.43 1.43 0 0 1-.6-.64L672 179.13a1.45 1.45 0 0 1-.1-.87l.47-2.34a1.4 1.4 0 0 1 2.06-1l2.09 1.17a1.36 1.36 0 0 1 .59.64l9.31 20.27a1.45 1.45 0 0 1 .11.88Z"/><path class="cls-8" d="M717.93 253.07c-.44 1.86-1.82 6.28-5.13 7.81s-7.57-.29-9.27-1.16a2.43 2.43 0 0 1-1.11-1.19l-1.65-3.53a.3.3 0 0 1 .4-.39c2.34 1.1 6.53 2.46 9.27 1.19s4.43-5.34 5.11-7.83a.3.3 0 0 1 .55-.05l1.65 3.57a2.48 2.48 0 0 1 .18 1.58Z"/><path class="cls-4" d="M870.07 154.08a2.81 2.81 0 0 1-3.73-1.38l-2.34-5.11a2.81 2.81 0 0 1 1.38-3.73 2.8 2.8 0 0 1 3.73 1.38l2.36 5.1a2.81 2.81 0 0 1-1.4 3.74Zm-40.87 18.86a2.81 2.81 0 0 0 1.37-3.73l-2.35-5.11a2.83 2.83 0 0 0-3.74-1.38 2.82 2.82 0 0 0-1.37 3.74l2.35 5.11a2.82 2.82 0 0 0 3.74 1.37Z"/><rect class="cls-4" x="874.14" y="129.78" width="5.63" height="11.25" rx="2.81" transform="rotate(-24.77 877.07 135.409)"/><path class="cls-4" d="M812.89 171.17a2.81 2.81 0 0 0 1.37-3.73l-2.36-5.11a2.81 2.81 0 0 0-3.73-1.38 2.81 2.81 0 0 0-1.37 3.74l2.35 5.11a2.82 2.82 0 0 0 3.74 1.37Z"/><path class="cls-5" d="M842.09 167.3a1.41 1.41 0 0 1-1.45 2l-46-5.75a1.41 1.41 0 0 1-1.1-.81l-4.29-9.3a1.4 1.4 0 0 1 1.22-2l42.53-1.67a1.4 1.4 0 0 1 1.33.81Zm15.33-7.07a1.41 1.41 0 0 0 2.45.18l25.5-38.76a1.4 1.4 0 0 0 .1-1.36l-4.29-9.3a1.41 1.41 0 0 0-2.31-.37L850 142a1.41 1.41 0 0 0-.25 1.54Zm-22.74-35.84a1.41 1.41 0 0 0 2.42.23L848.47 109a1.4 1.4 0 0 0 .14-1.41L845 99.8a1.39 1.39 0 0 0-2.31-.36L830.35 113a1.4 1.4 0 0 0-.23 1.54Zm-5.11 2.35a1.41 1.41 0 0 1-1.39 2l-19.28-1.51a1.4 1.4 0 0 1-1.17-.81l-3.58-7.76a1.41 1.41 0 0 1 1.23-2l18.3-.62a1.41 1.41 0 0 1 1.33.81Z"/><path class="cls-6" d="M864 169a17.69 17.69 0 0 1-1.91 19.16 2.18 2.18 0 0 1-1.8.83 17.66 17.66 0 0 1-15.82-11l-17.83-43.49a56.57 56.57 0 0 1-3.42-12l-3.42-20.35a1.41 1.41 0 0 1 2.5-1.15l13.27 15.79a56.36 56.36 0 0 1 6.93 10.42Z"/><path class="cls-7" d="m820.63 100.66 40.69 88.16a2.27 2.27 0 0 1-1 .2 17.66 17.66 0 0 1-15.82-11l-17.83-43.49a56.57 56.57 0 0 1-3.42-12l-3.42-20.35a1.4 1.4 0 0 1 .8-1.52Z"/><path class="cls-5" d="m832.8 121-.47 2.34a1.4 1.4 0 0 1-2.07.95l-2.09-1.16a1.46 1.46 0 0 1-.59-.64l-9.34-20.25a1.41 1.41 0 0 1-.1-.86l.46-2.38a1.41 1.41 0 0 1 2.07-1l2.09 1.17a1.34 1.34 0 0 1 .59.63l9.34 20.25a1.44 1.44 0 0 1 .11.95Z"/><path class="cls-8" d="M864.2 176.14c-.44 1.86-1.82 6.28-5.13 7.81s-7.57-.29-9.27-1.16a2.47 2.47 0 0 1-1.11-1.19L847 178a.3.3 0 0 1 .4-.39c2.34 1.1 6.53 2.46 9.27 1.2s4.43-5.34 5.11-7.83a.29.29 0 0 1 .55 0l1.65 3.56a2.52 2.52 0 0 1 .22 1.6Z"/><path class="cls-4" d="M1025.41 81a2.81 2.81 0 0 1-3.73-1.38l-2.36-5.11a2.81 2.81 0 0 1 1.37-3.73 2.82 2.82 0 0 1 3.74 1.37l2.36 5.11a2.83 2.83 0 0 1-1.38 3.74Zm-40.88 18.87a2.81 2.81 0 0 0 1.38-3.73L983.55 91a2.81 2.81 0 0 0-3.73-1.38 2.81 2.81 0 0 0-1.38 3.73l2.36 5.11a2.8 2.8 0 0 0 3.73 1.41Z"/><rect class="cls-4" x="1029.47" y="56.71" width="5.63" height="11.25" rx="2.81" transform="rotate(-24.77 1032.414 62.307)"/><path class="cls-4" d="M968.22 98.1a2.81 2.81 0 0 0 1.38-3.73l-2.36-5.11a2.81 2.81 0 0 0-3.73-1.38 2.81 2.81 0 0 0-1.38 3.74l2.36 5.1a2.8 2.8 0 0 0 3.73 1.38Z"/><path class="cls-5" d="M997.42 94.23a1.41 1.41 0 0 1-1.45 2l-46-5.75a1.42 1.42 0 0 1-1.11-.81l-4.29-9.3a1.4 1.4 0 0 1 1.22-2l42.62-1.67a1.4 1.4 0 0 1 1.33.81Zm15.33-7.07a1.41 1.41 0 0 0 2.46.18l25.49-38.76a1.41 1.41 0 0 0 .11-1.36l-4.3-9.3a1.41 1.41 0 0 0-2.31-.37l-28.92 31.34a1.42 1.42 0 0 0-.24 1.55ZM990 51.31a1.41 1.41 0 0 0 2.42.24l11.38-15.65a1.42 1.42 0 0 0 .14-1.42l-3.58-7.76a1.41 1.41 0 0 0-2.32-.36l-12.35 13.53a1.39 1.39 0 0 0-.24 1.53Zm-5.1 2.36a1.4 1.4 0 0 1-1.38 2l-19.29-1.5a1.42 1.42 0 0 1-1.17-.81l-3.58-7.76a1.41 1.41 0 0 1 1.23-2L979 43a1.41 1.41 0 0 1 1.32.81Z"/><path class="cls-6" d="M1019.37 96a17.71 17.71 0 0 1-1.92 19.16 2.19 2.19 0 0 1-1.79.83 17.71 17.71 0 0 1-15.83-11L982 61.48a55.94 55.94 0 0 1-3.43-12l-3.4-20.38a1.41 1.41 0 0 1 2.46-1.1l13.27 15.8a56.12 56.12 0 0 1 6.93 10.41Z"/><path class="cls-7" d="m976 27.59 40.68 88.16a2.25 2.25 0 0 1-1 .2 17.71 17.71 0 0 1-15.83-11L982 61.48a55.94 55.94 0 0 1-3.43-12l-3.4-20.38a1.38 1.38 0 0 1 .83-1.51Z"/><path class="cls-5" d="m988.13 47.87-.47 2.35a1.4 1.4 0 0 1-2.06 1L983.51 50a1.41 1.41 0 0 1-.59-.64l-9.35-20.25a1.41 1.41 0 0 1-.1-.86l.47-2.35A1.4 1.4 0 0 1 976 25l2.08 1.16a1.41 1.41 0 0 1 .59.64L988 47a1.41 1.41 0 0 1 .13.87Z"/><path class="cls-8" d="M1019.53 103.07c-.44 1.86-1.82 6.28-5.13 7.81s-7.56-.3-9.27-1.17a2.54 2.54 0 0 1-1.11-1.18l-1.64-3.57a.3.3 0 0 1 .4-.39c2.33 1.1 6.53 2.46 9.27 1.2s4.42-5.34 5.1-7.83a.3.3 0 0 1 .56 0l1.64 3.56a2.51 2.51 0 0 1 .18 1.57Z"/><circle class="cls-9" cx="1080.64" cy="325.55" r="28.25"/><path class="cls-10" d="m1097.29 321.56-30.65-.76a.88.88 0 0 0-.9.85v.57a.89.89 0 0 0 .85.9h.57a.87.87 0 0 1 .85.9l-.3 12.13a.89.89 0 0 0 .85.9l26 .64a.89.89 0 0 0 .9-.85l.3-12.14a.87.87 0 0 1 .89-.85h.57a.87.87 0 0 0 .89-.86v-.56a.87.87 0 0 0-.82-.87Zm-10.19 3.54a3.37 3.37 0 0 1-.92 1.55l-1.34 1.28a.9.9 0 0 0-.25.94l1.63 5.35a.31.31 0 0 1-.09.33.32.32 0 0 1-.48 0l-3.26-4.19h-.07a4.28 4.28 0 0 1-1.11 1l-1.42.63a.36.36 0 0 0-.22.38l.25 1.77a.34.34 0 0 1-.62.23l-1-1.6-1.54-1.12a.33.33 0 0 1 0-.52.34.34 0 0 1 .29-.09l1.76.34a.36.36 0 0 0 .39-.2l.1-.21a8.58 8.58 0 0 1 1.63-2.24v-.07l-4-3.46a.33.33 0 0 1 0-.49.35.35 0 0 1 .34-.07l5.26 1.9a.94.94 0 0 0 1-.2l1.34-1.28a3.33 3.33 0 0 1 1.59-.85.76.76 0 0 1 .9 1Zm-10.84-7.53v.5a.66.66 0 0 0 .64.67l10.26.25a.65.65 0 0 0 .67-.63v-.51a5.77 5.77 0 0 0-3.65-5.52.26.26 0 0 1-.06-.44 2.83 2.83 0 0 0 1-1.68.47.47 0 0 0-.45-.54l-4.8-.12a.46.46 0 0 0-.48.52 2.85 2.85 0 0 0 .9 1.73.26.26 0 0 1-.08.44 5.78 5.78 0 0 0-3.95 5.33Zm9.09-9.04a.3.3 0 0 0 .3-.37l-.69-2.53a.72.72 0 0 0-.76-.53l-4.69.46a.71.71 0 0 0-.65.69v1.82a.32.32 0 0 0 .29.31Z"/><circle class="cls-9" cx="825.41" cy="444.06" r="28.25"/><path class="cls-10" d="m842.06 440.07-30.65-.76a.87.87 0 0 0-.89.85v.57a.87.87 0 0 0 .86.89h.56a.86.86 0 0 1 .85.89l-.3 12.14a.89.89 0 0 0 .86.9l26 .64a.87.87 0 0 0 .89-.85l.3-12.14a.88.88 0 0 1 .9-.85h.56a.86.86 0 0 0 .9-.85v-.5a.87.87 0 0 0-.84-.93Zm-10.18 3.54a3.42 3.42 0 0 1-.92 1.55l-1.35 1.28a.94.94 0 0 0-.25.94l1.64 5.35a.34.34 0 0 1-.09.33.32.32 0 0 1-.49 0l-3.26-4.18h-.07c-.37.34-.64.78-1.1 1l-1.43.63a.36.36 0 0 0-.21.38l.24 1.77a.31.31 0 0 1-.1.29.33.33 0 0 1-.52-.07l-1-1.59-1.54-1.12a.34.34 0 0 1 0-.52.36.36 0 0 1 .3-.09l1.75.33a.35.35 0 0 0 .39-.19l.11-.21a8.55 8.55 0 0 1 1.62-2.24v-.07l-4-3.46a.33.33 0 0 1 0-.49.35.35 0 0 1 .34-.07l5.25 1.9a.94.94 0 0 0 1-.2l1.35-1.28a3.25 3.25 0 0 1 1.59-.85.76.76 0 0 1 .9.95ZM821 436.08v.5a.65.65 0 0 0 .63.67l10.27.25a.65.65 0 0 0 .67-.63v-.51a5.8 5.8 0 0 0-3.66-5.52.25.25 0 0 1-.05-.44 2.82 2.82 0 0 0 1-1.68.46.46 0 0 0-.44-.54l-4.81-.12a.46.46 0 0 0-.47.52 2.9 2.9 0 0 0 .89 1.73.26.26 0 0 1-.08.44 5.76 5.76 0 0 0-3.95 5.33Zm9.13-9.08a.3.3 0 0 0 .29-.37l-.68-2.53a.72.72 0 0 0-.76-.53l-4.7.46a.71.71 0 0 0-.65.69v1.82a.29.29 0 0 0 .29.3Z"/><circle class="cls-9" cx="490.11" cy="512.32" r="29.69"/><circle class="cls-9" cx="490.6" cy="512.37" r="22.96"/><path class="cls-10" d="M489.84 486.47a25.86 25.86 0 1 0 26.34 25.37 25.87 25.87 0 0 0-26.34-25.37Zm2.68 28-17.24.32a2.15 2.15 0 0 1-2.19-2.1 2.14 2.14 0 0 1 2.11-2.18l12.93-.24-.32-17.27a2.14 2.14 0 0 1 2.1-2.18 2.13 2.13 0 0 1 2.18 2.1Z"/><rect class="cls-9" x="726.17" y="383.66" width="47.63" height="57.03" rx="5.3"/><circle class="cls-9" cx="749.43" cy="405.18" r="15.82"/><path id="_2" data-name="2" class="cls-5" d="m768.2 386.34-36.65.17a2.5 2.5 0 0 0-2.49 2.51l.21 46.66a2.51 2.51 0 0 0 2.51 2.49l36.66-.17a2.5 2.5 0 0 0 2.49-2.51l-.22-46.66a2.5 2.5 0 0 0-2.51-2.49ZM750 418.92a13.33 13.33 0 1 1 13.27-13.39A13.33 13.33 0 0 1 750 418.92Zm-5.23-8.54h4.82v-4.33h-5.19a29.72 29.72 0 0 0 .39 4.33Zm-5 .89a11.63 11.63 0 0 0 6.17 5.27 17.35 17.35 0 0 1-1.87-5.29Zm4.62-6.09h5.19v-4.33h-4.83a31.74 31.74 0 0 0-.36 4.33Zm-.85.87h-5.25a11.4 11.4 0 0 0 1.06 4.32h4.57a28.35 28.35 0 0 1-.38-4.32Zm2.27-11.37a11.74 11.74 0 0 0-6.11 5.32h4.31a18.34 18.34 0 0 1 1.8-5.32Zm-.94 5.3h4.69v-6a11.72 11.72 0 0 0-2.66.42 17.64 17.64 0 0 0-2.03 5.6Zm-1 .88h-4.6a11.57 11.57 0 0 0-1 4.33h5.24a28.84 28.84 0 0 1 .36-4.33Zm3.13 16a11.52 11.52 0 0 0 2.64.38v-6h-4.67a17.49 17.49 0 0 0 2.03 5.64Zm9.5-11.75h5.13a11.57 11.57 0 0 0-1-4.32h-4.47a29.81 29.81 0 0 1 .34 4.34Zm-2.28 11.34a11.7 11.7 0 0 0 6-5.3h-4.18a18 18 0 0 1-1.82 5.32Zm1.94-6.14h4.45a11.69 11.69 0 0 0 1-4.34h-5.12a30.37 30.37 0 0 1-.33 4.36Zm-2-15.65a17.93 17.93 0 0 1 1.83 5.25h4.18a11.75 11.75 0 0 0-6.03-5.23Zm-3.66 16.54v6a11.46 11.46 0 0 0 2.64-.41 17.13 17.13 0 0 0 2-5.63Zm2.59-16.89a11.81 11.81 0 0 0-2.67-.42v6h4.69a17.68 17.68 0 0 0-2.04-5.56Zm2.19 6.47h-4.83v4.33h5.18a29.91 29.91 0 0 0-.37-4.31Zm.37 5.2h-5.18v4.33h4.82a28.84 28.84 0 0 0 .34-4.31Z"/><path id="_1" data-name="1" class="cls-9" d="M742.31 424.81a2.51 2.51 0 0 0-1.71-.54h-3.09v7.2H739v-2.59h1.5a2.8 2.8 0 0 0 1.8-.54 2.79 2.79 0 0 0 0-3.53Zm-1.13 2.56a1.17 1.17 0 0 1-.8.27H739v-2.12h1.36a1.21 1.21 0 0 1 .8.23 1 1 0 0 1 .29.8 1 1 0 0 1-.27.82Zm4.29-3.13-2.54 7.21h1.58L745 430h2.65l.48 1.48h1.63l-2.58-7.18Zm-.08 4.48.92-2.83.92 2.82Zm9-1.42-1.26-.29a4.53 4.53 0 0 1-1-.29.63.63 0 0 1-.35-.58.72.72 0 0 1 .35-.65 1.67 1.67 0 0 1 1-.24 2 2 0 0 1 .9.18 1 1 0 0 1 .58.92H756a2.14 2.14 0 0 0-.87-1.75 3.21 3.21 0 0 0-2-.59 3 3 0 0 0-2.09.65 2 2 0 0 0-.7 1.61 1.74 1.74 0 0 0 .73 1.55 4.85 4.85 0 0 0 1.58.55l.78.16a3.71 3.71 0 0 1 1 .33.63.63 0 0 1 .32.56.83.83 0 0 1-.64.83 2.71 2.71 0 0 1-.88.12 1.25 1.25 0 0 1-1.56-1.17h-1.37a2.17 2.17 0 0 0 .82 1.76 3.61 3.61 0 0 0 2.24.63 3.27 3.27 0 0 0 2.15-.66 2.08 2.08 0 0 0 .76-1.64 1.77 1.77 0 0 0-.65-1.47 3.19 3.19 0 0 0-1.25-.52Zm7.92.49a3.26 3.26 0 0 0-1.25-.52l-1.26-.29a4.53 4.53 0 0 1-1-.29.61.61 0 0 1-.35-.58.7.7 0 0 1 .35-.65 1.65 1.65 0 0 1 .95-.24 2.14 2.14 0 0 1 .89.17 1.05 1.05 0 0 1 .59.92h1.44a2.13 2.13 0 0 0-.86-1.75 3.14 3.14 0 0 0-2-.59 3 3 0 0 0-2.09.65 2.09 2.09 0 0 0-.71 1.61 1.77 1.77 0 0 0 .74 1.55 4.66 4.66 0 0 0 1.58.54l.78.17a3.71 3.71 0 0 1 1 .33.63.63 0 0 1 .32.55.84.84 0 0 1-.64.84 2.71 2.71 0 0 1-.88.12 1.56 1.56 0 0 1-1.29-.44 1.41 1.41 0 0 1-.27-.73H757a2.14 2.14 0 0 0 .82 1.76 3.59 3.59 0 0 0 2.24.63 3.27 3.27 0 0 0 2.15-.66 2.08 2.08 0 0 0 .76-1.64 1.78 1.78 0 0 0-.68-1.46Z"/><path class="cls-10" d="M1228.11 500.87a9.54 9.54 0 0 0-4 12.87l.13.23a9.52 9.52 0 0 0 17.66-6.38 9.3 9.3 0 0 0-.83-2.5l-.12-.24a9.53 9.53 0 0 0-12.84-3.98Zm7.44 7.14a3.24 3.24 0 0 1-1.48 4.16 3.07 3.07 0 0 1-1.55.38 3.26 3.26 0 0 1-2.72-1.51l-.13-.23a3.26 3.26 0 0 1 5.77-3 2.56 2.56 0 0 1 .11.19Zm70.86-48.43a9.54 9.54 0 0 0-4 12.86l.12.21a9.26 9.26 0 0 0 1.6 2.1 9.52 9.52 0 0 0 16.07-8.48 9.69 9.69 0 0 0-.84-2.5 2.12 2.12 0 0 0-.11-.21 9.52 9.52 0 0 0-12.84-3.98Zm7.43 7.11a3.26 3.26 0 0 1-.25 3.08 3.35 3.35 0 0 1-1.22 1.11 3.15 3.15 0 0 1-1.59.37 3.25 3.25 0 0 1-2.69-1.52l-.12-.21a3.26 3.26 0 1 1 5.77-3Z"/><path class="cls-10" d="M1317 391.93a4.56 4.56 0 0 0-6.15-1.9l-81.14 42.79c-2.89 1.53-5.42 4.29-7.64 7.83l-5.9 3.11a4.29 4.29 0 0 0-1.79 5.79l1.91 3.61c-3.61 10.16-6 21.75-7.56 29.74-.34 1.71-.64 3.2-.92 4.49-1 1.41-1.93 2.77-2.87 4.09-2.87 4-5.55 7.76-7.05 11.82a18.82 18.82 0 0 0-.38 12.38 2 2 0 0 0 .1.38.09.09 0 0 1 0 .05 29.68 29.68 0 0 0 2.06 4.84 8 8 0 0 0 10.77 3.26l13-6.88c-.29-.33-.56-.68-.82-1a10.35 10.35 0 0 1-.69-1.11 1.71 1.71 0 0 1-.13-.23 12.12 12.12 0 1 1 21.44-11.31 2.53 2.53 0 0 1 .12.23 11.45 11.45 0 0 1 .52 1.2 10.13 10.13 0 0 1 .39 1.26l57.49-30.37a12.11 12.11 0 0 1-.82-1 11.29 11.29 0 0 1-.69-1.1l-.12-.22a12.12 12.12 0 1 1 21.45-11.31c0 .07.07.14.1.22a11.38 11.38 0 0 1 .53 1.19q.22.63.39 1.26l18.67-9.85a8 8 0 0 0 3.39-10.72l-2.29-4.35-7.51-14.23Zm-77.56 62.12a1.3 1.3 0 1 1 2.3-1.21l8.09 15.33a1.3 1.3 0 1 1-2.31 1.21Zm-16 23.84c-.65-3-2.74-14.83 3-17.85l4.58-2.42a2.92 2.92 0 0 1 3.91 1.36l5.64 10.68a2.93 2.93 0 0 1-1.1 4l-12 6.3a2.73 2.73 0 0 1-2.38.07 3 3 0 0 1-1.7-2.14Zm-12.13 5.52c1-4.85 2.32-11.55 4.15-18.45a2.11 2.11 0 0 1 1.38 2s-.41 7.51-.94 10.68c-1 5.86-2.09 7.75-5.35 9.48.18-1.12.45-2.33.71-3.71Zm-8.34 23.32a9.18 9.18 0 0 1-3.32 6.75 15.85 15.85 0 0 1 .54-8.88c.84-.54 1.55-.75 1.95-.53s.86 1.15.78 2.66Zm2.34 2.15a11.09 11.09 0 0 0 .27-2.08 5.76 5.76 0 0 0-1.57-4.58l125.25-66.06.16.34 2.23 4.22a9 9 0 0 0 .71 1.15Zm108.31-70.41-15.28-29a1.3 1.3 0 1 1 2.3-1.22l15.28 29a1.3 1.3 0 1 1-2.3 1.21Zm-79.94 1.83a1.3 1.3 0 0 1-1.22-2.3l78.91-41.61a1.3 1.3 0 1 1 1.21 2.3Zm105.82-.17-2.06 1.09c-.66.34-2 1.07-3.49-1.71l-2.23-4.23c-1.6-3-1.4-5.56.54-6.58l.94-.5ZM947.65 648.59a9.54 9.54 0 0 0-4 12.86l.13.23a9.52 9.52 0 0 0 17.66-6.37 9.37 9.37 0 0 0-.83-2.51 1.27 1.27 0 0 0-.12-.23 9.53 9.53 0 0 0-12.84-3.98Zm7.44 7.14a3.23 3.23 0 0 1-.29 3.09 3.3 3.3 0 0 1-1.18 1.07 3.35 3.35 0 0 1-1.55.38 3.29 3.29 0 0 1-2.73-1.51l-.13-.23a3.26 3.26 0 0 1 5.77-3 2.56 2.56 0 0 1 .11.2Zm70.91-48.44a9.52 9.52 0 0 0-4 12.86 1 1 0 0 0 .11.21 9.1 9.1 0 0 0 1.6 2.11 9.52 9.52 0 0 0 16.07-8.48 9.33 9.33 0 0 0-.84-2.5c0-.08-.07-.14-.1-.22a9.53 9.53 0 0 0-12.84-3.98Zm7.42 7.12a3.26 3.26 0 0 1-.25 3.08 3.22 3.22 0 0 1-1.21 1.1 3.33 3.33 0 0 1-1.6.38 3.26 3.26 0 0 1-2.68-1.53 1.48 1.48 0 0 1-.13-.21 3.26 3.26 0 0 1 5.77-3Z"/><path class="cls-10" d="M1036.51 539.65a4.56 4.56 0 0 0-6.15-1.91l-81.14 42.8c-2.89 1.52-5.42 4.29-7.63 7.82l-5.9 3.12a4.27 4.27 0 0 0-1.79 5.78l1.9 3.62c-3.61 10.15-5.94 21.75-7.55 29.73-.35 1.72-.65 3.21-.92 4.49-1 1.41-1.94 2.78-2.88 4.1-2.86 4-5.55 7.75-7.05 11.81a18.79 18.79 0 0 0-.38 12.37 1.27 1.27 0 0 0 .11.38s0 0 0 .05a29.31 29.31 0 0 0 2.05 4.85 8 8 0 0 0 10.82 3.26l13-6.92a12.2 12.2 0 0 1-.83-1c-.24-.35-.48-.72-.69-1.1l-.13-.23a12.12 12.12 0 0 1 21.45-11.31 1.63 1.63 0 0 1 .11.23 11.38 11.38 0 0 1 .53 1.19c.15.42.28.84.39 1.27l57.45-30.32a12.11 12.11 0 0 1-.82-1 10.35 10.35 0 0 1-.69-1.11l-.12-.21a12.12 12.12 0 0 1 21.45-11.31 2.12 2.12 0 0 0 .11.21 10.6 10.6 0 0 1 .52 1.2 9.18 9.18 0 0 1 .39 1.26l18.67-9.85a8 8 0 0 0 3.39-10.72l-2.29-4.35-7.51-14.23ZM959 601.76a1.3 1.3 0 0 1 2.3-1.21l8.09 15.34a1.3 1.3 0 0 1-2.3 1.21Zm-16 23.84c-.65-3-2.74-14.82 3-17.85l4.58-2.41a2.93 2.93 0 0 1 3.91 1.35l5.63 10.68a2.93 2.93 0 0 1-1.09 4l-12 6.31a2.75 2.75 0 0 1-2.39.07 3 3 0 0 1-1.71-2.15Zm-12.13 5.53c1-4.85 2.32-11.55 4.15-18.45a2.09 2.09 0 0 1 1.38 2s-.41 7.51-.94 10.67c-1 5.87-2.08 7.75-5.34 9.49.15-1.11.4-2.34.68-3.71Zm-8.33 23.32a9.19 9.19 0 0 1-3.33 6.75 16.07 16.07 0 0 1 .54-8.89c.84-.54 1.55-.74 2-.53s.76 1.15.72 2.67Zm2.33 2.15a11.2 11.2 0 0 0 .27-2.08 5.77 5.77 0 0 0-1.57-4.59l125.25-66c.06.11.1.22.16.33l2.23 4.22a9.16 9.16 0 0 0 .71 1.16Zm108.31-70.41-15.28-29a1.3 1.3 0 0 1 2.3-1.21l15.28 29a1.3 1.3 0 0 1-2.3 1.22ZM953.17 588a1.3 1.3 0 0 1-1.22-2.3l78.91-41.62a1.3 1.3 0 1 1 1.21 2.3Zm105.82-.17-2.06 1.08c-.65.35-2 1.07-3.49-1.71l-2.23-4.22c-1.6-3-1.39-5.56.54-6.58l1-.5Z"/><path class="cls-11" transform="rotate(-26.23 955.888 396.81)" d="M953.31 371.54h5.35v50.58h-5.35z"/><path class="cls-11" transform="rotate(-26.23 991.138 379.433)" d="M988.58 354.17h5.35v50.58h-5.35z"/><path class="cls-12" transform="rotate(-26.23 970.76 382.017)" d="M938.36 372.97h65.03v18.11h-65.03z"/><path class="cls-11" transform="rotate(-26.23 949.724 392.388)" d="M943.71 386.27h12.25v12.25h-12.25z"/><path class="cls-13" d="m946.79 393.9 6.09-3m-3.87-1.33 3.87 1.32-1.31 3.88"/><path class="cls-14" d="m958.9 387.93 14.97-7.37m-16.42 4.43 14.97-7.37m-12.07 13.25 11.73-5.78"/><path class="cls-15" d="M995.19 366h0a3.42 3.42 0 0 0-3.3 1.31l-2.26 3-8.54 1.7-1.65 2 7.15.28-2.88 3.71-3-.68-.91 1.11 2.22 1.82 1.63 1.34 12.19-13.8a1.12 1.12 0 0 0-.65-1.79Z"/><path class="cls-12" transform="rotate(-26.23 980.9 402.593)" d="M948.5 393.54h65.03v18.11H948.5z"/><path class="cls-11" transform="rotate(-26.23 959.868 412.942)" d="M953.84 406.84h12.25v12.25h-12.25z"/><path class="cls-13" d="m963.02 411.47-6.09 3m1.31-3.87-1.32 3.86 3.87 1.33"/><path class="cls-14" d="m969.03 408.5 14.97-7.37m-16.42 4.44 14.97-7.38m-12.07 13.25 11.74-5.78"/><path class="cls-15" d="M1007.68 395.49h0a3.4 3.4 0 0 0-3.25-1.41l-3.69.5-7.24-4.84-2.6.26 4.86 5.25-4.71.65-1.64-2.62-1.43.14.28 2.86.2 2.1 18.38-1.13a1.12 1.12 0 0 0 .84-1.76Z"/><path class="cls-11" transform="rotate(-26.23 685.735 513.744)" d="M683.14 488.5h5.35v50.58h-5.35z"/><path class="cls-11" transform="rotate(-26.23 720.985 496.367)" d="M718.41 471.12h5.35v50.58h-5.35z"/><path class="cls-12" transform="rotate(-26.23 700.63 498.955)" d="M668.19 489.92h65.03v18.11h-65.03z"/><path class="cls-11" transform="rotate(-26.23 679.576 509.3)" d="M673.53 503.22h12.25v12.25h-12.25z"/><path class="cls-13" d="m676.62 510.85 6.09-3m-3.87-1.33 3.86 1.32-1.3 3.88"/><path class="cls-14" d="m688.72 504.88 14.97-7.37m-16.41 4.43 14.96-7.37m-12.07 13.25 11.74-5.78"/><path class="cls-15" d="M725 482.91h0a3.42 3.42 0 0 0-3.3 1.31l-2.25 3-8.54 1.7-1.66 2 7.16.28-2.87 3.8-3-.69-.91 1.11 2.21 1.82 1.64 1.34 12.19-13.8a1.12 1.12 0 0 0-.67-1.87Z"/><path class="cls-12" transform="rotate(-26.23 710.752 519.504)" d="M678.33 510.5h65.03v18.11h-65.03z"/><path class="cls-11" transform="rotate(-26.23 689.715 529.875)" d="M683.67 523.79h12.25v12.25h-12.25z"/><path class="cls-13" d="m692.84 528.42-6.09 3m1.31-3.87-1.31 3.86 3.87 1.33"/><path class="cls-14" d="m698.86 525.46 14.97-7.38m-16.42 4.44 14.97-7.38m-12.07 13.25 11.73-5.78"/><path class="cls-15" d="M737.51 512.44h0a3.41 3.41 0 0 0-3.26-1.41l-3.68.5-7.25-4.84-2.59.26 4.85 5.26-4.7.64-1.65-2.62-1.43.14.28 2.86.21 2.1 18.38-1.13a1.12 1.12 0 0 0 .84-1.76Z"/><path class="cls-16" transform="rotate(153.6 545.515 460.11)" d="M525.57 459.02h39.88v2.18h-39.88z"/><path class="cls-17" transform="rotate(153.6 559.149 447.345)" d="M558.39 443.06h1.52v8.56h-1.52z"/><path class="cls-17" transform="rotate(153.6 527.1 463.255)" d="M526.34 458.97h1.52v8.56h-1.52z"/><path class="cls-18" d="m554.19 456.35 7.89-3.92a.86.86 0 0 1 1.21.54l.44 1.61-8.83 4.42-1-1.34a.85.85 0 0 1 .29-1.31Z"/><path class="cls-18" d="M558.35 456.25h6.44a1.71 1.71 0 0 1 1.71 1.75v8.43h0-9.86 0V458a1.71 1.71 0 0 1 1.71-1.75Z" transform="rotate(153.6 561.574 461.318)"/><path class="cls-19" d="M563.95 453.67h.44a1 1 0 0 1 1 1v2.57h0-2.45 0v-2.57a1 1 0 0 1 1.01-1Z" transform="rotate(153.6 564.168 455.454)"/><path class="cls-19" d="M555.12 458.05h.44a1 1 0 0 1 1 1v2.57h0-2.45 0v-2.57a1 1 0 0 1 1.01-1Z" transform="rotate(153.6 555.337 459.84)"/><path class="cls-18" d="m541.76 462.52 7.9-3.92a.85.85 0 0 1 1.2.54l.45 1.61-8.83 4.39-1-1.34a.85.85 0 0 1 .28-1.28Z"/><path class="cls-18" d="M545.93 462.41h6.44a1.71 1.71 0 0 1 1.71 1.71v8.43h0-9.86 0v-8.43a1.71 1.71 0 0 1 1.71-1.71Z" transform="rotate(153.6 549.15 467.482)"/><path class="cls-19" d="M551.53 459.84h.47a1 1 0 0 1 1 1v2.57h0-2.45 0v-2.57a1 1 0 0 1 .98-1Z" transform="rotate(153.6 551.743 461.623)"/><path class="cls-19" d="M542.7 464.22h.44a1 1 0 0 1 1 1v2.57h0-2.45 0v-2.57a1 1 0 0 1 1.01-1Z" transform="rotate(153.6 542.913 466.009)"/><path class="cls-18" d="m529.34 468.68 7.9-3.91a.85.85 0 0 1 1.2.53l.45 1.62-8.83 4.38L529 470a.87.87 0 0 1 .34-1.32Z"/><path class="cls-18" d="M533.51 468.58h6.44a1.71 1.71 0 0 1 1.71 1.71v8.43h0-9.86 0v-8.43a1.71 1.71 0 0 1 1.71-1.71Z" transform="rotate(153.6 536.726 473.652)"/><path class="cls-19" d="M539.1 466h.44a1 1 0 0 1 1 1v2.57h0-2.44 0V467a1 1 0 0 1 1-1Z" transform="rotate(153.6 539.325 467.789)"/><path class="cls-19" d="M530.27 470.39h.44a1 1 0 0 1 1 1V474h0-2.45 0v-2.57a1 1 0 0 1 1.01-1.04Z" transform="rotate(153.6 530.49 472.173)"/><path class="cls-16" transform="rotate(153.6 868.98 293.42)" d="M849.04 292.33h39.88v2.18h-39.88z"/><path class="cls-17" transform="rotate(153.6 882.62 280.651)" d="M881.86 276.37h1.52v8.56h-1.52z"/><path class="cls-17" transform="rotate(153.6 850.572 296.56)" d="M849.81 292.28h1.52v8.56h-1.52z"/><path class="cls-18" d="m877.66 289.66 7.89-3.92a.86.86 0 0 1 1.21.54l.44 1.61-8.83 4.39-1-1.34a.85.85 0 0 1 .29-1.28Z"/><path class="cls-18" d="M881.82 289.56h6.44a1.71 1.71 0 0 1 1.71 1.71v8.43h0-9.86 0v-8.43a1.71 1.71 0 0 1 1.71-1.71Z" transform="rotate(153.6 885.045 294.624)"/><path class="cls-19" d="M887.42 287h.44a1 1 0 0 1 1 1v2.57h0-2.45 0V288a1 1 0 0 1 1.01-1Z" transform="rotate(153.6 887.638 288.765)"/><path class="cls-19" d="M878.59 291.36h.41a1 1 0 0 1 1 1v2.57h0-2.45 0v-2.57a1 1 0 0 1 1.04-1Z" transform="rotate(153.6 878.808 293.145)"/><path class="cls-18" d="m865.23 295.83 7.9-3.92a.85.85 0 0 1 1.2.53l.45 1.62-8.78 4.38-1-1.33a.85.85 0 0 1 .23-1.28Z"/><path class="cls-18" d="M869.4 295.72h6.44a1.71 1.71 0 0 1 1.71 1.71v8.43h0-9.86 0v-8.43a1.71 1.71 0 0 1 1.71-1.71Z" transform="rotate(153.6 872.622 300.788)"/><path class="cls-19" d="M875 293.15h.44a1 1 0 0 1 1 1v2.57h0H874h0v-2.57a1 1 0 0 1 1-1Z" transform="rotate(153.6 875.214 294.93)"/><path class="cls-19" d="M866.16 297.53h.44a1 1 0 0 1 1 1v2.57h0-2.45 0v-2.57a1 1 0 0 1 1-1Z" transform="rotate(153.6 866.384 299.315)"/><path class="cls-18" d="m852.81 302 7.89-3.92a.86.86 0 0 1 1.21.54l.45 1.62-8.83 4.38-1-1.33a.86.86 0 0 1 .28-1.29Z"/><path class="cls-18" d="M857 301.89h6.44a1.71 1.71 0 0 1 1.71 1.71v8.4h0-9.86 0v-8.4a1.71 1.71 0 0 1 1.71-1.71Z" transform="rotate(153.6 860.197 306.958)"/><path class="cls-19" d="M862.57 299.31h.43a1 1 0 0 1 1 1v2.57h0-2.45 0v-2.57a1 1 0 0 1 1.02-1Z" transform="rotate(153.6 862.79 301.099)"/><path class="cls-19" d="M853.74 303.7h.44a1 1 0 0 1 1 1v2.57h0-2.45 0v-2.57a1 1 0 0 1 1.01-1Z" transform="rotate(153.6 853.96 305.48)"/><circle class="cls-9" cx="1180.56" cy="870.25" r="66.11"/><path class="cls-10" d="M1208.65 851.15c0 15.59-7.54 22.41-21.74 22.41h-10.55v36.66H1165v-81.48h21.9c14.21 0 21.75 6.81 21.75 22.41Zm-11.22 0c0-8.86-2.56-14.25-10.52-14.25h-10.55v28.5h10.55c7.96 0 10.52-5.4 10.52-14.26Z"/></g></svg>