<svg xmlns="http://www.w3.org/2000/svg" viewBox="0 0 1334.59 1040.64"><defs><style>.cls-1,.cls-3{fill:#36a9e1}.cls-1,.cls-5{stroke:#1d1d1b;stroke-miterlimit:10}.cls-1{stroke-width:2.07px}.cls-15,.cls-18,.cls-2,.cls-20,.cls-22,.cls-23,.cls-28{fill:#fff}.cls-5{fill:#dadada;stroke-width:2.33px}.cls-15,.cls-17,.cls-21,.cls-22,.cls-28{stroke:#000}.cls-14,.cls-15,.cls-16,.cls-17,.cls-18,.cls-19,.cls-20,.cls-21,.cls-22,.cls-23,.cls-25,.cls-26,.cls-28{stroke-linecap:round;stroke-linejoin:round}.cls-8{fill:#1860a4}.cls-9{fill:#fab62e}.cls-10{fill:#4597d1}.cls-11{fill:#e5e5e5}.cls-12{fill:#d9d9d9}.cls-13{fill:#1f1f1f}.cls-14,.cls-19,.cls-25{fill:#d3e9f4}.cls-14,.cls-16,.cls-18,.cls-19,.cls-20,.cls-23,.cls-25,.cls-26{stroke:#3f8be1}.cls-14,.cls-15,.cls-16,.cls-17,.cls-18{stroke-width:.77px}.cls-16,.cls-17,.cls-26{fill:none}.cls-19,.cls-20,.cls-21,.cls-22{stroke-width:1.08px}.cls-21,.cls-24{fill:#f9b233}.cls-23,.cls-25,.cls-26,.cls-28{stroke-width:.97px}</style></defs><g id="Capa_2" data-name="Capa 2"><path class="cls-1" d="M853.98 469.04 542.62 851.27l-38.32-31.48 311.36-382.23 38.32 31.48z"/><path class="cls-2" d="M786.33 531.06a4.61 4.61 0 0 0 .67 6.48l.1.08a4.4 4.4 0 0 0 1.11.63 4.61 4.61 0 0 0 5.55-6.82 4.51 4.51 0 0 0-.85-1l-.09-.08a4.61 4.61 0 0 0-6.49.71Zm4.67 1.76a1.57 1.57 0 0 1 .46 1.44 1.51 1.51 0 0 1-.33.7 1.46 1.46 0 0 1-.62.46 1.56 1.56 0 0 1-1.49-.15l-.11-.08a1.58 1.58 0 0 1 2-2.45Zm22.39-35.02a4.6 4.6 0 0 0 .67 6.48l.09.08a4.53 4.53 0 0 0 1.11.63 4.61 4.61 0 0 0 5.55-6.83 4.49 4.49 0 0 0-.85-1l-.09-.08a4.61 4.61 0 0 0-6.48.72Zm4.66 1.76a1.59 1.59 0 0 1 .47 1.42 1.63 1.63 0 0 1-.33.72 1.52 1.52 0 0 1-.64.47 1.59 1.59 0 0 1-1.49-.17l-.09-.07a1.58 1.58 0 0 1 2-2.45Z"/><path class="cls-2" d="M805.26 465.65a2.21 2.21 0 0 0-3.1.32l-28 34.47a10.35 10.35 0 0 0-1.92 4.93l-2 2.51a2.09 2.09 0 0 0 .3 2.92l1.54 1.25a109.85 109.85 0 0 0 2.27 14.68c.18.83.33 1.55.45 2.17-.16.81-.34 1.61-.51 2.37a25.51 25.51 0 0 0-.9 6.61 9.13 9.13 0 0 0 2.18 5.58.44.44 0 0 0 .12.15 14.92 14.92 0 0 0 1.84 1.77 3.86 3.86 0 0 0 5.41-.59l4.51-5.54c-.19-.09-.38-.2-.57-.31a5.88 5.88 0 0 1-.51-.36l-.11-.08a5.87 5.87 0 0 1 7.41-9.11l.1.08c.16.14.32.29.46.44a3.8 3.8 0 0 1 .41.49l19.79-24.4c-.19-.1-.38-.2-.56-.31a6 6 0 0 1-.52-.36l-.09-.08a5.87 5.87 0 0 1 7.41-9.11l.09.08.46.43a6.26 6.26 0 0 1 .41.49l6.45-7.93a3.85 3.85 0 0 0-.52-5.42l-1.85-1.5-6-4.92Zm-22.78 42.4a.63.63 0 0 1 .8-1l6.51 5.3a.63.63 0 1 1-.8 1Zm-2.61 13.66c-.87-1.23-4-6.09-2-8.52l1.58-2a1.42 1.42 0 0 1 2-.14l4.53 3.69a1.42 1.42 0 0 1 .27 2l-4.13 5.08a1.31 1.31 0 0 1-1.05.48 1.42 1.42 0 0 1-1.2-.59Zm-4.36 4.76c-.49-2.34-1.16-5.58-1.65-9a1 1 0 0 1 1 .62s1.24 3.42 1.61 4.93c.68 2.8.54 3.85-.58 5.25-.12-.54-.24-1.13-.38-1.8Zm.71 12a4.45 4.45 0 0 1-.2 3.64 7.62 7.62 0 0 1-1.44-4.06c.27-.4.55-.62.76-.6s.66.31.88.99Zm1.45.52a5.61 5.61 0 0 0-.28-1 2.79 2.79 0 0 0-1.56-1.74L819.1 483l.14.12 1.79 1.46a5.93 5.93 0 0 0 .54.38Zm34.9-51.99-12.3-10a.63.63 0 0 1-.09-.89.62.62 0 0 1 .88-.09l12.31 10a.63.63 0 1 1-.8 1Zm-35.27 16a.63.63 0 0 1-1-.8l27.26-33.51a.63.63 0 1 1 1 .8Zm47.12-20.15-.71.87c-.23.28-.7.86-1.88-.1l-1.8-1.46c-1.29-1.05-1.67-2.21-1-3l.33-.41ZM565 807.4a4.63 4.63 0 0 0 .67 6.49l.1.08a4.4 4.4 0 0 0 1.11.63 4.61 4.61 0 0 0 5.55-6.82 4.54 4.54 0 0 0-.85-1l-.09-.08a4.62 4.62 0 0 0-6.49.7Zm4.67 1.77a1.62 1.62 0 0 1 .46 1.44 1.67 1.67 0 0 1-.33.7 1.55 1.55 0 0 1-.62.46 1.58 1.58 0 0 1-1.5-.16l-.1-.07a1.58 1.58 0 0 1 2-2.45.39.39 0 0 1 .07.08ZM592 774.15a4.6 4.6 0 0 0 .66 6.48l.09.07a4.77 4.77 0 0 0 1.11.64 4.62 4.62 0 0 0 5.56-6.83 5.13 5.13 0 0 0-.85-1l-.09-.07a4.61 4.61 0 0 0-6.48.71Zm4.65 1.76a1.59 1.59 0 0 1 .48 1.42 1.74 1.74 0 0 1-.33.72 1.49 1.49 0 0 1-.65.47 1.57 1.57 0 0 1-1.48-.17l-.09-.07a1.58 1.58 0 0 1 2-2.45Z"/><path class="cls-2" d="M583.91 742a2.22 2.22 0 0 0-3.11.32l-28 34.46a10.39 10.39 0 0 0-1.92 4.94l-2 2.51a2.07 2.07 0 0 0 .3 2.91l1.54 1.25a108.16 108.16 0 0 0 2.27 14.69c.17.82.32 1.55.44 2.17-.16.81-.33 1.6-.5 2.37a25.49 25.49 0 0 0-.9 6.6 9.09 9.09 0 0 0 2.18 5.58.57.57 0 0 0 .12.15 14.92 14.92 0 0 0 1.84 1.77 3.85 3.85 0 0 0 5.41-.6l4.51-5.54a6.19 6.19 0 0 1-.57-.3 6 6 0 0 1-.52-.28.39.39 0 0 0-.1-.08 5.87 5.87 0 0 1 7.41-9.11l.1.08.46.43a6.26 6.26 0 0 1 .41.49l19.85-24.41a6 6 0 0 1-.56-.3 6.15 6.15 0 0 1-.52-.37l-.09-.07a5.87 5.87 0 1 1 7.41-9.11.6.6 0 0 1 .08.08 3.77 3.77 0 0 1 .46.43 4.93 4.93 0 0 1 .42.49l6.45-7.93a3.86 3.86 0 0 0-.52-5.42l-1.85-1.51-6-4.91Zm-22.78 42.4a.63.63 0 0 1-.09-.89.62.62 0 0 1 .88-.09l6.52 5.3a.62.62 0 0 1 .09.88.63.63 0 0 1-.89.09Zm-2.62 13.66c-.86-1.23-4-6.09-2-8.52l1.59-1.95a1.4 1.4 0 0 1 2-.14l4.54 3.69a1.42 1.42 0 0 1 .27 2l-4.13 5.08a1.34 1.34 0 0 1-1.05.48 1.43 1.43 0 0 1-1.22-.64Zm-4.35 4.76c-.49-2.35-1.16-5.59-1.65-9a1 1 0 0 1 1 .63s1.24 3.42 1.61 4.93c.68 2.8.54 3.85-.59 5.24-.11-.54-.24-1.14-.37-1.8Zm.71 12a4.49 4.49 0 0 1-.2 3.64 7.74 7.74 0 0 1-1.45-4.06c.27-.4.55-.63.77-.61s.61.32.88 1Zm1.45.52a5.61 5.61 0 0 0-.28-1 2.75 2.75 0 0 0-1.57-1.74l43.28-53.2.14.12 1.79 1.46a4.33 4.33 0 0 0 .54.37Zm34.9-51.92-12.3-10a.63.63 0 1 1 .79-1l12.3 10a.63.63 0 0 1-.79 1Zm-35.27 16a.63.63 0 1 1-1-.8l27.26-33.51a.63.63 0 0 1 .89-.09.62.62 0 0 1 .09.88Zm47.11-20.16-.71.88c-.22.28-.7.86-1.88-.1l-1.79-1.46c-1.29-1-1.68-2.21-1-3l.33-.4Z"/><rect class="cls-1" x="708.66" y="603.65" width="462.46" height="270.34" rx="26.38" transform="rotate(-50.6 939.77 738.792)"/><path class="cls-3" d="M1187.3 282.12v.13a4.7 4.7 0 0 0 .31 1.24 4.61 4.61 0 0 0 8.76-.64 4.42 4.42 0 0 0 .12-1.27v-.13a4.61 4.61 0 0 0-9.2.67Zm3-.22a1.58 1.58 0 0 1 3.15-.23.57.57 0 0 1 0 .13 1.6 1.6 0 0 1-.74 1.32 1.62 1.62 0 0 1-.73.24 1.5 1.5 0 0 1-.76-.14 1.56 1.56 0 0 1-.91-1.19s.02-.09.01-.13Zm-45.76 3.34v.11a4.5 4.5 0 0 0 .3 1.24 4.61 4.61 0 0 0 8.78-.63 4.53 4.53 0 0 0 .11-1.28v-.11a4.61 4.61 0 1 0-9.2.67Zm3-.22a1.57 1.57 0 1 1 3.14-.23.41.41 0 0 1 0 .11 1.57 1.57 0 0 1-.71 1.32 1.76 1.76 0 0 1-.76.26 1.6 1.6 0 0 1-.78-.15 1.57 1.57 0 0 1-.89-1.2.45.45 0 0 1 .03-.13Z"/><path class="cls-3" d="m1128.47 273.73.56 7.77.17 2.38a3.85 3.85 0 0 0 4.14 3.53l10.2-.74a4.34 4.34 0 0 1-.16-.62 3.3 3.3 0 0 1-.09-.63.37.37 0 0 1 0-.11 5.87 5.87 0 1 1 11.7-.85.37.37 0 0 1 0 .11v.64a4.5 4.5 0 0 1-.07.63l31.38-2.28a4.34 4.34 0 0 1-.16-.62 6.17 6.17 0 0 1-.1-.62.62.62 0 0 0 0-.13 5.87 5.87 0 1 1 11.71-.85.57.57 0 0 1 0 .13v.63c0 .22 0 .43-.07.64l7.12-.52a3.86 3.86 0 0 0 3.59-4.1 15 15 0 0 0-.4-2.52.6.6 0 0 0-.06-.19 9.07 9.07 0 0 0-3.32-5 25.71 25.71 0 0 0-5.92-3c-.73-.3-1.48-.61-2.23-.95-.45-.45-1-1-1.53-1.6a107.85 107.85 0 0 0-10.73-10.28l-.15-2a2.07 2.07 0 0 0-2.22-1.91l-3.22.23a10.45 10.45 0 0 0-5.14-1.26l-44.31 3.23a2.21 2.21 0 0 0-2 2.36Zm47.06-4.51a.64.64 0 0 1-.59.68.63.63 0 0 1-.67-.59l-.61-8.37a.63.63 0 1 1 1.25-.09Zm11.94-1.38a1.34 1.34 0 0 1-1 .58l-6.53.48a1.4 1.4 0 0 1-1.47-1.36l-.43-5.83a1.42 1.42 0 0 1 1.26-1.56l2.5-.18c3.13-.23 5.3 5.15 5.81 6.56a1.44 1.44 0 0 1-.14 1.31Zm7.8-.82c-1.79.12-2.73-.37-4.63-2.53-1-1.16-3.13-4.14-3.13-4.14a1 1 0 0 1 .06-1.17c2.52 2.36 4.8 4.77 6.44 6.51.47.49.88.94 1.26 1.31Zm7.8 4.8c.11-.18.46-.29.94-.28a7.71 7.71 0 0 1 2.5 3.52 4.48 4.48 0 0 1-3.1-1.93c-.41-.61-.41-1.13-.34-1.31Zm-69.44 7.85a4.77 4.77 0 0 0 0-.65l-.17-2.31v-.18l68.39-5a2.78 2.78 0 0 0 .53 2.28 5.78 5.78 0 0 0 .65.79Zm6.24-5.53a.61.61 0 0 1-.67-.58l-1.2-15.82a.63.63 0 0 1 .59-.67.62.62 0 0 1 .67.58l1.15 15.82a.61.61 0 0 1-.54.67Zm-9.2-17.28a.63.63 0 0 1-.09-1.26l43.09-3.14a.63.63 0 1 1 .09 1.26Zm-.9 17.41h.52c1.06-.07 1.79.91 1.91 2.57l.17 2.31c.11 1.52-.64 1.57-1 1.6l-1.12.08Zm69.9-62.27v.13a4.33 4.33 0 0 0 .3 1.24 4.61 4.61 0 0 0 8.77-.64 4.81 4.81 0 0 0 .12-1.27s0-.08 0-.13a4.61 4.61 0 0 0-9.2.67Zm3-.22a1.58 1.58 0 1 1 3.15-.23v.13a1.57 1.57 0 0 1-.73 1.32 1.61 1.61 0 0 1-1.5.11 1.59 1.59 0 0 1-.91-1.2.53.53 0 0 1 .02-.13Zm-45.75 3.34a.37.37 0 0 0 0 .11 4.56 4.56 0 0 0 4.92 4.15 4.61 4.61 0 0 0 4.15-3.54 4.49 4.49 0 0 0 .12-1.27s0-.08 0-.12a4.61 4.61 0 1 0-9.19.67Zm3-.22a1.58 1.58 0 1 1 3.15-.23v.12a1.57 1.57 0 0 1-.71 1.31 1.5 1.5 0 0 1-.75.26 1.56 1.56 0 0 1-.78-.15 1.58 1.58 0 0 1-.9-1.2s.01-.07.01-.11Z"/><path class="cls-3" d="m1140.84 203.61.57 7.77.17 2.38a3.86 3.86 0 0 0 4.15 3.53l10.19-.74a6.25 6.25 0 0 1-.16-.62 6.17 6.17 0 0 1-.09-.62.49.49 0 0 1 0-.12 5.87 5.87 0 1 1 11.71-.85.49.49 0 0 0 0 .12v.63c0 .21 0 .42-.07.63l31.37-2.27c-.06-.21-.12-.41-.16-.62s-.07-.42-.09-.63a.53.53 0 0 1 0-.13 5.87 5.87 0 1 1 11.71-.85v.13a3.31 3.31 0 0 1 0 .63 4.48 4.48 0 0 1-.07.64l7.12-.52a3.85 3.85 0 0 0 3.59-4.09 13.86 13.86 0 0 0-.4-2.52.78.78 0 0 0 0-.18 9.07 9.07 0 0 0-3.33-5 25.42 25.42 0 0 0-5.93-3.05c-.72-.3-1.47-.61-2.23-.95-.44-.45-.95-1-1.53-1.6a107.89 107.89 0 0 0-10.73-10.28l-.14-2a2.07 2.07 0 0 0-2.22-1.92l-3.23.23a10.3 10.3 0 0 0-5.14-1.25l-44.31 3.22a2.21 2.21 0 0 0-2 2.36Zm47.06-4.51a.63.63 0 1 1-1.26.1l-.61-8.38a.63.63 0 0 1 1.26-.09Zm11.94-1.38a1.33 1.33 0 0 1-1 .59l-6.53.47a1.41 1.41 0 0 1-1.47-1.36l-.43-5.83a1.44 1.44 0 0 1 1.26-1.56l2.5-.18c3.14-.23 5.3 5.16 5.81 6.56a1.44 1.44 0 0 1-.14 1.31Zm7.8-.82c-1.78.12-2.72-.37-4.63-2.53-1-1.16-3.12-4.14-3.12-4.14a1 1 0 0 1 .06-1.17c2.52 2.37 4.79 4.77 6.43 6.51Zm7.81 4.81c.11-.19.45-.29.93-.28a7.61 7.61 0 0 1 2.5 3.51 4.48 4.48 0 0 1-3.09-1.92c-.41-.62-.47-1.1-.34-1.31Zm-69.45 7.84v-.65l-.17-2.31a1.1 1.1 0 0 1 0-.18l68.39-5a2.79 2.79 0 0 0 .54 2.28 5 5 0 0 0 .64.79Zm6.25-5.53a.63.63 0 0 1-.68-.58l-1.15-15.81a.63.63 0 0 1 .58-.68.64.64 0 0 1 .68.58l1.15 15.82a.63.63 0 0 1-.58.65Zm-9.2-17.28a.63.63 0 0 1-.68-.58.64.64 0 0 1 .59-.68l43.09-3.14a.64.64 0 0 1 .67.59.63.63 0 0 1-.58.67Zm-.9 17.41h.51c1.06-.08 1.79.9 1.91 2.56l.17 2.31c.11 1.52-.64 1.57-1 1.6l-1.12.08Zm23.07-58.15v.12a4.89 4.89 0 0 0 .3 1.24 4.61 4.61 0 0 0 8.77-.63 4.49 4.49 0 0 0 .12-1.27v-.13a4.61 4.61 0 1 0-9.2.67Zm3-.22a1.58 1.58 0 0 1 3.15-.23s0 .08 0 .13a1.6 1.6 0 0 1-.74 1.31 1.52 1.52 0 0 1-.73.25 1.61 1.61 0 0 1-.76-.14 1.58 1.58 0 0 1-.91-1.2s.02-.12.01-.16Zm-45.76 3.29v.12a4.69 4.69 0 0 0 .3 1.24 4.61 4.61 0 0 0 8.78-.64 4.43 4.43 0 0 0 .11-1.27v-.12a4.61 4.61 0 0 0-9.2.67Zm3-.22a1.57 1.57 0 1 1 3.14-.23.49.49 0 0 1 0 .12 1.6 1.6 0 0 1-.71 1.32 1.63 1.63 0 0 1-.76.25 1.6 1.6 0 0 1-.78-.14 1.57 1.57 0 0 1-.89-1.2.49.49 0 0 1 .03-.12Z"/><path class="cls-3" d="m1106.39 137.56.56 7.77.17 2.37a3.86 3.86 0 0 0 4.14 3.54l10.2-.74a4.71 4.71 0 0 1-.16-.62 4.58 4.58 0 0 1-.1-.63.37.37 0 0 0 0-.11 5.87 5.87 0 1 1 11.71-.86.49.49 0 0 1 0 .12v.63a4.48 4.48 0 0 1-.07.64l31.38-2.28a4.34 4.34 0 0 1-.16-.62 5.93 5.93 0 0 1-.1-.63.49.49 0 0 0 0-.12 5.87 5.87 0 1 1 11.71-.85.49.49 0 0 1 0 .12v.64c0 .21 0 .42-.07.63l7.12-.51a3.87 3.87 0 0 0 3.59-4.1 15 15 0 0 0-.4-2.52.64.64 0 0 0-.06-.18 9.09 9.09 0 0 0-3.33-5 25.73 25.73 0 0 0-5.92-3c-.73-.3-1.48-.61-2.23-.94-.45-.46-1-1-1.53-1.61a109 109 0 0 0-10.73-10.28l-.15-2a2.08 2.08 0 0 0-2.22-1.92l-3.22.24a10.26 10.26 0 0 0-5.14-1.26l-44.31 3.23a2.21 2.21 0 0 0-2 2.36Zm47-4.5a.63.63 0 1 1-1.25.09l-.61-8.37a.63.63 0 1 1 1.25-.1Zm12-1.38a1.34 1.34 0 0 1-1 .58l-6.53.48a1.43 1.43 0 0 1-1.48-1.36l-.42-5.83a1.41 1.41 0 0 1 1.26-1.56l2.5-.18c3.13-.23 5.3 5.15 5.81 6.56a1.45 1.45 0 0 1-.14 1.31Zm7.8-.82c-1.79.12-2.73-.37-4.63-2.53-1-1.17-3.13-4.14-3.13-4.14a1 1 0 0 1 .06-1.18c2.52 2.37 4.79 4.78 6.44 6.52Zm7.8 4.8c.11-.19.46-.29.94-.28a7.73 7.73 0 0 1 2.5 3.51 4.46 4.46 0 0 1-3.1-1.92c-.4-.61-.46-1.1-.33-1.31Zm-69.44 7.85a4.89 4.89 0 0 0 0-.66l-.17-2.3a1.1 1.1 0 0 0 0-.18l68.4-5a2.8 2.8 0 0 0 .53 2.29 5.72 5.72 0 0 0 .65.78Zm6.24-5.53a.63.63 0 0 1-.67-.58l-1.12-15.82a.63.63 0 0 1 .59-.67.62.62 0 0 1 .67.58l1.15 15.81a.63.63 0 0 1-.62.7Zm-9.2-17.28a.64.64 0 0 1-.67-.59.63.63 0 0 1 .58-.67l43.09-3.14a.63.63 0 1 1 .09 1.25Zm-.9 17.41h.52c1-.08 1.79.91 1.91 2.57l.17 2.3c.11 1.52-.64 1.58-1 1.6l-1.12.08Z"/><g style="opacity:.5"><path class="cls-5" d="m193.43 736.68-28-23c-52.11-46.43-53.8-83.92 8.17-159.35L526 125.39c33.64-40.95 92.3-28.86 118.16-7.61l34.49 28.33S194 742.57 193.43 736.68Z"/><path transform="rotate(-50.6 493.802 569.15)" style="stroke-linecap:round;stroke-linejoin:round;stroke:#000;fill:#9d9d9c;stroke-width:4.52px" d="M387.26 443.34h213.23V695H387.26z"/><path class="cls-5" transform="rotate(-50.6 573.206 552.564)" d="M403.44 436.68h339.67V668.5H403.44z"/><path class="cls-5" transform="rotate(-50.6 402.755 817.61)" d="M250.97 792.87h303.72v49.59H250.97z"/><path d="m489.69 668.29-15.84 19.37-14.5-11.91 15.84-19.37 14.5 11.91zm19.12-23.04-15.84 19.37-14.5-11.91 15.84-19.37 14.5 11.91zm19.61-23.05-15.84 19.37-14.5-11.91 15.84-19.37 14.5 11.91z" style="stroke-width:.88px;fill:#dadada;stroke:#1d1d1b;stroke-miterlimit:10"/><path class="cls-5" transform="rotate(-50.6 147.143 577.103)" d="M141.6 564.14h11.16v26.03H141.6z"/><path class="cls-5" transform="rotate(-50.6 196.075 517.553)" d="M190.54 504.57h11.16v26.03h-11.16z"/><path class="cls-5" transform="rotate(-50.6 245.013 457.992)" d="M239.47 445h11.16v26.03h-11.16z"/><path class="cls-5" transform="matrix(.63 -.77 .77 .63 -200.51 372.68)" d="M288.41 385.44h11.16v26.03h-11.16z"/><path class="cls-5" transform="rotate(-50.6 342.888 338.87)" d="M337.35 325.87h11.16v26.03h-11.16z"/><path class="cls-5" transform="rotate(-50.6 391.81 279.315)" d="M386.28 266.31h11.16v26.03h-11.16z"/><path class="cls-5" transform="rotate(-50.6 440.748 219.754)" d="M435.22 206.74h11.16v26.03h-11.16z"/><path class="cls-5" transform="matrix(.63 -.77 .77 .63 55.08 436.91)" d="M484.16 147.17h11.16v26.03h-11.16z"/><path class="cls-5" transform="rotate(-50.6 538.618 100.644)" d="M533.09 87.61h11.16v26.03h-11.16z"/><path class="cls-5" transform="translate(-6.12 57.99)" d="M584.77 78.56h11.16v26.03h-11.16z"/><path class="cls-5" transform="rotate(31.84 647.417 112.406)" d="M641.85 99.38h11.16v26.03h-11.16z"/><path class="cls-5" transform="rotate(84.4 121.326 664.756)" d="M115.77 651.7h11.16v26.03h-11.16z"/><path class="cls-5" d="m983.64 272.63-52.73-43.32 197.89-19.39-1.93-19.62-197.48 19.35 42.5-52.68 118.17-12.65-2.12-19.85-126.1 13.49-.16-.13-237.11 282.35 11.5 9.44 166.85-197.47 74.6 61.29.14-.16 126.21-12.37-1.95-19.86-118.28 11.58z"/><path class="cls-5" transform="rotate(-50.6 616.172 600.115)" d="M397.58 547.63h437.36v105.03H397.58z"/></g><circle class="cls-2" cx="928.66" cy="744.33" r="35.92"/><path class="cls-8" d="M943.93 734c0 8.48-4.1 12.18-11.81 12.18h-5.74v19.92h-6.17v-44.32h11.91c7.71 0 11.81 3.7 11.81 12.22Zm-6.1 0c0-4.81-1.39-7.74-5.71-7.74h-5.74v15.44h5.74c4.32 0 5.71-2.93 5.71-7.7Z"/><path class="cls-9" d="M216.08 420.17a1.16 1.16 0 0 1-1.65.08l-1.75-1.58a1.18 1.18 0 0 1-.08-1.66 1.18 1.18 0 0 1 1.66-.08l1.74 1.58a1.17 1.17 0 0 1 .08 1.66Zm-12.61 13.93a1.18 1.18 0 0 0-.08-1.66l-1.74-1.58a1.17 1.17 0 0 0-1.65.14 1.16 1.16 0 0 0 .08 1.65l1.74 1.58a1.17 1.17 0 0 0 1.65-.13Z"/><rect class="cls-9" x="214.5" y="409.52" width="2.35" height="4.7" rx="1.17" transform="rotate(-47.84 215.649 411.852)"/><path class="cls-9" d="M196.92 436.09a1.18 1.18 0 0 0-.09-1.66l-1.74-1.58a1.18 1.18 0 0 0-1.66.08 1.18 1.18 0 0 0 .08 1.66l1.75 1.58a1.17 1.17 0 0 0 1.66-.08Z"/><path class="cls-10" d="M207.5 429.82a.59.59 0 0 1-.23 1l-18.63 5.33a.61.61 0 0 1-.55-.13l-3.17-2.87a.59.59 0 0 1 .14-1l16.1-7.61a.58.58 0 0 1 .64.1Zm4.73-5.22a.59.59 0 0 0 1-.33l3.46-19.06a.61.61 0 0 0-.19-.54l-3.17-2.87a.58.58 0 0 0-.94.24l-6 16.77a.6.6 0 0 0 .16.63Zm-14.6-10.05a.59.59 0 0 0 1-.3l1.81-7.87a.58.58 0 0 0-.18-.57l-2.64-2.39a.58.58 0 0 0-1 .24l-2.54 7.21a.62.62 0 0 0 .16.63Zm-1.57 1.74a.59.59 0 0 1-.21 1l-7.65 2.57a.6.6 0 0 1-.59-.12l-2.61-2.39a.59.59 0 0 1 .15-1l6.92-3.23a.6.6 0 0 1 .65.09Z"/><path class="cls-11" d="M216.21 426.9a7.4 7.4 0 0 1 2.4 7.67 1 1 0 0 1-.56.62 7.4 7.4 0 0 1-7.87-1.63l-14-13.79a23.4 23.4 0 0 1-3.28-4.07l-4.64-7.25a.59.59 0 0 1 .76-.84l7.68 3.9a23.83 23.83 0 0 1 4.37 2.86Z"/><path class="cls-12" d="m188.36 407.74 30 27.21a1 1 0 0 1-.35.24 7.4 7.4 0 0 1-7.87-1.63l-14-13.79a23.4 23.4 0 0 1-3.28-4.07l-4.64-7.25a.57.57 0 0 1 .14-.71Z"/><path class="cls-10" d="m196.35 413.54.2 1a.59.59 0 0 1-.64.7l-1-.11a.58.58 0 0 1-.33-.14l-6.9-6.25a.61.61 0 0 1-.18-.32l-.21-1a.59.59 0 0 1 .64-.7l1 .11a.55.55 0 0 1 .33.15l6.9 6.24a.68.68 0 0 1 .19.32Z"/><path class="cls-13" d="M217.44 429.6c.13.79.32 2.71-.7 3.84s-3 1.13-3.75 1.07a1 1 0 0 1-.62-.27l-1.21-1.1a.13.13 0 0 1 .09-.22c1.07 0 2.91-.12 3.75-1.06s.83-2.77.68-3.84a.13.13 0 0 1 .21-.11l1.21 1.1a1.07 1.07 0 0 1 .34.59Z"/><path class="cls-9" d="M164.71 477.65a1.18 1.18 0 0 1-1.66.08l-1.74-1.58a1.17 1.17 0 0 1-.08-1.66 1.18 1.18 0 0 1 1.66-.08l1.74 1.58a1.17 1.17 0 0 1 .08 1.66Zm-12.61 13.93a1.18 1.18 0 0 0-.08-1.66l-1.75-1.58a1.18 1.18 0 0 0-1.66.08 1.18 1.18 0 0 0 .09 1.66l1.74 1.58a1.17 1.17 0 0 0 1.66-.08Z"/><rect class="cls-9" x="163.13" y="467" width="2.35" height="4.7" rx="1.17" transform="rotate(-47.84 164.278 469.333)"/><path class="cls-9" d="M145.54 493.57a1.17 1.17 0 0 0-.08-1.66l-1.74-1.58a1.17 1.17 0 0 0-1.66.08 1.18 1.18 0 0 0 .08 1.66l1.74 1.58a1.18 1.18 0 0 0 1.66-.08Z"/><path class="cls-10" d="M156.13 487.3a.59.59 0 0 1-.24 1l-18.62 5.32a.56.56 0 0 1-.55-.13l-3.17-2.87a.58.58 0 0 1 .14-1l16.09-7.61a.6.6 0 0 1 .65.09Zm4.73-5.22a.59.59 0 0 0 1-.33l3.45-19.06a.58.58 0 0 0-.18-.54l-3.17-2.87a.59.59 0 0 0-1 .24l-6 16.77a.58.58 0 0 0 .16.63ZM146.26 472a.59.59 0 0 0 1-.3l1.81-7.87a.6.6 0 0 0-.18-.57l-2.65-2.4a.58.58 0 0 0-.94.24l-2.54 7.22a.6.6 0 0 0 .16.63Zm-1.58 1.77a.58.58 0 0 1-.2 1l-7.66 2.58a.59.59 0 0 1-.58-.12l-2.64-2.4a.58.58 0 0 1 .14-1l6.93-3.24a.58.58 0 0 1 .64.1Z"/><path class="cls-11" d="M164.84 484.38a7.39 7.39 0 0 1 2.4 7.67.92.92 0 0 1-.56.61 7.39 7.39 0 0 1-7.87-1.62l-14-13.8a23.86 23.86 0 0 1-3.29-4.06l-4.63-7.25a.59.59 0 0 1 .76-.84l7.68 3.89a23.8 23.8 0 0 1 4.36 2.87Z"/><path class="cls-12" d="m137 465.22 30 27.2a.79.79 0 0 1-.35.24 7.39 7.39 0 0 1-7.87-1.62l-14-13.8a23.86 23.86 0 0 1-3.29-4.06l-4.63-7.25a.57.57 0 0 1 .14-.71Z"/><path class="cls-10" d="m145 471 .2 1a.59.59 0 0 1-.64.71l-1-.11a.53.53 0 0 1-.33-.15l-6.9-6.25a.55.55 0 0 1-.18-.31l-.21-1a.59.59 0 0 1 .64-.7l1 .1a.63.63 0 0 1 .33.15l6.9 6.25a.63.63 0 0 1 .19.31Z"/><path class="cls-13" d="M166.06 487.08c.14.79.33 2.71-.69 3.84s-3 1.12-3.75 1.07a1 1 0 0 1-.62-.28l-1.22-1.1a.12.12 0 0 1 .09-.21c1.08 0 2.91-.12 3.76-1.06s.83-2.77.68-3.84a.12.12 0 0 1 .2-.11l1.22 1.1a1 1 0 0 1 .33.59Z"/><path class="cls-9" d="M118.64 538.52a1.17 1.17 0 0 1-1.66.08l-1.74-1.6a1.16 1.16 0 0 1-.08-1.65 1.17 1.17 0 0 1 1.66-.09l1.74 1.58a1.17 1.17 0 0 1 .08 1.68ZM106 552.45a1.17 1.17 0 0 0-.09-1.66l-1.74-1.58a1.18 1.18 0 0 0-1.66.09 1.18 1.18 0 0 0 .09 1.66l1.74 1.57a1.17 1.17 0 0 0 1.66-.08Z"/><rect class="cls-9" x="117.06" y="527.87" width="2.35" height="4.7" rx="1.17" transform="rotate(-47.84 118.209 530.191)"/><path class="cls-9" d="M99.47 554.44a1.17 1.17 0 0 0-.08-1.66l-1.74-1.58a1.18 1.18 0 0 0-1.66.08 1.17 1.17 0 0 0 .08 1.66l1.74 1.58a1.17 1.17 0 0 0 1.66-.08Z"/><path class="cls-10" d="M110.06 548.18a.59.59 0 0 1-.24 1L91.2 554.5a.63.63 0 0 1-.56-.13l-3.16-2.87a.59.59 0 0 1 .14-1l16.09-7.61a.6.6 0 0 1 .65.1Zm4.73-5.18a.59.59 0 0 0 1-.33l3.45-19.06a.58.58 0 0 0-.24-.61l-3.17-2.87a.59.59 0 0 0-1 .24l-6 16.77a.58.58 0 0 0 .16.63Zm-14.6-10.1a.59.59 0 0 0 1-.3l1.81-7.87a.63.63 0 0 0-.18-.57l-2.65-2.39a.58.58 0 0 0-1 .24l-2.53 7.21a.6.6 0 0 0 .16.63Zm-1.58 1.74a.59.59 0 0 1-.2 1l-7.66 2.57a.59.59 0 0 1-.58-.12l-2.64-2.39a.59.59 0 0 1 .14-1l6.93-3.23a.58.58 0 0 1 .64.09Z"/><path class="cls-11" d="M118.77 545.25a7.4 7.4 0 0 1 2.4 7.67 1 1 0 0 1-.56.62 7.39 7.39 0 0 1-7.87-1.63l-14-13.79a23.77 23.77 0 0 1-3.29-4.06l-4.63-7.26a.59.59 0 0 1 .76-.84l7.68 3.9a23.75 23.75 0 0 1 4.36 2.86Z"/><path class="cls-12" d="m90.92 526.09 30 27.21a1 1 0 0 1-.35.24 7.39 7.39 0 0 1-7.87-1.63l-14-13.79a23.77 23.77 0 0 1-3.29-4.06l-4.63-7.26a.57.57 0 0 1 .14-.71Z"/><path class="cls-10" d="m98.9 531.89.21 1a.59.59 0 0 1-.64.7l-1-.11a.55.55 0 0 1-.33-.14l-6.9-6.25a.55.55 0 0 1-.18-.32l-.21-1a.59.59 0 0 1 .64-.7l1 .11a.51.51 0 0 1 .33.15l6.9 6.24a.55.55 0 0 1 .18.32Z"/><path class="cls-13" d="M120 548c.14.79.33 2.71-.69 3.84s-3 1.13-3.75 1.07a1 1 0 0 1-.62-.27l-1.22-1.1a.13.13 0 0 1 .09-.22c1.08 0 2.91-.12 3.76-1s.83-2.78.68-3.85a.12.12 0 0 1 .2-.11l1.22 1.1a1.06 1.06 0 0 1 .33.54Z"/><path class="cls-9" d="M267.66 364.91a1.17 1.17 0 0 1-1.66.09l-1.74-1.57a1.17 1.17 0 0 1-.08-1.66 1.16 1.16 0 0 1 1.65-.08l1.75 1.57a1.18 1.18 0 0 1 .08 1.65ZM255 378.84a1.17 1.17 0 0 0-.08-1.66l-1.74-1.57a1.17 1.17 0 0 0-1.66.08 1.17 1.17 0 0 0 .08 1.66l1.74 1.57a1.17 1.17 0 0 0 1.66-.08Z"/><rect class="cls-9" x="266.07" y="354.27" width="2.35" height="4.7" rx="1.17" transform="rotate(-47.84 267.228 356.607)"/><path class="cls-9" d="M248.49 380.83a1.18 1.18 0 0 0-.08-1.66l-1.75-1.58a1.17 1.17 0 0 0-1.65.09 1.17 1.17 0 0 0 .08 1.66l1.74 1.57a1.17 1.17 0 0 0 1.66-.08Z"/><path class="cls-10" d="M259.07 374.57a.59.59 0 0 1-.23 1l-18.62 5.32a.6.6 0 0 1-.56-.13l-3.17-2.87a.59.59 0 0 1 .14-1l16.1-7.61a.58.58 0 0 1 .64.1Zm4.73-5.23a.58.58 0 0 0 1-.33l3.43-19.01a.6.6 0 0 0-.18-.54l-3.17-2.87a.59.59 0 0 0-.95.23l-6 16.77a.57.57 0 0 0 .16.63Zm-14.59-10.04a.58.58 0 0 0 1-.31l1.81-7.87a.59.59 0 0 0-.18-.57l-2.64-2.39a.59.59 0 0 0-.95.24l-2.53 7.21a.57.57 0 0 0 .16.63Zm-1.58 1.7a.59.59 0 0 1-.21 1l-7.65 2.58a.59.59 0 0 1-.58-.13l-2.65-2.39a.59.59 0 0 1 .15-1l6.93-3.23a.58.58 0 0 1 .64.1Z"/><path class="cls-11" d="M267.78 371.64a7.39 7.39 0 0 1 2.4 7.68.93.93 0 0 1-.55.61 7.39 7.39 0 0 1-7.88-1.63l-14-13.79a23.71 23.71 0 0 1-3.28-4.06l-4.64-7.26a.59.59 0 0 1 .76-.84l7.68 3.9a23.37 23.37 0 0 1 4.37 2.87Z"/><path class="cls-12" d="M239.93 352.48 270 379.69a1 1 0 0 1-.35.24 7.39 7.39 0 0 1-7.88-1.63l-14-13.79a23.71 23.71 0 0 1-3.28-4.06l-4.64-7.26a.58.58 0 0 1 .08-.71Z"/><path class="cls-10" d="m247.92 358.28.2 1a.58.58 0 0 1-.63.7l-1-.1a.67.67 0 0 1-.33-.15l-6.9-6.25a.6.6 0 0 1-.18-.32l-.2-1a.59.59 0 0 1 .64-.71l1 .11a.59.59 0 0 1 .33.15l6.9 6.25a.55.55 0 0 1 .17.32Z"/><path class="cls-13" d="M269 374.35c.13.78.33 2.71-.69 3.83s-3 1.13-3.76 1.07a1 1 0 0 1-.62-.27l-1.21-1.1a.12.12 0 0 1 .09-.21c1.08 0 2.91-.13 3.75-1.06s.83-2.78.69-3.84a.12.12 0 0 1 .2-.11l1.21 1.1a1 1 0 0 1 .34.59Z"/><path class="cls-9" d="M318 310.88a1.18 1.18 0 0 1-1.66.09l-1.74-1.58a1.17 1.17 0 0 1-.08-1.66 1.17 1.17 0 0 1 1.66-.08l1.74 1.57a1.17 1.17 0 0 1 .08 1.66Zm-12.61 13.93a1.18 1.18 0 0 0-.08-1.66l-1.75-1.57a1.17 1.17 0 0 0-1.66.08 1.18 1.18 0 0 0 .09 1.66l1.74 1.58a1.18 1.18 0 0 0 1.66-.09Z"/><rect class="cls-9" x="316.42" y="300.24" width="2.35" height="4.7" rx="1.17" transform="rotate(-47.84 317.565 302.58)"/><path class="cls-9" d="M298.83 326.8a1.17 1.17 0 0 0-.08-1.66l-1.75-1.57a1.17 1.17 0 0 0-1.66.08 1.18 1.18 0 0 0 .08 1.66l1.74 1.57a1.17 1.17 0 0 0 1.67-.08Z"/><path class="cls-10" d="M309.42 320.54a.59.59 0 0 1-.24 1l-18.62 5.32a.56.56 0 0 1-.55-.13l-3.17-2.87a.59.59 0 0 1 .14-1l16.09-7.61a.6.6 0 0 1 .65.1Zm4.73-5.22a.59.59 0 0 0 1-.34l3.45-19.05a.57.57 0 0 0-.18-.54l-3.17-2.87a.59.59 0 0 0-1 .23l-6 16.77a.59.59 0 0 0 .16.64Zm-14.6-10.05a.59.59 0 0 0 1-.31l1.81-7.87a.58.58 0 0 0-.18-.56l-2.65-2.4a.58.58 0 0 0-.94.24l-2.59 7.22a.58.58 0 0 0 .16.62ZM298 307a.58.58 0 0 1-.2 1l-7.66 2.58a.59.59 0 0 1-.58-.12l-2.64-2.4a.59.59 0 0 1 .14-1l6.93-3.23a.58.58 0 0 1 .64.1Z"/><path class="cls-11" d="M318.13 317.61a7.42 7.42 0 0 1 2.4 7.68.92.92 0 0 1-.56.61 7.38 7.38 0 0 1-7.87-1.63l-14-13.79a24.25 24.25 0 0 1-3.29-4.06l-4.63-7.26a.59.59 0 0 1 .76-.84l7.68 3.9a23.3 23.3 0 0 1 4.36 2.87Z"/><path class="cls-12" d="m290.28 298.45 30 27.21a.88.88 0 0 1-.35.24 7.38 7.38 0 0 1-7.87-1.63l-14-13.79a24.25 24.25 0 0 1-3.29-4.06l-4.63-7.26a.57.57 0 0 1 .14-.71Z"/><path class="cls-10" d="m298.27 304.25.2 1a.58.58 0 0 1-.64.7l-1-.1a.59.59 0 0 1-.33-.15l-6.9-6.25a.55.55 0 0 1-.18-.31l-.21-1a.59.59 0 0 1 .64-.71l1 .11a.62.62 0 0 1 .34.15l6.9 6.25a.61.61 0 0 1 .18.31Z"/><path class="cls-13" d="M319.35 320.32c.14.78.33 2.71-.69 3.84s-3 1.12-3.75 1.07a1 1 0 0 1-.62-.28l-1.22-1.1a.12.12 0 0 1 .09-.21c1.08 0 2.91-.13 3.76-1.06s.83-2.78.68-3.84a.12.12 0 0 1 .2-.11l1.22 1.1a1 1 0 0 1 .33.59Z"/><path class="cls-9" d="M373.26 251.94a1.17 1.17 0 0 1-1.66.08l-1.74-1.57a1.17 1.17 0 0 1-.08-1.66 1.17 1.17 0 0 1 1.66-.08l1.74 1.57a1.17 1.17 0 0 1 .08 1.66Zm-12.62 13.93a1.17 1.17 0 0 0-.08-1.66l-1.74-1.57a1.17 1.17 0 0 0-1.66.08 1.18 1.18 0 0 0 .08 1.66L359 266a1.17 1.17 0 0 0 1.64-.13Z"/><rect class="cls-9" x="371.67" y="241.3" width="2.35" height="4.7" rx="1.17" transform="rotate(-47.84 372.821 243.638)"/><path class="cls-9" d="M354.09 267.86a1.17 1.17 0 0 0-.08-1.66l-1.74-1.57a1.17 1.17 0 0 0-1.66.08 1.17 1.17 0 0 0 .08 1.66l1.74 1.57a1.17 1.17 0 0 0 1.66-.08Z"/><path class="cls-10" d="M364.67 261.6a.59.59 0 0 1-.23 1l-18.62 5.32a.57.57 0 0 1-.56-.13l-3.17-2.87a.59.59 0 0 1 .15-1l16.09-7.61a.6.6 0 0 1 .65.1Zm4.73-5.23a.59.59 0 0 0 1-.33l3.43-19.04a.57.57 0 0 0-.18-.54l-3.17-2.87a.59.59 0 0 0-1 .23l-6 16.77a.57.57 0 0 0 .16.63Zm-14.59-10.04a.59.59 0 0 0 1-.31l1.8-7.87a.6.6 0 0 0-.17-.57l-2.65-2.39a.59.59 0 0 0-.95.24l-2.53 7.21a.57.57 0 0 0 .16.63Zm-1.58 1.74a.59.59 0 0 1-.2 1l-7.66 2.58a.61.61 0 0 1-.58-.12l-2.64-2.4a.59.59 0 0 1 .14-1l6.93-3.23a.58.58 0 0 1 .64.1Z"/><path class="cls-11" d="M373.38 258.67a7.37 7.37 0 0 1 2.4 7.68.91.91 0 0 1-.55.61 7.37 7.37 0 0 1-7.87-1.63l-14-13.79a23.3 23.3 0 0 1-3.29-4.06l-4.64-7.26a.59.59 0 0 1 .76-.84l7.68 3.9a23 23 0 0 1 4.37 2.87Z"/><path class="cls-12" d="m345.53 239.51 30.05 27.21a1 1 0 0 1-.35.24 7.37 7.37 0 0 1-7.87-1.63l-14-13.79a23.3 23.3 0 0 1-3.29-4.06l-4.64-7.26a.58.58 0 0 1 .1-.71Z"/><path class="cls-10" d="m353.52 245.31.21 1a.58.58 0 0 1-.64.7l-1-.1a.7.7 0 0 1-.34-.15l-6.9-6.25a.61.61 0 0 1-.18-.31l-.2-1a.59.59 0 0 1 .64-.71l1 .11a.59.59 0 0 1 .33.15l6.9 6.25a.55.55 0 0 1 .18.31Z"/><path class="cls-13" d="M374.61 261.38c.13.78.33 2.71-.69 3.84s-3 1.12-3.75 1.07a1 1 0 0 1-.62-.28l-1.22-1.1a.12.12 0 0 1 .09-.21c1.08 0 2.91-.13 3.76-1.06s.82-2.78.68-3.84a.12.12 0 0 1 .2-.11l1.22 1.1a1 1 0 0 1 .33.59Z"/><path class="cls-9" d="M417.36 190.68a1.18 1.18 0 0 1-1.66.08l-1.7-1.58a1.17 1.17 0 0 1-.08-1.66 1.18 1.18 0 0 1 1.66-.08l1.74 1.58a1.18 1.18 0 0 1 .04 1.66Zm-12.62 13.93a1.17 1.17 0 0 0-.08-1.66l-1.74-1.58a1.18 1.18 0 0 0-1.66.08 1.18 1.18 0 0 0 .08 1.66l1.74 1.58a1.17 1.17 0 0 0 1.66-.08Z"/><rect class="cls-9" x="415.77" y="180.03" width="2.35" height="4.7" rx="1.17" transform="rotate(-47.84 416.907 182.386)"/><path class="cls-9" d="M398.19 206.6a1.17 1.17 0 0 0-.08-1.66l-1.74-1.58a1.17 1.17 0 0 0-1.66.08 1.17 1.17 0 0 0 .08 1.66l1.74 1.58a1.18 1.18 0 0 0 1.66-.08Z"/><path class="cls-10" d="M408.77 200.33a.59.59 0 0 1-.23 1l-18.62 5.32a.59.59 0 0 1-.56-.12l-3.17-2.87a.59.59 0 0 1 .15-1l16.09-7.61a.6.6 0 0 1 .65.09Zm4.73-5.22a.59.59 0 0 0 1-.33l3.45-19.06a.58.58 0 0 0-.18-.54l-3.17-2.87a.59.59 0 0 0-.95.24l-6 16.77a.58.58 0 0 0 .16.63Zm-14.59-10.05a.59.59 0 0 0 1-.3l1.8-7.87a.58.58 0 0 0-.18-.57l-2.64-2.4a.59.59 0 0 0-.95.25l-2.53 7.21a.58.58 0 0 0 .16.63Zm-1.58 1.74a.59.59 0 0 1-.21 1l-7.65 2.58a.59.59 0 0 1-.58-.12l-2.65-2.39a.59.59 0 0 1 .15-1l6.93-3.24a.58.58 0 0 1 .64.1Z"/><path class="cls-11" d="M417.48 197.41a7.36 7.36 0 0 1 2.4 7.67.91.91 0 0 1-.55.61 7.41 7.41 0 0 1-7.88-1.62l-13.95-13.8a22.58 22.58 0 0 1-3.29-4.06l-4.64-7.21a.59.59 0 0 1 .76-.84L398 182a23.54 23.54 0 0 1 4.37 2.87Z"/><path class="cls-12" d="m389.63 178.25 30.05 27.2a.92.92 0 0 1-.35.24 7.41 7.41 0 0 1-7.88-1.62l-13.95-13.8a22.58 22.58 0 0 1-3.29-4.06l-4.64-7.21a.58.58 0 0 1 .06-.75Z"/><path class="cls-10" d="m397.62 184.05.21 1a.59.59 0 0 1-.64.7l-1-.11a.56.56 0 0 1-.34-.15l-6.9-6.24a.68.68 0 0 1-.18-.32l-.2-1a.59.59 0 0 1 .64-.7l1 .11a.58.58 0 0 1 .33.14l6.9 6.25a.61.61 0 0 1 .18.32Z"/><path class="cls-13" d="M418.71 200.11c.13.79.33 2.71-.69 3.84s-3 1.13-3.75 1.07a1.06 1.06 0 0 1-.62-.27l-1.22-1.1a.13.13 0 0 1 .09-.22c1.08 0 2.91-.12 3.76-1.06s.82-2.77.68-3.84a.12.12 0 0 1 .2-.11l1.22 1.1a1.06 1.06 0 0 1 .33.59Z"/><path class="cls-9" d="M470.47 131.37a1.17 1.17 0 0 1-1.66.08l-1.74-1.57a1.18 1.18 0 0 1-.09-1.66 1.18 1.18 0 0 1 1.66-.09l1.75 1.58a1.18 1.18 0 0 1 .08 1.66Zm-12.62 13.93a1.17 1.17 0 0 0-.08-1.66l-1.77-1.57a1.17 1.17 0 0 0-1.66.08 1.17 1.17 0 0 0 .08 1.66l1.74 1.57a1.17 1.17 0 0 0 1.69-.08Z"/><rect class="cls-9" x="468.88" y="120.73" width="2.35" height="4.7" rx="1.17" transform="rotate(-47.84 470.032 123.079)"/><path class="cls-9" d="M451.3 147.29a1.18 1.18 0 0 0-.08-1.66l-1.75-1.58a1.17 1.17 0 0 0-1.66.09 1.17 1.17 0 0 0 .09 1.65l1.74 1.58a1.17 1.17 0 0 0 1.66-.08Z"/><path class="cls-10" d="M461.88 141a.59.59 0 0 1-.23 1L443 147.35a.63.63 0 0 1-.56-.13l-3.17-2.87a.59.59 0 0 1 .14-1l16.1-7.61a.58.58 0 0 1 .64.1Zm4.73-5.2a.58.58 0 0 0 1-.33l3.39-19.06a.59.59 0 0 0-.19-.54l-3.12-2.87a.59.59 0 0 0-.95.24l-6 16.77a.59.59 0 0 0 .15.63ZM452 125.75a.58.58 0 0 0 1-.3l1.81-7.87a.59.59 0 0 0-.18-.57l-2.63-2.39a.59.59 0 0 0-1 .24l-2.53 7.21a.57.57 0 0 0 .16.63Zm-1.56 1.75a.59.59 0 0 1-.21 1l-7.65 2.57a.56.56 0 0 1-.58-.12l-2.65-2.39a.59.59 0 0 1 .15-1l6.93-3.23a.6.6 0 0 1 .64.09Z"/><path class="cls-11" d="M470.59 138.1a7.41 7.41 0 0 1 2.4 7.68.93.93 0 0 1-.55.61 7.39 7.39 0 0 1-7.88-1.63L450.6 131a23.71 23.71 0 0 1-3.28-4.06l-4.64-7.26a.59.59 0 0 1 .76-.84l7.68 3.9a23.83 23.83 0 0 1 4.37 2.86Z"/><path class="cls-12" d="m442.74 118.94 30.05 27.21a1 1 0 0 1-.35.24 7.39 7.39 0 0 1-7.88-1.63L450.6 131a23.71 23.71 0 0 1-3.28-4.06l-4.64-7.26a.58.58 0 0 1 .06-.74Z"/><path class="cls-10" d="m450.73 124.74.2 1a.58.58 0 0 1-.63.7l-1-.1a.67.67 0 0 1-.33-.15l-6.9-6.25a.6.6 0 0 1-.18-.32l-.2-1a.59.59 0 0 1 .64-.71l1 .11a.53.53 0 0 1 .33.15l6.9 6.25a.61.61 0 0 1 .17.32Z"/><path class="cls-13" d="M471.82 140.81c.13.78.33 2.71-.69 3.83s-3 1.13-3.76 1.07a1 1 0 0 1-.62-.27l-1.21-1.1a.13.13 0 0 1 .09-.22c1.07 0 2.91-.12 3.75-1.05s.83-2.78.68-3.85a.13.13 0 0 1 .21-.11l1.21 1.1a1 1 0 0 1 .34.6Z"/><path class="cls-9" d="M520.38 69.2a1.17 1.17 0 0 1-1.66.08L517 67.7a1.16 1.16 0 0 1-.08-1.65 1.17 1.17 0 0 1 1.66-.09l1.74 1.58a1.18 1.18 0 0 1 .06 1.66Zm-12.62 13.93a1.17 1.17 0 0 0-.08-1.66l-1.74-1.58a1.18 1.18 0 0 0-1.66.09 1.18 1.18 0 0 0 .08 1.66l1.74 1.57a1.17 1.17 0 0 0 1.66-.08Z"/><rect class="cls-9" x="518.79" y="58.55" width="2.35" height="4.7" rx="1.17" transform="rotate(-47.84 519.95 60.905)"/><path class="cls-9" d="M501.21 85.12a1.18 1.18 0 0 0-.08-1.66l-1.74-1.58a1.18 1.18 0 0 0-1.66.08 1.17 1.17 0 0 0 .08 1.66l1.74 1.58a1.17 1.17 0 0 0 1.66-.08Z"/><path class="cls-10" d="M511.79 78.86a.59.59 0 0 1-.23 1l-18.62 5.32a.63.63 0 0 1-.56-.13l-3.17-2.87a.59.59 0 0 1 .15-1l16.09-7.61a.6.6 0 0 1 .65.1Zm4.73-5.23a.59.59 0 0 0 1-.33L521 54.24a.58.58 0 0 0-.18-.54l-3.17-2.87a.59.59 0 0 0-1 .24l-6 16.77a.58.58 0 0 0 .16.63Zm-14.59-10.05a.58.58 0 0 0 1-.3l1.81-7.87a.58.58 0 0 0-.18-.57l-2.64-2.39a.58.58 0 0 0-.95.24l-2.57 7.21a.58.58 0 0 0 .16.63Zm-1.58 1.74a.59.59 0 0 1-.21 1l-7.65 2.57a.56.56 0 0 1-.58-.12l-2.65-2.39a.59.59 0 0 1 .15-1l6.93-3.23a.58.58 0 0 1 .64.09Z"/><path class="cls-11" d="M520.5 75.93a7.36 7.36 0 0 1 2.4 7.67 1 1 0 0 1-.55.62 7.41 7.41 0 0 1-7.88-1.63l-14-13.79a23.3 23.3 0 0 1-3.29-4.06l-4.64-7.26a.59.59 0 0 1 .76-.84l7.68 3.9a23.49 23.49 0 0 1 4.37 2.86Z"/><path class="cls-12" d="M492.65 56.77 522.7 84a1.21 1.21 0 0 1-.35.24 7.41 7.41 0 0 1-7.88-1.63l-14-13.79a23.3 23.3 0 0 1-3.29-4.06l-4.64-7.26a.58.58 0 0 1 .11-.73Z"/><path class="cls-10" d="m500.64 62.57.21 1a.59.59 0 0 1-.64.7l-1-.11a.61.61 0 0 1-.34-.14L492 57.75a.68.68 0 0 1-.18-.32l-.2-1a.59.59 0 0 1 .64-.71l1 .11a.53.53 0 0 1 .33.15l6.9 6.24a.61.61 0 0 1 .15.35Z"/><path class="cls-13" d="M521.73 78.63c.13.79.33 2.72-.69 3.84s-3 1.13-3.75 1.07a1.06 1.06 0 0 1-.63-.27l-1.21-1.1a.13.13 0 0 1 .09-.22c1.08 0 2.91-.12 3.76-1s.82-2.78.68-3.85a.12.12 0 0 1 .2-.11L521.4 78a1.06 1.06 0 0 1 .33.63Z"/><path class="cls-14" transform="rotate(-50.59 705.808 532.233)" d="M703.76 512.32h4.21v39.85h-4.21z"/><path class="cls-14" transform="rotate(-50.59 725.467 508.299)" d="M723.42 488.39h4.21v39.85h-4.21z"/><path class="cls-15" transform="rotate(-50.59 711.684 516.76)" d="M686.12 509.64h51.24v14.27h-51.24z"/><path class="cls-14" transform="rotate(-50.59 699.95 531.043)" d="M695.18 526.23h9.66v9.66h-9.66z"/><path class="cls-16" d="m698.31 533.12 3.39-4.13m-3.2.31 3.2-.31.32 3.21"/><path class="cls-17" d="m705.06 524.91 8.34-10.16m-10.34 8.52 8.35-10.16m-4.36 13.44 6.55-7.97"/><path class="cls-18" d="M724 497.35h0a2.68 2.68 0 0 0-1.94 2l-.66 2.85-5.57 4-.53 2 5.22-2.12-.83 3.64-2.39.49-.3 1.09 2.18.59 1.61.43 4.21-13.86a.88.88 0 0 0-1-1.11Z"/><path class="cls-15" transform="rotate(-50.59 725.637 528.233)" d="M700.08 521.11h51.24v14.27h-51.24z"/><path class="cls-14" transform="rotate(-50.59 713.904 542.517)" d="M709.14 537.7h9.66v9.66h-9.66z"/><path class="cls-16" d="m715.66 540.46-3.39 4.14m-.32-3.21.31 3.2 3.21-.3"/><path class="cls-17" d="m719.02 536.38 8.34-10.16m-10.34 8.52 8.35-10.16m-4.36 13.44 6.55-7.96"/><path class="cls-18" d="M742.53 514.48h0a2.71 2.71 0 0 0-2.8 0l-2.48 1.56-6.77-1.04-1.78 1 5.19 2.2-3.17 2-2-1.35-1 .57 1.13 2 .83 1.44L742.5 516a.88.88 0 0 0 .03-1.52Z"/><path class="cls-14" transform="rotate(-50.59 622.556 632.75)" d="M620.51 612.84h4.21v39.85h-4.21z"/><path class="cls-14" transform="rotate(-50.59 642.226 608.82)" d="M640.17 588.91h4.21v39.85h-4.21z"/><path class="cls-15" transform="rotate(-50.59 628.442 617.282)" d="M602.87 610.17h51.24v14.27h-51.24z"/><path class="cls-14" transform="rotate(-50.59 616.699 631.56)" d="M611.93 626.76h9.66v9.66h-9.66z"/><path class="cls-16" d="m615.06 633.65 3.39-4.13m-3.2.31 3.2-.32.32 3.21"/><path class="cls-17" d="m621.81 625.43 8.35-10.15m-10.35 8.51 8.35-10.15m-4.36 13.43 6.55-7.96"/><path class="cls-18" d="M640.72 597.87h0a2.69 2.69 0 0 0-2 2l-.65 2.86-5.58 4-.53 2 5.22-2.12-.83 3.65-2.39.49-.29 1.09 2.18.59 1.61.43 4.32-13.86a.88.88 0 0 0-1.06-1.13Z"/><path class="cls-15" transform="rotate(-50.59 642.396 628.756)" d="M616.83 621.64h51.24v14.27h-51.24z"/><path class="cls-14" transform="rotate(-50.59 630.662 643.04)" d="M625.89 638.23h9.66v9.66h-9.66z"/><path class="cls-16" d="m632.41 640.99-3.39 4.13m-.32-3.2.31 3.2 3.21-.31"/><path class="cls-17" d="m635.77 636.91 8.35-10.16m-10.35 8.52 8.35-10.16m-4.36 13.43 6.55-7.96"/><path class="cls-18" d="M659.28 615h0a2.71 2.71 0 0 0-2.8 0l-2.48 1.61-6.77-1.12-1.78 1 5.19 2.19-3.17 2-2-1.34-1 .56 1.13 2 .83 1.44 12.83-6.78a.88.88 0 0 0 .02-1.56Z"/><circle class="cls-2" cx="647.19" cy="548.33" r="32.87"/><path class="cls-3" d="m656.7 530.82-24.52 25.93a1 1 0 0 0 0 1.43l.48.46a1 1 0 0 0 1.44 0l.45-.48a1 1 0 0 1 1.44 0l10.27 9.71a1 1 0 0 0 1.43 0l20.82-22a1 1 0 0 0 0-1.44l-10.27-9.71a1 1 0 0 1 0-1.44l.46-.47a1 1 0 0 0 0-1.44l-.48-.46a1 1 0 0 0-1.52-.09Zm-4.87 11.57a3.86 3.86 0 0 1 .62 2l.06 2.16a1.1 1.1 0 0 0 .63 1l5.89 2.75a.38.38 0 0 1 .23.33.39.39 0 0 1-.42.4l-6.16-.44v.05a5 5 0 0 1 0 1.72l-.56 1.73a.4.4 0 0 0 .16.47l1.72 1.17a.37.37 0 0 1 .17.32.38.38 0 0 1-.46.39l-2.19-.34-2.16.47a.41.41 0 0 1-.49-.38.42.42 0 0 1 .16-.32l1.65-1.26a.42.42 0 0 0 .14-.49l-.1-.26a9.69 9.69 0 0 1-.67-3.14l-.06-.06-6.13.79a.38.38 0 0 1-.43-.37.37.37 0 0 1 .2-.35l5.73-3.07a1.07 1.07 0 0 0 .57-1l-.06-2.15a3.92 3.92 0 0 1 .51-2 .9.9 0 0 1 .75-.45.88.88 0 0 1 .7.33Zm-14.95 3.51.43.41a.77.77 0 0 0 1.07 0l8.21-8.69a.75.75 0 0 0 0-1.07l-.43-.4a6.72 6.72 0 0 0-7.62-1.14.3.3 0 0 1-.42-.29 3.37 3.37 0 0 0-.69-2.15.54.54 0 0 0-.82 0l-3.85 4.06a.55.55 0 0 0 .09.82 3.33 3.33 0 0 0 2.15.55.3.3 0 0 1 .32.41 6.72 6.72 0 0 0 1.56 7.49Zm-.74-14.9a.34.34 0 0 0-.1-.54l-2.72-1.38a.83.83 0 0 0-1 .25l-3.32 4.42a.84.84 0 0 0 .1 1.1l1.54 1.45a.35.35 0 0 0 .49 0Z"/><circle class="cls-2" cx="529.22" cy="694.84" r="32.87"/><path class="cls-3" d="m538.73 677.34-24.52 25.92a1 1 0 0 0 0 1.44l.48.45a1 1 0 0 0 1.44 0l.45-.48a1 1 0 0 1 1.44 0l10.27 9.71a1 1 0 0 0 1.44 0l20.81-22a1 1 0 0 0 0-1.44l-10.26-9.71a1 1 0 0 1 0-1.44l.45-.47a1 1 0 0 0 0-1.44l-.48-.45a1 1 0 0 0-1.52-.09Zm-4.87 11.56a3.86 3.86 0 0 1 .62 2l.06 2.16a1.1 1.1 0 0 0 .63 1l5.89 2.75a.38.38 0 0 1 .23.34.39.39 0 0 1-.42.39l-6.15-.44-.06.05a5 5 0 0 1 0 1.72l-.56 1.73a.42.42 0 0 0 .16.48l1.72 1.16a.37.37 0 0 1 .17.32.38.38 0 0 1-.46.39l-2.19-.34-2.16.47a.41.41 0 0 1-.49-.38.42.42 0 0 1 .16-.32l1.65-1.26a.42.42 0 0 0 .14-.49l-.1-.26a9.69 9.69 0 0 1-.67-3.14l-.06-.06-6.13.79a.38.38 0 0 1-.43-.37.37.37 0 0 1 .2-.35l5.73-3.07a1.07 1.07 0 0 0 .57-1l-.06-2.15a3.92 3.92 0 0 1 .51-2 .9.9 0 0 1 .75-.45.88.88 0 0 1 .75.33Zm-14.95 3.51.43.41a.77.77 0 0 0 1.07 0l8.21-8.69a.75.75 0 0 0 0-1.07l-.43-.4a6.72 6.72 0 0 0-7.62-1.14.29.29 0 0 1-.42-.29 3.31 3.31 0 0 0-.69-2.15.54.54 0 0 0-.82 0l-3.85 4.06a.55.55 0 0 0 .09.82 3.33 3.33 0 0 0 2.18.57.3.3 0 0 1 .32.41 6.72 6.72 0 0 0 1.53 7.47Zm-.74-14.89a.35.35 0 0 0-.1-.55l-2.72-1.38a.83.83 0 0 0-1 .25l-3.26 4.42a.83.83 0 0 0 .09 1.1l1.54 1.45a.35.35 0 0 0 .49 0Z"/><circle class="cls-2" cx="202.74" cy="639.28" r="33.64"/><path class="cls-3" d="M191.94 619.21a10.23 10.23 0 1 0 3.88 19.61l-4.88-6.25c-.53 1.2-1.27 2.32-2 1.77-1.32-1 1.62-3.79 2.19-4.31L204 646.55a.65.65 0 0 0 0 .16l-.22 9.38c-3.54.57-10.2 2-10.26 4.7a.85.85 0 0 0 .82.87l20.3.48a.86.86 0 0 0 .87-.83 1 1 0 0 0-.05-.24c-.32-2.55-6.6-4.22-10-4.94l.23-9.38a.76.76 0 0 0 0-.16l13.76-16a.87.87 0 0 0 .13-.9.82.82 0 0 0-.76-.49l-16.89-.4a10.18 10.18 0 0 0-9.99-9.59Zm-.67 5.17c1.46-.13 1.06 2.86.82 4.22h-.31a.91.91 0 0 0-.59.17l-.05.06c-.45-1.26-1.37-4.33.13-4.45Zm4.59 2.8a.84.84 0 0 1 .8.5.77.77 0 0 1-.31 1l-3.49-.08a6.13 6.13 0 0 1 3-1.42Zm-8.4.68a8.91 8.91 0 0 1 3.48 1.24.84.84 0 0 0 .09.85c-.86 0-5 .23-4.57-1.43a.92.92 0 0 1 1-.66Zm6 2.47 23.47.55-2.14 2.49-19.3-.46Z"/><path class="cls-19" transform="rotate(129.91 306.32 424.483)" d="M270.54 422.52h71.56v3.91h-71.56z"/><path class="cls-20" transform="rotate(129.91 319.521 393.675)" d="M318.16 385.99h2.72v15.37h-2.72z"/><path class="cls-20" transform="rotate(129.91 278.327 442.92)" d="M276.97 435.24h2.72v15.37h-2.72z"/><path class="cls-21" d="M317.86 412 328 399.91a1.54 1.54 0 0 1 2.37 0l1.9 2.33-11.35 13.57-2.64-1.46a1.54 1.54 0 0 1-.42-2.35Z"/><path class="cls-21" d="M327.8 405.78h11.55a3.07 3.07 0 0 1 3.07 3.07V424h0-17.68 0v-15.15a3.07 3.07 0 0 1 3.06-3.07Z" transform="rotate(129.91 333.582 414.883)"/><path class="cls-22" d="M333.23 400.17h.77a1.8 1.8 0 0 1 1.8 1.8v4.61h0-4.39 0V402a1.8 1.8 0 0 1 1.82-1.83Z" transform="rotate(129.91 333.618 403.386)"/><path class="cls-22" d="M321.88 413.74h.79a1.8 1.8 0 0 1 1.8 1.8v4.61h0-4.39 0v-4.61a1.8 1.8 0 0 1 1.8-1.8Z" transform="rotate(129.91 322.265 416.954)"/><path class="cls-21" d="M301.89 431.13 312 419a1.54 1.54 0 0 1 2.37 0l1.9 2.33L305 434.92l-2.63-1.46a1.53 1.53 0 0 1-.48-2.33Z"/><path class="cls-21" d="M311.84 424.87h11.55a3.07 3.07 0 0 1 3.07 3.07v15.13h0-17.69 0v-15.13a3.07 3.07 0 0 1 3.07-3.07Z" transform="rotate(129.91 317.613 433.975)"/><path class="cls-22" d="M317.26 419.26h.74a1.8 1.8 0 0 1 1.8 1.8v4.61h0-4.39 0v-4.61a1.8 1.8 0 0 1 1.85-1.8Z" transform="rotate(129.91 317.65 422.473)"/><path class="cls-22" d="M305.91 432.83h.79a1.8 1.8 0 0 1 1.8 1.8v4.61h0-4.4 0v-4.61a1.8 1.8 0 0 1 1.8-1.8Z" transform="rotate(129.91 306.296 436.045)"/><path class="cls-21" d="m285.92 450.22 10.15-12.13a1.54 1.54 0 0 1 2.37 0l1.9 2.33L289 454l-2.63-1.46a1.54 1.54 0 0 1-.45-2.32Z"/><path class="cls-21" d="M295.87 444h11.55a3.07 3.07 0 0 1 3.07 3.07v15.13h0-17.69 0V447a3.07 3.07 0 0 1 3.07-3.07Z" transform="rotate(129.91 301.639 453.064)"/><path class="cls-22" d="M301.29 438.36h.79a1.8 1.8 0 0 1 1.8 1.8v4.61h0-4.39 0v-4.61a1.8 1.8 0 0 1 1.8-1.8Z" transform="rotate(129.91 301.682 441.565)"/><path class="cls-22" d="M289.94 451.93h.79a1.8 1.8 0 0 1 1.8 1.8v4.61h0-4.39 0v-4.61a1.8 1.8 0 0 1 1.8-1.8Z" transform="rotate(129.91 290.327 455.137)"/><path class="cls-19" transform="rotate(130.49 475.822 222.032)" d="M440.04 220.05h71.56v3.91h-71.56z"/><path class="cls-20" transform="rotate(130.49 489.34 191.36)" d="M487.98 183.65h2.72v15.37h-2.72z"/><path class="cls-20" transform="rotate(130.49 447.643 240.185)" d="M446.28 232.48H449v15.37h-2.72z"/><path class="cls-21" d="m487.49 209.69 10.27-12a1.54 1.54 0 0 1 2.37 0l1.87 2.35-11.49 13.46-2.61-1.5a1.53 1.53 0 0 1-.41-2.31Z"/><path class="cls-21" d="M497.4 203.59H509a3.07 3.07 0 0 1 3.07 3.07v15.13h0-17.74 0v-15.13a3.07 3.07 0 0 1 3.07-3.07Z" transform="rotate(130.49 503.178 212.71)"/><path class="cls-22" d="M502.94 198h.79a1.8 1.8 0 0 1 1.8 1.8v4.61h0-4.39 0v-4.61a1.8 1.8 0 0 1 1.8-1.8Z" transform="rotate(130.49 503.332 201.213)"/><path class="cls-22" d="M491.45 211.43h.79a1.8 1.8 0 0 1 1.8 1.8v4.61h0-4.39 0v-4.61a1.8 1.8 0 0 1 1.8-1.8Z" transform="rotate(130.49 491.848 214.665)"/><path class="cls-21" d="m471.33 228.62 10.27-12a1.53 1.53 0 0 1 2.36 0l1.88 2.35-11.49 13.45-2.61-1.42a1.53 1.53 0 0 1-.41-2.38Z"/><path class="cls-21" d="M481.24 222.52h11.55a3.07 3.07 0 0 1 3.07 3.07v15.13h0-17.69 0v-15.13a3.07 3.07 0 0 1 3.07-3.07Z" transform="rotate(130.49 487.017 231.639)"/><path class="cls-22" d="M486.78 216.91h.79a1.8 1.8 0 0 1 1.8 1.8v4.61h0H485h0v-4.61a1.8 1.8 0 0 1 1.8-1.8Z" transform="rotate(130.49 487.17 220.141)"/><path class="cls-22" d="M475.29 230.36h.79a1.8 1.8 0 0 1 1.8 1.8v4.61h0-4.39 0v-4.61a1.8 1.8 0 0 1 1.8-1.8Z" transform="rotate(130.49 475.682 233.591)"/><path class="cls-21" d="m455.16 247.54 10.27-12a1.53 1.53 0 0 1 2.37 0l1.88 2.35-11.49 13.45-2.62-1.48a1.55 1.55 0 0 1-.41-2.32Z"/><path class="cls-21" d="M465.08 241.44h11.55a3.07 3.07 0 0 1 3.07 3.07v15.13h0H462h0v-15.13a3.07 3.07 0 0 1 3.08-3.07Z" transform="rotate(130.49 470.85 250.565)"/><path class="cls-22" d="M470.62 235.84h.79a1.8 1.8 0 0 1 1.8 1.8v4.61h0-4.39 0v-4.61a1.8 1.8 0 0 1 1.8-1.8Z" transform="rotate(130.49 471.01 239.07)"/><path class="cls-22" d="M459.13 249.29h.79a1.8 1.8 0 0 1 1.8 1.8v4.61h0-4.39 0v-4.61a1.8 1.8 0 0 1 1.8-1.8Z" transform="rotate(130.49 459.52 252.52)"/><circle class="cls-2" cx="266.97" cy="502.95" r="17.26"/><path class="cls-3" d="M267.26 483.46a19.44 19.44 0 1 0 18.94 19.93 19.45 19.45 0 0 0-18.94-19.93Zm1.09 21.1-13-.33a1.61 1.61 0 0 1-1.57-1.65 1.62 1.62 0 0 1 1.66-1.57l9.72.25.33-13a1.61 1.61 0 0 1 1.65-1.57 1.62 1.62 0 0 1 1.57 1.66Z"/><path class="cls-23" d="M389.36 485.57a.89.89 0 0 1-1.25.08.89.89 0 0 0-1.25.08l-3.51 4a.9.9 0 0 0 .08 1.25.88.88 0 0 1-1.16 1.33 2.67 2.67 0 0 1-.25-3.75l3.51-4a2.66 2.66 0 0 1 3.75-.24.89.89 0 0 1 .08 1.25Z"/><rect class="cls-24" x="387.17" y="483.11" width="23.7" height="33.69" rx="2.74" transform="rotate(-48.69 399 499.937)"/><circle class="cls-23" cx="408.93" cy="517.23" r="2.01"/><circle class="cls-23" cx="417.43" cy="507.56" r="2.01"/><rect class="cls-23" x="392.68" y="492.07" width="3.6" height="26.09" rx="1.8" transform="rotate(-48.69 394.466 505.101)"/><rect class="cls-23" x="397.2" y="486.92" width="3.6" height="26.09" rx="1.8" transform="rotate(-48.69 398.978 499.954)"/><rect class="cls-23" x="401.72" y="481.78" width="3.6" height="26.09" rx="1.8" transform="rotate(-48.69 403.502 494.811)"/><rect class="cls-24" x="412.75" y="476.19" width="28.18" height="18.85" rx="1.98" transform="rotate(-48.69 426.812 485.602)"/><path class="cls-23" d="m419.61 473.1-6.11 6.95a1 1 0 0 0 .09 1.4l2.46 2.16 1.21-1.38-1.82-1.6 5-5.68 1.82 1.6 1.22-1.38L421 473a1 1 0 0 0-1.39.1Z"/><path class="cls-25" transform="rotate(-48.69 420.771 492.48)" d="M419.36 483.07h2.86v18.85h-2.86z"/><rect class="cls-23" x="419.18" y="489.8" width="3.79" height="5.89" rx="1.05" transform="rotate(-48.69 421.058 492.73)"/><path class="cls-26" d="m420.2 491.97-2.62-2.3"/><path class="cls-25" transform="rotate(-48.69 432.865 478.729)" d="M431.45 469.31h2.86v18.85h-2.86z"/><rect class="cls-23" x="431.27" y="476.04" width="3.79" height="5.89" rx="1.05" transform="rotate(-48.69 433.14 478.973)"/><path class="cls-26" d="m432.29 478.21-2.62-2.3"/><rect x="396.31" y="500.3" width="64.76" height="9.77" rx="4.89" transform="rotate(-48.69 428.673 505.175)" style="fill:#1d71b8;stroke-width:.97px;stroke-linecap:round;stroke-linejoin:round;stroke:#000"/><circle class="cls-28" cx="410.53" cy="525.85" r="2.32"/><circle class="cls-28" cx="446.87" cy="484.5" r="2.32"/><circle class="cls-28" cx="440.82" cy="491.39" r="2.32"/><circle class="cls-28" cx="434.76" cy="498.28" r="2.32"/><circle class="cls-28" cx="428.7" cy="505.17" r="2.32"/><circle class="cls-28" cx="422.65" cy="512.06" r="2.32"/><circle class="cls-28" cx="416.59" cy="518.96" r="2.32"/><circle class="cls-2" cx="460.45" cy="323.69" r="15.79"/><path id="_2" data-name="2" class="cls-10" d="m479.18 304.89-36.58.17a2.51 2.51 0 0 0-2.49 2.51l.22 46.56a2.48 2.48 0 0 0 2.5 2.48l36.58-.17a2.51 2.51 0 0 0 2.49-2.5l-.22-46.56a2.49 2.49 0 0 0-2.5-2.49ZM461 337.4a13.3 13.3 0 1 1 13.28-13.4A13.3 13.3 0 0 1 461 337.4Zm-5.23-8.52h4.81v-4.32h-5.17a28.33 28.33 0 0 0 .4 4.32Zm-5 .88A11.65 11.65 0 0 0 457 335a17.35 17.35 0 0 1-1.87-5.29Zm4.62-6.07h5.17v-4.32h-4.81a28.81 28.81 0 0 0-.33 4.32Zm-.86.87h-5.23a11.53 11.53 0 0 0 1.05 4.31h4.57a29.57 29.57 0 0 1-.36-4.31Zm2.27-11.34a11.66 11.66 0 0 0-6.09 5.31H455a18.06 18.06 0 0 1 1.83-5.31Zm-.93 5.29h4.67v-6a12.21 12.21 0 0 0-2.65.42 17.44 17.44 0 0 0-1.99 5.58Zm-1 .87h-4.58a11.52 11.52 0 0 0-1 4.32h5.22a31.45 31.45 0 0 1 .38-4.32Zm3.13 16a12 12 0 0 0 2.63.39v-6h-4.66a17.34 17.34 0 0 0 2.03 5.59Zm9.48-11.72h5.11a11.51 11.51 0 0 0-1-4.31h-4.46a29.54 29.54 0 0 1 .37 4.29ZM465.22 335a11.7 11.7 0 0 0 6-5.29h-4.17a17.89 17.89 0 0 1-1.83 5.29Zm1.93-6.14h4.45a11.54 11.54 0 0 0 1-4.32h-5.11a28.49 28.49 0 0 1-.34 4.28Zm-2-15.61a18 18 0 0 1 1.83 5.24h4.17a11.73 11.73 0 0 0-6.01-5.28Zm-3.65 16.5v6a12 12 0 0 0 2.64-.41 17.51 17.51 0 0 0 2-5.63Zm2.58-16.85a11.63 11.63 0 0 0-2.66-.41v6h4.68a17.36 17.36 0 0 0-2.03-5.63Zm2.19 6.46h-4.82v4.33h5.17a29.89 29.89 0 0 0-.36-4.37Zm.37 5.19h-5.17v4.32h4.81a28.7 28.7 0 0 0 .35-4.36Z"/><path id="_1" data-name="1" class="cls-2" d="M453.34 343.28a2.51 2.51 0 0 0-1.71-.54h-3.08v7.18h1.49v-2.58h1.5a2.8 2.8 0 0 0 1.8-.54 2.23 2.23 0 0 0 .66-1.8 2.17 2.17 0 0 0-.66-1.72Zm-1.13 2.56a1.17 1.17 0 0 1-.8.26h-1.35V344h1.35a1.21 1.21 0 0 1 .8.24 1 1 0 0 1 .29.8 1.07 1.07 0 0 1-.29.8Zm4.28-3.13-2.53 7.2h1.57l.48-1.48h2.64l.48 1.47h1.63l-2.57-7.17Zm-.08 4.47.92-2.83.92 2.82Zm9-1.41-1.26-.29a4.41 4.41 0 0 1-.95-.3.61.61 0 0 1-.36-.57.75.75 0 0 1 .36-.66 1.72 1.72 0 0 1 .94-.23 1.88 1.88 0 0 1 .9.17 1 1 0 0 1 .58.92H467a2.14 2.14 0 0 0-.85-1.74 3.24 3.24 0 0 0-2-.59 3 3 0 0 0-2.08.65 2 2 0 0 0-.7 1.6 1.73 1.73 0 0 0 .73 1.55 4.85 4.85 0 0 0 1.58.55l.77.16a3.35 3.35 0 0 1 1 .34.6.6 0 0 1 .32.54.84.84 0 0 1-.64.84 2.67 2.67 0 0 1-.88.12 1.59 1.59 0 0 1-1.28-.44 1.41 1.41 0 0 1-.27-.73h-1.44a2.14 2.14 0 0 0 .82 1.75 3.47 3.47 0 0 0 2.24.63 3.15 3.15 0 0 0 2.14-.66 2 2 0 0 0 .76-1.63 1.79 1.79 0 0 0-.65-1.47 3.2 3.2 0 0 0-1.2-.51Zm7.9.48a3.14 3.14 0 0 0-1.24-.51l-1.26-.3a4 4 0 0 1-1-.29.6.6 0 0 1-.35-.57.77.77 0 0 1 .35-.66 1.76 1.76 0 0 1 .95-.23 1.86 1.86 0 0 1 .89.17 1 1 0 0 1 .59.92h1.44a2.15 2.15 0 0 0-.86-1.74 3.14 3.14 0 0 0-2-.59 3 3 0 0 0-2.09.65 2.06 2.06 0 0 0-.7 1.6 1.75 1.75 0 0 0 .73 1.55 5 5 0 0 0 1.58.55l.78.16a3.84 3.84 0 0 1 1 .33.62.62 0 0 1 .31.55.83.83 0 0 1-.63.84 2.71 2.71 0 0 1-.88.12 1.57 1.57 0 0 1-1.28-.44 1.41 1.41 0 0 1-.28-.73H468a2.08 2.08 0 0 0 .82 1.75 3.44 3.44 0 0 0 2.18.62 3.18 3.18 0 0 0 2.15-.66 2.07 2.07 0 0 0 .75-1.64 1.76 1.76 0 0 0-.63-1.45Z"/><path class="cls-8" d="M1003.23 100.84c0 4.41-2.37 6.78-6.78 6.78s-6.78-2.37-6.78-6.78v-1.53h3.53v2.26a3.25 3.25 0 0 0 6.5 0v-.73c0-4.48-9.54-5.88-9.54-12.51 0-4.14 2.15-6.29 6.29-6.29s6.29 2.15 6.29 6.29v1.53h-3.54v-2.53a2.78 2.78 0 1 0-5.55 0v1c0 3.94 9.58 5.84 9.58 12.51Zm10.48.16h-5.09l-1.19 6.37H1004l5.25-25.37h3.84l5.22 25.32h-3.41Zm-4.62-2.53h4.15l-2.07-11.14-2.08 11.14Zm20.77 6.35v2.54h-10V82h3.53v22.78Zm1.14 2.54V82h3.53v25.32Zm20-18.54v11.76c0 4.41-2.37 6.78-6.78 6.78h-6.78V82h6.78c4.4 0 6.78 2.41 6.78 6.82Zm-3.53-.73c0-2.13-1.12-3.51-3.25-3.51H1041v20.24h3.25c2.13 0 3.25-1.38 3.25-3.51Zm14.44 12.91h-5.1l-1.18 6.37h-3.41l5.22-25.37h3.84l5.22 25.32h-3.4Zm-4.62-2.53h4.15l-2.08-11.14-2.07 11.14Zm23.5 2.37c0 4.41-2.37 6.78-6.78 6.78s-6.78-2.37-6.78-6.78v-1.53h3.52v2.26a3.25 3.25 0 0 0 6.5 0v-.73c0-4.48-9.54-5.88-9.54-12.51 0-4.14 2.15-6.29 6.29-6.29s6.29 2.15 6.29 6.29v1.53h-3.53v-2.53a2.78 2.78 0 1 0-5.56 0v1c0 3.94 9.58 5.84 9.59 12.51Z"/></g></svg>