<svg xmlns="http://www.w3.org/2000/svg" viewBox="0 0 1384.9 1027.13"><defs><style>.cls-1{fill:#36a9e1}.cls-2{fill:#dadada;stroke:#1d1d1b;stroke-miterlimit:10;stroke-width:1.77px}.cls-13,.cls-18,.cls-5{fill:#d3e9f4}.cls-11,.cls-13,.cls-14,.cls-18,.cls-19,.cls-5,.cls-7,.cls-9{stroke:#3f8be1}.cls-11,.cls-13,.cls-14,.cls-16,.cls-18,.cls-19,.cls-20,.cls-21,.cls-5,.cls-6,.cls-7,.cls-8,.cls-9{stroke-linecap:round;stroke-linejoin:round}.cls-5,.cls-6,.cls-7,.cls-8,.cls-9{stroke-width:.86px}.cls-10,.cls-11,.cls-16,.cls-19,.cls-21,.cls-6,.cls-9{fill:#fff}.cls-16,.cls-20,.cls-21,.cls-6,.cls-8{stroke:#000}.cls-14,.cls-7,.cls-8{fill:none}.cls-11,.cls-13,.cls-14,.cls-16{stroke-width:1px}.cls-12,.cls-20{fill:#f9b233}.cls-17{fill:#4597d1}.cls-18,.cls-19,.cls-20,.cls-21{stroke-width:.82px}.cls-23{fill:#fab62e}.cls-24{fill:#e5e5e5}.cls-25{fill:#d9d9d9}.cls-26{fill:#1f1f1f}</style></defs><g id="Capa_2" data-name="Capa 2"><path class="cls-1" d="M762.52 222.78a2 2 0 0 0-.08.22 8.27 8.27 0 0 0-.44 2.33 8.55 8.55 0 0 0 16.48 3.61l.09-.22a8.56 8.56 0 0 0-16.05-5.94Zm5.27 1.95a2.93 2.93 0 1 1 5.5 2l-.09.22a2.94 2.94 0 0 1-2.25 1.66 2.84 2.84 0 0 1-1.43-.16 2.92 2.92 0 0 1-1.8-3.53c.02-.04.05-.11.07-.19Zm-79.88-29.57a1.18 1.18 0 0 0-.07.2 8.29 8.29 0 0 0-.45 2.32 8.55 8.55 0 0 0 15.31 5.68 8.66 8.66 0 0 0 1.17-2.06 1.67 1.67 0 0 0 .08-.2 8.55 8.55 0 1 0-16-5.94Zm5.27 2a2.93 2.93 0 0 1 5.5 2l-.09.2a2.93 2.93 0 0 1-2.21 1.68 3 3 0 0 1-2.68-1 2.92 2.92 0 0 1-.58-2.72Z"/><path class="cls-1" d="m669.61 163.35-5 13.56-1.61 4.19a7.16 7.16 0 0 0 4.29 9.15l17.78 6.59a9.58 9.58 0 0 1 .21-1.17 9.42 9.42 0 0 1 .32-1.12c0-.07.05-.14.07-.21a10.9 10.9 0 0 1 20.44 7.57c0 .07 0 .14-.08.2a11.62 11.62 0 0 1-.49 1.07 8.59 8.59 0 0 1-.61 1l54.75 20.29c0-.39.11-.78.2-1.17a11.22 11.22 0 0 1 .33-1.13 1.43 1.43 0 0 1 .08-.22 10.89 10.89 0 1 1 20.43 7.56l-.09.23a10.18 10.18 0 0 1-.49 1.06 8.59 8.59 0 0 1-.61 1l12.47 4.65a7.16 7.16 0 0 0 9.21-4.16 26.26 26.26 0 0 0 1.26-4.56 1.1 1.1 0 0 0 0-.35 16.88 16.88 0 0 0-1.78-11c-1.81-3.44-4.64-6.47-7.66-9.7-1-1.07-2-2.17-3-3.31-.4-1.11-.84-2.41-1.35-3.89-2.37-6.94-5.81-17-10.22-25.62l1.28-3.44a3.86 3.86 0 0 0-2.27-4.95l-5.63-2.08a19.19 19.19 0 0 0-7.72-6.08l-77.32-28.62a4.08 4.08 0 0 0-5.25 2.41Zm82.94 28.59a1.17 1.17 0 1 1-2.19-.81l5.41-14.62a1.17 1.17 0 1 1 2.19.82Zm21.23 6.85a2.49 2.49 0 0 1-2.13.22l-11.4-4.22a2.63 2.63 0 0 1-1.44-3.43l3.77-10.18a2.63 2.63 0 0 1 3.32-1.66l4.37 1.62c5.46 2 5 12.78 4.76 15.55a2.67 2.67 0 0 1-1.25 2.1Zm13.81 4.61c-3.11-1.17-4.32-2.71-5.88-7.83-.83-2.75-2.08-9.4-2.08-9.4a1.87 1.87 0 0 1 1-1.93c2.43 5.93 4.42 11.75 5.86 15.95.4 1.19.77 2.26 1.1 3.21Zm9.48 14.12c.33-.23 1-.14 1.8.25a14.26 14.26 0 0 1 1.53 7.85 8.26 8.26 0 0 1-3.76-5.63c-.21-1.34.07-2.21.43-2.47Zm-123.32-40.16a9.5 9.5 0 0 0 .5-1.11l1.49-4c0-.11.07-.21.1-.32l119.35 44.18a5.23 5.23 0 0 0-.86 4.27 10.07 10.07 0 0 0 .49 1.82Zm14.8-4.53a1.19 1.19 0 0 1-.69-1.51l10.22-27.6a1.17 1.17 0 1 1 2.19.82l-10.22 27.59a1.17 1.17 0 0 1-1.5.7Zm-2.24-36.27a1.17 1.17 0 1 1 .82-2.19l75.18 27.84a1.15 1.15 0 0 1 .69 1.5 1.17 1.17 0 0 1-1.5.69Zm-14.91 28.72.9.33c1.84.68 2.32 2.91 1.25 5.81l-1.49 4c-1 2.65-2.29 2.16-2.92 1.93l-1.95-.72Zm365.34 142.52a2.09 2.09 0 0 0-.08.23 8.2 8.2 0 0 0-.44 2.32 8.56 8.56 0 0 0 15.3 5.68 8.9 8.9 0 0 0 1.18-2.06l.09-.22a8.56 8.56 0 0 0-16-5.95Zm5.27 2a2.93 2.93 0 0 1 5.5 2l-.09.22a2.94 2.94 0 0 1-3.67 1.51 2.92 2.92 0 0 1-1.81-3.54Zm-79.88-29.62a1.59 1.59 0 0 0-.07.2 8.35 8.35 0 0 0-.45 2.33 8.55 8.55 0 0 0 15.31 5.67 8.15 8.15 0 0 0 1.17-2.06 1.19 1.19 0 0 0 .08-.2 8.55 8.55 0 1 0-16-5.94Zm5.27 1.95a2.93 2.93 0 0 1 5.5 2l-.09.2a2.9 2.9 0 0 1-2.21 1.67 2.78 2.78 0 0 1-1.47-.15 2.91 2.91 0 0 1-1.79-3.55Z"/><path class="cls-1" d="m943.83 248.38-5 13.56-1.53 4.14a7.16 7.16 0 0 0 4.28 9.16l17.78 6.59a9.58 9.58 0 0 1 .21-1.17 9.05 9.05 0 0 1 .32-1.13c0-.07 0-.14.07-.2a10.9 10.9 0 1 1 20.44 7.56l-.08.21a10.34 10.34 0 0 1-.49 1.07 10.57 10.57 0 0 1-.61 1l54.75 20.28c0-.39.11-.78.2-1.17s.2-.75.33-1.13c0-.07 0-.14.08-.22a10.89 10.89 0 0 1 20.43 7.57l-.09.22a11.57 11.57 0 0 1-.48 1.07c-.19.35-.4.69-.62 1l12.43 4.6a7.15 7.15 0 0 0 9.21-4.16 26 26 0 0 0 1.26-4.56s0 0 0-.05a1 1 0 0 0 0-.35 16.89 16.89 0 0 0-1.78-11c-1.82-3.45-4.65-6.48-7.67-9.71-1-1.06-2-2.17-3-3.31-.4-1.11-.84-2.41-1.35-3.89-2.37-6.93-5.81-17-10.22-25.61l1.28-3.45a3.84 3.84 0 0 0-2.27-4.94l-5.63-2.09a19.19 19.19 0 0 0-7.72-6.08l-77.31-28.62a4.1 4.1 0 0 0-5.26 2.42Zm82.94 28.62a1.17 1.17 0 0 1-2.19-.81l5.41-14.61a1.17 1.17 0 1 1 2.19.81Zm21.23 6.85a2.42 2.42 0 0 1-2.13.22l-11.4-4.22a2.63 2.63 0 0 1-1.44-3.42l3.77-10.18a2.63 2.63 0 0 1 3.32-1.67l4.37 1.62c5.47 2 5 12.78 4.76 15.55a2.67 2.67 0 0 1-1.25 2.06Zm13.81 4.62c-3.11-1.17-4.32-2.72-5.88-7.83-.83-2.76-2.08-9.4-2.08-9.4a1.89 1.89 0 0 1 1-1.94c2.43 5.94 4.42 11.75 5.86 16Zm9.49 14.12c.33-.24 1-.14 1.8.24a14.38 14.38 0 0 1 1.52 7.86 8.3 8.3 0 0 1-3.76-5.63c-.21-1.39.07-2.25.44-2.51ZM948 262.39a9 9 0 0 0 .5-1.12l1.49-4 .11-.32 119.34 44.19a5.21 5.21 0 0 0-.86 4.27 10.3 10.3 0 0 0 .49 1.82Zm14.8-4.54a1.17 1.17 0 0 1-.69-1.5l10.22-27.6a1.17 1.17 0 1 1 2.19.81l-10.21 27.6a1.19 1.19 0 0 1-1.54.69Zm-2.24-36.26a1.17 1.17 0 0 1 .82-2.2l75.18 27.84a1.17 1.17 0 1 1-.81 2.19Zm-14.94 28.71.9.33c1.84.69 2.32 2.91 1.25 5.81l-1.49 4c-1 2.65-2.29 2.17-2.91 1.94l-2-.73Z"/><path class="cls-2" transform="rotate(19.21 129.51 632.58)" d="M109.73 610.28h39.57v44.33h-39.57z"/><path class="cls-2" transform="rotate(19.21 251.051 674.802)" d="M231.23 652.48h39.57v44.33h-39.57z"/><path class="cls-2" transform="rotate(19.21 365.873 715.214)" d="M346.03 692.88h39.57v44.33h-39.57z"/><path class="cls-2" transform="rotate(19.3 499.151 759.383)" d="M479.97 740.02h39.57v44.33h-39.57z"/><path class="cls-2" transform="rotate(19.21 644.075 812.68)" d="M624.18 790.32h39.57v44.33h-39.57z"/><path class="cls-2" transform="rotate(18.79 781.377 859.412)" d="M761.45 837.05h39.57v44.33h-39.57z"/><path class="cls-2" transform="rotate(18.79 929.28 911.003)" d="M909.34 888.62h39.57v44.33h-39.57z"/><path class="cls-2" transform="matrix(.3 -.95 .95 .3 -107.09 1552.44)" d="M981.25 826.8h39.57v44.33h-39.57z"/><path class="cls-2" transform="rotate(-69.35 1042.882 734.544)" d="M1023.13 712.38h39.57v44.33h-39.57z"/><path class="cls-2" transform="rotate(-69.35 1079.408 641.01)" d="M1059.65 618.84h39.57v44.33h-39.57z"/><path style="opacity:.5;stroke-width:1.77px;stroke:#1d1d1b;stroke-miterlimit:10;fill:#36a9e1" d="M1164.52 377.39 529.28 161.37l-35.75 105.06 632.06 213.61 38.93-102.65z"/><path style="stroke-width:1.49px;stroke:#1d1d1b;stroke-miterlimit:10;fill:#36a9e1" d="M1306.86-20.17 769.95-202.76 680.57 63.85l534.22 180.55 92.07-264.57z"/><path class="cls-2" d="m1127.71 443.13-175.36-58.79.03-.1-410.01-139.53-35.75 105.06 388.66 132.26-114.43 283.42-640.31-217.91-20.64 60.67 837.69 285.07 20.64-60.66-.64-.22 150.12-389.27z"/><path class="cls-5" transform="rotate(-160.8 610.477 304.645)" d="M608.15 282.47h4.68v44.31h-4.68z"/><path class="cls-5" transform="rotate(-160.8 577.95 293.313)" d="M575.62 271.14h4.68v44.31h-4.68z"/><path class="cls-6" transform="rotate(-160.8 592.078 304.45)" d="M563.6 296.5h56.98v15.87H563.6z"/><path class="cls-5" transform="rotate(-160.8 611.49 311.211)" d="M606.14 305.82h10.74v10.74h-10.74z"/><path class="cls-7" d="m614.31 312.17-5.61-1.96m1.55 3.23-1.56-3.22 3.23-1.57"/><path class="cls-8" d="m603.15 308.28-13.81-4.81m12.86 7.52-13.8-4.81m15.69-.61-10.82-3.77"/><path class="cls-9" d="M567.12 299.14h0a3 3 0 0 0 2.88 1.26l3.23-.42 6.31 4.28 2.28-.2-4.22-4.64 4.13-.53 1.42 2.3 1.25-.11-.22-2.51-.17-1.84-16.11.87a1 1 0 0 0-.78 1.54Z"/><path class="cls-6" transform="rotate(-160.8 598.687 285.475)" d="M570.21 277.52h56.98v15.87h-56.98z"/><path class="cls-5" transform="rotate(-160.8 618.099 292.237)" d="M612.74 286.85h10.74v10.74h-10.74z"/><path class="cls-7" d="m615.3 291.24 5.62 1.96m-3.22 1.56 3.22-1.56-1.55-3.23"/><path class="cls-8" d="m609.75 289.31-13.8-4.81m12.86 7.52L595 287.21m15.7-.61-10.83-3.77"/><path class="cls-9" d="M577.87 273.19h0a3 3 0 0 0 1.12 2.9l2.58 2 1.43 7.49 1.76 1.47.29-6.27 3.3 2.55-.62 2.63 1 .81 1.61-1.93 1.19-1.42-12-10.78a1 1 0 0 0-1.66.55Z"/><path class="cls-5" transform="rotate(-160.8 796.689 368.424)" d="M794.36 346.24h4.68v44.31h-4.68z"/><path class="cls-5" transform="rotate(-160.8 764.16 357.093)" d="M761.84 334.91h4.68v44.31h-4.68z"/><path class="cls-6" transform="rotate(-160.8 778.29 368.23)" d="M749.82 360.27h56.98v15.87h-56.98z"/><path class="cls-5" transform="rotate(-160.8 797.702 374.995)" d="M792.35 369.6h10.74v10.74h-10.74z"/><path class="cls-7" d="m800.53 375.95-5.62-1.96m1.55 3.23-1.55-3.22 3.22-1.57"/><path class="cls-8" d="m789.36 372.06-13.81-4.81m12.87 7.52-13.81-4.81m15.69-.62-10.82-3.77"/><path class="cls-9" d="M753.34 362.91h0a3 3 0 0 0 2.84 1.26l3.23-.41 6.32 4.28 2.27-.21-4.22-4.64 4.13-.53 1.43 2.3 1.25-.11-.23-2.5-.16-1.84-16.11.87a1 1 0 0 0-.75 1.53Z"/><path class="cls-6" transform="rotate(-160.8 784.899 349.255)" d="M756.43 341.3h56.98v15.87h-56.98z"/><path class="cls-5" transform="rotate(-160.8 804.311 356.021)" d="M798.96 350.62h10.74v10.74h-10.74z"/><path class="cls-7" d="m801.52 355.01 5.62 1.96m-3.23 1.56 3.22-1.55-1.55-3.24"/><path class="cls-8" d="m795.97 353.08-13.81-4.81m12.87 7.52-13.81-4.81m15.69-.61-10.82-3.77"/><path class="cls-9" d="M764.08 337h0a3 3 0 0 0 1.12 2.9l2.58 2 1.44 7.5 1.75 1.46.3-6.26 3.29 2.54-.62 2.63 1 .81 1.61-1.93 1.18-1.42-12-10.78a1 1 0 0 0-1.65.55Z"/><path class="cls-5" transform="rotate(-160.8 1008.015 442.429)" d="M1005.7 420.24h4.68v44.31h-4.68z"/><path class="cls-5" transform="rotate(-160.8 975.487 431.097)" d="M973.17 408.91h4.68v44.31h-4.68z"/><path class="cls-6" transform="rotate(-160.8 989.616 442.233)" d="M961.15 434.27h56.98v15.87h-56.98z"/><path class="cls-5" transform="rotate(-160.8 1009.028 448.995)" d="M1003.68 443.59h10.74v10.74h-10.74z"/><path class="cls-7" d="m1011.86 449.94-5.62-1.96m1.56 3.23-1.56-3.22 3.23-1.57"/><path class="cls-8" d="m1000.69 446.05-13.8-4.81m12.86 7.52-13.81-4.81m15.7-.61-10.83-3.77"/><path class="cls-9" d="M964.67 436.91h0a3 3 0 0 0 2.84 1.26l3.24-.42 6.31 4.28 2.27-.2-4.21-4.64 4.12-.53 1.43 2.3 1.25-.11-.23-2.5-.16-1.85-16.11.87a1 1 0 0 0-.75 1.54Z"/><path class="cls-6" transform="rotate(-160.8 996.23 423.258)" d="M967.76 415.29h56.98v15.87h-56.98z"/><path class="cls-5" transform="matrix(-.94 -.33 .33 -.94 1833.36 1170.13)" d="M1010.29 424.62h10.74v10.74h-10.74z"/><path class="cls-7" d="m1012.85 429.01 5.62 1.96m-3.22 1.56 3.22-1.56-1.56-3.23"/><path class="cls-8" d="m1007.3 427.08-13.8-4.81m12.86 7.52-13.81-4.81m15.7-.61-10.83-3.77"/><path class="cls-9" d="M975.41 411h0a3 3 0 0 0 1.12 2.9l2.58 2 1.44 7.49 1.75 1.47.3-6.27 3.3 2.55-.63 2.63 1 .81 1.61-1.93 1.19-1.42L977 410.4a1 1 0 0 0-1.59.6Z"/><circle class="cls-10" cx="664.64" cy="353.08" r="41.37"/><path class="cls-1" d="m689.7 353.39-43.24-12.07a1.29 1.29 0 0 0-1.58.89l-.22.79a1.28 1.28 0 0 0 .89 1.58l.8.23a1.27 1.27 0 0 1 .88 1.57l-4.77 17.13a1.28 1.28 0 0 0 .88 1.58l36.72 10.24a1.28 1.28 0 0 0 1.58-.89l4.78-17.12a1.28 1.28 0 0 1 1.58-.89l.79.22a1.27 1.27 0 0 0 1.58-.89l.22-.79a1.28 1.28 0 0 0-.89-1.58Zm-15.7 1.37a4.94 4.94 0 0 1-1.87 1.87l-2.39 1.37a1.38 1.38 0 0 0-.69 1.26l.41 8.17a.49.49 0 0 1-.93.22l-3.12-7.12a.07.07 0 0 0-.1 0 6.27 6.27 0 0 1-1.92 1l-2.25.38a.53.53 0 0 0-.44.47l-.29 2.6a.51.51 0 0 1-.25.38.5.5 0 0 1-.71-.28l-.91-2.64-1.78-2.14a.49.49 0 0 1 .13-.76.51.51 0 0 1 .45 0l2.37 1.1a.54.54 0 0 0 .63-.14l.22-.26a12.27 12.27 0 0 1 3.11-2.59v-.11l-4.47-6.35a.48.48 0 0 1 .15-.7.49.49 0 0 1 .51 0l6.78 4.58a1.38 1.38 0 0 0 1.44.06l2.36-1.34a4.9 4.9 0 0 1 2.57-.63 1.12 1.12 0 0 1 .94 1.67Zm-12.71-14.58-.2.71a1 1 0 0 0 .66 1.18l14.49 4a.94.94 0 0 0 1.17-.66l.2-.72a8.46 8.46 0 0 0-3.21-9.14.38.38 0 0 1 .08-.65 4.22 4.22 0 0 0 2-2 .69.69 0 0 0-.48-.9l-6.78-1.89a.68.68 0 0 0-.86.57 4.18 4.18 0 0 0 .65 2.77.37.37 0 0 1-.27.59 8.47 8.47 0 0 0-7.45 6.14Zm16.14-9.58a.43.43 0 0 0 .55-.42l-.06-3.83a1 1 0 0 0-.89-1l-6.83-1a1 1 0 0 0-1.2.65l-.72 2.57a.43.43 0 0 0 .31.53Z"/><circle class="cls-10" cx="885.06" cy="426.42" r="40.34"/><path class="cls-1" d="M909.51 426.72 867.34 415a1.24 1.24 0 0 0-1.54.86l-.22.78a1.24 1.24 0 0 0 .87 1.54l.78.22a1.24 1.24 0 0 1 .86 1.54l-4.66 16.7a1.26 1.26 0 0 0 .87 1.54l35.8 10a1.25 1.25 0 0 0 1.54-.87l4.66-16.7a1.26 1.26 0 0 1 1.54-.87l.78.22a1.24 1.24 0 0 0 1.54-.87l.22-.77a1.25 1.25 0 0 0-.87-1.6Zm-15.34 1.33a4.78 4.78 0 0 1-1.82 1.83l-2.31 1.3a1.3 1.3 0 0 0-.67 1.22l.39 8a.47.47 0 0 1-.9.21l-3.05-6.94a.06.06 0 0 0-.09 0 6.18 6.18 0 0 1-1.87 1l-2.2.37a.53.53 0 0 0-.43.46l-.28 2.53a.45.45 0 0 1-.24.37.49.49 0 0 1-.7-.27l-.88-2.57-1.74-2.09a.48.48 0 0 1 .57-.75l2.31 1.07a.52.52 0 0 0 .61-.13l.22-.26a12.26 12.26 0 0 1 3-2.53v-.1l-4.36-6.2a.47.47 0 0 1 .65-.66l6.61 4.47a1.33 1.33 0 0 0 1.4 0l2.31-1.3a4.73 4.73 0 0 1 2.5-.61 1.08 1.08 0 0 1 .91 1.62Zm-12.37-14.22-.2.7a.93.93 0 0 0 .65 1.15l14.13 3.94a.92.92 0 0 0 1.14-.65l.2-.69a8.27 8.27 0 0 0-3.13-8.92.36.36 0 0 1 .07-.63 4.13 4.13 0 0 0 1.94-2 .67.67 0 0 0-.43-.91l-6.61-1.82a.66.66 0 0 0-.84.55 4.19 4.19 0 0 0 .63 2.71.36.36 0 0 1-.26.57 8.25 8.25 0 0 0-7.29 6Zm15.74-9.33a.43.43 0 0 0 .54-.42l-.06-3.73a1 1 0 0 0-.87-1l-6.66-1a1 1 0 0 0-1.14.74l-.7 2.5a.43.43 0 0 0 .29.52Z"/><circle class="cls-10" cx="868.71" cy="764.58" r="51.78"/><path class="cls-1" d="M854.22 732.63a15.76 15.76 0 0 0-2.86 31.37 15.51 15.51 0 0 0 6.78-.86l-6.84-10.1c-.95 1.79-2.2 3.44-3.3 2.52-1.92-1.61 2.89-5.66 3.81-6.4l18.13 26.71a.88.88 0 0 0-.07.23l-1.31 14.39c-5.51.52-15.88 2-16.25 6.16a1.3 1.3 0 0 0 1.18 1.42l31.12 2.84a1.3 1.3 0 0 0 1.41-1.18 1.18 1.18 0 0 0-.05-.37c-.22-4-9.7-7.17-14.86-8.63l1.31-14.39a1.06 1.06 0 0 0 0-.25L895.23 753a1.31 1.31 0 0 0 .29-1.37 1.27 1.27 0 0 0-1.11-.83l-25.9-2.37a15.67 15.67 0 0 0-14.29-15.8Zm-1.58 7.87c2.26 0 1.35 4.51.84 6.57h-.49a1.27 1.27 0 0 0-.92.2l-.09.08c-.56-2.01-1.65-6.81.66-6.85Zm6.76 4.78a1.31 1.31 0 0 1 1.19.85 1.21 1.21 0 0 1-.59 1.54l-5.35-.49c1.35-.88 3.35-2.02 4.75-1.9Zm-13 .17c1.67.1 4.11 1.56 5.23 2.28a1.26 1.26 0 0 0 0 1.31c-1.32 0-7.75-.18-6.87-2.67a1.44 1.44 0 0 1 1.67-.92Zm9 4.42 36 3.28-3.56 3.6-29.58-2.7Z"/><path class="cls-11" d="M963.16 671.47a.9.9 0 0 1-1.16.53.9.9 0 0 0-1.18.51l-2 5.08a.91.91 0 0 0 .51 1.18.9.9 0 0 1 .52 1.17.92.92 0 0 1-1.18.52 2.74 2.74 0 0 1-1.55-3.54l2-5.07a2.74 2.74 0 0 1 3.54-1.55.9.9 0 0 1 .5 1.17Z"/><rect class="cls-12" x="965.35" y="664.68" width="24.34" height="34.6" rx="2.81" transform="rotate(-68.59 977.48 681.984)"/><circle class="cls-11" cx="993.13" cy="695.21" r="2.06"/><circle class="cls-11" cx="997.96" cy="682.89" r="2.06"/><rect class="cls-11" x="973.09" y="675.16" width="3.7" height="26.79" rx="1.85" transform="rotate(-68.59 974.91 688.556)"/><rect class="cls-11" x="975.66" y="668.61" width="3.7" height="26.79" rx="1.85" transform="rotate(-68.59 977.466 682.006)"/><rect class="cls-11" x="978.23" y="662.06" width="3.7" height="26.79" rx="1.85" transform="rotate(-68.59 980.045 675.452)"/><rect class="cls-12" x="984.9" y="648.73" width="28.95" height="19.36" rx="2.03" transform="rotate(-68.59 999.342 658.42)"/><path class="cls-11" d="m988 648.86-3.47 8.85a1 1 0 0 0 .58 1.31l3.13 1.23.69-1.76-2.32-.9 2.83-7.23 2.32.9.69-1.75-3.13-1.23a1 1 0 0 0-1.32.58Z"/><path class="cls-13" transform="rotate(-68.59 995.907 667.172)" d="M994.47 657.49h2.94v19.36h-2.94z"/><rect class="cls-11" x="994.36" y="664.29" width="3.89" height="6.05" rx="1.08" transform="rotate(-68.3 1001.57 666.3)"/><path class="cls-14" d="m995.19 666.87-3.33-1.3"/><path class="cls-13" transform="rotate(-68.59 1002.775 649.654)" d="M1001.34 639.98h2.94v19.36h-2.94z"/><rect class="cls-11" x="1001.22" y="646.78" width="3.89" height="6.05" rx="1.08" transform="rotate(-68.59 1003.135 649.803)"/><path class="cls-14" d="m1002.05 649.36-3.33-1.31"/><rect x="974.75" y="671.65" width="66.51" height="10.04" rx="5.02" transform="rotate(-68.59 1007.97 676.667)" style="fill:#1d71b8;stroke-width:1px;stroke:#000;stroke-linecap:round;stroke-linejoin:round"/><circle class="cls-16" cx="997.7" cy="702.97" r="2.38"/><circle class="cls-16" cx="1018.34" cy="650.33" r="2.38"/><circle class="cls-16" cx="1014.9" cy="659.1" r="2.38"/><circle class="cls-16" cx="1011.46" cy="667.88" r="2.38"/><circle class="cls-16" cx="1008.02" cy="676.65" r="2.38"/><circle class="cls-16" cx="1004.58" cy="685.42" r="2.38"/><circle class="cls-16" cx="1001.14" cy="694.19" r="2.38"/><circle class="cls-10" cx="555.58" cy="687.94" r="27.37"/><path id="_2" data-name="2" class="cls-17" d="M597.22 668.36 537.47 647a4.31 4.31 0 0 0-5.52 2.62l-27.14 76a4.33 4.33 0 0 0 2.62 5.53l59.75 21.32a4.33 4.33 0 0 0 5.53-2.62l27.13-76a4.32 4.32 0 0 0-2.62-5.49Zm-48.77 42.29a23.07 23.07 0 1 1 29.48-14 23 23 0 0 1-29.48 14Zm-3.49-17 7.85 2.8 2.52-7.06-8.44-3a51.24 51.24 0 0 0-1.89 7.28Zm-8.69-1.51a20.28 20.28 0 0 0 6.93 12.22 30.45 30.45 0 0 1 .08-9.72Zm11.11-7.14 8.46 3 2.51-7.06-7.86-2.8a52 52 0 0 0-3.11 6.86Zm-1.91.9-8.55-3a20.19 20.19 0 0 0-.82 7.67l7.45 2.65a52.85 52.85 0 0 1 1.92-7.33Zm10.4-17.15a20.27 20.27 0 0 0-13.07 5.06l7 2.51a31.27 31.27 0 0 1 6.07-7.58Zm-4.65 8.07 7.64 2.72 3.51-9.85a20.27 20.27 0 0 0-4.57-.88 30.22 30.22 0 0 0-6.58 8Zm-2.15.82-7.48-2.64a20 20 0 0 0-4.15 6.48l8.53 3a52.61 52.61 0 0 1 3.1-6.85Zm-4.33 27.92a19.75 19.75 0 0 0 4.06 2.18l3.51-9.85-7.61-2.71a30 30 0 0 0 .04 10.37ZM567.11 692l8.36 3a20.13 20.13 0 0 0 .86-7.65l-7.28-2.6a51 51 0 0 1-1.94 7.25Zm-10.39 17.11a20.26 20.26 0 0 0 12.85-5.1l-6.81-2.43a31.16 31.16 0 0 1-6.04 7.56Zm6.77-8.86 7.26 2.59a20.2 20.2 0 0 0 4.2-6.46l-8.35-3a50.52 50.52 0 0 1-3.11 6.9Zm5.94-26.64a31.36 31.36 0 0 1-.12 9.62l6.81 2.43a20.23 20.23 0 0 0-6.69-12.02Zm-15.71 24.75-3.5 9.82a20.58 20.58 0 0 0 4.54.88 29.92 29.92 0 0 0 6.57-8Zm14.17-26a20.28 20.28 0 0 0-4.1-2.24l-3.52 9.88 7.64 2.72a30.5 30.5 0 0 0-.02-10.29Zm-.26 11.83-7.86-2.81-2.52 7.06 8.45 3a50.79 50.79 0 0 0 1.93-7.18Zm-2.44 8.67-8.45-3-2.51 7.14 7.85 2.81a50.69 50.69 0 0 0 3.11-6.88Z"/><path id="_1" data-name="1" class="cls-10" d="M532.42 715.7a4.33 4.33 0 0 0-2.45-1.9l-5-1.79-4.19 11.72 2.44.87 1.5-4.22 2.44.88a4.83 4.83 0 0 0 3.25.19 3.9 3.9 0 0 0 2.08-2.57 3.75 3.75 0 0 0-.07-3.18Zm-3.34 3.5a2 2 0 0 1-1.46-.05l-2.21-.79 1.23-3.45 2.21.79a2.11 2.11 0 0 1 1.17.85 1.72 1.72 0 0 1 0 1.48 1.83 1.83 0 0 1-.94 1.17Zm8.82-2.57-8.37 10.24 2.56.91 1.66-2.13 4.32 1.54-.09 2.69 2.66 1v-13.21Zm-2.76 7.24 3.17-4.07-.17 5.14Zm15.45 3-1.89-1.22a7 7 0 0 1-1.38-1 1.06 1.06 0 0 1-.24-1.14 1.27 1.27 0 0 1 1-.86 2.9 2.9 0 0 1 1.68.17 3.38 3.38 0 0 1 1.36.82 1.78 1.78 0 0 1 .41 1.84l2.35.84a3.69 3.69 0 0 0-.37-3.35 5.51 5.51 0 0 0-2.85-2.12 5.22 5.22 0 0 0-3.78-.18 3.58 3.58 0 0 0-2.09 2.21 3 3 0 0 0 .28 3 8.35 8.35 0 0 0 2.25 1.81l1.17.74a5.54 5.54 0 0 1 1.43 1.13 1.07 1.07 0 0 1 .2 1.08 1.45 1.45 0 0 1-1.54 1 4.65 4.65 0 0 1-1.5-.32 2.73 2.73 0 0 1-1.83-1.47 2.45 2.45 0 0 1 0-1.36l-2.34-.83a3.65 3.65 0 0 0 .3 3.35 6.13 6.13 0 0 0 3.27 2.34 5.52 5.52 0 0 0 3.89.19 3.55 3.55 0 0 0 2.19-2.22 3 3 0 0 0-.19-2.77 5.6 5.6 0 0 0-1.78-1.7Zm12.59 5.46a5.54 5.54 0 0 0-1.73-1.58l-1.88-1.22a7.56 7.56 0 0 1-1.39-1 1.07 1.07 0 0 1-.23-1.14 1.27 1.27 0 0 1 1-.86 2.91 2.91 0 0 1 1.68.17 3.49 3.49 0 0 1 1.36.81 1.8 1.8 0 0 1 .41 1.85l2.35.84a3.69 3.69 0 0 0-.37-3.35 5.58 5.58 0 0 0-2.85-2.13 5.27 5.27 0 0 0-3.78-.17 3.56 3.56 0 0 0-2.09 2.2 3 3 0 0 0 .28 3 8.35 8.35 0 0 0 2.25 1.81l1.17.73a6 6 0 0 1 1.43 1.13 1.07 1.07 0 0 1 .19 1.09 1.43 1.43 0 0 1-1.53 1 4.7 4.7 0 0 1-1.51-.32 2.74 2.74 0 0 1-1.82-1.47 2.45 2.45 0 0 1 0-1.36l-2.34-.83a3.65 3.65 0 0 0 .3 3.35 6.05 6.05 0 0 0 3.27 2.34 5.58 5.58 0 0 0 3.89.19 3.55 3.55 0 0 0 2.19-2.22 3 3 0 0 0-.25-2.88Z"/><path class="cls-18" transform="rotate(19.48 702.624 791.718)" d="M675.55 790.24h54.13v2.96h-54.13z"/><path class="cls-19" transform="rotate(19.48 677.284 790.49)" d="M676.26 784.68h2.06v11.62h-2.06z"/><path class="cls-19" transform="rotate(19.48 723.099 806.705)" d="M722.05 800.88h2.06v11.62h-2.06z"/><path class="cls-20" d="m690.75 786.82-11.28-4a1.15 1.15 0 0 1-.61-1.68l1.15-2 12.62 4.47-.34 2.25a1.17 1.17 0 0 1-1.54.96Z"/><path class="cls-20" d="M684.24 768H693a2.32 2.32 0 0 1 2.32 2.32v11.44h0-13.4 0v-11.39a2.32 2.32 0 0 1 2.32-2.37Z" transform="rotate(19.48 688.617 774.93)"/><path class="cls-21" d="M680.15 775.51h.59a1.36 1.36 0 0 1 1.36 1.36v3.49h0-3.32 0v-3.49a1.36 1.36 0 0 1 1.37-1.36Z" transform="rotate(19.48 680.47 777.949)"/><path class="cls-21" d="M692.77 780h.59a1.36 1.36 0 0 1 1.36 1.36v3.49h0-3.32 0v-3.49a1.36 1.36 0 0 1 1.37-1.36Z" transform="rotate(19.3 699.59 791.646)"/><path class="cls-20" d="m708.5 793.1-11.28-4a1.16 1.16 0 0 1-.61-1.68l1.15-2 12.61 4.47-.33 2.25a1.17 1.17 0 0 1-1.54.96Z"/><path class="cls-20" d="M702 774.32h8.74a2.32 2.32 0 0 1 2.32 2.32v11.44h0-13.39 0v-11.44a2.32 2.32 0 0 1 2.32-2.32Z" transform="rotate(19.48 706.368 781.21)"/><path class="cls-21" d="M697.9 781.79h.59a1.36 1.36 0 0 1 1.36 1.36v3.49h0-3.32 0v-3.49a1.36 1.36 0 0 1 1.37-1.36Z" transform="rotate(19.48 698.22 784.228)"/><path class="cls-21" d="M710.52 786.25h.59a1.36 1.36 0 0 1 1.36 1.36v3.49h0-3.32 0v-3.49a1.36 1.36 0 0 1 1.37-1.36Z" transform="rotate(19.48 710.83 788.69)"/><path class="cls-20" d="m726.25 799.38-11.28-4a1.17 1.17 0 0 1-.61-1.69l1.15-2 12.61 4.46-.33 2.25a1.17 1.17 0 0 1-1.54.98Z"/><path class="cls-20" d="M719.74 780.6h8.74a2.32 2.32 0 0 1 2.32 2.32v11.44h0-13.38 0v-11.44a2.32 2.32 0 0 1 2.32-2.32Z" transform="rotate(19.48 724.119 787.489)"/><path class="cls-21" d="M715.65 788.07h.59a1.36 1.36 0 0 1 1.36 1.36v3.49h0-3.32 0v-3.49a1.36 1.36 0 0 1 1.37-1.36Z" transform="rotate(19.48 715.97 790.507)"/><path class="cls-21" d="M728.27 792.53h.59a1.36 1.36 0 0 1 1.36 1.36v3.49h0-3.32 0v-3.49a1.36 1.36 0 0 1 1.37-1.36Z" transform="rotate(19.3 735.457 804.381)"/><path class="cls-18" transform="rotate(19.48 336.034 664.196)" d="M308.97 662.72h54.13v2.96h-54.13z"/><path class="cls-19" transform="rotate(19.48 310.7 662.997)" d="M309.68 657.16h2.06v11.62h-2.06z"/><path class="cls-19" transform="rotate(19.48 356.51 679.184)" d="M355.47 673.36h2.06v11.62h-2.06z"/><path class="cls-20" d="m324.17 659.3-11.28-4a1.15 1.15 0 0 1-.61-1.68l1.15-2 12.57 4.51-.34 2.25a1.16 1.16 0 0 1-1.49.92Z"/><path class="cls-20" d="M317.66 640.52h8.74a2.32 2.32 0 0 1 2.32 2.32v11.44h0-13.38 0v-11.43a2.32 2.32 0 0 1 2.32-2.32Z" transform="rotate(19.48 322.027 647.409)"/><path class="cls-21" d="M313.57 648h.59a1.36 1.36 0 0 1 1.36 1.36v3.49h0-3.32 0v-3.49a1.36 1.36 0 0 1 1.37-1.36Z" transform="rotate(19.48 313.88 650.427)"/><path class="cls-21" d="M326.19 652.45h.59a1.36 1.36 0 0 1 1.36 1.36v3.49h0-3.32 0v-3.49a1.36 1.36 0 0 1 1.36-1.36Z" transform="rotate(19.48 326.49 654.89)"/><path class="cls-20" d="m341.92 665.58-11.28-4a1.15 1.15 0 0 1-.61-1.68l1.15-2 12.61 4.47-.34 2.25a1.16 1.16 0 0 1-1.53.96Z"/><path class="cls-20" d="M335.41 646.8h8.74a2.32 2.32 0 0 1 2.32 2.32v11.44h0-13.38 0v-11.43a2.32 2.32 0 0 1 2.32-2.32Z" transform="rotate(19.48 339.778 653.688)"/><path class="cls-21" d="M331.32 654.27h.59a1.36 1.36 0 0 1 1.36 1.36v3.49h0H330h0v-3.49a1.36 1.36 0 0 1 1.32-1.36Z" transform="rotate(19.48 331.63 656.706)"/><path class="cls-21" d="M343.94 658.73h.59a1.36 1.36 0 0 1 1.36 1.36v3.49h0-3.32 0v-3.48a1.36 1.36 0 0 1 1.37-1.37Z" transform="rotate(19.48 344.24 661.168)"/><path class="cls-20" d="m359.67 671.86-11.28-4a1.17 1.17 0 0 1-.62-1.68l1.16-2 12.61 4.46-.34 2.26a1.16 1.16 0 0 1-1.53.96Z"/><path class="cls-20" d="M353.16 653.08h8.74a2.32 2.32 0 0 1 2.32 2.32v11.44h0-13.38 0V655.4a2.32 2.32 0 0 1 2.32-2.32Z" transform="rotate(19.48 357.529 659.967)"/><path class="cls-21" d="M349.07 660.55h.59a1.36 1.36 0 0 1 1.36 1.36v3.49h0-3.32 0v-3.49a1.36 1.36 0 0 1 1.36-1.36Z" transform="rotate(19.48 349.38 662.985)"/><path class="cls-21" d="M361.69 665h.59a1.36 1.36 0 0 1 1.36 1.36v3.49h0-3.32 0v-3.49a1.36 1.36 0 0 1 1.36-1.36Z" transform="rotate(19.48 361.991 667.447)"/><circle class="cls-10" cx="1103.6" cy="111.84" r="70.73"/><path d="M1138.84 102.73c-5.63 15.7-15.7 19.84-30 14.71l-10.62-3.81-13.22 36.92-11.44-4.11 29.46-82 22.06 7.92c14.27 5.08 19.4 14.64 13.76 30.37Zm-11.29-4c3.2-8.93 2.57-15.29-5.44-18.16l-10.62-3.82-10.31 28.72 10.62 3.81c8.01 2.82 12.55-1.68 15.75-10.6Z" style="fill:#1860a4"/><path class="cls-23" d="M105.9 708.78a2.38 2.38 0 0 1 1.27 3.12l-1.84 4.38a2.39 2.39 0 0 1-3.12 1.27 2.37 2.37 0 0 1-1.27-3.11l1.84-4.39a2.39 2.39 0 0 1 3.12-1.27Zm35.1 14.76a2.39 2.39 0 0 0-3.12 1.27l-1.88 4.38a2.38 2.38 0 0 0 1.27 3.12 2.39 2.39 0 0 0 3.12-1.27l1.84-4.39a2.37 2.37 0 0 0-1.23-3.11Z"/><rect class="cls-23" x="85.56" y="712.75" width="9.52" height="4.76" rx="2.38" transform="rotate(-67.19 90.329 715.137)"/><path class="cls-23" d="M149.19 734.73a2.39 2.39 0 0 0-3.12 1.27l-1.84 4.39a2.37 2.37 0 0 0 1.27 3.11 2.37 2.37 0 0 0 3.11-1.27l1.85-4.39a2.37 2.37 0 0 0-1.27-3.11Z"/><path class="cls-17" d="M130.12 718.71a1.18 1.18 0 0 1 2.06-.23l22.67 32a1.18 1.18 0 0 1 .13 1.15l-3.36 8a1.18 1.18 0 0 1-1.94.37l-25.35-25.65a1.17 1.17 0 0 1-.25-1.29ZM117 713.17a1.19 1.19 0 0 0-1.29-1.63l-38.73 6.19a1.17 1.17 0 0 0-.91.71l-3.36 8a1.19 1.19 0 0 0 1.09 1.66l36.06.17a1.18 1.18 0 0 0 1.1-.73Zm-9.45 34.64a1.18 1.18 0 0 0-1.23-1.64L90.07 748a1.21 1.21 0 0 0-1 .73l-2.8 6.66A1.19 1.19 0 0 0 87.4 757h15.49a1.18 1.18 0 0 0 1.09-.73Zm4.39 1.84a1.19 1.19 0 0 1 2-.27l10.06 12.9a1.19 1.19 0 0 1 .15 1.19l-2.8 6.66a1.19 1.19 0 0 1-1.94.38l-10.83-11.07a1.19 1.19 0 0 1-.25-1.3Z"/><path class="cls-24" d="M118.68 704a15 15 0 0 1 13.06-9.73 1.87 1.87 0 0 1 1.54.65 15 15 0 0 1 2.17 16.14l-17 35.93a47.28 47.28 0 0 1-5.55 9l-10.76 13.74a1.19 1.19 0 0 1-2.11-.89l2.29-17.3a47.71 47.71 0 0 1 2.55-10.26Z"/><path class="cls-25" d="m100.76 770.11 31.82-75.68a1.76 1.76 0 0 1 .7.51 15 15 0 0 1 2.17 16.14l-17 35.93a47.28 47.28 0 0 1-5.55 9l-10.76 13.74a1.16 1.16 0 0 1-1.38.36Z"/><path class="cls-17" d="m106.48 751 1.73-1.05a1.18 1.18 0 0 1 1.77.75l.47 2a1.3 1.3 0 0 1-.06.73l-7.31 17.38a1.21 1.21 0 0 1-.49.56l-1.73 1a1.19 1.19 0 0 1-1.77-.74l-.46-2a1.18 1.18 0 0 1 .06-.74L106 751.5a1.17 1.17 0 0 1 .48-.5Z"/><path class="cls-26" d="M123 699.86c1.42-.78 5-2.44 7.8-1.25s4.14 4.9 4.57 6.45a2.15 2.15 0 0 1-.11 1.37L134 709.5a.25.25 0 0 1-.47 0c-.65-2.09-2.19-5.48-4.54-6.47s-5.86.28-7.8 1.28a.26.26 0 0 1-.35-.32l1.29-3.06a2.13 2.13 0 0 1 .87-1.07Z"/><path class="cls-23" d="M260 764.44a2.39 2.39 0 0 1 1.27 3.12l-1.89 4.44a2.39 2.39 0 0 1-3.12 1.27 2.39 2.39 0 0 1-1.26-3.17l1.85-4.38a2.38 2.38 0 0 1 3.15-1.28Zm35 14.76a2.37 2.37 0 0 0-3.11 1.27l-1.85 4.39a2.37 2.37 0 0 0 1.27 3.11 2.38 2.38 0 0 0 3.12-1.27l1.84-4.38a2.39 2.39 0 0 0-1.27-3.12Z"/><rect class="cls-23" x="239.62" y="768.42" width="9.52" height="4.76" rx="2.38" transform="rotate(-67.19 244.382 770.801)"/><path class="cls-23" d="M303.24 790.39a2.39 2.39 0 0 0-3.12 1.27l-1.84 4.39a2.39 2.39 0 0 0 1.27 3.12 2.38 2.38 0 0 0 3.12-1.28l1.84-4.38a2.39 2.39 0 0 0-1.27-3.12Z"/><path class="cls-17" d="M284.17 774.37a1.18 1.18 0 0 1 2.06-.22l22.67 32a1.19 1.19 0 0 1 .13 1.15l-3.36 8a1.19 1.19 0 0 1-1.94.38L278.38 790a1.2 1.2 0 0 1-.25-1.3ZM271 768.84a1.19 1.19 0 0 0-1.29-1.64L231 773.39a1.2 1.2 0 0 0-.91.72l-3.36 8a1.19 1.19 0 0 0 1.09 1.65l36.06.18a1.19 1.19 0 0 0 1.1-.73Zm-9.4 34.64a1.19 1.19 0 0 0-1.23-1.65l-16.25 1.83a1.17 1.17 0 0 0-1 .72l-2.77 6.62a1.19 1.19 0 0 0 1.1 1.65h15.49A1.16 1.16 0 0 0 258 812Zm4.4 1.84a1.18 1.18 0 0 1 2-.27L278.09 818a1.19 1.19 0 0 1 .15 1.19l-2.8 6.66a1.18 1.18 0 0 1-1.94.37l-10.83-11.12a1.17 1.17 0 0 1-.25-1.29Z"/><path class="cls-24" d="M272.73 759.69a15 15 0 0 1 13.06-9.69 1.93 1.93 0 0 1 1.54.65 15 15 0 0 1 2.17 16.14l-17 35.93a47.67 47.67 0 0 1-5.55 9l-10.75 13.69a1.19 1.19 0 0 1-2.11-.89l2.29-17.29a47.79 47.79 0 0 1 2.55-10.23Z"/><path class="cls-25" d="m254.81 825.77 31.82-75.67a1.84 1.84 0 0 1 .7.5 15 15 0 0 1 2.17 16.14l-17 35.93a47.67 47.67 0 0 1-5.55 9l-10.75 13.74a1.14 1.14 0 0 1-1.39.36Z"/><path class="cls-17" d="m260.53 806.61 1.73-1a1.19 1.19 0 0 1 1.77.74l.47 2a1.29 1.29 0 0 1-.06.73l-7.31 17.38a1.2 1.2 0 0 1-.48.56l-1.74 1a1.19 1.19 0 0 1-1.77-.75l-.46-2a1.15 1.15 0 0 1 .06-.73l7.31-17.38a1.19 1.19 0 0 1 .48-.55Z"/><path class="cls-26" d="M277.07 755.53c1.42-.78 5-2.45 7.8-1.25s4.14 4.89 4.57 6.45a2.16 2.16 0 0 1-.11 1.37l-1.33 3.06a.25.25 0 0 1-.47 0c-.65-2.08-2.19-5.48-4.54-6.47s-5.86.29-7.8 1.28a.25.25 0 0 1-.35-.31l1.29-3.06a2.08 2.08 0 0 1 .94-1.07Z"/><path class="cls-23" d="M420.3 824.42a2.37 2.37 0 0 1 1.27 3.11l-1.85 4.39a2.37 2.37 0 0 1-3.11 1.27 2.39 2.39 0 0 1-1.27-3.12l1.84-4.38a2.39 2.39 0 0 1 3.12-1.27Zm35.09 14.75a2.39 2.39 0 0 0-3.12 1.27l-1.84 4.39a2.39 2.39 0 0 0 1.27 3.17 2.37 2.37 0 0 0 3.11-1.27l1.85-4.39a2.39 2.39 0 0 0-1.27-3.17Z"/><rect class="cls-23" x="399.96" y="828.39" width="9.52" height="4.76" rx="2.38" transform="rotate(-67.19 404.728 830.775)"/><path class="cls-23" d="M463.59 850.36a2.39 2.39 0 0 0-3.12 1.28l-1.84 4.36a2.39 2.39 0 0 0 1.27 3.12 2.37 2.37 0 0 0 3.11-1.27l1.85-4.39a2.39 2.39 0 0 0-1.27-3.1Z"/><path class="cls-17" d="M444.51 834.34a1.19 1.19 0 0 1 2.07-.22l22.67 32a1.19 1.19 0 0 1 .13 1.15l-3.36 8a1.19 1.19 0 0 1-1.94.37L438.73 850a1.18 1.18 0 0 1-.25-1.3Zm-13.15-5.53a1.2 1.2 0 0 0-1.29-1.64l-38.74 6.19a1.22 1.22 0 0 0-.91.72l-3.35 8a1.19 1.19 0 0 0 1.09 1.65l36.06.18a1.2 1.2 0 0 0 1.1-.73ZM422 863.45a1.2 1.2 0 0 0-1.23-1.65l-16.25 1.83a1.22 1.22 0 0 0-1 .72L400.7 871a1.19 1.19 0 0 0 1.1 1.65h15.48a1.19 1.19 0 0 0 1.1-.72Zm4.34 1.84a1.18 1.18 0 0 1 2-.27l10.06 12.9a1.17 1.17 0 0 1 .16 1.19l-2.8 6.66a1.19 1.19 0 0 1-2 .37L423 875.07a1.18 1.18 0 0 1-.24-1.29Z"/><path class="cls-24" d="M433.08 819.66a15 15 0 0 1 13.05-9.74 1.91 1.91 0 0 1 1.54.65 15 15 0 0 1 2.18 16.14l-17 35.94a47.44 47.44 0 0 1-5.56 9l-10.75 13.73a1.19 1.19 0 0 1-2.11-.89l2.29-17.29a47.21 47.21 0 0 1 2.55-10.27Z"/><path class="cls-25" d="M415.15 885.74 447 810.07a1.88 1.88 0 0 1 .69.5 15 15 0 0 1 2.18 16.14l-17 35.94a47.44 47.44 0 0 1-5.56 9l-10.75 13.73a1.15 1.15 0 0 1-1.41.36Z"/><path class="cls-17" d="m420.88 866.58 1.73-1a1.19 1.19 0 0 1 1.77.74l.46 2a1.18 1.18 0 0 1-.06.74l-7.31 17.38a1.12 1.12 0 0 1-.48.55l-1.73 1.01a1.18 1.18 0 0 1-1.77-.75l-.46-2a1.15 1.15 0 0 1 .06-.73l7.31-17.38a1.14 1.14 0 0 1 .48-.56Z"/><path class="cls-26" d="M437.42 815.5c1.41-.78 5-2.44 7.8-1.25s4.13 4.89 4.56 6.45a2 2 0 0 1-.11 1.37l-1.28 3.06a.25.25 0 0 1-.47 0c-.65-2.08-2.19-5.48-4.54-6.46s-5.86.28-7.8 1.27a.25.25 0 0 1-.35-.31l1.29-3.06a2.08 2.08 0 0 1 .9-1.07Z"/><path class="cls-23" d="M594.8 899a2.39 2.39 0 0 1 1.28 3.12l-1.85 4.38a2.37 2.37 0 0 1-3.11 1.27 2.38 2.38 0 0 1-1.28-3.11l1.85-4.39a2.37 2.37 0 0 1 3.11-1.27Zm35.09 14.8a2.37 2.37 0 0 0-3.11 1.27l-1.85 4.38a2.39 2.39 0 0 0 1.28 3.12 2.37 2.37 0 0 0 3.11-1.27l1.85-4.39a2.38 2.38 0 0 0-1.28-3.11Z"/><rect class="cls-23" x="574.47" y="903.02" width="9.52" height="4.76" rx="2.38" transform="rotate(-67.19 579.234 905.395)"/><path class="cls-23" d="M638.09 925a2.37 2.37 0 0 0-3.11 1.27l-1.85 4.39a2.37 2.37 0 0 0 1.27 3.11 2.38 2.38 0 0 0 3.12-1.27l1.84-4.39a2.37 2.37 0 0 0-1.27-3.11Z"/><path class="cls-17" d="M619 909a1.19 1.19 0 0 1 2.07-.23l22.67 32a1.18 1.18 0 0 1 .12 1.15l-3.35 8a1.19 1.19 0 0 1-1.95.37l-25.34-25.64a1.19 1.19 0 0 1-.25-1.3Zm-13.14-5.57a1.18 1.18 0 0 0-1.28-1.63l-38.74 6.2a1.17 1.17 0 0 0-.91.71l-3.36 8a1.2 1.2 0 0 0 1.09 1.65l36.06.17a1.19 1.19 0 0 0 1.11-.73Zm-9.4 34.64a1.19 1.19 0 0 0-1.23-1.64L579 938.26a1.16 1.16 0 0 0-1 .72l-2.8 6.66a1.19 1.19 0 0 0 1.09 1.65h15.49a1.2 1.2 0 0 0 1.1-.73Zm4.38 1.85a1.2 1.2 0 0 1 2-.28l10.06 12.9a1.17 1.17 0 0 1 .16 1.19l-2.8 6.67a1.2 1.2 0 0 1-1.95.37l-10.79-11.07a1.22 1.22 0 0 1-.25-1.3Z"/><path class="cls-24" d="M607.59 894.29a15 15 0 0 1 13-9.74 1.85 1.85 0 0 1 1.54.65 14.94 14.94 0 0 1 2.17 16.14l-17 35.93a47.32 47.32 0 0 1-5.56 9L591.06 960a1.19 1.19 0 0 1-2.12-.89l2.3-17.29a47.63 47.63 0 0 1 2.54-10.27Z"/><path class="cls-25" d="m589.66 960.37 31.83-75.68a1.8 1.8 0 0 1 .69.51 14.94 14.94 0 0 1 2.17 16.14l-17 35.93a47.32 47.32 0 0 1-5.56 9L591.06 960a1.18 1.18 0 0 1-1.4.37Z"/><path class="cls-17" d="m595.38 941.21 1.74-1.05a1.19 1.19 0 0 1 1.77.75l.46 2a1.15 1.15 0 0 1-.06.73L592 961a1.25 1.25 0 0 1-.48.56l-1.73 1a1.19 1.19 0 0 1-1.77-.74l-.47-2a1.21 1.21 0 0 1 .06-.73l7.31-17.38a1.2 1.2 0 0 1 .46-.5Z"/><path class="cls-26" d="M611.93 890.12c1.41-.78 5-2.44 7.8-1.25s4.13 4.9 4.56 6.45a2.05 2.05 0 0 1-.11 1.38l-1.28 3.06a.25.25 0 0 1-.47 0c-.65-2.09-2.2-5.48-4.55-6.47s-5.85.28-7.8 1.28a.25.25 0 0 1-.34-.32l1.28-3.06a2.15 2.15 0 0 1 .91-1.07Z"/><path class="cls-23" d="M765.89 941.81a2.39 2.39 0 0 1 1.27 3.12l-1.85 4.38a2.37 2.37 0 0 1-3.11 1.27 2.37 2.37 0 0 1-1.27-3.11l1.84-4.39a2.38 2.38 0 0 1 3.12-1.27ZM801 956.57a2.38 2.38 0 0 0-3.12 1.27l-1.88 4.39a2.37 2.37 0 0 0 1.27 3.11 2.37 2.37 0 0 0 3.11-1.27l1.85-4.39a2.37 2.37 0 0 0-1.23-3.11Z"/><rect class="cls-23" x="745.55" y="945.79" width="9.52" height="4.76" rx="2.38" transform="rotate(-67.19 750.314 948.166)"/><path class="cls-23" d="M809.17 967.76a2.37 2.37 0 0 0-3.11 1.27l-1.85 4.39a2.37 2.37 0 0 0 1.27 3.11 2.38 2.38 0 0 0 3.12-1.27l1.84-4.39a2.37 2.37 0 0 0-1.27-3.11Z"/><path class="cls-17" d="M790.1 951.74a1.19 1.19 0 0 1 2.07-.23l22.67 32a1.18 1.18 0 0 1 .12 1.15l-3.35 8a1.19 1.19 0 0 1-2 .37l-25.34-25.64a1.19 1.19 0 0 1-.25-1.3Zm-13.16-5.54a1.18 1.18 0 0 0-1.28-1.63l-38.74 6.19a1.19 1.19 0 0 0-.91.71l-3.36 8a1.2 1.2 0 0 0 1.1 1.65l36.06.17a1.17 1.17 0 0 0 1.1-.73Zm-9.4 34.64a1.19 1.19 0 0 0-1.23-1.64l-16.26 1.8a1.18 1.18 0 0 0-1 .72l-2.8 6.66a1.19 1.19 0 0 0 1.1 1.65h15.48a1.2 1.2 0 0 0 1.1-.73Zm4.38 1.85a1.2 1.2 0 0 1 2-.28l10.08 12.9a1.17 1.17 0 0 1 .16 1.19l-2.8 6.67a1.2 1.2 0 0 1-2 .37l-10.76-11.07a1.22 1.22 0 0 1-.25-1.3Z"/><path class="cls-24" d="M778.67 937.06a15 15 0 0 1 13.05-9.74 1.85 1.85 0 0 1 1.54.65 14.94 14.94 0 0 1 2.17 16.14l-17 35.93a47.32 47.32 0 0 1-5.56 9l-10.75 13.74a1.19 1.19 0 0 1-2.12-.89l2.3-17.29a47.63 47.63 0 0 1 2.54-10.27Z"/><path class="cls-25" d="m760.74 1003.14 31.83-75.68a1.8 1.8 0 0 1 .69.51 14.94 14.94 0 0 1 2.17 16.14l-17 35.93a47.32 47.32 0 0 1-5.56 9l-10.75 13.74a1.18 1.18 0 0 1-1.38.36Z"/><path class="cls-17" d="m766.47 984 1.73-1.05a1.19 1.19 0 0 1 1.77.75l.46 2a1.15 1.15 0 0 1-.06.73l-7.31 17.38a1.19 1.19 0 0 1-.48.56l-1.73 1a1.19 1.19 0 0 1-1.77-.74l-.47-2a1.29 1.29 0 0 1 .06-.73l7.33-17.36a1.16 1.16 0 0 1 .47-.54Z"/><path class="cls-26" d="M783 932.9c1.41-.79 5-2.45 7.8-1.26s4.13 4.9 4.56 6.45a2.05 2.05 0 0 1-.11 1.38l-1.25 3.06a.25.25 0 0 1-.47 0c-.65-2.09-2.19-5.48-4.55-6.47s-5.85.28-7.79 1.28a.25.25 0 0 1-.35-.32l1.28-3.06a2.13 2.13 0 0 1 .88-1.06Z"/><path class="cls-23" d="M1077.61 904.51a2.82 2.82 0 0 1 3.89-.81l4.7 3.06a2.82 2.82 0 0 1 .81 3.89 2.79 2.79 0 0 1-3.88.81l-4.7-3.06a2.82 2.82 0 0 1-.82-3.89Zm24.54-37.59a2.81 2.81 0 0 0 .81 3.88l4.7 3.07a2.82 2.82 0 0 0 3.89-.82 2.81 2.81 0 0 0-.82-3.88l-4.7-3.07a2.8 2.8 0 0 0-3.88.82Z"/><rect class="cls-23" x="1078.89" y="918.32" width="5.61" height="11.22" rx="2.81" transform="rotate(-56.87 1081.789 923.952)"/><path class="cls-23" d="M1116.86 859.77a2.81 2.81 0 0 0 .82 3.88l4.7 3.07a2.81 2.81 0 0 0 3.88-.82 2.8 2.8 0 0 0-.81-3.88l-4.7-3.07a2.81 2.81 0 0 0-3.89.82Z"/><path class="cls-17" d="M1094.25 878.51a1.39 1.39 0 0 1 .17-2.44l41.94-19.54a1.4 1.4 0 0 1 1.36.09l8.55 5.58a1.41 1.41 0 0 1 0 2.34l-35.11 24a1.41 1.41 0 0 1-1.56 0Zm-9.2 14.1a1.4 1.4 0 0 0-2.17 1.15l-1 46.25a1.42 1.42 0 0 0 .63 1.21l8.56 5.58a1.4 1.4 0 0 0 2.14-.92l7.82-41.8a1.38 1.38 0 0 0-.61-1.43Zm38.2 18.23a1.4 1.4 0 0 0-2.17 1.08l-1.31 19.25a1.43 1.43 0 0 0 .63 1.27l7.14 4.65a1.4 1.4 0 0 0 2.15-.92l3.27-18a1.39 1.39 0 0 0-.62-1.42Zm3.07-4.7a1.4 1.4 0 0 1 .11-2.42l17.09-9a1.42 1.42 0 0 1 1.42.07l7.13 4.66a1.4 1.4 0 0 1 0 2.33L1137 912.06a1.41 1.41 0 0 1-1.55 0Z"/><path class="cls-24" d="M1074.8 888.68a17.65 17.65 0 0 1-8.54-17.2 2.19 2.19 0 0 1 1.07-1.65 17.65 17.65 0 0 1 19.19.88l38.1 27.3a55.77 55.77 0 0 1 9.28 8.35l13.66 15.38a1.4 1.4 0 0 1-1.48 2.26l-19.58-6.31a56.39 56.39 0 0 1-11.37-5.12Z"/><path class="cls-25" d="m1147.69 923.44-81.09-52.92a2.1 2.1 0 0 1 .73-.69 17.65 17.65 0 0 1 19.19.88l38.1 27.3a55.77 55.77 0 0 1 9.28 8.35l13.66 15.38a1.39 1.39 0 0 1 .13 1.7Z"/><path class="cls-17" d="m1126.66 912.75-.85-2.23a1.41 1.41 0 0 1 1.24-1.9l2.39-.12a1.35 1.35 0 0 1 .83.22l18.63 12.16a1.37 1.37 0 0 1 .54.67l.85 2.23a1.4 1.4 0 0 1-1.24 1.9l-2.38.12a1.38 1.38 0 0 1-.84-.22l-18.62-12.16a1.39 1.39 0 0 1-.55-.67Z"/><path class="cls-26" d="M1070.89 882.76c-.61-1.8-1.79-6.27.19-9.31s6.55-3.76 8.45-3.93a2.51 2.51 0 0 1 1.57.41l3.28 2.14a.3.3 0 0 1-.14.54c-2.55.31-6.82 1.39-8.46 3.91s-.91 6.85-.16 9.31a.3.3 0 0 1-.44.34l-3.28-2.17a2.39 2.39 0 0 1-1.01-1.24Z"/><path class="cls-23" d="M1154.52 705.05a2.8 2.8 0 0 1 3.88-.81l4.7 3.06a2.81 2.81 0 0 1 .81 3.89 2.8 2.8 0 0 1-3.88.81l-4.7-3.06a2.81 2.81 0 0 1-.81-3.89Zm24.53-37.59a2.8 2.8 0 0 0 .82 3.88l4.7 3.07a2.81 2.81 0 0 0 3.88-.82 2.8 2.8 0 0 0-.82-3.88l-4.7-3.07a2.8 2.8 0 0 0-3.88.82Z"/><rect class="cls-23" x="1155.79" y="718.86" width="5.61" height="11.22" rx="2.81" transform="rotate(-56.87 1158.695 724.477)"/><path class="cls-23" d="M1193.77 660.31a2.8 2.8 0 0 0 .81 3.88l4.7 3.07a2.81 2.81 0 0 0 3.88-.82 2.79 2.79 0 0 0-.81-3.88l-4.7-3.07a2.8 2.8 0 0 0-3.88.82Z"/><path class="cls-17" d="M1171.15 679.05a1.41 1.41 0 0 1 .17-2.45l41.94-19.54a1.43 1.43 0 0 1 1.36.1l8.55 5.58a1.41 1.41 0 0 1 0 2.34l-35.12 24a1.41 1.41 0 0 1-1.56 0Zm-9.15 14.1a1.4 1.4 0 0 0-2.17 1.15l-1 46.25a1.42 1.42 0 0 0 .64 1.21l8.55 5.58a1.41 1.41 0 0 0 2.15-.92l7.82-41.8a1.42 1.42 0 0 0-.62-1.44Zm38.15 18.23a1.4 1.4 0 0 0-2.17 1.08l-1.31 19.24a1.42 1.42 0 0 0 .64 1.28l7.13 4.65a1.4 1.4 0 0 0 2.15-.92l3.27-18a1.41 1.41 0 0 0-.61-1.43Zm3.07-4.7a1.4 1.4 0 0 1 .11-2.42l17.09-9a1.39 1.39 0 0 1 1.42.07L1229 700a1.4 1.4 0 0 1 0 2.33l-15.14 10.23a1.39 1.39 0 0 1-1.55 0Z"/><path class="cls-24" d="M1151.7 689.22a17.65 17.65 0 0 1-8.54-17.2 2.22 2.22 0 0 1 1.08-1.66 17.66 17.66 0 0 1 19.18.89l38.11 27.3a56.11 56.11 0 0 1 9.27 8.35l13.66 15.38a1.4 1.4 0 0 1-1.48 2.26l-19.58-6.31a56.39 56.39 0 0 1-11.37-5.12Z"/><path class="cls-25" d="m1224.59 724-81.09-52.91a2.36 2.36 0 0 1 .74-.7 17.66 17.66 0 0 1 19.18.89l38.11 27.3a56.11 56.11 0 0 1 9.27 8.35l13.66 15.38a1.35 1.35 0 0 1 .13 1.69Z"/><path class="cls-17" d="m1203.56 713.29-.84-2.23a1.4 1.4 0 0 1 1.24-1.9l2.38-.12a1.4 1.4 0 0 1 .84.22l18.62 12.15a1.39 1.39 0 0 1 .54.68l.85 2.23a1.4 1.4 0 0 1-1.24 1.9l-2.38.12a1.32 1.32 0 0 1-.84-.23L1204.11 714a1.44 1.44 0 0 1-.55-.71Z"/><path class="cls-26" d="M1147.79 683.3c-.61-1.8-1.79-6.27.19-9.31s6.55-3.77 8.45-3.93a2.5 2.5 0 0 1 1.57.41l3.28 2.14a.3.3 0 0 1-.13.54c-2.56.31-6.82 1.39-8.47 3.9s-.91 6.86-.16 9.32a.3.3 0 0 1-.44.34l-3.28-2.14a2.39 2.39 0 0 1-1.01-1.27Z"/></g></svg>