<svg width="35" height="35" viewBox="0 0 35 35" fill="none" xmlns="http://www.w3.org/2000/svg">
<path d="M11.9583 19.4592C12.4935 19.4592 12.9424 19.2779 13.3051 18.9152C13.6678 18.5525 13.8485 18.1042 13.8472 17.5703C13.846 17.0364 13.6646 16.5881 13.3032 16.2254C12.9418 15.8627 12.4935 15.6814 11.9583 15.6814C11.4231 15.6814 10.9748 15.8627 10.6134 16.2254C10.252 16.5881 10.0707 17.0364 10.0694 17.5703C10.0682 18.1042 10.2495 18.5532 10.6134 18.9171C10.9774 19.281 11.4257 19.4617 11.9583 19.4592ZM23.2917 19.4592C23.8268 19.4592 24.2758 19.2779 24.6384 18.9152C25.0011 18.5525 25.1818 18.1042 25.1805 17.5703C25.1793 17.0364 24.998 16.5881 24.6366 16.2254C24.2751 15.8627 23.8268 15.6814 23.2917 15.6814C22.7565 15.6814 22.3082 15.8627 21.9468 16.2254C21.5854 16.5881 21.404 17.0364 21.4028 17.5703C21.4015 18.1042 21.5828 18.5532 21.9468 18.9171C22.3107 19.281 22.759 19.4617 23.2917 19.4592ZM2.51389 34.5703C1.9787 34.5703 1.53041 34.389 1.169 34.0263C0.807593 33.6636 0.626259 33.2153 0.625 32.6814C0.625 32.1777 0.853555 31.8238 1.31067 31.6198C1.76778 31.4158 2.16885 31.1401 2.51389 30.7925V4.34809C2.51389 3.3092 2.88411 2.42016 3.62455 1.68098C4.365 0.941794 5.25404 0.571572 6.29167 0.570312H16.6806V30.7925H18.5694V0.570312H28.9583C29.9972 0.570312 30.8869 0.940535 31.6273 1.68098C32.3678 2.42142 32.7374 3.31046 32.7361 4.34809V30.7925C33.2713 30.7925 33.7202 30.9738 34.0829 31.3365C34.4455 31.6992 34.6263 32.1475 34.625 32.6814C34.6237 33.2153 34.4424 33.6642 34.081 34.0282C33.7196 34.3921 33.2713 34.5728 32.7361 34.5703H2.51389Z" fill="white"/>
</svg>
