<svg width="35" height="35" viewBox="0 0 35 35" fill="none" xmlns="http://www.w3.org/2000/svg">
<path fill-rule="evenodd" clip-rule="evenodd" d="M0.700195 16.2953C1.0227 12.0194 2.95372 8.02291 6.10631 5.10677C9.25889 2.19063 13.4001 0.570242 17.7002 0.570313C16.2852 0.570313 15.0237 1.18911 13.9838 2.13601C12.9524 3.07781 12.0813 4.39361 11.3755 5.94741C10.6663 7.51141 10.114 9.34061 9.74061 11.3245C9.43627 12.9657 9.25507 14.6272 9.19849 16.2953H0.700195ZM0.700195 18.8453H9.19849C9.25986 20.5487 9.44227 22.2249 9.74061 23.8161C10.1157 25.8 10.6663 27.6292 11.3755 29.1932C12.0813 30.747 12.9524 32.0628 13.9838 33.0046C15.0237 33.9515 16.2852 34.5703 17.7002 34.5703C8.71604 34.5703 1.35312 27.6394 0.700195 18.8453Z" fill="white"/>
<path d="M17.7002 2.51318C17.2159 2.51318 16.5907 2.71791 15.8634 3.37934C15.1308 4.04602 14.3964 5.09066 13.7483 6.51326C13.1038 7.92711 12.5807 9.63317 12.2215 11.5405C11.9397 13.0418 11.7636 14.6341 11.7002 16.258H23.7002C23.6428 14.6749 23.4686 13.0982 23.1789 11.5405C22.8197 9.63317 22.2984 7.92711 21.6521 6.51326C21.004 5.09066 20.2714 4.04602 19.5388 3.38109C18.8097 2.71791 18.1845 2.51318 17.7002 2.51318ZM12.2215 23.6002C12.5807 25.5075 13.1038 27.2135 13.7483 28.6274C14.3964 30.05 15.1308 31.0946 15.8616 31.7596C16.5907 32.4227 17.2177 32.6275 17.7002 32.6275C18.1845 32.6275 18.8097 32.4227 19.537 31.7613C20.2714 31.0946 21.004 30.05 21.6521 28.6274C22.2966 27.2135 22.8197 25.5075 23.1789 23.6002C23.4625 22.0988 23.6386 20.5065 23.7002 18.8827H11.7002C11.7618 20.5065 11.9379 22.0988 12.2215 23.6002Z" fill="white"/>
<path d="M17.7002 0.570313C19.1169 0.570313 20.3767 1.18911 21.4166 2.13601C22.448 3.07781 23.3208 4.39361 24.0249 5.94741C24.7358 7.51141 25.2864 9.34061 25.6598 11.3245C25.9581 12.9157 26.1405 14.5919 26.2019 16.2953H34.7002C34.3781 12.0192 32.4472 8.02254 29.2945 5.10632C26.1418 2.1901 22.0004 0.569844 17.7002 0.570313ZM25.6598 23.8161C25.2864 25.8 24.7358 27.6292 24.0249 29.1932C23.3208 30.747 22.448 32.0628 21.4166 33.0046C20.3767 33.9515 19.1169 34.5703 17.7002 34.5703C26.6844 34.5703 34.0473 27.6394 34.7002 18.8453H26.2019C26.1453 20.5134 25.9641 22.1749 25.6598 23.8161Z" fill="white"/>
</svg>
