<svg width="29" height="35" viewBox="0 0 29 35" fill="none" xmlns="http://www.w3.org/2000/svg">
<path d="M20.675 34.5703L16.125 26.6129H10.875C10.3792 26.6129 9.96383 26.4392 9.629 26.092C9.29417 25.7448 9.12617 25.3156 9.125 24.8044C9.12383 24.2931 9.29183 23.8639 9.629 23.5167C9.96617 23.1695 10.3815 22.9958 10.875 22.9958H16.125L20.675 15.0384H22.6L20.325 22.9958H25.3125L26.625 21.1873H28.375L27.325 24.8044L28.375 28.4214H26.625L25.3125 26.6129H20.325L22.6 34.5703H20.675ZM6.15 20.1022L8.425 12.1448H3.4375L2.125 13.9533H0.375L1.425 10.3363L0.375 6.71925H2.125L3.4375 8.52776H8.425L6.15 0.570312H8.075L12.625 8.52776H17.875C18.3708 8.52776 18.7868 8.70138 19.1228 9.04861C19.4587 9.39584 19.6262 9.82506 19.625 10.3363C19.6238 10.8475 19.4558 11.2773 19.121 11.6257C18.7862 11.9742 18.3708 12.1472 17.875 12.1448H12.625L8.075 20.1022H6.15Z" fill="white"/>
</svg>
