<svg width="35" height="35" viewBox="0 0 35 35" fill="none" xmlns="http://www.w3.org/2000/svg">
<path d="M21.5707 34.0703V31.1138C24.4533 31.1138 26.8988 30.11 28.9073 28.1026C30.9157 26.0951 31.9195 23.6496 31.9185 20.766H34.875C34.875 22.6138 34.5242 24.3448 33.8225 25.9591C33.1208 27.5734 32.1722 28.9777 30.9768 30.1721C29.7814 31.3666 28.3771 32.3151 26.7638 33.0178C25.1505 33.7205 23.4195 34.0713 21.5707 34.0703ZM21.5707 28.1573V25.2007C22.8025 25.2007 23.8496 24.7696 24.712 23.9073C25.5743 23.0449 26.0054 21.9978 26.0054 20.766H28.962C28.962 22.8109 28.2411 24.5543 26.7993 25.996C25.3575 27.4378 23.6146 28.1583 21.5707 28.1573ZM9.07935 33.1464C8.70978 33.1464 8.34022 33.0725 7.97065 32.9247C7.60109 32.7768 7.26848 32.5674 6.97283 32.2964L1.725 27.0486C1.45399 26.7529 1.24457 26.4203 1.09674 26.0507C0.948913 25.6812 0.875 25.3116 0.875 24.942C0.875 24.5478 0.948913 24.1719 1.09674 23.8141C1.24457 23.4564 1.45399 23.1425 1.725 22.8725L6.41848 18.179C6.98515 17.6123 7.68732 17.3231 8.525 17.3113C9.36268 17.2994 10.0649 17.5764 10.6315 18.1421L12.4793 19.9899L13.5141 18.9551L11.6663 17.1073C11.0996 16.5406 10.8163 15.8507 10.8163 15.0377C10.8163 14.2247 11.0996 13.5348 11.6663 12.9681L13.7728 10.8616C14.3395 10.2949 15.0358 10.0116 15.8616 10.0116C16.6875 10.0116 17.3832 10.2949 17.9489 10.8616L19.7967 12.7094L20.8315 11.6747L18.9837 9.82683C18.417 9.26017 18.1337 8.5644 18.1337 7.73953C18.1337 6.91466 18.417 6.2184 18.9837 5.65075L23.6772 0.957269C23.9728 0.661617 24.3054 0.439878 24.675 0.292052C25.0446 0.144226 25.4141 0.0703125 25.7837 0.0703125C26.1533 0.0703125 26.5169 0.144226 26.8747 0.292052C27.2324 0.439878 27.5586 0.661617 27.8533 0.957269L33.1011 6.20509C33.3967 6.47611 33.6126 6.79049 33.7486 7.14823C33.8846 7.50596 33.9521 7.88144 33.9511 8.27466C33.9511 8.64423 33.8836 9.01379 33.7486 9.38336C33.6136 9.75292 33.3977 10.0855 33.1011 10.3812L28.4076 15.0747C27.8409 15.6413 27.1452 15.9247 26.3203 15.9247C25.4954 15.9247 24.7992 15.6413 24.2315 15.0747L22.3837 13.2268L21.3489 14.2616L23.1967 16.1094C23.7634 16.6761 24.0408 17.3724 24.029 18.1982C24.0172 19.0241 23.7274 19.7198 23.1598 20.2855L21.0902 22.3551C20.5236 22.9218 19.8278 23.2051 19.0029 23.2051C18.178 23.2051 17.4818 22.9218 16.9141 22.3551L15.0663 20.5073L14.0315 21.5421L15.8793 23.3899C16.446 23.9565 16.7234 24.6587 16.7116 25.4964C16.6998 26.3341 16.41 27.0363 15.8424 27.6029L11.1489 32.2964C10.8779 32.5674 10.5635 32.7768 10.2058 32.9247C9.84804 33.0725 9.47257 33.1464 9.07935 33.1464ZM9.07935 30.2268L10.6315 28.6747L5.3837 23.4268L3.83152 24.979L9.07935 30.2268ZM12.2207 27.0855L13.7728 25.5334L8.525 20.2855L6.97283 21.8377L12.2207 27.0855ZM26.338 12.9681L27.8902 11.416L22.6424 6.16814L21.0902 7.72031L26.338 12.9681ZM29.4793 9.82683L31.0315 8.27466L25.7837 3.02683L24.2315 4.57901L29.4793 9.82683Z" fill="white"/>
</svg>
