<svg width="29" height="30" viewBox="0 0 29 30" fill="none" xmlns="http://www.w3.org/2000/svg">
<path d="M14.5 18.4179L17.1583 20.006C17.4115 20.1671 17.6592 20.1615 17.9013 19.9894C18.1434 19.8172 18.2295 19.5811 18.1595 19.281L17.469 16.2774L19.8167 14.2405C20.0468 14.0333 20.1159 13.7861 20.0238 13.4989C19.9317 13.2117 19.7246 13.0561 19.4024 13.0321L16.3298 12.7905L15.1214 9.925C15.0063 9.64881 14.7992 9.51071 14.5 9.51071C14.2008 9.51071 13.9937 9.64881 13.8786 9.925L12.6702 12.7905L9.59762 13.0321C9.2754 13.0552 9.06825 13.2107 8.97619 13.4989C8.88413 13.7871 8.95317 14.0343 9.18333 14.2405L11.531 16.2774L10.8405 19.281C10.7714 19.5802 10.858 19.8163 11.1001 19.9894C11.3422 20.1625 11.5894 20.168 11.8417 20.006L14.5 18.4179ZM9.87381 26.0476H6.21429C5.45476 26.0476 4.80479 25.7774 4.26438 25.237C3.72397 24.6966 3.4533 24.0462 3.45238 23.2857V19.6262L0.794048 16.9333C0.540873 16.6571 0.345238 16.3524 0.207143 16.0191C0.0690476 15.6859 0 15.3462 0 15C0 14.6538 0.0690476 14.3146 0.207143 13.9822C0.345238 13.6499 0.540873 13.3447 0.794048 13.0667L3.45238 10.3738V6.71429C3.45238 5.95476 3.72305 5.30479 4.26438 4.76438C4.80571 4.22397 5.45568 3.9533 6.21429 3.95238H9.87381L12.5667 1.29405C12.8429 1.04087 13.148 0.845238 13.4822 0.707143C13.8164 0.569048 14.1557 0.5 14.5 0.5C14.8443 0.5 15.184 0.569048 15.5191 0.707143C15.8543 0.845238 16.159 1.04087 16.4333 1.29405L19.1262 3.95238H22.7857C23.5452 3.95238 24.1957 4.22305 24.737 4.76438C25.2783 5.30571 25.5485 5.95568 25.5476 6.71429V10.3738L28.206 13.0667C28.4591 13.3429 28.6548 13.648 28.7929 13.9822C28.931 14.3164 29 14.6557 29 15C29 15.3443 28.931 15.684 28.7929 16.0191C28.6548 16.3543 28.4591 16.659 28.206 16.9333L25.5476 19.6262V23.2857C25.5476 24.0452 25.2774 24.6957 24.737 25.237C24.1966 25.7783 23.5462 26.0485 22.7857 26.0476H19.1262L16.4333 28.706C16.1571 28.9591 15.8524 29.1548 15.5191 29.2929C15.1859 29.431 14.8462 29.5 14.5 29.5C14.1538 29.5 13.8146 29.431 13.4822 29.2929C13.1499 29.1548 12.8447 28.9591 12.5667 28.706L9.87381 26.0476Z" fill="white"/>
</svg>
