<svg width="30" height="28" viewBox="0 0 30 28" fill="none" xmlns="http://www.w3.org/2000/svg">
<path d="M15.1016 27.0502C14.6907 27.0502 14.3466 26.911 14.0692 26.6326C13.7917 26.3542 13.6525 26.0101 13.6516 25.6002C13.6506 25.1903 13.7898 24.8462 14.0692 24.5678C14.3485 24.2894 14.6927 24.1502 15.1016 24.1502H25.2516V13.8552C25.2516 11.0277 24.267 8.62939 22.2979 6.66029C20.3288 4.69119 17.93 3.70616 15.1016 3.70519C12.2731 3.70423 9.87479 4.68926 7.90666 6.66029C5.93853 8.63133 4.9535 11.0296 4.95156 13.8552V21.2502C4.95156 21.661 4.81236 22.0056 4.53396 22.284C4.25556 22.5624 3.91143 22.7012 3.50156 22.7002C2.70406 22.7002 2.0216 22.4165 1.45416 21.849C0.886729 21.2816 0.602529 20.5987 0.601562 19.8002V16.9002C0.601562 16.3927 0.728679 15.9156 0.982912 15.469C1.23715 15.0224 1.59336 14.6657 2.05156 14.3989L2.16031 12.4777C2.35365 10.8344 2.83118 9.31186 3.59291 7.91019C4.35465 6.50853 5.30923 5.28811 6.45666 4.24894C7.60409 3.20978 8.92069 2.40019 10.4065 1.82019C11.8922 1.2402 13.4573 0.950195 15.1016 0.950195C16.7459 0.950195 18.3046 1.2402 19.7778 1.82019C21.251 2.40019 22.5681 3.20398 23.7291 4.23154C24.89 5.25911 25.8446 6.47324 26.5928 7.87394C27.341 9.27464 27.8243 10.7971 28.0428 12.4414L28.1516 14.3264C28.6107 14.5439 28.9674 14.8702 29.2217 15.3052C29.4759 15.7402 29.6025 16.1994 29.6016 16.6827V20.0177C29.6016 20.501 29.4749 20.9602 29.2217 21.3952C28.9684 21.8302 28.6117 22.1564 28.1516 22.3739V24.1502C28.1516 24.9477 27.8678 25.6306 27.3004 26.199C26.733 26.7674 26.05 27.0512 25.2516 27.0502H15.1016ZM10.7516 16.9002C10.3407 16.9002 9.99659 16.761 9.71916 16.4826C9.44173 16.2042 9.30253 15.8601 9.30156 15.4502C9.30059 15.0403 9.43979 14.6962 9.71916 14.4178C9.99853 14.1394 10.3427 14.0002 10.7516 14.0002C11.1605 14.0002 11.5051 14.1394 11.7854 14.4178C12.0657 14.6962 12.2045 15.0403 12.2016 15.4502C12.1987 15.8601 12.0595 16.2047 11.784 16.484C11.5085 16.7634 11.1643 16.9021 10.7516 16.9002ZM19.4516 16.9002C19.0407 16.9002 18.6966 16.761 18.4192 16.4826C18.1417 16.2042 18.0025 15.8601 18.0016 15.4502C18.0006 15.0403 18.1398 14.6962 18.4192 14.4178C18.6985 14.1394 19.0427 14.0002 19.4516 14.0002C19.8605 14.0002 20.2051 14.1394 20.4854 14.4178C20.7657 14.6962 20.9045 15.0403 20.9016 15.4502C20.8987 15.8601 20.7595 16.2047 20.484 16.484C20.2085 16.7634 19.8643 16.9021 19.4516 16.9002ZM6.43781 14.6527C6.26864 12.091 7.04198 9.89186 8.75781 8.05519C10.4736 6.21853 12.6124 5.30019 15.1741 5.30019C17.3249 5.30019 19.2162 5.98266 20.8479 7.34759C22.4796 8.71253 23.4642 10.4593 23.8016 12.5879C21.6024 12.5628 19.5787 11.9702 17.7304 10.8102C15.8821 9.65019 14.4621 8.07936 13.4703 6.09769C13.0836 8.03103 12.2683 9.75314 11.0242 11.264C9.78006 12.7749 8.25128 13.9045 6.43781 14.6527Z" fill="white"/>
</svg>
