<svg width="26" height="30" viewBox="0 0 26 30" fill="none" xmlns="http://www.w3.org/2000/svg">
<path d="M10.7745 5.54348V0.5H13.2962V5.54348H10.7745ZM5.19511 7.34022L1.4125 3.55761L3.20924 1.76087L6.99185 5.54348L5.19511 7.34022ZM4.47011 23.1956H8.25272C8.60996 23.1956 8.90963 23.0746 9.15172 22.8325C9.3938 22.5904 9.51443 22.2912 9.51359 21.9348C9.51274 21.5784 9.3917 21.2791 9.15046 21.037C8.90921 20.795 8.60996 20.6739 8.25272 20.6739H4.47011V23.1956ZM15.8179 23.1956H19.6005V20.6739H15.8179C15.4607 20.6739 15.1614 20.795 14.9202 21.037C14.6789 21.2791 14.5579 21.5784 14.5571 21.9348C14.5562 22.2912 14.6773 22.5909 14.9202 22.8338C15.1631 23.0767 15.4624 23.1973 15.8179 23.1956ZM18.6864 14.6848L23.0679 10.3348L21.744 9.01087L18.6864 12.0054L17.4571 10.7761L16.1332 12.1315L18.6864 14.6848ZM19.6005 18.1522C17.8563 18.1522 16.3698 17.5373 15.1408 16.3075C13.9119 15.0778 13.297 13.5912 13.2962 11.8478C13.2954 10.1045 13.9102 8.6179 15.1408 7.38813C16.3715 6.15836 17.858 5.54348 19.6005 5.54348C21.3431 5.54348 22.83 6.15836 24.0615 7.38813C25.2929 8.6179 25.9074 10.1045 25.9049 11.8478C25.9024 13.5912 25.2875 15.0782 24.0602 16.3088C22.833 17.5394 21.3464 18.1539 19.6005 18.1522ZM1.94837 29.5C1.59112 29.5 1.29188 29.379 1.05063 29.1369C0.809384 28.8948 0.688341 28.5955 0.6875 28.2391V18.1522L3.33533 10.587C3.46141 10.2087 3.68753 9.90398 4.01367 9.67282C4.33982 9.44167 4.70211 9.32609 5.10054 9.32609H8.25272V6.80435H12.3821C11.8777 7.51884 11.4839 8.30184 11.2006 9.15335C10.9174 10.0049 10.7753 10.903 10.7745 11.8478H5.54185L3.68206 16.8913H12.3821C13.2226 18.0891 14.2734 19.0192 15.5342 19.6816C16.7951 20.344 18.1505 20.6748 19.6005 20.6739C20.273 20.6739 20.9194 20.6058 21.5398 20.4697C22.1601 20.3335 22.7746 20.1179 23.3831 19.8228V28.2391C23.3831 28.5964 23.2621 28.896 23.02 29.1381C22.7779 29.3802 22.4787 29.5008 22.1223 29.5H20.8614C20.5042 29.5 20.2049 29.379 19.9637 29.1369C19.7224 28.8948 19.6014 28.5955 19.6005 28.2391V26.9783H4.47011V28.2391C4.47011 28.5964 4.34906 28.896 4.10698 29.1381C3.86489 29.3802 3.56564 29.5008 3.20924 29.5H1.94837Z" fill="white"/>
</svg>
