<svg width="30" height="30" viewBox="0 0 30 30" fill="none" xmlns="http://www.w3.org/2000/svg">
<path d="M25.8673 5.33358C25.7019 4.85757 25.3924 4.44486 24.9817 4.15278C24.5711 3.86069 24.0797 3.70372 23.5757 3.70365H19.5413V0.476074H9.85852V3.70365H5.82404C4.76701 3.70365 3.86329 4.38144 3.53246 5.33358L0.175781 15.0002V27.9105C0.175781 28.7981 0.901986 29.5243 1.78957 29.5243H3.40336C3.83136 29.5243 4.24184 29.3543 4.54448 29.0516C4.84713 28.749 5.01715 28.3385 5.01715 27.9105V26.2967H24.3826V27.9105C24.3826 28.7981 25.1088 29.5243 25.9964 29.5243H27.6102C28.0382 29.5243 28.4487 29.3543 28.7513 29.0516C29.054 28.749 29.224 28.3385 29.224 27.9105V15.0002L25.8673 5.33358ZM5.82404 21.4553C4.4846 21.4553 3.40336 20.3741 3.40336 19.0347C3.40336 17.6952 4.4846 16.614 5.82404 16.614C7.16349 16.614 8.24473 17.6952 8.24473 19.0347C8.24473 20.3741 7.16349 21.4553 5.82404 21.4553ZM23.5757 21.4553C22.2363 21.4553 21.155 20.3741 21.155 19.0347C21.155 17.6952 22.2363 16.614 23.5757 16.614C24.9152 16.614 25.9964 17.6952 25.9964 19.0347C25.9964 20.3741 24.9152 21.4553 23.5757 21.4553ZM3.40336 13.3864L5.82404 6.12434H23.5757L25.9964 13.3864H3.40336Z" fill="white"/>
</svg>
